<?xml version="1.0" encoding="UTF-8"?><svg id="top" version="1.1" xmlns="http://www.w3.org/2000/svg" xmlns:xlink="http://www.w3.org/1999/xlink" xmlns:ev="http://www.w3.org/2001/xml-events" width="509.400pt" height="339.600pt" zoomAndPan="magnify" preserveAspectRatio="xMinYMin" onload="createPlot()" viewBox="0 0 509.400 339.600">
   <defs id="definitions">
   <filter id="Shadow" filterUnits="userSpaceOnUse">
    <feGaussianBlur in="SourceAlpha" stdDeviation="4" result="blur"/>
    <feOffset in="blur" dx="4" dy="4" result="offsetBlurredAlpha"/>
    <feMerge>
     <feMergeNode in="offsetBlurredAlpha"/>
     <feMergeNode in="SourceGraphic"/>
    </feMerge> 
   </filter>    
    <filter id="Correlation1" x="-20%" y="-20%" width="140%" height="140%" filterUnits="objectBoundingBox">
     <feGaussianBlur in="SourceGraphic" stdDeviation="7" result="blur"/>
     <feColorMatrix type="matrix" in="blur" values="0 0 0  5.00 -2.00&#10;               0 0 0 -2.50  2.50&#10;               0 0 0  0.00  0.00&#10;               0 0 0  2.50  0.00"/>
    </filter>    
    <filter id="Correlation2" x="-20%" y="-20%" width="140%" height="140%" filterUnits="objectBoundingBox">
     <feGaussianBlur in="SourceGraphic" stdDeviation="7" result="blur"/>
     <feGaussianBlur in="SourceAlpha" stdDeviation="7" result="opacity"/>
     <feColorMatrix type="matrix" in="blur" result="newcolor" values="0 0 0  5.00 -2.00&#10;               0 0 0 -2.50  2.50&#10;               0 0 0  0.00  0.00&#10;               0 0 0  2.50  0.00"/>
     <feSpecularLighting in="opacity" surfaceScale="5" specularConstant="1" specularExponent="20" lighting-color="white" result="specularOut">
      <feDistantLight azimuth="225" elevation="30"/>
     </feSpecularLighting>
     <feComposite in="newcolor" in2="specularOut" operator="arithmetic" k1="0" k2="1" k3="1" k4="0" result="litPaint"/>
    </filter>
    <pattern id="Sequence" patternUnits="userSpaceOnUse" x="0" y="0" width="5" height="5" viewBox="0 0 5 5">
    </pattern>    
    <pattern id="U_Sequence" patternUnits="userSpaceOnUse" x="0" y="0" width="5" height="5" viewBox="0 0 5 5">
     <line x1="-2.5" x2="5" y1="5" y2="-2.5" style="stroke-width:1.5;stroke:black"/>
     <line x1="0" x2="7.5" y1="7.5" y2="0" style="stroke-width:1.5;stroke:black"/>
    </pattern>    
    <pattern id="D_Sequence" patternUnits="userSpaceOnUse" x="0" y="0" width="5" height="5" viewBox="0 0 5 5">
     <line x1="-2.5" x2="7.5" y1="-2.5" y2="7.5" style="stroke-width:1;stroke:black"/>
     <line x1="-2.5" x2="7.5" y1="7.5" y2="-2.5" style="stroke-width:1;stroke:black"/>
    </pattern>    
    <pattern id="V_Sequence" patternUnits="userSpaceOnUse" x="0" y="0" width="5" height="5" viewBox="0 0 5 5">
     <ellipse cx="2.5" cy="2.5" rx="1.5" ry="0.7" style="fill:black"/>
    </pattern>    
    <pattern id="P_Sequence" patternUnits="userSpaceOnUse" x="0" y="0" width="5" height="5" viewBox="0 0 5 5">
     <circle cx="1.25" cy="3.75" r="1" style="fill:black"/>
     <circle cx="3.75" cy="1.25" r="1" style="fill:black"/>
    </pattern>
    <style type="text/css">
      rect.border { fill:none; stroke:black;stroke-width:1px }
      rect.fillblack { fill:black; stroke:black;stroke-width:1px }
      rect.structure { fill:none; stroke:none }
      rect.structtab { fill:none; stroke:none }
      rect.structclip { fill:white; stroke:none }
      rect.structborder { fill:none; stroke:black; stroke-width:0.5px }
      rect.range3 {fill:none;stroke:black;stroke-width:1px }
      rect.range2 {fill:none;stroke:black;stroke-width:1px }
      rect.range1 {fill:none;stroke:black;stroke-width:1px }
      rect.fillbackground { fill:#000099 }
      rect.fillmodel { fill:none;stroke:black;stroke-width:1px }
      rect.modeldist { fill:none;stroke:black;stroke-width:1px }
      rect.fill { }
      polygon.main { fill:black; stroke:black;stroke-width:0.2px }
      polygon.shadow { fill:none;stroke:black;stroke-width:0.2px }
      polygon.curve { fill:none;stroke:black;stroke-width:1px }
      polygon.normal { fill:none;stroke:black;stroke-width:1px }
      polygon.kdesigma { fill:lightgrey; stroke:grey;stroke-width:0px;fill-opacity:0.2 }
      polygon.modeldist { fill:url(#U_Sequence);stroke:black;stroke-width:1px }
      polyline.datacurve { fill:none; stroke:black;stroke-width:1px }
      polyline.range { fill:none; stroke:black; stroke-width:1px; stroke-linejoin:round }
      polyline.ensemble { fill:none; stroke:black; stroke-width:0.5px;stroke-opacity:0.2 }
      polyline.kdemean { fill:none; stroke:black; stroke-width:1px }
      path.model3 { fill:none;stroke:black;stroke-width:1px }
      path.model2 { fill:none;stroke:black;stroke-width:1px }
      path.model1 { fill:none;stroke:black;stroke-width:1px }
      g.curve { fill:none;stroke:black;stroke-width:1px }
      line.majorpip { stroke:black; stroke-width:1px }
      line.minorpip { stroke:black; stroke-width:0.5px }
      line.gridline { stroke:black; stroke-width:0.5px }
      line.majorpip2 { stroke:white; stroke-width:1px }
      line.minorpip2 { stroke:white; stroke-width:0.5px }
      line.gridline2 { stroke:white; stroke-width:0.5px }
      line.okline { stroke:black; stroke-width:1px }
      line.errorline { stroke:black; stroke-width:1px }
      line.range { stroke:black; stroke-width:1px }
      line.modelline { stroke:black; stroke-width:1px }
      line.constrshadow { stroke:none; stroke-width:2px }
      line.constrok { stroke:black; stroke-width:1px }
      line.constrerror { stroke:black; stroke-width:1px }
      line.curve { stroke:black;stroke-width:1px }
      text { fill:black; stroke:none; font-size:10pt; font-family:"Arial","Helvetica"; font-style:normal }
    </style>
   <clipPath id="clip1"><rect x="0" width="481.1" y="0" height="283"/></clipPath><clipPath id="clip2"><rect x="0" width="481.1" y="0" height="283"/></clipPath></defs>
    <g id="mainframe"><rect x="-50.94" width="611.28" y="-33.96" height="407.52" style="fill:white" stroke="none"/><g id="mainviewport" transform="translate(0 0)"><rect class="border" x="14.15" width="481.1" y="14.15" height="283"/><g id="tabarea" transform="translate(14.15 14.15)"/><g id="plotarea" transform="translate(14.15 14.15)"><g id="structarea" transform="translate(0 0)"><g clip-path="url(#clip1)"/></g><g clip-path="url(#clip2)"><g id="itemarea2" transform="translate(0 -4.2)"/><g id="itemarea3" transform="translate(0 16.01)"><polygon class="main" points="24.45,24.42&#10;24.45,24.42&#10;25.79,24.42&#10;27.14,24.41&#10;28.48,24.41&#10;29.83,24.41&#10;31.17,24.41&#10;32.51,24.41&#10;33.86,24.41&#10;35.2,24.41&#10;36.54,24.41&#10;37.89,24.41&#10;39.23,24.41&#10;40.58,24.41&#10;41.92,24.41&#10;43.26,24.41&#10;44.61,24.41&#10;45.95,24.41&#10;47.3,24.41&#10;48.64,24.41&#10;49.98,24.41&#10;51.33,24.41&#10;52.67,24.41&#10;54.02,24.41&#10;55.36,24.41&#10;56.7,24.41&#10;58.05,24.41&#10;59.39,24.41&#10;60.73,24.41&#10;62.08,24.41&#10;63.42,24.41&#10;64.77,24.41&#10;66.11,24.41&#10;67.45,24.41&#10;68.8,24.41&#10;70.14,24.41&#10;71.49,24.41&#10;72.83,24.41&#10;74.17,24.41&#10;75.52,24.41&#10;76.86,24.41&#10;78.2,24.41&#10;79.55,24.41&#10;80.89,24.41&#10;82.24,24.41&#10;83.58,24.41&#10;84.92,24.41&#10;86.27,24.41&#10;87.61,24.41&#10;88.96,24.41&#10;90.3,24.41&#10;91.64,24.41&#10;92.99,24.41&#10;94.33,24.41&#10;95.67,24.41&#10;97.02,24.41&#10;98.36,24.41&#10;99.71,24.41&#10;101.05,24.41&#10;102.39,24.41&#10;103.74,24.41&#10;105.08,24.4&#10;106.43,24.4&#10;107.77,24.4&#10;109.11,24.4&#10;110.46,24.4&#10;111.8,24.4&#10;113.14,24.4&#10;114.49,24.4&#10;115.83,24.4&#10;117.18,24.4&#10;118.52,24.4&#10;119.86,24.39&#10;121.21,24.4&#10;122.55,24.4&#10;123.9,24.4&#10;125.24,24.4&#10;126.58,24.4&#10;127.93,24.39&#10;129.27,24.38&#10;130.61,24.38&#10;131.96,24.37&#10;133.3,24.37&#10;134.65,24.37&#10;135.99,24.37&#10;137.33,24.37&#10;138.68,24.37&#10;140.02,24.37&#10;141.37,24.37&#10;142.71,24.37&#10;144.05,24.37&#10;145.4,24.37&#10;146.74,24.36&#10;148.08,24.34&#10;149.43,24.32&#10;150.77,24.32&#10;152.12,24.33&#10;153.46,24.34&#10;154.8,24.34&#10;156.15,24.32&#10;157.49,24.29&#10;158.84,24.25&#10;160.18,24.22&#10;161.52,24.21&#10;162.87,24.21&#10;164.21,24.2&#10;165.56,24.18&#10;166.9,24.15&#10;168.24,24.12&#10;169.59,24.11&#10;170.93,24.1&#10;172.27,24.12&#10;173.62,24.16&#10;174.96,24.19&#10;176.31,24.19&#10;177.65,24.17&#10;178.99,24.11&#10;180.34,24.04&#10;181.68,23.97&#10;183.03,23.92&#10;184.37,23.88&#10;185.71,23.8&#10;187.06,23.66&#10;188.4,23.46&#10;189.74,23.28&#10;191.09,23.22&#10;192.43,23.28&#10;193.78,23.39&#10;195.12,23.47&#10;196.46,23.53&#10;197.81,23.55&#10;199.15,23.56&#10;200.5,23.56&#10;201.84,23.53&#10;203.18,23.49&#10;204.53,23.38&#10;205.87,23.14&#10;207.21,22.92&#10;208.56,22.82&#10;209.9,22.64&#10;211.25,22.4&#10;212.59,21.78&#10;213.93,21.18&#10;215.28,20.8&#10;216.62,20.27&#10;217.97,19.87&#10;219.31,19.83&#10;220.65,19.45&#10;222,18.97&#10;223.34,18.73&#10;224.68,18.67&#10;226.03,18.55&#10;227.37,18.42&#10;228.72,18.33&#10;230.06,18.31&#10;231.4,18.31&#10;232.75,18.32&#10;234.09,18.32&#10;235.44,18.33&#10;236.78,18.39&#10;238.12,18.4&#10;239.47,18.32&#10;240.81,18.32&#10;242.15,18.31&#10;243.5,18.32&#10;244.84,18.37&#10;246.19,18.5&#10;247.53,18.67&#10;248.87,18.57&#10;250.22,18.37&#10;251.56,18.36&#10;252.91,18.42&#10;254.25,18.32&#10;255.59,18.32&#10;256.94,18.37&#10;258.28,18.39&#10;259.62,18.46&#10;260.97,18.48&#10;262.31,18.43&#10;263.66,18.41&#10;265,18.45&#10;266.34,18.55&#10;267.69,18.61&#10;269.03,18.55&#10;270.38,18.43&#10;271.72,18.38&#10;273.06,18.39&#10;274.41,18.42&#10;275.75,18.4&#10;277.09,18.36&#10;278.44,18.34&#10;279.78,18.35&#10;281.13,18.34&#10;282.47,18.32&#10;283.81,18.41&#10;285.16,18.56&#10;286.5,18.53&#10;287.85,18.46&#10;289.19,18.46&#10;290.53,18.56&#10;291.88,18.66&#10;293.22,18.66&#10;294.57,18.62&#10;295.91,18.58&#10;297.25,18.58&#10;298.6,18.61&#10;299.94,18.65&#10;301.28,18.71&#10;302.63,18.73&#10;303.97,18.74&#10;305.32,18.79&#10;306.66,18.87&#10;308,18.93&#10;309.35,18.92&#10;310.69,18.84&#10;312.04,18.75&#10;313.38,18.69&#10;314.72,18.69&#10;316.07,18.76&#10;317.41,18.92&#10;318.75,19.2&#10;320.1,19.68&#10;321.44,20.32&#10;322.79,21.04&#10;324.13,21.71&#10;325.47,22.21&#10;326.82,22.52&#10;328.16,22.68&#10;329.51,22.78&#10;330.85,22.88&#10;332.19,23.03&#10;333.54,23.26&#10;334.88,23.54&#10;336.22,23.77&#10;337.57,23.92&#10;338.91,24.01&#10;340.26,24.02&#10;341.6,23.98&#10;342.94,23.89&#10;344.29,23.76&#10;345.63,23.64&#10;346.98,23.59&#10;348.32,23.57&#10;349.66,23.57&#10;351.01,23.54&#10;352.35,23.46&#10;353.69,23.31&#10;355.04,23.14&#10;356.38,23.02&#10;357.73,23.03&#10;359.07,23.13&#10;360.41,23.24&#10;361.76,23.29&#10;363.1,23.22&#10;364.45,23.03&#10;365.79,23.02&#10;367.13,23.33&#10;368.48,23.53&#10;369.82,23.52&#10;371.16,23.44&#10;372.51,23.45&#10;373.85,23.65&#10;375.2,23.89&#10;376.54,24.05&#10;377.88,24.09&#10;379.23,24.06&#10;380.57,24.02&#10;381.92,24.07&#10;383.26,24.16&#10;384.6,24.22&#10;385.95,24.24&#10;387.29,24.25&#10;388.63,24.27&#10;389.98,24.29&#10;391.32,24.29&#10;392.67,24.28&#10;394.01,24.27&#10;395.35,24.26&#10;396.7,24.27&#10;398.04,24.28&#10;399.39,24.28&#10;400.73,24.29&#10;402.07,24.31&#10;403.42,24.33&#10;404.76,24.34&#10;406.11,24.35&#10;407.45,24.35&#10;408.79,24.34&#10;410.14,24.32&#10;411.48,24.31&#10;412.82,24.3&#10;414.17,24.33&#10;415.51,24.36&#10;416.86,24.38&#10;418.2,24.39&#10;419.54,24.4&#10;420.89,24.4&#10;422.23,24.4&#10;423.58,24.4&#10;424.92,24.4&#10;426.26,24.4&#10;427.61,24.39&#10;428.95,24.39&#10;430.29,24.4&#10;431.64,24.41&#10;432.98,24.41&#10;434.33,24.41&#10;435.67,24.41&#10;437.01,24.41&#10;438.36,24.41&#10;439.7,24.41&#10;441.05,24.41&#10;442.39,24.41&#10;443.73,24.41&#10;445.08,24.41&#10;446.42,24.41&#10;447.76,24.41&#10;449.11,24.41&#10;450.45,24.41&#10;451.8,24.41&#10;453.14,24.41&#10;454.48,24.41&#10;455.83,24.41&#10;457.17,24.41&#10;458.52,24.41&#10;459.86,24.41&#10;461.2,24.41&#10;462.55,24.41&#10;463.89,24.41&#10;465.23,24.41&#10;466.58,24.41&#10;467.92,24.41&#10;469.27,24.41&#10;470.61,24.41&#10;471.95,24.41&#10;473.3,24.41&#10;474.64,24.41&#10;475.99,24.41&#10;477.33,24.41&#10;478.67,24.41&#10;480.02,24.41&#10;481.36,24.41&#10;482.7,24.41&#10;484.05,24.41&#10;485.39,24.41&#10;486.74,24.41&#10;488.08,24.41&#10;489.42,24.41&#10;490.77,24.41&#10;492.11,24.41&#10;493.46,24.41&#10;494.8,24.41&#10;496.14,24.42&#10;497.49,24.42&#10;497.49,24.42"/><polyline class="range" points="223.34,25.64&#10;223.34,26.86&#10;304.11,26.86&#10;304.11,25.64"/><polyline class="range" points="312.17,25.64&#10;312.17,26.86&#10;315.8,26.86&#10;315.8,25.64"/><polyline class="range" points="187.86,28.08&#10;187.86,29.3&#10;197.67,29.3&#10;197.67,28.08"/><polyline class="range" points="201.17,28.08&#10;201.17,29.3&#10;334.88,29.3&#10;334.88,28.08"/><polyline class="range" points="350.87,28.08&#10;350.87,29.3&#10;373.18,29.3&#10;373.18,28.08"/></g><g id="itemarea4" transform="translate(0 36.23)"><polygon class="main" points="54.02,24.42&#10;54.02,24.42&#10;55.36,24.41&#10;56.7,24.41&#10;58.05,24.41&#10;59.39,24.41&#10;60.73,24.41&#10;62.08,24.41&#10;63.42,24.41&#10;64.77,24.41&#10;66.11,24.41&#10;67.45,24.41&#10;68.8,24.41&#10;70.14,24.41&#10;71.49,24.42&#10;72.83,24.42&#10;74.17,24.41&#10;75.52,24.41&#10;76.86,24.41&#10;78.2,24.41&#10;79.55,24.41&#10;80.89,24.41&#10;82.24,24.41&#10;83.58,24.41&#10;84.92,24.41&#10;86.27,24.41&#10;87.61,24.41&#10;88.96,24.41&#10;90.3,24.41&#10;91.64,24.41&#10;92.99,24.41&#10;94.33,24.41&#10;95.67,24.41&#10;97.02,24.41&#10;98.36,24.41&#10;99.71,24.41&#10;101.05,24.41&#10;102.39,24.41&#10;103.74,24.41&#10;105.08,24.41&#10;106.43,24.41&#10;107.77,24.41&#10;109.11,24.41&#10;110.46,24.41&#10;111.8,24.41&#10;113.14,24.41&#10;114.49,24.41&#10;115.83,24.41&#10;117.18,24.41&#10;118.52,24.41&#10;119.86,24.41&#10;121.21,24.41&#10;122.55,24.41&#10;123.9,24.41&#10;125.24,24.41&#10;126.58,24.41&#10;127.93,24.41&#10;129.27,24.41&#10;130.61,24.41&#10;131.96,24.41&#10;133.3,24.41&#10;134.65,24.41&#10;135.99,24.41&#10;137.33,24.41&#10;138.68,24.41&#10;140.02,24.41&#10;141.37,24.41&#10;142.71,24.41&#10;144.05,24.41&#10;145.4,24.41&#10;146.74,24.41&#10;148.08,24.4&#10;149.43,24.4&#10;150.77,24.4&#10;152.12,24.4&#10;153.46,24.41&#10;154.8,24.41&#10;156.15,24.4&#10;157.49,24.4&#10;158.84,24.39&#10;160.18,24.38&#10;161.52,24.38&#10;162.87,24.37&#10;164.21,24.37&#10;165.56,24.37&#10;166.9,24.36&#10;168.24,24.35&#10;169.59,24.34&#10;170.93,24.34&#10;172.27,24.35&#10;173.62,24.36&#10;174.96,24.37&#10;176.31,24.37&#10;177.65,24.36&#10;178.99,24.34&#10;180.34,24.32&#10;181.68,24.29&#10;183.03,24.27&#10;184.37,24.26&#10;185.71,24.22&#10;187.06,24.15&#10;188.4,24.04&#10;189.74,23.93&#10;191.09,23.9&#10;192.43,23.94&#10;193.78,24&#10;195.12,24.05&#10;196.46,24.08&#10;197.81,24.09&#10;199.15,24.1&#10;200.5,24.1&#10;201.84,24.09&#10;203.18,24.06&#10;204.53,24&#10;205.87,23.86&#10;207.21,23.71&#10;208.56,23.63&#10;209.9,23.51&#10;211.25,23.32&#10;212.59,22.79&#10;213.93,22.2&#10;215.28,21.8&#10;216.62,21.19&#10;217.97,20.71&#10;219.31,20.66&#10;220.65,20.17&#10;222,19.49&#10;223.34,19.13&#10;224.68,19.03&#10;226.03,18.83&#10;227.37,18.6&#10;228.72,18.41&#10;230.06,18.36&#10;231.4,18.33&#10;232.75,18.31&#10;234.09,18.31&#10;235.44,18.31&#10;236.78,18.35&#10;238.12,18.35&#10;239.47,18.31&#10;240.81,18.31&#10;242.15,18.32&#10;243.5,18.38&#10;244.84,18.51&#10;246.19,18.74&#10;247.53,19.03&#10;248.87,18.87&#10;250.22,18.5&#10;251.56,18.32&#10;252.91,18.37&#10;254.25,18.31&#10;255.59,18.38&#10;256.94,18.5&#10;258.28,18.56&#10;259.62,18.68&#10;260.97,18.72&#10;262.31,18.61&#10;263.66,18.57&#10;265,18.66&#10;266.34,18.83&#10;267.69,18.93&#10;269.03,18.82&#10;270.38,18.63&#10;271.72,18.52&#10;273.06,18.54&#10;274.41,18.6&#10;275.75,18.56&#10;277.09,18.47&#10;278.44,18.43&#10;279.78,18.44&#10;281.13,18.43&#10;282.47,18.34&#10;283.81,18.37&#10;285.16,18.5&#10;286.5,18.48&#10;287.85,18.4&#10;289.19,18.41&#10;290.53,18.5&#10;291.88,18.61&#10;293.22,18.61&#10;294.57,18.57&#10;295.91,18.53&#10;297.25,18.52&#10;298.6,18.56&#10;299.94,18.6&#10;301.28,18.67&#10;302.63,18.69&#10;303.97,18.7&#10;305.32,18.76&#10;306.66,18.85&#10;308,18.92&#10;309.35,18.91&#10;310.69,18.81&#10;312.04,18.71&#10;313.38,18.65&#10;314.72,18.65&#10;316.07,18.72&#10;317.41,18.91&#10;318.75,19.25&#10;320.1,19.83&#10;321.44,20.6&#10;322.79,21.44&#10;324.13,22.19&#10;325.47,22.72&#10;326.82,23.03&#10;328.16,23.19&#10;329.51,23.28&#10;330.85,23.37&#10;332.19,23.5&#10;333.54,23.7&#10;334.88,23.92&#10;336.22,24.09&#10;337.57,24.19&#10;338.91,24.24&#10;340.26,24.25&#10;341.6,24.22&#10;342.94,24.17&#10;344.29,24.08&#10;345.63,24&#10;346.98,23.96&#10;348.32,23.94&#10;349.66,23.95&#10;351.01,23.93&#10;352.35,23.86&#10;353.69,23.74&#10;355.04,23.6&#10;356.38,23.49&#10;357.73,23.5&#10;359.07,23.59&#10;360.41,23.68&#10;361.76,23.72&#10;363.1,23.66&#10;364.45,23.5&#10;365.79,23.5&#10;367.13,23.75&#10;368.48,23.91&#10;369.82,23.91&#10;371.16,23.84&#10;372.51,23.85&#10;373.85,24.01&#10;375.2,24.17&#10;376.54,24.26&#10;377.88,24.28&#10;379.23,24.27&#10;380.57,24.25&#10;381.92,24.28&#10;383.26,24.32&#10;384.6,24.35&#10;385.95,24.36&#10;387.29,24.36&#10;388.63,24.37&#10;389.98,24.38&#10;391.32,24.38&#10;392.67,24.38&#10;394.01,24.37&#10;395.35,24.37&#10;396.7,24.37&#10;398.04,24.37&#10;399.39,24.38&#10;400.73,24.38&#10;402.07,24.39&#10;403.42,24.39&#10;404.76,24.4&#10;406.11,24.4&#10;407.45,24.4&#10;408.79,24.4&#10;410.14,24.39&#10;411.48,24.39&#10;412.82,24.38&#10;414.17,24.39&#10;415.51,24.4&#10;416.86,24.41&#10;418.2,24.41&#10;419.54,24.41&#10;420.89,24.41&#10;422.23,24.41&#10;423.58,24.41&#10;424.92,24.41&#10;426.26,24.41&#10;427.61,24.41&#10;428.95,24.41&#10;430.29,24.41&#10;431.64,24.41&#10;432.98,24.41&#10;434.33,24.41&#10;435.67,24.41&#10;437.01,24.41&#10;438.36,24.41&#10;439.7,24.41&#10;441.05,24.41&#10;442.39,24.41&#10;443.73,24.41&#10;445.08,24.41&#10;446.42,24.41&#10;447.76,24.41&#10;449.11,24.41&#10;450.45,24.41&#10;451.8,24.41&#10;453.14,24.41&#10;454.48,24.41&#10;455.83,24.41&#10;457.17,24.41&#10;458.52,24.41&#10;459.86,24.41&#10;461.2,24.41&#10;462.55,24.41&#10;463.89,24.41&#10;465.23,24.41&#10;466.58,24.42&#10;466.58,24.42"/><polyline class="range" points="226.43,25.64&#10;226.43,26.86&#10;246.19,26.86&#10;246.19,25.64"/><polyline class="range" points="249.28,25.64&#10;249.28,26.86&#10;265.67,26.86&#10;265.67,25.64"/><polyline class="range" points="269.43,25.64&#10;269.43,26.86&#10;305.32,26.86&#10;305.32,25.64"/><polyline class="range" points="311.5,25.64&#10;311.5,26.86&#10;316.34,26.86&#10;316.34,25.64"/><polyline class="range" points="208.56,28.08&#10;208.56,29.3&#10;333,29.3&#10;333,28.08"/><polyline class="range" points="354.77,28.08&#10;354.77,29.3&#10;359.61,29.3&#10;359.61,28.08"/><polyline class="range" points="363.37,28.08&#10;363.37,29.3&#10;366.46,29.3&#10;366.46,28.08"/></g><g id="itemarea5" transform="translate(0 56.44)"/><g id="itemarea6" transform="translate(0 76.66)"/><g id="itemarea7" transform="translate(0 96.87)"><polygon class="main" points="58.05,24.42&#10;58.05,24.42&#10;59.39,24.41&#10;60.73,24.41&#10;62.08,24.41&#10;63.42,24.41&#10;64.77,24.41&#10;66.11,24.41&#10;67.45,24.42&#10;68.8,24.42&#10;70.14,24.42&#10;71.49,24.42&#10;72.83,24.42&#10;74.17,24.42&#10;75.52,24.42&#10;76.86,24.42&#10;78.2,24.42&#10;79.55,24.41&#10;80.89,24.41&#10;82.24,24.41&#10;83.58,24.41&#10;84.92,24.41&#10;86.27,24.41&#10;87.61,24.41&#10;88.96,24.41&#10;90.3,24.41&#10;91.64,24.41&#10;92.99,24.41&#10;94.33,24.41&#10;95.67,24.41&#10;97.02,24.41&#10;98.36,24.41&#10;99.71,24.41&#10;101.05,24.41&#10;102.39,24.41&#10;103.74,24.41&#10;105.08,24.41&#10;106.43,24.41&#10;107.77,24.41&#10;109.11,24.41&#10;110.46,24.41&#10;111.8,24.41&#10;113.14,24.41&#10;114.49,24.41&#10;115.83,24.41&#10;117.18,24.41&#10;118.52,24.41&#10;119.86,24.41&#10;121.21,24.41&#10;122.55,24.41&#10;123.9,24.41&#10;125.24,24.41&#10;126.58,24.41&#10;127.93,24.41&#10;129.27,24.41&#10;130.61,24.41&#10;131.96,24.41&#10;133.3,24.41&#10;134.65,24.41&#10;135.99,24.41&#10;137.33,24.41&#10;138.68,24.41&#10;140.02,24.41&#10;141.37,24.41&#10;142.71,24.41&#10;144.05,24.41&#10;145.4,24.41&#10;146.74,24.41&#10;148.08,24.41&#10;149.43,24.41&#10;150.77,24.41&#10;152.12,24.41&#10;153.46,24.41&#10;154.8,24.41&#10;156.15,24.41&#10;157.49,24.41&#10;158.84,24.4&#10;160.18,24.4&#10;161.52,24.4&#10;162.87,24.4&#10;164.21,24.39&#10;165.56,24.39&#10;166.9,24.39&#10;168.24,24.38&#10;169.59,24.38&#10;170.93,24.38&#10;172.27,24.38&#10;173.62,24.39&#10;174.96,24.39&#10;176.31,24.39&#10;177.65,24.39&#10;178.99,24.38&#10;180.34,24.36&#10;181.68,24.35&#10;183.03,24.34&#10;184.37,24.33&#10;185.71,24.31&#10;187.06,24.27&#10;188.4,24.2&#10;189.74,24.12&#10;191.09,24.1&#10;192.43,24.13&#10;193.78,24.17&#10;195.12,24.2&#10;196.46,24.22&#10;197.81,24.23&#10;199.15,24.24&#10;200.5,24.23&#10;201.84,24.23&#10;203.18,24.21&#10;204.53,24.17&#10;205.87,24.07&#10;207.21,23.97&#10;208.56,23.92&#10;209.9,23.82&#10;211.25,23.69&#10;212.59,23.27&#10;213.93,22.78&#10;215.28,22.44&#10;216.62,21.89&#10;217.97,21.42&#10;219.31,21.38&#10;220.65,20.88&#10;222,20.14&#10;223.34,19.72&#10;224.68,19.6&#10;226.03,19.34&#10;227.37,19.02&#10;228.72,18.71&#10;230.06,18.59&#10;231.4,18.5&#10;232.75,18.44&#10;234.09,18.43&#10;235.44,18.39&#10;236.78,18.32&#10;238.12,18.32&#10;239.47,18.42&#10;240.81,18.42&#10;242.15,18.46&#10;243.5,18.64&#10;244.84,18.88&#10;246.19,19.22&#10;247.53,19.59&#10;248.87,19.39&#10;250.22,18.86&#10;251.56,18.34&#10;252.91,18.31&#10;254.25,18.42&#10;255.59,18.64&#10;256.94,18.85&#10;258.28,18.95&#10;259.62,19.13&#10;260.97,19.18&#10;262.31,19.02&#10;263.66,18.96&#10;265,19.1&#10;266.34,19.34&#10;267.69,19.46&#10;269.03,19.33&#10;270.38,19.05&#10;271.72,18.88&#10;273.06,18.91&#10;274.41,19&#10;275.75,18.94&#10;277.09,18.79&#10;278.44,18.72&#10;279.78,18.75&#10;281.13,18.73&#10;282.47,18.5&#10;283.81,18.33&#10;285.16,18.33&#10;286.5,18.32&#10;287.85,18.32&#10;289.19,18.32&#10;290.53,18.33&#10;291.88,18.38&#10;293.22,18.37&#10;294.57,18.36&#10;295.91,18.34&#10;297.25,18.34&#10;298.6,18.35&#10;299.94,18.37&#10;301.28,18.4&#10;302.63,18.41&#10;303.97,18.42&#10;305.32,18.45&#10;306.66,18.51&#10;308,18.55&#10;309.35,18.55&#10;310.69,18.48&#10;312.04,18.43&#10;313.38,18.39&#10;314.72,18.39&#10;316.07,18.43&#10;317.41,18.54&#10;318.75,18.79&#10;320.1,19.27&#10;321.44,20&#10;322.79,20.85&#10;324.13,21.66&#10;325.47,22.26&#10;326.82,22.63&#10;328.16,22.82&#10;329.51,22.93&#10;330.85,23.04&#10;332.19,23.2&#10;333.54,23.46&#10;334.88,23.74&#10;336.22,23.96&#10;337.57,24.09&#10;338.91,24.16&#10;340.26,24.17&#10;341.6,24.14&#10;342.94,24.06&#10;344.29,23.95&#10;345.63,23.84&#10;346.98,23.78&#10;348.32,23.76&#10;349.66,23.77&#10;351.01,23.74&#10;352.35,23.66&#10;353.69,23.51&#10;355.04,23.32&#10;356.38,23.19&#10;357.73,23.2&#10;359.07,23.31&#10;360.41,23.43&#10;361.76,23.48&#10;363.1,23.41&#10;364.45,23.2&#10;365.79,23.2&#10;367.13,23.52&#10;368.48,23.73&#10;369.82,23.72&#10;371.16,23.64&#10;372.51,23.65&#10;373.85,23.85&#10;375.2,24.07&#10;376.54,24.19&#10;377.88,24.23&#10;379.23,24.2&#10;380.57,24.18&#10;381.92,24.22&#10;383.26,24.28&#10;384.6,24.32&#10;385.95,24.33&#10;387.29,24.34&#10;388.63,24.35&#10;389.98,24.36&#10;391.32,24.36&#10;392.67,24.36&#10;394.01,24.35&#10;395.35,24.35&#10;396.7,24.35&#10;398.04,24.35&#10;399.39,24.36&#10;400.73,24.36&#10;402.07,24.37&#10;403.42,24.38&#10;404.76,24.39&#10;406.11,24.39&#10;407.45,24.39&#10;408.79,24.39&#10;410.14,24.38&#10;411.48,24.37&#10;412.82,24.37&#10;414.17,24.38&#10;415.51,24.4&#10;416.86,24.41&#10;418.2,24.41&#10;419.54,24.41&#10;420.89,24.41&#10;422.23,24.41&#10;423.58,24.41&#10;424.92,24.41&#10;426.26,24.41&#10;427.61,24.41&#10;428.95,24.41&#10;430.29,24.41&#10;431.64,24.41&#10;432.98,24.41&#10;434.33,24.41&#10;435.67,24.41&#10;437.01,24.41&#10;438.36,24.41&#10;439.7,24.41&#10;441.05,24.41&#10;442.39,24.41&#10;443.73,24.41&#10;445.08,24.41&#10;446.42,24.41&#10;447.76,24.41&#10;449.11,24.41&#10;450.45,24.41&#10;451.8,24.41&#10;453.14,24.41&#10;454.48,24.41&#10;455.83,24.41&#10;457.17,24.41&#10;458.52,24.41&#10;459.86,24.41&#10;461.2,24.41&#10;462.55,24.41&#10;463.89,24.41&#10;465.23,24.41&#10;466.58,24.41&#10;467.92,24.41&#10;469.27,24.41&#10;470.61,24.41&#10;471.95,24.41&#10;473.3,24.41&#10;474.64,24.41&#10;475.99,24.41&#10;477.33,24.41&#10;478.67,24.41&#10;480.02,24.41&#10;481.36,24.41&#10;482.7,24.41&#10;484.05,24.41&#10;485.39,24.42&#10;486.74,24.42&#10;486.74,24.42"/><polyline class="range" points="227.37,25.64&#10;227.37,26.86&#10;245.38,26.86&#10;245.38,25.64"/><polyline class="range" points="249.81,25.64&#10;249.81,26.86&#10;258.82,26.86&#10;258.82,25.64"/><polyline class="range" points="262.58,25.64&#10;262.58,26.86&#10;264.19,26.86&#10;264.19,25.64"/><polyline class="range" points="270.64,25.64&#10;270.64,26.86&#10;319.43,26.86&#10;319.43,25.64"/><polyline class="range" points="211.92,28.08&#10;211.92,29.3&#10;333.67,29.3&#10;333.67,28.08"/><polyline class="range" points="353.83,28.08&#10;353.83,29.3&#10;367,29.3&#10;367,28.08"/></g><g id="itemarea8" transform="translate(0 117.08)"/><g id="itemarea9" transform="translate(0 137.3)"/><g id="itemarea10" transform="translate(0 157.51)"><polygon class="main" points="54.02,24.42&#10;54.02,24.42&#10;55.36,24.41&#10;56.7,24.41&#10;58.05,24.41&#10;59.39,24.41&#10;60.73,24.41&#10;62.08,24.41&#10;63.42,24.41&#10;64.77,24.41&#10;66.11,24.41&#10;67.45,24.41&#10;68.8,24.41&#10;70.14,24.41&#10;71.49,24.42&#10;72.83,24.42&#10;74.17,24.41&#10;75.52,24.41&#10;76.86,24.41&#10;78.2,24.41&#10;79.55,24.41&#10;80.89,24.41&#10;82.24,24.41&#10;83.58,24.41&#10;84.92,24.41&#10;86.27,24.41&#10;87.61,24.41&#10;88.96,24.41&#10;90.3,24.41&#10;91.64,24.41&#10;92.99,24.41&#10;94.33,24.41&#10;95.67,24.41&#10;97.02,24.41&#10;98.36,24.41&#10;99.71,24.41&#10;101.05,24.41&#10;102.39,24.41&#10;103.74,24.41&#10;105.08,24.41&#10;106.43,24.41&#10;107.77,24.41&#10;109.11,24.41&#10;110.46,24.41&#10;111.8,24.41&#10;113.14,24.41&#10;114.49,24.41&#10;115.83,24.41&#10;117.18,24.41&#10;118.52,24.41&#10;119.86,24.41&#10;121.21,24.41&#10;122.55,24.41&#10;123.9,24.41&#10;125.24,24.41&#10;126.58,24.41&#10;127.93,24.41&#10;129.27,24.41&#10;130.61,24.41&#10;131.96,24.41&#10;133.3,24.41&#10;134.65,24.41&#10;135.99,24.41&#10;137.33,24.41&#10;138.68,24.41&#10;140.02,24.41&#10;141.37,24.41&#10;142.71,24.41&#10;144.05,24.41&#10;145.4,24.41&#10;146.74,24.41&#10;148.08,24.4&#10;149.43,24.4&#10;150.77,24.4&#10;152.12,24.4&#10;153.46,24.41&#10;154.8,24.41&#10;156.15,24.4&#10;157.49,24.4&#10;158.84,24.39&#10;160.18,24.38&#10;161.52,24.38&#10;162.87,24.37&#10;164.21,24.37&#10;165.56,24.37&#10;166.9,24.36&#10;168.24,24.35&#10;169.59,24.34&#10;170.93,24.34&#10;172.27,24.35&#10;173.62,24.36&#10;174.96,24.37&#10;176.31,24.37&#10;177.65,24.36&#10;178.99,24.34&#10;180.34,24.32&#10;181.68,24.29&#10;183.03,24.27&#10;184.37,24.26&#10;185.71,24.22&#10;187.06,24.15&#10;188.4,24.04&#10;189.74,23.93&#10;191.09,23.9&#10;192.43,23.94&#10;193.78,24&#10;195.12,24.05&#10;196.46,24.08&#10;197.81,24.09&#10;199.15,24.1&#10;200.5,24.1&#10;201.84,24.09&#10;203.18,24.06&#10;204.53,24&#10;205.87,23.86&#10;207.21,23.71&#10;208.56,23.63&#10;209.9,23.51&#10;211.25,23.32&#10;212.59,22.79&#10;213.93,22.2&#10;215.28,21.8&#10;216.62,21.19&#10;217.97,20.71&#10;219.31,20.66&#10;220.65,20.17&#10;222,19.49&#10;223.34,19.13&#10;224.68,19.03&#10;226.03,18.83&#10;227.37,18.6&#10;228.72,18.41&#10;230.06,18.36&#10;231.4,18.33&#10;232.75,18.31&#10;234.09,18.31&#10;235.44,18.31&#10;236.78,18.35&#10;238.12,18.35&#10;239.47,18.31&#10;240.81,18.31&#10;242.15,18.32&#10;243.5,18.38&#10;244.84,18.51&#10;246.19,18.74&#10;247.53,19.03&#10;248.87,18.87&#10;250.22,18.5&#10;251.56,18.32&#10;252.91,18.37&#10;254.25,18.31&#10;255.59,18.38&#10;256.94,18.5&#10;258.28,18.56&#10;259.62,18.68&#10;260.97,18.72&#10;262.31,18.61&#10;263.66,18.57&#10;265,18.66&#10;266.34,18.83&#10;267.69,18.93&#10;269.03,18.82&#10;270.38,18.63&#10;271.72,18.52&#10;273.06,18.54&#10;274.41,18.6&#10;275.75,18.56&#10;277.09,18.47&#10;278.44,18.43&#10;279.78,18.44&#10;281.13,18.43&#10;282.47,18.34&#10;283.81,18.37&#10;285.16,18.5&#10;286.5,18.48&#10;287.85,18.4&#10;289.19,18.41&#10;290.53,18.5&#10;291.88,18.61&#10;293.22,18.61&#10;294.57,18.57&#10;295.91,18.53&#10;297.25,18.52&#10;298.6,18.56&#10;299.94,18.6&#10;301.28,18.67&#10;302.63,18.69&#10;303.97,18.7&#10;305.32,18.76&#10;306.66,18.85&#10;308,18.92&#10;309.35,18.91&#10;310.69,18.81&#10;312.04,18.71&#10;313.38,18.65&#10;314.72,18.65&#10;316.07,18.72&#10;317.41,18.91&#10;318.75,19.25&#10;320.1,19.83&#10;321.44,20.6&#10;322.79,21.44&#10;324.13,22.19&#10;325.47,22.72&#10;326.82,23.03&#10;328.16,23.19&#10;329.51,23.28&#10;330.85,23.37&#10;332.19,23.5&#10;333.54,23.7&#10;334.88,23.92&#10;336.22,24.09&#10;337.57,24.19&#10;338.91,24.24&#10;340.26,24.25&#10;341.6,24.22&#10;342.94,24.17&#10;344.29,24.08&#10;345.63,24&#10;346.98,23.96&#10;348.32,23.94&#10;349.66,23.95&#10;351.01,23.93&#10;352.35,23.86&#10;353.69,23.74&#10;355.04,23.6&#10;356.38,23.49&#10;357.73,23.5&#10;359.07,23.59&#10;360.41,23.68&#10;361.76,23.72&#10;363.1,23.66&#10;364.45,23.5&#10;365.79,23.5&#10;367.13,23.75&#10;368.48,23.91&#10;369.82,23.91&#10;371.16,23.84&#10;372.51,23.85&#10;373.85,24.01&#10;375.2,24.17&#10;376.54,24.26&#10;377.88,24.28&#10;379.23,24.27&#10;380.57,24.25&#10;381.92,24.28&#10;383.26,24.32&#10;384.6,24.35&#10;385.95,24.36&#10;387.29,24.36&#10;388.63,24.37&#10;389.98,24.38&#10;391.32,24.38&#10;392.67,24.38&#10;394.01,24.37&#10;395.35,24.37&#10;396.7,24.37&#10;398.04,24.37&#10;399.39,24.38&#10;400.73,24.38&#10;402.07,24.39&#10;403.42,24.39&#10;404.76,24.4&#10;406.11,24.4&#10;407.45,24.4&#10;408.79,24.4&#10;410.14,24.39&#10;411.48,24.39&#10;412.82,24.38&#10;414.17,24.39&#10;415.51,24.4&#10;416.86,24.41&#10;418.2,24.41&#10;419.54,24.41&#10;420.89,24.41&#10;422.23,24.41&#10;423.58,24.41&#10;424.92,24.41&#10;426.26,24.41&#10;427.61,24.41&#10;428.95,24.41&#10;430.29,24.41&#10;431.64,24.41&#10;432.98,24.41&#10;434.33,24.41&#10;435.67,24.41&#10;437.01,24.41&#10;438.36,24.41&#10;439.7,24.41&#10;441.05,24.41&#10;442.39,24.41&#10;443.73,24.41&#10;445.08,24.41&#10;446.42,24.41&#10;447.76,24.41&#10;449.11,24.41&#10;450.45,24.41&#10;451.8,24.41&#10;453.14,24.41&#10;454.48,24.41&#10;455.83,24.41&#10;457.17,24.41&#10;458.52,24.41&#10;459.86,24.41&#10;461.2,24.41&#10;462.55,24.41&#10;463.89,24.41&#10;465.23,24.41&#10;466.58,24.42&#10;466.58,24.42"/><polyline class="range" points="226.43,25.64&#10;226.43,26.86&#10;246.19,26.86&#10;246.19,25.64"/><polyline class="range" points="249.28,25.64&#10;249.28,26.86&#10;265.67,26.86&#10;265.67,25.64"/><polyline class="range" points="269.43,25.64&#10;269.43,26.86&#10;305.32,26.86&#10;305.32,25.64"/><polyline class="range" points="311.5,25.64&#10;311.5,26.86&#10;316.34,26.86&#10;316.34,25.64"/><polyline class="range" points="208.56,28.08&#10;208.56,29.3&#10;333,29.3&#10;333,28.08"/><polyline class="range" points="354.77,28.08&#10;354.77,29.3&#10;359.61,29.3&#10;359.61,28.08"/><polyline class="range" points="363.37,28.08&#10;363.37,29.3&#10;366.46,29.3&#10;366.46,28.08"/></g><g id="itemarea11" transform="translate(0 177.73)"/><g id="itemarea12" transform="translate(0 197.94)"/><g id="itemarea13" transform="translate(0 218.16)"><polygon class="main" points="287.85,24.42&#10;287.85,24.42&#10;289.19,24.42&#10;290.53,24.42&#10;291.88,24.41&#10;293.22,24.41&#10;294.57,24.41&#10;295.91,24.41&#10;297.25,24.41&#10;298.6,24.41&#10;299.94,24.41&#10;301.28,24.41&#10;302.63,24.41&#10;303.97,24.41&#10;305.32,24.41&#10;306.66,24.41&#10;308,24.41&#10;309.35,24.41&#10;310.69,24.41&#10;312.04,24.41&#10;313.38,24.41&#10;314.72,24.41&#10;316.07,24.41&#10;317.41,24.41&#10;318.75,24.41&#10;320.1,24.41&#10;321.44,24.33&#10;322.79,23.74&#10;324.13,21.84&#10;325.47,19.63&#10;326.82,18.57&#10;328.16,18.31&#10;329.51,18.36&#10;330.85,18.62&#10;332.19,19.17&#10;333.54,20.61&#10;334.88,22.59&#10;336.22,23.82&#10;337.57,24.22&#10;338.91,24.33&#10;340.26,24.35&#10;341.6,24.31&#10;342.94,24.16&#10;344.29,23.76&#10;345.63,23.16&#10;346.98,22.88&#10;348.32,22.74&#10;349.66,22.78&#10;351.01,22.59&#10;352.35,22.04&#10;353.69,20.99&#10;355.04,19.86&#10;356.38,19.32&#10;357.73,19.36&#10;359.07,19.82&#10;360.41,20.54&#10;361.76,20.85&#10;363.1,20.35&#10;364.45,19.24&#10;365.79,19.2&#10;367.13,21.07&#10;368.48,22.49&#10;369.82,22.45&#10;371.16,21.88&#10;372.51,21.97&#10;373.85,23.26&#10;375.2,24.16&#10;376.54,24.37&#10;377.88,24.39&#10;379.23,24.38&#10;380.57,24.35&#10;381.92,24.38&#10;383.26,24.41&#10;384.6,24.41&#10;385.95,24.41&#10;387.29,24.41&#10;388.63,24.41&#10;389.98,24.41&#10;391.32,24.41&#10;392.67,24.41&#10;394.01,24.41&#10;395.35,24.41&#10;396.7,24.41&#10;398.04,24.41&#10;399.39,24.41&#10;400.73,24.41&#10;402.07,24.41&#10;403.42,24.41&#10;404.76,24.42&#10;406.11,24.42&#10;407.45,24.42&#10;408.79,24.42&#10;410.14,24.41&#10;411.48,24.41&#10;412.82,24.41&#10;414.17,24.42&#10;415.51,24.42&#10;416.86,24.42&#10;416.86,24.42"/><polyline class="range" points="324.67,25.64&#10;324.67,26.86&#10;333.81,26.86&#10;333.81,25.64"/><polyline class="range" points="353.83,25.64&#10;353.83,26.86&#10;367,26.86&#10;367,25.64"/><polyline class="range" points="323.19,28.08&#10;323.19,29.3&#10;335.55,29.3&#10;335.55,28.08"/><polyline class="range" points="345.63,28.08&#10;345.63,29.3&#10;373.72,29.3&#10;373.72,28.08"/></g><g id="itemarea14" transform="translate(0 238.37)"><polygon class="main" points="232.75,24.42&#10;232.75,24.42&#10;234.09,24.42&#10;235.44,24.41&#10;236.78,24.41&#10;238.12,24.41&#10;239.47,24.42&#10;240.81,24.42&#10;242.15,24.42&#10;243.5,24.42&#10;244.84,24.42&#10;246.19,24.42&#10;247.53,24.42&#10;248.87,24.42&#10;250.22,24.42&#10;251.56,24.41&#10;252.91,24.41&#10;254.25,24.42&#10;255.59,24.42&#10;256.94,24.42&#10;258.28,24.42&#10;259.62,24.42&#10;260.97,24.42&#10;262.31,24.42&#10;263.66,24.42&#10;265,24.42&#10;266.34,24.42&#10;267.69,24.42&#10;269.03,24.42&#10;270.38,24.42&#10;271.72,24.42&#10;273.06,24.42&#10;274.41,24.42&#10;275.75,24.42&#10;277.09,24.42&#10;278.44,24.42&#10;279.78,24.42&#10;281.13,24.42&#10;282.47,24.42&#10;283.81,24.41&#10;285.16,24.41&#10;286.5,24.41&#10;287.85,24.41&#10;289.19,24.41&#10;290.53,24.41&#10;291.88,24.41&#10;293.22,24.41&#10;294.57,24.41&#10;295.91,24.41&#10;297.25,24.41&#10;298.6,24.41&#10;299.94,24.41&#10;301.28,24.41&#10;302.63,24.41&#10;303.97,24.41&#10;305.32,24.41&#10;306.66,24.41&#10;308,24.41&#10;309.35,24.41&#10;310.69,24.41&#10;312.04,24.41&#10;313.38,24.41&#10;314.72,24.41&#10;316.07,24.41&#10;317.41,24.41&#10;318.75,24.4&#10;320.1,24.33&#10;321.44,23.96&#10;322.79,22.59&#10;324.13,20.19&#10;325.47,18.56&#10;326.82,18.31&#10;328.16,18.48&#10;329.51,18.77&#10;330.85,19.19&#10;332.19,19.92&#10;333.54,21.33&#10;334.88,22.96&#10;336.22,23.92&#10;337.57,24.24&#10;338.91,24.33&#10;340.26,24.35&#10;341.6,24.32&#10;342.94,24.19&#10;344.29,23.87&#10;345.63,23.41&#10;346.98,23.19&#10;348.32,23.08&#10;349.66,23.11&#10;351.01,22.96&#10;352.35,22.52&#10;353.69,21.63&#10;355.04,20.59&#10;356.38,19.96&#10;357.73,20.01&#10;359.07,20.54&#10;360.41,21.21&#10;361.76,21.5&#10;363.1,21.06&#10;364.45,19.95&#10;365.79,19.91&#10;367.13,21.71&#10;368.48,22.88&#10;369.82,22.85&#10;371.16,22.4&#10;372.51,22.47&#10;373.85,23.49&#10;375.2,24.19&#10;376.54,24.37&#10;377.88,24.39&#10;379.23,24.37&#10;380.57,24.35&#10;381.92,24.38&#10;383.26,24.41&#10;384.6,24.41&#10;385.95,24.41&#10;387.29,24.41&#10;388.63,24.41&#10;389.98,24.41&#10;391.32,24.41&#10;392.67,24.41&#10;394.01,24.41&#10;395.35,24.41&#10;396.7,24.41&#10;398.04,24.41&#10;399.39,24.41&#10;400.73,24.41&#10;402.07,24.41&#10;403.42,24.41&#10;404.76,24.41&#10;406.11,24.42&#10;407.45,24.42&#10;408.79,24.41&#10;410.14,24.41&#10;411.48,24.41&#10;412.82,24.41&#10;414.17,24.41&#10;415.51,24.42&#10;416.86,24.42&#10;418.2,24.42&#10;418.2,24.42"/><polyline class="range" points="323.46,25.64&#10;323.46,26.86&#10;333.54,26.86&#10;333.54,25.64"/><polyline class="range" points="354.1,25.64&#10;354.1,26.86&#10;366.86,26.86&#10;366.86,25.64"/><polyline class="range" points="322.11,28.08&#10;322.11,29.3&#10;335.42,29.3&#10;335.42,28.08"/><polyline class="range" points="346.17,28.08&#10;346.17,29.3&#10;373.58,29.3&#10;373.58,28.08"/></g></g></g><g id="textarea" transform="translate(14.15 14.15)"><g id="itemarea2" transform="translate(0 -4.2)"><text transform="translate(0 2.91)" style="font-size:7.272727272727273pt" x="7.22" y="24.42">Phase IIa floor deposits in roundhouse</text></g><g id="itemarea3" transform="translate(0 16.01)"><text transform="translate(0 2.91)" style="font-size:7.272727272727273pt" x="7.22" y="24.42">R_Date GU-1228</text></g><g id="itemarea4" transform="translate(0 36.23)"><text transform="translate(0 2.91)" style="font-size:7.272727272727273pt" x="7.22" y="24.42">R_Date GU-1154</text></g><g id="itemarea5" transform="translate(0 56.44)"><text transform="translate(0 2.91)" style="font-size:7.272727272727273pt" x="7.22" y="24.42"></text></g><g id="itemarea6" transform="translate(0 76.66)"><text transform="translate(0 2.91)" style="font-size:7.272727272727273pt" x="7.22" y="24.42">roundhouse decommissioning dated by cow skull in rubble in-fill</text></g><g id="itemarea7" transform="translate(0 96.87)"><text transform="translate(0 2.91)" style="font-size:7.272727272727273pt" x="7.22" y="24.42">R_Date GU-1152</text></g><g id="itemarea8" transform="translate(0 117.08)"><text transform="translate(0 2.91)" style="font-size:7.272727272727273pt" x="7.22" y="24.42"></text></g><g id="itemarea9" transform="translate(0 137.3)"><text transform="translate(0 2.91)" style="font-size:7.272727272727273pt" x="7.22" y="24.42">Phase IIIa floor deposits from earth-house - after roundhouse decommissioning</text></g><g id="itemarea10" transform="translate(0 157.51)"><text transform="translate(0 2.91)" style="font-size:7.272727272727273pt" x="7.22" y="24.42">R_Date GU-1153</text></g><g id="itemarea11" transform="translate(0 177.73)"><text transform="translate(0 2.91)" style="font-size:7.272727272727273pt" x="7.22" y="24.42"></text></g><g id="itemarea12" transform="translate(0 197.94)"><text transform="translate(0 2.91)" style="font-size:7.272727272727273pt" x="7.22" y="24.42">burials in rubble fills</text></g><g id="itemarea13" transform="translate(0 218.16)"><text transform="translate(0 2.91)" style="font-size:7.272727272727273pt" x="7.22" y="24.42">R_Date SUERC-68733</text></g><g id="itemarea14" transform="translate(0 238.37)"><text transform="translate(0 2.91)" style="font-size:7.272727272727273pt" x="7.22" y="24.42">R_Date SUERC-69075</text></g></g><rect class="border" x="14.15" width="481.1" y="14.15" height="283"/><g><line class="gridline" x1="66.96" y1="297.15" x2="66.96" y2="14.15"/><line class="gridline" x1="120.71" y1="297.15" x2="120.71" y2="14.15"/><line class="gridline" x1="174.46" y1="297.15" x2="174.46" y2="14.15"/><line class="gridline" x1="228.22" y1="297.15" x2="228.22" y2="14.15"/><line class="gridline" x1="281.97" y1="297.15" x2="281.97" y2="14.15"/><line class="gridline" x1="335.73" y1="297.15" x2="335.73" y2="14.15"/><line class="gridline" x1="389.48" y1="297.15" x2="389.48" y2="14.15"/><line class="gridline" x1="443.23" y1="297.15" x2="443.23" y2="14.15"/></g><g><line class="majorpip" x1="14.15" y1="297.15" x2="495.25" y2="297.15"/><line class="minorpip" x1="26.64" y1="297.15" x2="26.64" y2="294.32"/><line class="minorpip" x1="40.08" y1="297.15" x2="40.08" y2="294.32"/><line class="minorpip" x1="53.52" y1="297.15" x2="53.52" y2="294.32"/><line class="minorpip" x1="66.96" y1="297.15" x2="66.96" y2="294.32"/><line class="minorpip" x1="80.39" y1="297.15" x2="80.39" y2="294.32"/><line class="minorpip" x1="93.83" y1="297.15" x2="93.83" y2="294.32"/><line class="minorpip" x1="107.27" y1="297.15" x2="107.27" y2="294.32"/><line class="minorpip" x1="120.71" y1="297.15" x2="120.71" y2="294.32"/><line class="minorpip" x1="134.15" y1="297.15" x2="134.15" y2="294.32"/><line class="minorpip" x1="147.59" y1="297.15" x2="147.59" y2="294.32"/><line class="minorpip" x1="161.03" y1="297.15" x2="161.03" y2="294.32"/><line class="minorpip" x1="174.46" y1="297.15" x2="174.46" y2="294.32"/><line class="minorpip" x1="187.9" y1="297.15" x2="187.9" y2="294.32"/><line class="minorpip" x1="201.34" y1="297.15" x2="201.34" y2="294.32"/><line class="minorpip" x1="214.78" y1="297.15" x2="214.78" y2="294.32"/><line class="minorpip" x1="228.22" y1="297.15" x2="228.22" y2="294.32"/><line class="minorpip" x1="241.66" y1="297.15" x2="241.66" y2="294.32"/><line class="minorpip" x1="255.1" y1="297.15" x2="255.1" y2="294.32"/><line class="minorpip" x1="268.53" y1="297.15" x2="268.53" y2="294.32"/><line class="minorpip" x1="281.97" y1="297.15" x2="281.97" y2="294.32"/><line class="minorpip" x1="295.41" y1="297.15" x2="295.41" y2="294.32"/><line class="minorpip" x1="308.85" y1="297.15" x2="308.85" y2="294.32"/><line class="minorpip" x1="322.29" y1="297.15" x2="322.29" y2="294.32"/><line class="minorpip" x1="335.73" y1="297.15" x2="335.73" y2="294.32"/><line class="minorpip" x1="349.17" y1="297.15" x2="349.17" y2="294.32"/><line class="minorpip" x1="362.6" y1="297.15" x2="362.6" y2="294.32"/><line class="minorpip" x1="376.04" y1="297.15" x2="376.04" y2="294.32"/><line class="minorpip" x1="389.48" y1="297.15" x2="389.48" y2="294.32"/><line class="minorpip" x1="402.92" y1="297.15" x2="402.92" y2="294.32"/><line class="minorpip" x1="416.36" y1="297.15" x2="416.36" y2="294.32"/><line class="minorpip" x1="429.8" y1="297.15" x2="429.8" y2="294.32"/><line class="minorpip" x1="443.23" y1="297.15" x2="443.23" y2="294.32"/><line class="minorpip" x1="456.67" y1="297.15" x2="456.67" y2="294.32"/><line class="minorpip" x1="470.11" y1="297.15" x2="470.11" y2="294.32"/><line class="minorpip" x1="483.55" y1="297.15" x2="483.55" y2="294.32"/><line class="majorpip" x1="66.96" y1="297.15" x2="66.96" y2="291.49"/><text transform="translate(0 8.44)" style="font-size:7.272727272727273pt;text-anchor:middle" x="66.96" y="297.15">1400</text><line class="majorpip" x1="120.71" y1="297.15" x2="120.71" y2="291.49"/><text transform="translate(0 8.44)" style="font-size:7.272727272727273pt;text-anchor:middle" x="120.71" y="297.15">1200</text><line class="majorpip" x1="174.46" y1="297.15" x2="174.46" y2="291.49"/><text transform="translate(0 8.44)" style="font-size:7.272727272727273pt;text-anchor:middle" x="174.46" y="297.15">1000</text><line class="majorpip" x1="228.22" y1="297.15" x2="228.22" y2="291.49"/><text transform="translate(0 8.44)" style="font-size:7.272727272727273pt;text-anchor:middle" x="228.22" y="297.15">800</text><line class="majorpip" x1="281.97" y1="297.15" x2="281.97" y2="291.49"/><text transform="translate(0 8.44)" style="font-size:7.272727272727273pt;text-anchor:middle" x="281.97" y="297.15">600</text><line class="majorpip" x1="335.73" y1="297.15" x2="335.73" y2="291.49"/><text transform="translate(0 8.44)" style="font-size:7.272727272727273pt;text-anchor:middle" x="335.73" y="297.15">400</text><line class="majorpip" x1="389.48" y1="297.15" x2="389.48" y2="291.49"/><text transform="translate(0 8.44)" style="font-size:7.272727272727273pt;text-anchor:middle" x="389.48" y="297.15">200</text><line class="majorpip" x1="443.23" y1="297.15" x2="443.23" y2="291.49"/><text transform="translate(0 8.44)" style="font-size:7.272727272727273pt;text-anchor:middle" x="443.23" y="297.15">1calBC/1calAD</text><text transform="translate(0 2.91)" style="font-size:7.272727272727273pt;text-anchor:middle" x="254.7" y="325.45">Calibrated date (calBC/calAD)</text></g><g id="references" transform="translate(0 0)"><text transform="translate(0 -1.05)" style="font-size:4.363636363636363pt" x="14.15" y="14.15">OxCal v4.4.4 Bronk Ramsey (2021); r:5 Atmospheric data from Reimer et al (2020)</text></g></g></g>
</svg>