<?xml version="1.0" encoding="UTF-8"?><svg id="top" version="1.1" xmlns="http://www.w3.org/2000/svg" xmlns:xlink="http://www.w3.org/1999/xlink" xmlns:ev="http://www.w3.org/2001/xml-events" width="509.400pt" height="400.243pt" zoomAndPan="magnify" preserveAspectRatio="xMinYMin" onload="createPlot()" viewBox="0 0 509.400 400.243">
   <defs id="definitions">
   <filter id="Shadow" filterUnits="userSpaceOnUse">
    <feGaussianBlur in="SourceAlpha" stdDeviation="4" result="blur"/>
    <feOffset in="blur" dx="4" dy="4" result="offsetBlurredAlpha"/>
    <feMerge>
     <feMergeNode in="offsetBlurredAlpha"/>
     <feMergeNode in="SourceGraphic"/>
    </feMerge> 
   </filter>    
    <filter id="Correlation1" x="-20%" y="-20%" width="140%" height="140%" filterUnits="objectBoundingBox">
     <feGaussianBlur in="SourceGraphic" stdDeviation="7" result="blur"/>
     <feColorMatrix type="matrix" in="blur" values="0 0 0  5.00 -2.00&#10;               0 0 0 -2.50  2.50&#10;               0 0 0  0.00  0.00&#10;               0 0 0  2.50  0.00"/>
    </filter>    
    <filter id="Correlation2" x="-20%" y="-20%" width="140%" height="140%" filterUnits="objectBoundingBox">
     <feGaussianBlur in="SourceGraphic" stdDeviation="7" result="blur"/>
     <feGaussianBlur in="SourceAlpha" stdDeviation="7" result="opacity"/>
     <feColorMatrix type="matrix" in="blur" result="newcolor" values="0 0 0  5.00 -2.00&#10;               0 0 0 -2.50  2.50&#10;               0 0 0  0.00  0.00&#10;               0 0 0  2.50  0.00"/>
     <feSpecularLighting in="opacity" surfaceScale="5" specularConstant="1" specularExponent="20" lighting-color="white" result="specularOut">
      <feDistantLight azimuth="225" elevation="30"/>
     </feSpecularLighting>
     <feComposite in="newcolor" in2="specularOut" operator="arithmetic" k1="0" k2="1" k3="1" k4="0" result="litPaint"/>
    </filter>
    <pattern id="Sequence" patternUnits="userSpaceOnUse" x="0" y="0" width="5" height="5" viewBox="0 0 5 5">
    </pattern>    
    <pattern id="U_Sequence" patternUnits="userSpaceOnUse" x="0" y="0" width="5" height="5" viewBox="0 0 5 5">
     <line x1="-2.5" x2="5" y1="5" y2="-2.5" style="stroke-width:1.5;stroke:black"/>
     <line x1="0" x2="7.5" y1="7.5" y2="0" style="stroke-width:1.5;stroke:black"/>
    </pattern>    
    <pattern id="D_Sequence" patternUnits="userSpaceOnUse" x="0" y="0" width="5" height="5" viewBox="0 0 5 5">
     <line x1="-2.5" x2="7.5" y1="-2.5" y2="7.5" style="stroke-width:1;stroke:black"/>
     <line x1="-2.5" x2="7.5" y1="7.5" y2="-2.5" style="stroke-width:1;stroke:black"/>
    </pattern>    
    <pattern id="V_Sequence" patternUnits="userSpaceOnUse" x="0" y="0" width="5" height="5" viewBox="0 0 5 5">
     <ellipse cx="2.5" cy="2.5" rx="1.5" ry="0.7" style="fill:black"/>
    </pattern>    
    <pattern id="P_Sequence" patternUnits="userSpaceOnUse" x="0" y="0" width="5" height="5" viewBox="0 0 5 5">
     <circle cx="1.25" cy="3.75" r="1" style="fill:black"/>
     <circle cx="3.75" cy="1.25" r="1" style="fill:black"/>
    </pattern>
    <style type="text/css">
      rect.border { fill:none; stroke:black;stroke-width:1px }
      rect.fillblack { fill:black; stroke:black;stroke-width:1px }
      rect.structure { fill:none; stroke:none }
      rect.structtab { fill:none; stroke:none }
      rect.structclip { fill:white; stroke:none }
      rect.structborder { fill:none; stroke:black; stroke-width:0.5px }
      rect.range3 {fill:none;stroke:black;stroke-width:1px }
      rect.range2 {fill:none;stroke:black;stroke-width:1px }
      rect.range1 {fill:none;stroke:black;stroke-width:1px }
      rect.fillbackground { fill:#000099 }
      rect.fillmodel { fill:none;stroke:black;stroke-width:1px }
      rect.modeldist { fill:none;stroke:black;stroke-width:1px }
      rect.fill { }
      polygon.main { fill:black; stroke:black;stroke-width:0.2px }
      polygon.shadow { fill:none;stroke:black;stroke-width:0.2px }
      polygon.curve { fill:none;stroke:black;stroke-width:1px }
      polygon.normal { fill:none;stroke:black;stroke-width:1px }
      polygon.kdesigma { fill:lightgrey; stroke:grey;stroke-width:0px;fill-opacity:0.2 }
      polygon.modeldist { fill:url(#U_Sequence);stroke:black;stroke-width:1px }
      polyline.datacurve { fill:none; stroke:black;stroke-width:1px }
      polyline.range { fill:none; stroke:black; stroke-width:1px; stroke-linejoin:round }
      polyline.ensemble { fill:none; stroke:black; stroke-width:0.5px;stroke-opacity:0.2 }
      polyline.kdemean { fill:none; stroke:black; stroke-width:1px }
      path.model3 { fill:none;stroke:black;stroke-width:1px }
      path.model2 { fill:none;stroke:black;stroke-width:1px }
      path.model1 { fill:none;stroke:black;stroke-width:1px }
      g.curve { fill:none;stroke:black;stroke-width:1px }
      line.majorpip { stroke:black; stroke-width:1px }
      line.minorpip { stroke:black; stroke-width:0.5px }
      line.gridline { stroke:black; stroke-width:0.5px }
      line.majorpip2 { stroke:white; stroke-width:1px }
      line.minorpip2 { stroke:white; stroke-width:0.5px }
      line.gridline2 { stroke:white; stroke-width:0.5px }
      line.okline { stroke:black; stroke-width:1px }
      line.errorline { stroke:black; stroke-width:1px }
      line.range { stroke:black; stroke-width:1px }
      line.modelline { stroke:black; stroke-width:1px }
      line.constrshadow { stroke:none; stroke-width:2px }
      line.constrok { stroke:black; stroke-width:1px }
      line.constrerror { stroke:black; stroke-width:1px }
      line.curve { stroke:black;stroke-width:1px }
      text { fill:black; stroke:none; font-size:10pt; font-family:"Arial","Helvetica"; font-style:normal }
    </style>
   <clipPath id="clip1"><rect x="0" width="481.1" y="0" height="343.64"/></clipPath><clipPath id="clip2"><rect x="0" width="481.1" y="0" height="343.64"/></clipPath></defs>
    <g id="mainframe"><rect x="-50.94" width="611.28" y="-40.02" height="480.29" style="fill:white" stroke="none"/><g id="mainviewport" transform="translate(0 0)"><rect class="border" x="14.15" width="481.1" y="14.15" height="343.64"/><g id="tabarea" transform="translate(14.15 14.15)"/><g id="plotarea" transform="translate(14.15 14.15)"><g id="structarea" transform="translate(0 0)"><g clip-path="url(#clip1)"/></g><g clip-path="url(#clip2)"><g id="itemarea2" transform="translate(0 -4.2)"/><g id="itemarea3" transform="translate(0 16.01)"><polygon class="main" points="-144.43,24.42&#10;-144.43,24.42&#10;-142.41,24.42&#10;-140.39,24.41&#10;-138.37,24.41&#10;-136.35,24.41&#10;-134.32,24.41&#10;-132.3,24.41&#10;-130.28,24.41&#10;-128.26,24.41&#10;-126.24,24.41&#10;-124.22,24.41&#10;-122.2,24.42&#10;-120.17,24.42&#10;-118.15,24.42&#10;-116.13,24.42&#10;-114.11,24.42&#10;-112.09,24.42&#10;-110.07,24.42&#10;-108.05,24.42&#10;-106.02,24.42&#10;-104,24.42&#10;-101.98,24.42&#10;-99.96,24.42&#10;-97.94,24.42&#10;-95.92,24.42&#10;-93.9,24.42&#10;-91.87,24.42&#10;-89.85,24.42&#10;-87.83,24.42&#10;-85.81,24.42&#10;-83.79,24.41&#10;-81.77,24.41&#10;-79.75,24.41&#10;-77.72,24.41&#10;-75.7,24.41&#10;-73.68,24.41&#10;-71.66,24.41&#10;-69.64,24.41&#10;-67.62,24.41&#10;-65.6,24.41&#10;-63.57,24.41&#10;-61.55,24.41&#10;-59.53,24.41&#10;-57.51,24.41&#10;-55.49,24.41&#10;-53.47,24.41&#10;-51.45,24.41&#10;-49.42,24.41&#10;-47.4,24.41&#10;-45.38,24.41&#10;-43.36,24.41&#10;-41.34,24.41&#10;-39.32,24.41&#10;-37.3,24.41&#10;-35.27,24.41&#10;-33.25,24.41&#10;-31.23,24.41&#10;-29.21,24.41&#10;-27.19,24.41&#10;-25.17,24.41&#10;-23.15,24.41&#10;-21.12,24.41&#10;-19.1,24.41&#10;-17.08,24.41&#10;-15.06,24.41&#10;-13.04,24.41&#10;-11.02,24.41&#10;-9,24.41&#10;-6.97,24.41&#10;-4.95,24.41&#10;-2.93,24.41&#10;-0.91,24.41&#10;1.11,24.41&#10;3.13,24.41&#10;5.15,24.41&#10;7.18,24.41&#10;9.2,24.41&#10;11.22,24.4&#10;13.24,24.4&#10;15.26,24.4&#10;17.28,24.41&#10;19.3,24.41&#10;21.33,24.41&#10;23.35,24.4&#10;25.37,24.4&#10;27.39,24.4&#10;29.41,24.4&#10;31.43,24.39&#10;33.45,24.38&#10;35.48,24.37&#10;37.5,24.38&#10;39.52,24.39&#10;41.54,24.4&#10;43.56,24.39&#10;45.58,24.39&#10;47.6,24.38&#10;49.63,24.35&#10;51.65,24.32&#10;53.67,24.3&#10;55.69,24.31&#10;57.71,24.32&#10;59.73,24.32&#10;61.75,24.32&#10;63.78,24.31&#10;65.8,24.3&#10;67.82,24.3&#10;69.84,24.3&#10;71.86,24.3&#10;73.88,24.3&#10;75.9,24.31&#10;77.93,24.32&#10;79.95,24.31&#10;81.97,24.29&#10;83.99,24.24&#10;86.01,24.18&#10;88.03,24.14&#10;90.05,24.14&#10;92.08,24.12&#10;94.1,24.04&#10;96.12,23.91&#10;98.14,23.75&#10;100.16,23.59&#10;102.18,23.34&#10;104.2,22.92&#10;106.23,22.45&#10;108.25,22.33&#10;110.27,22.66&#10;112.29,23.07&#10;114.31,23.34&#10;116.33,23.48&#10;118.35,23.59&#10;120.38,23.69&#10;122.4,23.67&#10;124.42,23.59&#10;126.44,23.55&#10;128.46,23.48&#10;130.48,23.35&#10;132.5,23.1&#10;134.53,23.01&#10;136.55,22.82&#10;138.57,22.72&#10;140.59,22.48&#10;142.61,22.4&#10;144.63,22.43&#10;146.65,22.25&#10;148.68,22.25&#10;150.7,22.25&#10;152.72,22.08&#10;154.74,21.93&#10;156.76,21.97&#10;158.78,21.94&#10;160.8,22.01&#10;162.83,21.63&#10;164.85,21.22&#10;166.87,20.74&#10;168.89,20.05&#10;170.91,19.72&#10;172.93,19.48&#10;174.95,19.15&#10;176.98,18.87&#10;179,18.74&#10;181.02,18.86&#10;183.04,18.88&#10;185.06,18.91&#10;187.08,19.15&#10;189.1,19.31&#10;191.13,19.11&#10;193.15,18.77&#10;195.17,18.68&#10;197.19,18.71&#10;199.21,18.86&#10;201.23,19.11&#10;203.25,19.18&#10;205.28,19.07&#10;207.3,19.1&#10;209.32,19.27&#10;211.34,19.29&#10;213.36,19.13&#10;215.38,18.84&#10;217.4,18.56&#10;219.43,18.39&#10;221.45,18.32&#10;223.47,18.31&#10;225.49,18.31&#10;227.51,18.34&#10;229.53,18.4&#10;231.55,18.48&#10;233.58,18.54&#10;235.6,18.59&#10;237.62,18.64&#10;239.64,18.76&#10;241.66,19.02&#10;243.68,19.5&#10;245.7,19.92&#10;247.73,19.99&#10;249.75,19.82&#10;251.77,19.61&#10;253.79,19.46&#10;255.81,19.54&#10;257.83,19.94&#10;259.85,20.5&#10;261.88,21.17&#10;263.9,21.82&#10;265.92,22.38&#10;267.94,22.83&#10;269.96,23.15&#10;271.98,23.37&#10;274,23.54&#10;276.03,23.67&#10;278.05,23.77&#10;280.07,23.78&#10;282.09,23.72&#10;284.11,23.87&#10;286.13,24.02&#10;288.15,24.01&#10;290.18,24.01&#10;292.2,23.95&#10;294.22,23.92&#10;296.24,23.93&#10;298.26,23.81&#10;300.28,23.58&#10;302.3,23.47&#10;304.33,23.35&#10;306.35,23.61&#10;308.37,23.65&#10;310.39,23.52&#10;312.41,24.2&#10;314.43,24.35&#10;316.45,24.32&#10;318.48,24.24&#10;320.5,24.19&#10;322.52,24.22&#10;324.54,24.23&#10;326.56,24.22&#10;328.58,24.2&#10;330.6,24.22&#10;332.63,24.27&#10;334.65,24.3&#10;336.67,24.31&#10;338.69,24.32&#10;340.71,24.32&#10;342.73,24.31&#10;344.75,24.3&#10;346.78,24.29&#10;348.8,24.28&#10;350.82,24.29&#10;352.84,24.3&#10;354.86,24.33&#10;356.88,24.36&#10;358.9,24.38&#10;360.93,24.4&#10;362.95,24.4&#10;364.97,24.41&#10;366.99,24.41&#10;369.01,24.41&#10;371.03,24.4&#10;373.05,24.4&#10;375.08,24.39&#10;377.1,24.39&#10;379.12,24.39&#10;381.14,24.39&#10;383.16,24.4&#10;385.18,24.4&#10;387.2,24.4&#10;389.23,24.4&#10;391.25,24.4&#10;393.27,24.41&#10;395.29,24.41&#10;397.31,24.41&#10;399.33,24.41&#10;401.35,24.41&#10;403.38,24.41&#10;405.4,24.41&#10;407.42,24.41&#10;409.44,24.41&#10;411.46,24.41&#10;413.48,24.41&#10;415.5,24.41&#10;417.53,24.41&#10;419.55,24.41&#10;421.57,24.41&#10;423.59,24.41&#10;425.61,24.41&#10;427.63,24.41&#10;429.65,24.41&#10;431.68,24.41&#10;433.7,24.41&#10;435.72,24.41&#10;437.74,24.41&#10;439.76,24.41&#10;441.78,24.41&#10;443.8,24.41&#10;445.83,24.41&#10;447.85,24.41&#10;449.87,24.41&#10;451.89,24.41&#10;453.91,24.41&#10;455.93,24.41&#10;457.95,24.41&#10;459.98,24.41&#10;462,24.41&#10;464.02,24.41&#10;466.04,24.41&#10;468.06,24.41&#10;470.08,24.42&#10;472.1,24.42&#10;472.1,24.42"/><polyline class="range" points="169.5,25.64&#10;169.5,26.86&#10;246.31,26.86&#10;246.31,25.64"/><polyline class="range" points="248.33,25.64&#10;248.33,26.86&#10;257.83,26.86&#10;257.83,25.64"/><polyline class="range" points="98.95,28.08&#10;98.95,29.3&#10;276.23,29.3&#10;276.23,28.08"/><polyline class="range" points="299.47,28.08&#10;299.47,29.3&#10;310.79,29.3&#10;310.79,28.08"/></g><g id="itemarea4" transform="translate(0 36.23)"/><g id="itemarea5" transform="translate(0 56.44)"/><g id="itemarea6" transform="translate(0 76.66)"><polygon class="main" points="-148.47,24.42&#10;-148.47,24.42&#10;-146.45,24.42&#10;-144.43,24.42&#10;-142.41,24.41&#10;-140.39,24.41&#10;-138.37,24.41&#10;-136.35,24.41&#10;-134.32,24.41&#10;-132.3,24.41&#10;-130.28,24.41&#10;-128.26,24.41&#10;-126.24,24.41&#10;-124.22,24.41&#10;-122.2,24.41&#10;-120.17,24.41&#10;-118.15,24.41&#10;-116.13,24.41&#10;-114.11,24.41&#10;-112.09,24.42&#10;-110.07,24.42&#10;-108.05,24.42&#10;-106.02,24.42&#10;-104,24.41&#10;-101.98,24.41&#10;-99.96,24.42&#10;-97.94,24.42&#10;-95.92,24.42&#10;-93.9,24.41&#10;-91.87,24.41&#10;-89.85,24.41&#10;-87.83,24.41&#10;-85.81,24.41&#10;-83.79,24.41&#10;-81.77,24.41&#10;-79.75,24.41&#10;-77.72,24.41&#10;-75.7,24.41&#10;-73.68,24.41&#10;-71.66,24.41&#10;-69.64,24.41&#10;-67.62,24.41&#10;-65.6,24.41&#10;-63.57,24.41&#10;-61.55,24.41&#10;-59.53,24.41&#10;-57.51,24.41&#10;-55.49,24.41&#10;-53.47,24.41&#10;-51.45,24.41&#10;-49.42,24.41&#10;-47.4,24.41&#10;-45.38,24.41&#10;-43.36,24.41&#10;-41.34,24.41&#10;-39.32,24.41&#10;-37.3,24.41&#10;-35.27,24.41&#10;-33.25,24.41&#10;-31.23,24.41&#10;-29.21,24.41&#10;-27.19,24.41&#10;-25.17,24.41&#10;-23.15,24.41&#10;-21.12,24.41&#10;-19.1,24.41&#10;-17.08,24.41&#10;-15.06,24.41&#10;-13.04,24.4&#10;-11.02,24.4&#10;-9,24.4&#10;-6.97,24.4&#10;-4.95,24.41&#10;-2.93,24.41&#10;-0.91,24.41&#10;1.11,24.4&#10;3.13,24.4&#10;5.15,24.4&#10;7.18,24.4&#10;9.2,24.39&#10;11.22,24.38&#10;13.24,24.37&#10;15.26,24.38&#10;17.28,24.38&#10;19.3,24.39&#10;21.33,24.39&#10;23.35,24.38&#10;25.37,24.36&#10;27.39,24.35&#10;29.41,24.35&#10;31.43,24.34&#10;33.45,24.3&#10;35.48,24.28&#10;37.5,24.31&#10;39.52,24.34&#10;41.54,24.35&#10;43.56,24.33&#10;45.58,24.32&#10;47.6,24.28&#10;49.63,24.2&#10;51.65,24.1&#10;53.67,24.06&#10;55.69,24.08&#10;57.71,24.11&#10;59.73,24.12&#10;61.75,24.1&#10;63.78,24.08&#10;65.8,24.07&#10;67.82,24.05&#10;69.84,24.04&#10;71.86,24.04&#10;73.88,24.05&#10;75.9,24.08&#10;77.93,24.1&#10;79.95,24.09&#10;81.97,24.01&#10;83.99,23.89&#10;86.01,23.73&#10;88.03,23.63&#10;90.05,23.61&#10;92.08,23.56&#10;94.1,23.37&#10;96.12,23.05&#10;98.14,22.7&#10;100.16,22.35&#10;102.18,21.89&#10;104.2,21.16&#10;106.23,20.46&#10;108.25,20.3&#10;110.27,20.76&#10;112.29,21.41&#10;114.31,21.87&#10;116.33,22.15&#10;118.35,22.36&#10;120.38,22.58&#10;122.4,22.54&#10;124.42,22.36&#10;126.44,22.28&#10;128.46,22.14&#10;130.48,21.9&#10;132.5,21.45&#10;134.53,21.3&#10;136.55,21&#10;138.57,20.84&#10;140.59,20.5&#10;142.61,20.39&#10;144.63,20.43&#10;146.65,20.19&#10;148.68,20.19&#10;150.7,20.2&#10;152.72,19.98&#10;154.74,19.8&#10;156.76,19.85&#10;158.78,19.82&#10;160.8,19.9&#10;162.83,19.49&#10;164.85,19.1&#10;166.87,18.75&#10;168.89,18.41&#10;170.91,18.33&#10;172.93,18.31&#10;174.95,18.36&#10;176.98,18.48&#10;179,18.58&#10;181.02,18.49&#10;183.04,18.48&#10;185.06,18.46&#10;187.08,18.36&#10;189.1,18.32&#10;191.13,18.37&#10;193.15,18.56&#10;195.17,18.64&#10;197.19,18.62&#10;199.21,18.5&#10;201.23,18.38&#10;203.25,18.36&#10;205.28,18.39&#10;207.3,18.39&#10;209.32,18.34&#10;211.34,18.33&#10;213.36,18.38&#10;215.38,18.51&#10;217.4,18.79&#10;219.43,19.16&#10;221.45,19.52&#10;223.47,19.69&#10;225.49,19.82&#10;227.51,20.08&#10;229.53,20.4&#10;231.55,20.67&#10;233.58,20.84&#10;235.6,20.95&#10;237.62,21.07&#10;239.64,21.29&#10;241.66,21.7&#10;243.68,22.28&#10;245.7,22.68&#10;247.73,22.74&#10;249.75,22.6&#10;251.77,22.4&#10;253.79,22.24&#10;255.81,22.34&#10;257.83,22.7&#10;259.85,23.13&#10;261.88,23.52&#10;263.9,23.83&#10;265.92,24.04&#10;267.94,24.17&#10;269.96,24.25&#10;271.98,24.29&#10;274,24.32&#10;276.03,24.34&#10;278.05,24.36&#10;280.07,24.36&#10;282.09,24.35&#10;284.11,24.37&#10;286.13,24.39&#10;288.15,24.39&#10;290.18,24.39&#10;292.2,24.38&#10;294.22,24.38&#10;296.24,24.38&#10;298.26,24.36&#10;300.28,24.33&#10;302.3,24.31&#10;304.33,24.29&#10;306.35,24.34&#10;308.37,24.34&#10;310.39,24.32&#10;312.41,24.4&#10;314.43,24.41&#10;316.45,24.41&#10;318.48,24.41&#10;320.5,24.4&#10;322.52,24.41&#10;324.54,24.41&#10;326.56,24.41&#10;328.58,24.4&#10;330.6,24.41&#10;332.63,24.41&#10;334.65,24.41&#10;336.67,24.41&#10;338.69,24.41&#10;340.71,24.41&#10;342.73,24.41&#10;344.75,24.41&#10;346.78,24.41&#10;348.8,24.41&#10;350.82,24.41&#10;352.84,24.41&#10;354.86,24.41&#10;356.88,24.41&#10;358.9,24.41&#10;360.93,24.41&#10;362.95,24.41&#10;364.97,24.41&#10;366.99,24.41&#10;369.01,24.41&#10;371.03,24.41&#10;373.05,24.41&#10;375.08,24.41&#10;377.1,24.41&#10;379.12,24.41&#10;381.14,24.41&#10;383.16,24.41&#10;385.18,24.41&#10;387.2,24.41&#10;389.23,24.41&#10;391.25,24.41&#10;393.27,24.41&#10;395.29,24.41&#10;397.31,24.41&#10;399.33,24.41&#10;401.35,24.41&#10;403.38,24.42&#10;405.4,24.41&#10;407.42,24.41&#10;409.44,24.41&#10;411.46,24.42&#10;413.48,24.42&#10;413.48,24.42"/><polyline class="range" points="106.43,25.64&#10;106.43,26.86&#10;108.85,26.86&#10;108.85,25.64"/><polyline class="range" points="141.6,25.64&#10;141.6,26.86&#10;229.74,26.86&#10;229.74,25.64"/><polyline class="range" points="95.11,28.08&#10;95.11,29.3&#10;260.26,29.3&#10;260.26,28.08"/></g><g id="itemarea7" transform="translate(0 96.87)"/><g id="itemarea8" transform="translate(0 117.08)"/><g id="itemarea9" transform="translate(0 137.3)"><polygon class="main" points="92.08,24.42&#10;92.08,24.42&#10;94.1,24.42&#10;96.12,24.42&#10;98.14,24.41&#10;100.16,24.41&#10;102.18,24.41&#10;104.2,24.41&#10;106.23,24.41&#10;108.25,24.41&#10;110.27,24.41&#10;112.29,24.41&#10;114.31,24.41&#10;116.33,24.41&#10;118.35,24.41&#10;120.38,24.41&#10;122.4,24.41&#10;124.42,24.41&#10;126.44,24.41&#10;128.46,24.41&#10;130.48,24.41&#10;132.5,24.41&#10;134.53,24.41&#10;136.55,24.41&#10;138.57,24.41&#10;140.59,24.41&#10;142.61,24.41&#10;144.63,24.41&#10;146.65,24.4&#10;148.68,24.4&#10;150.7,24.41&#10;152.72,24.4&#10;154.74,24.39&#10;156.76,24.39&#10;158.78,24.39&#10;160.8,24.4&#10;162.83,24.37&#10;164.85,24.32&#10;166.87,24.19&#10;168.89,23.77&#10;170.91,23.42&#10;172.93,23.04&#10;174.95,22.36&#10;176.98,21.55&#10;179,21.07&#10;181.02,21.5&#10;183.04,21.58&#10;185.06,21.66&#10;187.08,22.35&#10;189.1,22.73&#10;191.13,22.25&#10;193.15,21.19&#10;195.17,20.81&#10;197.19,20.94&#10;199.21,21.48&#10;201.23,22.25&#10;203.25,22.42&#10;205.28,22.15&#10;207.3,22.18&#10;209.32,22.63&#10;211.34,22.66&#10;213.36,22.27&#10;215.38,21.42&#10;217.4,20.26&#10;219.43,19.25&#10;221.45,18.64&#10;223.47,18.46&#10;225.49,18.37&#10;227.51,18.31&#10;229.53,18.44&#10;231.55,18.69&#10;233.58,18.92&#10;235.6,19.08&#10;237.62,19.28&#10;239.64,19.7&#10;241.66,20.59&#10;243.68,21.93&#10;245.7,22.79&#10;247.73,22.92&#10;249.75,22.63&#10;251.77,22.2&#10;253.79,21.84&#10;255.81,22.05&#10;257.83,22.84&#10;259.85,23.6&#10;261.88,24.09&#10;263.9,24.31&#10;265.92,24.39&#10;267.94,24.41&#10;269.96,24.41&#10;271.98,24.41&#10;274,24.41&#10;276.03,24.41&#10;278.05,24.41&#10;280.07,24.41&#10;282.09,24.41&#10;284.11,24.41&#10;286.13,24.41&#10;288.15,24.41&#10;290.18,24.41&#10;292.2,24.41&#10;294.22,24.41&#10;296.24,24.41&#10;298.26,24.41&#10;300.28,24.41&#10;302.3,24.41&#10;304.33,24.41&#10;306.35,24.41&#10;308.37,24.41&#10;310.39,24.41&#10;312.41,24.41&#10;314.43,24.42&#10;316.45,24.42&#10;318.48,24.42&#10;318.48,24.42"/><polyline class="range" points="176.77,25.64&#10;176.77,26.86&#10;185.06,26.86&#10;185.06,25.64"/><polyline class="range" points="192.34,25.64&#10;192.34,26.86&#10;199.62,26.86&#10;199.62,25.64"/><polyline class="range" points="214.78,25.64&#10;214.78,26.86&#10;243.28,26.86&#10;243.28,25.64"/><polyline class="range" points="173.34,28.08&#10;173.34,29.3&#10;257.83,29.3&#10;257.83,28.08"/></g><g id="itemarea10" transform="translate(0 157.51)"/><g id="itemarea11" transform="translate(0 177.73)"/><g id="itemarea12" transform="translate(0 197.94)"><polygon class="main" points="98.14,24.42&#10;98.14,24.42&#10;100.16,24.42&#10;102.18,24.41&#10;104.2,24.41&#10;106.23,24.41&#10;108.25,24.41&#10;110.27,24.41&#10;112.29,24.41&#10;114.31,24.41&#10;116.33,24.42&#10;118.35,24.42&#10;120.38,24.42&#10;122.4,24.42&#10;124.42,24.42&#10;126.44,24.42&#10;128.46,24.42&#10;130.48,24.41&#10;132.5,24.41&#10;134.53,24.41&#10;136.55,24.41&#10;138.57,24.41&#10;140.59,24.41&#10;142.61,24.41&#10;144.63,24.41&#10;146.65,24.41&#10;148.68,24.41&#10;150.7,24.41&#10;152.72,24.41&#10;154.74,24.41&#10;156.76,24.41&#10;158.78,24.41&#10;160.8,24.41&#10;162.83,24.41&#10;164.85,24.41&#10;166.87,24.39&#10;168.89,24.32&#10;170.91,24.24&#10;172.93,24.15&#10;174.95,23.93&#10;176.98,23.6&#10;179,23.36&#10;181.02,23.57&#10;183.04,23.61&#10;185.06,23.65&#10;187.08,23.93&#10;189.1,24.05&#10;191.13,23.89&#10;193.15,23.42&#10;195.17,23.22&#10;197.19,23.28&#10;199.21,23.56&#10;201.23,23.88&#10;203.25,23.94&#10;205.28,23.84&#10;207.3,23.85&#10;209.32,24.02&#10;211.34,24.03&#10;213.36,23.89&#10;215.38,23.53&#10;217.4,22.86&#10;219.43,21.96&#10;221.45,21.09&#10;223.47,20.68&#10;225.49,20.39&#10;227.51,19.81&#10;229.53,19.21&#10;231.55,18.8&#10;233.58,18.6&#10;235.6,18.5&#10;237.62,18.41&#10;239.64,18.31&#10;241.66,18.44&#10;243.68,19.2&#10;245.7,20.15&#10;247.73,20.32&#10;249.75,19.93&#10;251.77,19.45&#10;253.79,19.12&#10;255.81,19.28&#10;257.83,20.2&#10;259.85,21.52&#10;261.88,22.83&#10;263.9,23.7&#10;265.92,24.13&#10;267.94,24.31&#10;269.96,24.37&#10;271.98,24.4&#10;274,24.41&#10;276.03,24.41&#10;278.05,24.41&#10;280.07,24.41&#10;282.09,24.41&#10;284.11,24.41&#10;286.13,24.41&#10;288.15,24.41&#10;290.18,24.41&#10;292.2,24.41&#10;294.22,24.41&#10;296.24,24.41&#10;298.26,24.41&#10;300.28,24.41&#10;302.3,24.4&#10;304.33,24.4&#10;306.35,24.41&#10;308.37,24.41&#10;310.39,24.41&#10;312.41,24.41&#10;314.43,24.42&#10;316.45,24.42&#10;318.48,24.41&#10;320.5,24.41&#10;322.52,24.41&#10;324.54,24.41&#10;326.56,24.41&#10;328.58,24.41&#10;330.6,24.41&#10;332.63,24.41&#10;334.65,24.42&#10;336.67,24.42&#10;336.67,24.42"/><polyline class="range" points="225.69,25.64&#10;225.69,26.86&#10;258.04,26.86&#10;258.04,25.64"/><polyline class="range" points="175.36,28.08&#10;175.36,29.3&#10;186.68,29.3&#10;186.68,28.08"/><polyline class="range" points="191.13,28.08&#10;191.13,29.3&#10;201.23,29.3&#10;201.23,28.08"/><polyline class="range" points="204.87,28.08&#10;204.87,29.3&#10;207.5,29.3&#10;207.5,28.08"/><polyline class="range" points="213.36,28.08&#10;213.36,29.3&#10;264.71,29.3&#10;264.71,28.08"/></g><g id="itemarea13" transform="translate(0 218.15)"><polygon class="main" points="162.83,24.42&#10;162.83,24.42&#10;164.85,24.42&#10;166.87,24.42&#10;168.89,24.41&#10;170.91,24.41&#10;172.93,24.41&#10;174.95,24.41&#10;176.98,24.41&#10;179,24.41&#10;181.02,24.41&#10;183.04,24.41&#10;185.06,24.41&#10;187.08,24.41&#10;189.1,24.41&#10;191.13,24.41&#10;193.15,24.41&#10;195.17,24.41&#10;197.19,24.41&#10;199.21,24.41&#10;201.23,24.41&#10;203.25,24.41&#10;205.28,24.41&#10;207.3,24.41&#10;209.32,24.41&#10;211.34,24.41&#10;213.36,24.41&#10;215.38,24.41&#10;217.4,24.41&#10;219.43,24.41&#10;221.45,24.41&#10;223.47,24.4&#10;225.49,24.4&#10;227.51,24.39&#10;229.53,24.37&#10;231.55,24.35&#10;233.58,24.33&#10;235.6,24.31&#10;237.62,24.29&#10;239.64,24.25&#10;241.66,24.11&#10;243.68,23.77&#10;245.7,23.34&#10;247.73,23.26&#10;249.75,23.45&#10;251.77,23.67&#10;253.79,23.81&#10;255.81,23.74&#10;257.83,23.33&#10;259.85,22.51&#10;261.88,21.27&#10;263.9,19.84&#10;265.92,18.76&#10;267.94,18.31&#10;269.96,18.4&#10;271.98,18.79&#10;274,19.34&#10;276.03,19.86&#10;278.05,20.37&#10;280.07,20.42&#10;282.09,20.09&#10;284.11,21&#10;286.13,22.05&#10;288.15,21.95&#10;290.18,21.98&#10;292.2,21.5&#10;294.22,21.33&#10;296.24,21.38&#10;298.26,20.59&#10;300.28,19.43&#10;302.3,19&#10;304.33,18.68&#10;306.35,19.55&#10;308.37,19.74&#10;310.39,19.17&#10;312.41,23.33&#10;314.43,24.3&#10;316.45,24.14&#10;318.48,23.65&#10;320.5,23.3&#10;322.52,23.52&#10;324.54,23.6&#10;326.56,23.56&#10;328.58,23.41&#10;330.6,23.57&#10;332.63,23.84&#10;334.65,24.05&#10;336.67,24.12&#10;338.69,24.16&#10;340.71,24.14&#10;342.73,24.09&#10;344.75,24.03&#10;346.78,23.97&#10;348.8,23.96&#10;350.82,23.99&#10;352.84,24.07&#10;354.86,24.21&#10;356.88,24.33&#10;358.9,24.39&#10;360.93,24.41&#10;362.95,24.41&#10;364.97,24.41&#10;366.99,24.41&#10;369.01,24.41&#10;371.03,24.41&#10;373.05,24.41&#10;375.08,24.4&#10;377.1,24.4&#10;379.12,24.4&#10;381.14,24.4&#10;383.16,24.41&#10;385.18,24.41&#10;387.2,24.41&#10;389.23,24.41&#10;391.25,24.41&#10;393.27,24.41&#10;395.29,24.41&#10;397.31,24.41&#10;399.33,24.41&#10;401.35,24.41&#10;403.38,24.42&#10;405.4,24.41&#10;407.42,24.41&#10;409.44,24.41&#10;411.46,24.41&#10;413.48,24.42&#10;415.5,24.42&#10;415.5,24.42"/><polyline class="range" points="261.88,25.64&#10;261.88,26.86&#10;284.52,26.86&#10;284.52,25.64"/><polyline class="range" points="296.64,25.64&#10;296.64,26.86&#10;311.4,26.86&#10;311.4,25.64"/><polyline class="range" points="243.28,28.08&#10;243.28,29.3&#10;313.42,29.3&#10;313.42,28.08"/><polyline class="range" points="317.67,28.08&#10;317.67,29.3&#10;332.63,29.3&#10;332.63,28.08"/></g><g id="itemarea14" transform="translate(0 238.37)"><polygon class="main" points="164.85,24.42&#10;164.85,24.42&#10;166.87,24.42&#10;168.89,24.42&#10;170.91,24.41&#10;172.93,24.41&#10;174.95,24.41&#10;176.98,24.41&#10;179,24.41&#10;181.02,24.41&#10;183.04,24.41&#10;185.06,24.41&#10;187.08,24.41&#10;189.1,24.41&#10;191.13,24.41&#10;193.15,24.41&#10;195.17,24.41&#10;197.19,24.41&#10;199.21,24.41&#10;201.23,24.41&#10;203.25,24.41&#10;205.28,24.41&#10;207.3,24.41&#10;209.32,24.41&#10;211.34,24.41&#10;213.36,24.41&#10;215.38,24.41&#10;217.4,24.41&#10;219.43,24.41&#10;221.45,24.41&#10;223.47,24.41&#10;225.49,24.41&#10;227.51,24.4&#10;229.53,24.39&#10;231.55,24.38&#10;233.58,24.36&#10;235.6,24.35&#10;237.62,24.34&#10;239.64,24.31&#10;241.66,24.22&#10;243.68,23.98&#10;245.7,23.66&#10;247.73,23.59&#10;249.75,23.74&#10;251.77,23.9&#10;253.79,24.01&#10;255.81,23.96&#10;257.83,23.65&#10;259.85,22.99&#10;261.88,21.9&#10;263.9,20.51&#10;265.92,19.26&#10;267.94,18.52&#10;269.96,18.31&#10;271.98,18.49&#10;274,18.88&#10;276.03,19.3&#10;278.05,19.76&#10;280.07,19.8&#10;282.09,19.49&#10;284.11,20.36&#10;286.13,21.44&#10;288.15,21.34&#10;290.18,21.36&#10;292.2,20.85&#10;294.22,20.68&#10;296.24,20.73&#10;298.26,19.95&#10;300.28,18.92&#10;302.3,18.6&#10;304.33,18.39&#10;306.35,19.02&#10;308.37,19.18&#10;310.39,18.71&#10;312.41,23.04&#10;314.43,24.23&#10;316.45,23.99&#10;318.48,23.34&#10;320.5,22.89&#10;322.52,23.17&#10;324.54,23.27&#10;326.56,23.22&#10;328.58,23.03&#10;330.6,23.23&#10;332.63,23.59&#10;334.65,23.86&#10;336.67,23.97&#10;338.69,24.02&#10;340.71,24&#10;342.73,23.93&#10;344.75,23.84&#10;346.78,23.75&#10;348.8,23.74&#10;350.82,23.78&#10;352.84,23.9&#10;354.86,24.1&#10;356.88,24.27&#10;358.9,24.37&#10;360.93,24.4&#10;362.95,24.41&#10;364.97,24.41&#10;366.99,24.41&#10;369.01,24.41&#10;371.03,24.41&#10;373.05,24.4&#10;375.08,24.39&#10;377.1,24.38&#10;379.12,24.39&#10;381.14,24.39&#10;383.16,24.4&#10;385.18,24.41&#10;387.2,24.41&#10;389.23,24.41&#10;391.25,24.41&#10;393.27,24.41&#10;395.29,24.41&#10;397.31,24.41&#10;399.33,24.41&#10;401.35,24.41&#10;403.38,24.41&#10;405.4,24.41&#10;407.42,24.41&#10;409.44,24.41&#10;411.46,24.41&#10;413.48,24.42&#10;415.5,24.42&#10;417.53,24.42&#10;417.53,24.42"/><polyline class="range" points="263.7,25.64&#10;263.7,26.86&#10;284.72,26.86&#10;284.72,25.64"/><polyline class="range" points="294.02,25.64&#10;294.02,26.86&#10;311.4,26.86&#10;311.4,25.64"/><polyline class="range" points="244.49,28.08&#10;244.49,29.3&#10;251.16,29.3&#10;251.16,28.08"/><polyline class="range" points="256.42,28.08&#10;256.42,29.3&#10;313.83,29.3&#10;313.83,28.08"/><polyline class="range" points="316.86,28.08&#10;316.86,29.3&#10;334.65,29.3&#10;334.65,28.08"/><polyline class="range" points="344.15,28.08&#10;344.15,29.3&#10;352.23,29.3&#10;352.23,28.08"/></g><g id="itemarea15" transform="translate(0 258.58)"/><g id="itemarea16" transform="translate(0 278.8)"/><g id="itemarea17" transform="translate(0 299.01)"><polygon class="main" points="98.14,24.42&#10;98.14,24.42&#10;100.16,24.42&#10;102.18,24.41&#10;104.2,24.41&#10;106.23,24.41&#10;108.25,24.41&#10;110.27,24.41&#10;112.29,24.41&#10;114.31,24.41&#10;116.33,24.42&#10;118.35,24.42&#10;120.38,24.42&#10;122.4,24.42&#10;124.42,24.42&#10;126.44,24.42&#10;128.46,24.42&#10;130.48,24.41&#10;132.5,24.41&#10;134.53,24.41&#10;136.55,24.41&#10;138.57,24.41&#10;140.59,24.41&#10;142.61,24.41&#10;144.63,24.41&#10;146.65,24.41&#10;148.68,24.41&#10;150.7,24.41&#10;152.72,24.41&#10;154.74,24.4&#10;156.76,24.4&#10;158.78,24.4&#10;160.8,24.41&#10;162.83,24.38&#10;164.85,24.3&#10;166.87,24.04&#10;168.89,22.99&#10;170.91,22.06&#10;172.93,21.16&#10;174.95,19.79&#10;176.98,18.73&#10;179,18.4&#10;181.02,18.68&#10;183.04,18.76&#10;185.06,18.84&#10;187.08,19.77&#10;189.1,20.48&#10;191.13,19.62&#10;193.15,18.46&#10;195.17,18.31&#10;197.19,18.4&#10;199.21,18.72&#10;201.23,19.66&#10;203.25,19.93&#10;205.28,19.49&#10;207.3,19.59&#10;209.32,20.31&#10;211.34,20.38&#10;213.36,19.72&#10;215.38,18.67&#10;217.4,18.39&#10;219.43,19.29&#10;221.45,20.5&#10;223.47,21.1&#10;225.49,21.51&#10;227.51,22.29&#10;229.53,23.03&#10;231.55,23.5&#10;233.58,23.73&#10;235.6,23.85&#10;237.62,23.96&#10;239.64,24.13&#10;241.66,24.3&#10;243.68,24.39&#10;245.7,24.41&#10;247.73,24.41&#10;249.75,24.41&#10;251.77,24.4&#10;253.79,24.39&#10;255.81,24.4&#10;257.83,24.41&#10;259.85,24.41&#10;261.88,24.41&#10;263.9,24.42&#10;265.92,24.42&#10;267.94,24.42&#10;267.94,24.42"/><polyline class="range" points="174.95,25.64&#10;174.95,26.86&#10;187.08,26.86&#10;187.08,25.64"/><polyline class="range" points="190.72,25.64&#10;190.72,26.86&#10;207.9,26.86&#10;207.9,25.64"/><polyline class="range" points="213.16,25.64&#10;213.16,26.86&#10;220.23,26.86&#10;220.23,25.64"/><polyline class="range" points="169.5,28.08&#10;169.5,29.3&#10;228.72,29.3&#10;228.72,28.08"/></g></g></g><g id="textarea" transform="translate(14.15 14.15)"><g id="itemarea2" transform="translate(0 -4.2)"><text transform="translate(0 2.91)" style="font-size:7.27pt" x="7.22" y="24.42">Phase 6.3</text></g><g id="itemarea3" transform="translate(0 16.01)"><text transform="translate(0 2.91)" style="font-size:7.27pt" x="7.22" y="24.42">R_Date GU-2244</text></g><g id="itemarea4" transform="translate(0 36.23)"><text transform="translate(0 2.91)" style="font-size:7.27pt" x="7.22" y="24.42"></text></g><g id="itemarea5" transform="translate(0 56.44)"><text transform="translate(0 2.91)" style="font-size:7.27pt" x="7.22" y="24.42">Phase 6.4</text></g><g id="itemarea6" transform="translate(0 76.66)"><text transform="translate(0 2.91)" style="font-size:7.27pt" x="7.22" y="24.42">R_Date GU-2243</text></g><g id="itemarea7" transform="translate(0 96.87)"><text transform="translate(0 2.91)" style="font-size:7.27pt" x="7.22" y="24.42"></text></g><g id="itemarea8" transform="translate(0 117.08)"><text transform="translate(0 2.91)" style="font-size:7.27pt" x="7.22" y="24.42">Phase 6.6</text></g><g id="itemarea9" transform="translate(0 137.3)"><text transform="translate(0 2.91)" style="font-size:7.27pt" x="7.22" y="24.42">R_Date GU-1999</text></g><g id="itemarea10" transform="translate(0 157.51)"><text transform="translate(0 2.91)" style="font-size:7.27pt" x="7.22" y="24.42"></text></g><g id="itemarea11" transform="translate(0 177.73)"><text transform="translate(0 2.91)" style="font-size:7.27pt" x="7.22" y="24.42">Phase 6.7</text></g><g id="itemarea12" transform="translate(0 197.94)"><text transform="translate(0 2.91)" style="font-size:7.27pt" x="7.22" y="24.42">R_Date GU-2000</text></g><g id="itemarea13" transform="translate(0 218.15)"><text transform="translate(0 2.91)" style="font-size:7.27pt" x="7.22" y="24.42">R_Date GU-1809</text></g><g id="itemarea14" transform="translate(0 238.37)"><text transform="translate(0 2.91)" style="font-size:7.27pt" x="7.22" y="24.42">R_Date GU-2001</text></g><g id="itemarea15" transform="translate(0 258.58)"><text transform="translate(0 2.91)" style="font-size:7.27pt" x="7.22" y="24.42"></text></g><g id="itemarea16" transform="translate(0 278.8)"><text transform="translate(0 2.91)" style="font-size:7.27pt" x="7.22" y="24.42">Bone with Pictish symbol recovered from Phase 7.1 context</text></g><g id="itemarea17" transform="translate(0 299.01)"><text transform="translate(0 2.91)" style="font-size:7.27pt" x="7.22" y="24.42">R_Date SUERC-73735</text></g></g><rect class="border" x="14.15" width="481.1" y="14.15" height="343.64"/><g><line class="gridline" x1="53.47" y1="357.79" x2="53.47" y2="14.15"/><line class="gridline" x1="93.9" y1="357.79" x2="93.9" y2="14.15"/><line class="gridline" x1="134.32" y1="357.79" x2="134.32" y2="14.15"/><line class="gridline" x1="174.75" y1="357.79" x2="174.75" y2="14.15"/><line class="gridline" x1="215.18" y1="357.79" x2="215.18" y2="14.15"/><line class="gridline" x1="255.61" y1="357.79" x2="255.61" y2="14.15"/><line class="gridline" x1="296.04" y1="357.79" x2="296.04" y2="14.15"/><line class="gridline" x1="336.47" y1="357.79" x2="336.47" y2="14.15"/><line class="gridline" x1="376.9" y1="357.79" x2="376.9" y2="14.15"/><line class="gridline" x1="417.32" y1="357.79" x2="417.32" y2="14.15"/><line class="gridline" x1="457.75" y1="357.79" x2="457.75" y2="14.15"/></g><g><line class="majorpip" x1="14.15" y1="357.79" x2="495.25" y2="357.79"/><line class="minorpip" x1="23.15" y1="357.79" x2="23.15" y2="354.96"/><line class="minorpip" x1="33.25" y1="357.79" x2="33.25" y2="354.96"/><line class="minorpip" x1="43.36" y1="357.79" x2="43.36" y2="354.96"/><line class="minorpip" x1="53.47" y1="357.79" x2="53.47" y2="354.96"/><line class="minorpip" x1="63.57" y1="357.79" x2="63.57" y2="354.96"/><line class="minorpip" x1="73.68" y1="357.79" x2="73.68" y2="354.96"/><line class="minorpip" x1="83.79" y1="357.79" x2="83.79" y2="354.96"/><line class="minorpip" x1="93.9" y1="357.79" x2="93.9" y2="354.96"/><line class="minorpip" x1="104" y1="357.79" x2="104" y2="354.96"/><line class="minorpip" x1="114.11" y1="357.79" x2="114.11" y2="354.96"/><line class="minorpip" x1="124.22" y1="357.79" x2="124.22" y2="354.96"/><line class="minorpip" x1="134.32" y1="357.79" x2="134.32" y2="354.96"/><line class="minorpip" x1="144.43" y1="357.79" x2="144.43" y2="354.96"/><line class="minorpip" x1="154.54" y1="357.79" x2="154.54" y2="354.96"/><line class="minorpip" x1="164.65" y1="357.79" x2="164.65" y2="354.96"/><line class="minorpip" x1="174.75" y1="357.79" x2="174.75" y2="354.96"/><line class="minorpip" x1="184.86" y1="357.79" x2="184.86" y2="354.96"/><line class="minorpip" x1="194.97" y1="357.79" x2="194.97" y2="354.96"/><line class="minorpip" x1="205.07" y1="357.79" x2="205.07" y2="354.96"/><line class="minorpip" x1="215.18" y1="357.79" x2="215.18" y2="354.96"/><line class="minorpip" x1="225.29" y1="357.79" x2="225.29" y2="354.96"/><line class="minorpip" x1="235.4" y1="357.79" x2="235.4" y2="354.96"/><line class="minorpip" x1="245.5" y1="357.79" x2="245.5" y2="354.96"/><line class="minorpip" x1="255.61" y1="357.79" x2="255.61" y2="354.96"/><line class="minorpip" x1="265.72" y1="357.79" x2="265.72" y2="354.96"/><line class="minorpip" x1="275.82" y1="357.79" x2="275.82" y2="354.96"/><line class="minorpip" x1="285.93" y1="357.79" x2="285.93" y2="354.96"/><line class="minorpip" x1="296.04" y1="357.79" x2="296.04" y2="354.96"/><line class="minorpip" x1="306.15" y1="357.79" x2="306.15" y2="354.96"/><line class="minorpip" x1="316.25" y1="357.79" x2="316.25" y2="354.96"/><line class="minorpip" x1="326.36" y1="357.79" x2="326.36" y2="354.96"/><line class="minorpip" x1="336.47" y1="357.79" x2="336.47" y2="354.96"/><line class="minorpip" x1="346.57" y1="357.79" x2="346.57" y2="354.96"/><line class="minorpip" x1="356.68" y1="357.79" x2="356.68" y2="354.96"/><line class="minorpip" x1="366.79" y1="357.79" x2="366.79" y2="354.96"/><line class="minorpip" x1="376.9" y1="357.79" x2="376.9" y2="354.96"/><line class="minorpip" x1="387" y1="357.79" x2="387" y2="354.96"/><line class="minorpip" x1="397.11" y1="357.79" x2="397.11" y2="354.96"/><line class="minorpip" x1="407.22" y1="357.79" x2="407.22" y2="354.96"/><line class="minorpip" x1="417.32" y1="357.79" x2="417.32" y2="354.96"/><line class="minorpip" x1="427.43" y1="357.79" x2="427.43" y2="354.96"/><line class="minorpip" x1="437.54" y1="357.79" x2="437.54" y2="354.96"/><line class="minorpip" x1="447.65" y1="357.79" x2="447.65" y2="354.96"/><line class="minorpip" x1="457.75" y1="357.79" x2="457.75" y2="354.96"/><line class="minorpip" x1="467.86" y1="357.79" x2="467.86" y2="354.96"/><line class="minorpip" x1="477.97" y1="357.79" x2="477.97" y2="354.96"/><line class="minorpip" x1="488.07" y1="357.79" x2="488.07" y2="354.96"/><line class="majorpip" x1="53.47" y1="357.79" x2="53.47" y2="352.13"/><text transform="translate(0 8.44)" style="font-size:7.27pt;text-anchor:middle" x="53.47" y="357.79">100</text><line class="majorpip" x1="93.9" y1="357.79" x2="93.9" y2="352.13"/><text transform="translate(0 8.44)" style="font-size:7.27pt;text-anchor:middle" x="93.9" y="357.79">200</text><line class="majorpip" x1="134.32" y1="357.79" x2="134.32" y2="352.13"/><text transform="translate(0 8.44)" style="font-size:7.27pt;text-anchor:middle" x="134.32" y="357.79">300</text><line class="majorpip" x1="174.75" y1="357.79" x2="174.75" y2="352.13"/><text transform="translate(0 8.44)" style="font-size:7.27pt;text-anchor:middle" x="174.75" y="357.79">400</text><line class="majorpip" x1="215.18" y1="357.79" x2="215.18" y2="352.13"/><text transform="translate(0 8.44)" style="font-size:7.27pt;text-anchor:middle" x="215.18" y="357.79">500</text><line class="majorpip" x1="255.61" y1="357.79" x2="255.61" y2="352.13"/><text transform="translate(0 8.44)" style="font-size:7.27pt;text-anchor:middle" x="255.61" y="357.79">600</text><line class="majorpip" x1="296.04" y1="357.79" x2="296.04" y2="352.13"/><text transform="translate(0 8.44)" style="font-size:7.27pt;text-anchor:middle" x="296.04" y="357.79">700</text><line class="majorpip" x1="336.47" y1="357.79" x2="336.47" y2="352.13"/><text transform="translate(0 8.44)" style="font-size:7.27pt;text-anchor:middle" x="336.47" y="357.79">800</text><line class="majorpip" x1="376.9" y1="357.79" x2="376.9" y2="352.13"/><text transform="translate(0 8.44)" style="font-size:7.27pt;text-anchor:middle" x="376.9" y="357.79">900</text><line class="majorpip" x1="417.32" y1="357.79" x2="417.32" y2="352.13"/><text transform="translate(0 8.44)" style="font-size:7.27pt;text-anchor:middle" x="417.32" y="357.79">1000</text><line class="majorpip" x1="457.75" y1="357.79" x2="457.75" y2="352.13"/><text transform="translate(0 8.44)" style="font-size:7.27pt;text-anchor:middle" x="457.75" y="357.79">1100</text><text transform="translate(0 2.91)" style="font-size:7.27pt;text-anchor:middle" x="254.7" y="386.09">Calibrated date (calAD)</text></g><g id="references" transform="translate(0 0)"><text transform="translate(0 -1.05)" style="font-size:4.36pt" x="14.15" y="14.15">OxCal v4.4.4 Bronk Ramsey (2021); r:5 Atmospheric data from Reimer et al (2020)</text></g></g></g>
</svg>