<?xml version="1.0" encoding="UTF-8"?><svg id="top" version="1.1" xmlns="http://www.w3.org/2000/svg" xmlns:xlink="http://www.w3.org/1999/xlink" xmlns:ev="http://www.w3.org/2001/xml-events" width="509.400pt" height="278.957pt" zoomAndPan="magnify" preserveAspectRatio="xMinYMin" onload="createPlot()" viewBox="0 0 509.400 278.957">
   <defs id="definitions">
   <filter id="Shadow" filterUnits="userSpaceOnUse">
    <feGaussianBlur in="SourceAlpha" stdDeviation="4" result="blur"/>
    <feOffset in="blur" dx="4" dy="4" result="offsetBlurredAlpha"/>
    <feMerge>
     <feMergeNode in="offsetBlurredAlpha"/>
     <feMergeNode in="SourceGraphic"/>
    </feMerge> 
   </filter>    
    <filter id="Correlation1" x="-20%" y="-20%" width="140%" height="140%" filterUnits="objectBoundingBox">
     <feGaussianBlur in="SourceGraphic" stdDeviation="7" result="blur"/>
     <feColorMatrix type="matrix" in="blur" values="0 0 0  5.00 -2.00&#10;               0 0 0 -2.50  2.50&#10;               0 0 0  0.00  0.00&#10;               0 0 0  2.50  0.00"/>
    </filter>    
    <filter id="Correlation2" x="-20%" y="-20%" width="140%" height="140%" filterUnits="objectBoundingBox">
     <feGaussianBlur in="SourceGraphic" stdDeviation="7" result="blur"/>
     <feGaussianBlur in="SourceAlpha" stdDeviation="7" result="opacity"/>
     <feColorMatrix type="matrix" in="blur" result="newcolor" values="0 0 0  5.00 -2.00&#10;               0 0 0 -2.50  2.50&#10;               0 0 0  0.00  0.00&#10;               0 0 0  2.50  0.00"/>
     <feSpecularLighting in="opacity" surfaceScale="5" specularConstant="1" specularExponent="20" lighting-color="white" result="specularOut">
      <feDistantLight azimuth="225" elevation="30"/>
     </feSpecularLighting>
     <feComposite in="newcolor" in2="specularOut" operator="arithmetic" k1="0" k2="1" k3="1" k4="0" result="litPaint"/>
    </filter>
    <pattern id="Sequence" patternUnits="userSpaceOnUse" x="0" y="0" width="5" height="5" viewBox="0 0 5 5">
    </pattern>    
    <pattern id="U_Sequence" patternUnits="userSpaceOnUse" x="0" y="0" width="5" height="5" viewBox="0 0 5 5">
     <line x1="-2.5" x2="5" y1="5" y2="-2.5" style="stroke-width:1.5;stroke:black"/>
     <line x1="0" x2="7.5" y1="7.5" y2="0" style="stroke-width:1.5;stroke:black"/>
    </pattern>    
    <pattern id="D_Sequence" patternUnits="userSpaceOnUse" x="0" y="0" width="5" height="5" viewBox="0 0 5 5">
     <line x1="-2.5" x2="7.5" y1="-2.5" y2="7.5" style="stroke-width:1;stroke:black"/>
     <line x1="-2.5" x2="7.5" y1="7.5" y2="-2.5" style="stroke-width:1;stroke:black"/>
    </pattern>    
    <pattern id="V_Sequence" patternUnits="userSpaceOnUse" x="0" y="0" width="5" height="5" viewBox="0 0 5 5">
     <ellipse cx="2.5" cy="2.5" rx="1.5" ry="0.7" style="fill:black"/>
    </pattern>    
    <pattern id="P_Sequence" patternUnits="userSpaceOnUse" x="0" y="0" width="5" height="5" viewBox="0 0 5 5">
     <circle cx="1.25" cy="3.75" r="1" style="fill:black"/>
     <circle cx="3.75" cy="1.25" r="1" style="fill:black"/>
    </pattern>
    <style type="text/css">
      rect.border { fill:none; stroke:black;stroke-width:1px }
      rect.fillblack { fill:black; stroke:black;stroke-width:1px }
      rect.structure { fill:none; stroke:none }
      rect.structtab { fill:none; stroke:none }
      rect.structclip { fill:white; stroke:none }
      rect.structborder { fill:none; stroke:black; stroke-width:0.5px }
      rect.range3 {fill:none;stroke:black;stroke-width:1px }
      rect.range2 {fill:none;stroke:black;stroke-width:1px }
      rect.range1 {fill:none;stroke:black;stroke-width:1px }
      rect.fillbackground { fill:#000099 }
      rect.fillmodel { fill:none;stroke:black;stroke-width:1px }
      rect.modeldist { fill:none;stroke:black;stroke-width:1px }
      rect.fill { }
      polygon.main { fill:black; stroke:black;stroke-width:0.2px }
      polygon.shadow { fill:none;stroke:black;stroke-width:0.2px }
      polygon.curve { fill:none;stroke:black;stroke-width:1px }
      polygon.normal { fill:none;stroke:black;stroke-width:1px }
      polygon.kdesigma { fill:lightgrey; stroke:grey;stroke-width:0px;fill-opacity:0.2 }
      polygon.modeldist { fill:url(#U_Sequence);stroke:black;stroke-width:1px }
      polyline.datacurve { fill:none; stroke:black;stroke-width:1px }
      polyline.range { fill:none; stroke:black; stroke-width:1px; stroke-linejoin:round }
      polyline.ensemble { fill:none; stroke:black; stroke-width:0.5px;stroke-opacity:0.2 }
      polyline.kdemean { fill:none; stroke:black; stroke-width:1px }
      path.model3 { fill:none;stroke:black;stroke-width:1px }
      path.model2 { fill:none;stroke:black;stroke-width:1px }
      path.model1 { fill:none;stroke:black;stroke-width:1px }
      g.curve { fill:none;stroke:black;stroke-width:1px }
      line.majorpip { stroke:black; stroke-width:1px }
      line.minorpip { stroke:black; stroke-width:0.5px }
      line.gridline { stroke:black; stroke-width:0.5px }
      line.majorpip2 { stroke:white; stroke-width:1px }
      line.minorpip2 { stroke:white; stroke-width:0.5px }
      line.gridline2 { stroke:white; stroke-width:0.5px }
      line.okline { stroke:black; stroke-width:1px }
      line.errorline { stroke:black; stroke-width:1px }
      line.range { stroke:black; stroke-width:1px }
      line.modelline { stroke:black; stroke-width:1px }
      line.constrshadow { stroke:none; stroke-width:2px }
      line.constrok { stroke:black; stroke-width:1px }
      line.constrerror { stroke:black; stroke-width:1px }
      line.curve { stroke:black;stroke-width:1px }
      text { fill:black; stroke:none; font-size:10pt; font-family:"Arial","Helvetica"; font-style:normal }
    </style>
   <clipPath id="clip1"><rect x="0" width="481.1" y="0" height="222.36"/></clipPath><clipPath id="clip2"><rect x="0" width="481.1" y="0" height="222.36"/></clipPath></defs>
    <g id="mainframe"><rect x="-50.94" width="611.28" y="-27.9" height="334.75" style="fill:white" stroke="none"/><g id="mainviewport" transform="translate(0 0)"><rect class="border" x="14.15" width="481.1" y="14.15" height="222.36"/><g id="tabarea" transform="translate(14.15 14.15)"/><g id="plotarea" transform="translate(14.15 14.15)"><g id="structarea" transform="translate(0 0)"><g clip-path="url(#clip1)"><polyline class="range" points="9.62,12.13&#10;4.81,12.13&#10;4.81,210.23&#10;9.62,210.23"/><polyline class="range" points="14.43,32.34&#10;9.62,32.34&#10;9.62,109.16&#10;14.43,109.16"/><polyline class="range" points="14.43,133.42&#10;9.62,133.42&#10;9.62,210.23&#10;14.43,210.23"/></g></g><g clip-path="url(#clip2)"><g id="itemarea2" transform="translate(0 -4.2)"/><g id="itemarea3" transform="translate(0 16.01)"/><g id="itemarea4" transform="translate(0 36.23)"><polygon class="shadow" points="129.27,24.42&#10;129.27,24.42&#10;130.12,24.41&#10;130.97,24.41&#10;131.82,24.41&#10;132.67,24.41&#10;133.52,24.41&#10;134.37,24.41&#10;135.22,24.41&#10;136.08,24.41&#10;136.93,24.41&#10;137.78,24.41&#10;138.63,24.41&#10;139.48,24.41&#10;140.33,24.41&#10;141.18,24.41&#10;142.03,24.41&#10;142.88,24.41&#10;143.73,24.41&#10;144.58,24.41&#10;145.43,24.41&#10;146.28,24.41&#10;147.13,24.41&#10;147.98,24.41&#10;148.83,24.41&#10;149.68,24.41&#10;150.54,24.41&#10;151.39,24.41&#10;152.24,24.41&#10;153.09,24.41&#10;153.94,24.41&#10;154.79,24.41&#10;155.64,24.41&#10;156.49,24.41&#10;157.34,24.41&#10;158.19,24.41&#10;159.04,24.41&#10;159.89,24.41&#10;160.74,24.41&#10;161.59,24.41&#10;162.44,24.41&#10;163.29,24.41&#10;164.15,24.41&#10;165,24.41&#10;165.85,24.41&#10;166.7,24.41&#10;167.55,24.41&#10;168.4,24.41&#10;169.25,24.41&#10;170.1,24.41&#10;170.95,24.41&#10;171.8,24.41&#10;172.65,24.41&#10;173.5,24.41&#10;174.35,24.41&#10;175.2,24.41&#10;176.05,24.41&#10;176.9,24.41&#10;177.75,24.41&#10;178.61,24.41&#10;179.46,24.41&#10;180.31,24.41&#10;181.16,24.41&#10;182.01,24.41&#10;182.86,24.41&#10;183.71,24.41&#10;184.56,24.41&#10;185.41,24.41&#10;186.26,24.41&#10;187.11,24.41&#10;187.96,24.41&#10;188.81,24.41&#10;189.66,24.41&#10;190.51,24.41&#10;191.36,24.41&#10;192.21,24.41&#10;193.07,24.41&#10;193.92,24.41&#10;194.77,24.4&#10;195.62,24.38&#10;196.47,24.34&#10;197.32,24.27&#10;198.17,24.18&#10;199.02,24.09&#10;199.87,24.03&#10;200.72,23.99&#10;201.57,23.94&#10;202.42,23.85&#10;203.27,23.67&#10;204.12,23.36&#10;204.97,22.94&#10;205.82,22.49&#10;206.68,22.17&#10;207.53,22.13&#10;208.38,22.3&#10;209.23,22.62&#10;210.08,22.93&#10;210.93,23.17&#10;211.78,23.28&#10;212.63,23.31&#10;213.48,23.3&#10;214.33,23.33&#10;215.18,23.45&#10;216.03,23.61&#10;216.88,23.77&#10;217.73,23.85&#10;218.58,23.84&#10;219.43,23.77&#10;220.28,23.67&#10;221.14,23.63&#10;221.99,23.7&#10;222.84,23.85&#10;223.69,23.85&#10;224.54,23.61&#10;225.39,23.36&#10;226.24,23.37&#10;227.09,23.48&#10;227.94,23.47&#10;228.79,23.17&#10;229.64,22.59&#10;230.49,22.02&#10;231.34,21.8&#10;232.19,21.95&#10;233.04,22.11&#10;233.89,21.87&#10;234.74,21.34&#10;235.6,20.92&#10;236.45,20.7&#10;237.3,20.61&#10;238.15,20.4&#10;239,20.12&#10;239.85,20.11&#10;240.7,20.23&#10;241.55,20.37&#10;242.4,20.46&#10;243.25,20.38&#10;244.1,20.29&#10;244.95,20.22&#10;245.8,20.08&#10;246.65,19.87&#10;247.5,19.61&#10;248.35,19.3&#10;249.21,19.14&#10;250.06,19.21&#10;250.91,19.4&#10;251.76,19.65&#10;252.61,19.9&#10;253.46,19.95&#10;254.31,19.56&#10;255.16,19.02&#10;256.01,18.59&#10;256.86,18.36&#10;257.71,18.31&#10;258.56,18.34&#10;259.41,18.35&#10;260.26,18.36&#10;261.11,18.34&#10;261.96,18.33&#10;262.81,18.42&#10;263.67,18.36&#10;264.52,18.32&#10;265.37,18.39&#10;266.22,18.43&#10;267.07,18.51&#10;267.92,18.74&#10;268.77,19&#10;269.62,19.08&#10;270.47,19.02&#10;271.32,18.89&#10;272.17,18.76&#10;273.02,18.78&#10;273.87,19.01&#10;274.72,19.31&#10;275.57,19.52&#10;276.42,19.58&#10;277.27,19.82&#10;278.13,20.35&#10;278.98,20.64&#10;279.83,20.25&#10;280.68,19.74&#10;281.53,19.66&#10;282.38,19.91&#10;283.23,20.17&#10;284.08,20.61&#10;284.93,21.37&#10;285.78,21.99&#10;286.63,22.18&#10;287.48,22.07&#10;288.33,21.94&#10;289.18,21.89&#10;290.03,21.98&#10;290.88,22.08&#10;291.74,22.14&#10;292.59,22.22&#10;293.44,22.25&#10;294.29,22.25&#10;295.14,22.2&#10;295.99,22.07&#10;296.84,21.97&#10;297.69,22.04&#10;298.54,22.35&#10;299.39,22.75&#10;300.24,23.09&#10;301.09,23.27&#10;301.94,23.31&#10;302.79,23.37&#10;303.64,23.59&#10;304.49,23.84&#10;305.34,24.01&#10;306.2,24.13&#10;307.05,24.23&#10;307.9,24.32&#10;308.75,24.36&#10;309.6,24.37&#10;310.45,24.35&#10;311.3,24.29&#10;312.15,24.23&#10;313,24.18&#10;313.85,24.13&#10;314.7,24.06&#10;315.55,24.07&#10;316.4,24.12&#10;317.25,24.15&#10;318.1,24.18&#10;318.95,24.23&#10;319.81,24.29&#10;320.66,24.31&#10;321.51,24.33&#10;322.36,24.34&#10;323.21,24.36&#10;324.06,24.37&#10;324.91,24.37&#10;325.76,24.38&#10;326.61,24.38&#10;327.46,24.38&#10;328.31,24.38&#10;329.16,24.39&#10;330.01,24.39&#10;330.86,24.39&#10;331.71,24.39&#10;332.56,24.4&#10;333.41,24.4&#10;334.27,24.41&#10;335.12,24.41&#10;335.97,24.41&#10;336.82,24.41&#10;337.67,24.41&#10;338.52,24.41&#10;339.37,24.41&#10;340.22,24.41&#10;341.07,24.41&#10;341.92,24.41&#10;342.77,24.41&#10;343.62,24.41&#10;344.47,24.41&#10;345.32,24.41&#10;346.17,24.41&#10;347.02,24.41&#10;347.87,24.41&#10;348.73,24.41&#10;349.58,24.41&#10;350.43,24.41&#10;351.28,24.41&#10;352.13,24.41&#10;352.98,24.41&#10;353.83,24.41&#10;354.68,24.41&#10;355.53,24.41&#10;356.38,24.41&#10;357.23,24.41&#10;358.08,24.41&#10;358.93,24.41&#10;359.78,24.41&#10;360.63,24.41&#10;361.48,24.41&#10;362.34,24.41&#10;363.19,24.42&#10;363.19,24.42"/><polygon class="main" points="170.1,24.42&#10;170.1,24.42&#10;170.95,24.42&#10;171.8,24.41&#10;172.65,24.41&#10;173.5,24.42&#10;174.35,24.42&#10;175.2,24.41&#10;176.05,24.41&#10;176.9,24.42&#10;177.75,24.42&#10;178.61,24.41&#10;179.46,24.42&#10;180.31,24.41&#10;181.16,24.42&#10;182.01,24.41&#10;182.86,24.42&#10;183.71,24.41&#10;184.56,24.41&#10;185.41,24.41&#10;186.26,24.41&#10;187.11,24.42&#10;187.96,24.41&#10;188.81,24.41&#10;189.66,24.42&#10;190.51,24.41&#10;191.36,24.42&#10;192.21,24.41&#10;193.07,24.41&#10;193.92,24.41&#10;194.77,24.41&#10;195.62,24.38&#10;196.47,24.36&#10;197.32,24.24&#10;198.17,24.19&#10;199.02,24.11&#10;199.87,24.04&#10;200.72,24.01&#10;201.57,23.94&#10;202.42,23.76&#10;203.27,23.71&#10;204.12,23.36&#10;204.97,22.98&#10;205.82,22.61&#10;206.68,22.34&#10;207.53,22.15&#10;208.38,22.5&#10;209.23,22.91&#10;210.08,22.98&#10;210.93,23.16&#10;211.78,23.29&#10;212.63,23.32&#10;213.48,23.4&#10;214.33,23.4&#10;215.18,23.46&#10;216.03,23.62&#10;216.88,23.86&#10;217.73,23.88&#10;218.58,23.87&#10;219.43,23.69&#10;220.28,23.83&#10;221.14,23.73&#10;221.99,23.81&#10;222.84,23.91&#10;223.69,23.81&#10;224.54,23.65&#10;225.39,23.5&#10;226.24,23.44&#10;227.09,23.63&#10;227.94,23.36&#10;228.79,23.25&#10;229.64,22.68&#10;230.49,22.15&#10;231.34,21.96&#10;232.19,22.07&#10;233.04,22.19&#10;233.89,21.98&#10;234.74,21.55&#10;235.6,21.15&#10;236.45,20.76&#10;237.3,20.73&#10;238.15,20.69&#10;239,20.3&#10;239.85,20.2&#10;240.7,20.41&#10;241.55,20.66&#10;242.4,20.63&#10;243.25,20.76&#10;244.1,20.77&#10;244.95,20.39&#10;245.8,20.44&#10;246.65,20.14&#10;247.5,19.56&#10;248.35,19.38&#10;249.21,19.56&#10;250.06,19.52&#10;250.91,19.63&#10;251.76,19.95&#10;252.61,20.13&#10;253.46,20.33&#10;254.31,19.49&#10;255.16,19.45&#10;256.01,18.73&#10;256.86,18.5&#10;257.71,18.67&#10;258.56,18.68&#10;259.41,19.18&#10;260.26,18.8&#10;261.11,18.73&#10;261.96,18.5&#10;262.81,18.31&#10;263.67,18.71&#10;264.52,18.52&#10;265.37,19.03&#10;266.22,18.74&#10;267.07,18.67&#10;267.92,19.24&#10;268.77,19.34&#10;269.62,19.51&#10;270.47,19.09&#10;271.32,19.22&#10;272.17,19.11&#10;273.02,19.28&#10;273.87,18.95&#10;274.72,19.67&#10;275.57,20.02&#10;276.42,20.07&#10;277.27,20.21&#10;278.13,20.54&#10;278.98,20.83&#10;279.83,20.4&#10;280.68,20&#10;281.53,19.86&#10;282.38,19.79&#10;283.23,20.33&#10;284.08,20.84&#10;284.93,21.57&#10;285.78,21.92&#10;286.63,22.21&#10;287.48,22.28&#10;288.33,22.15&#10;289.18,22.19&#10;290.03,22.03&#10;290.88,22.35&#10;291.74,22.18&#10;292.59,22.61&#10;293.44,22.37&#10;294.29,22.45&#10;295.14,22.48&#10;295.99,22.35&#10;296.84,22.08&#10;297.69,22.18&#10;298.54,22.44&#10;299.39,22.96&#10;300.24,23.17&#10;301.09,23.3&#10;301.94,23.28&#10;302.79,23.33&#10;303.64,23.56&#10;304.49,23.87&#10;305.34,24.02&#10;306.2,24.2&#10;307.05,24.19&#10;307.9,24.31&#10;308.75,24.36&#10;309.6,24.37&#10;310.45,24.35&#10;311.3,24.29&#10;312.15,24.21&#10;313,24.21&#10;313.85,24.16&#10;314.7,24.08&#10;315.55,24.12&#10;316.4,24.15&#10;317.25,24.14&#10;318.1,24.19&#10;318.95,24.24&#10;319.81,24.29&#10;320.66,24.33&#10;321.51,24.35&#10;322.36,24.33&#10;323.21,24.34&#10;324.06,24.35&#10;324.91,24.36&#10;325.76,24.38&#10;326.61,24.37&#10;327.46,24.37&#10;328.31,24.38&#10;329.16,24.39&#10;330.01,24.38&#10;330.86,24.39&#10;331.71,24.39&#10;332.56,24.4&#10;333.41,24.4&#10;334.27,24.41&#10;335.12,24.41&#10;335.12,24.42"/><polyline class="range" points="236.45,25.64&#10;236.45,26.86&#10;243.25,26.86&#10;243.25,25.64"/><polyline class="range" points="244.1,25.64&#10;244.1,26.86&#10;283.91,26.86&#10;283.91,25.64"/><polyline class="range" points="203.7,28.08&#10;203.7,29.3&#10;215.52,29.3&#10;215.52,28.08"/><polyline class="range" points="225.22,28.08&#10;225.22,29.3&#10;226.58,29.3&#10;226.58,28.08"/><polyline class="range" points="227.43,28.08&#10;227.43,29.3&#10;303.56,29.3&#10;303.56,28.08"/></g><g id="itemarea5" transform="translate(0 56.44)"><polygon class="shadow" points="244.1,24.42&#10;244.1,24.42&#10;244.95,24.41&#10;245.8,24.41&#10;246.65,24.41&#10;247.5,24.41&#10;248.35,24.41&#10;249.21,24.41&#10;250.06,24.41&#10;250.91,24.41&#10;251.76,24.41&#10;252.61,24.41&#10;253.46,24.41&#10;254.31,24.41&#10;255.16,24.41&#10;256.01,24.41&#10;256.86,24.41&#10;257.71,24.41&#10;258.56,24.41&#10;259.41,24.41&#10;260.26,24.41&#10;261.11,24.41&#10;261.96,24.41&#10;262.81,24.41&#10;263.67,24.41&#10;264.52,24.41&#10;265.37,24.41&#10;266.22,24.41&#10;267.07,24.41&#10;267.92,24.41&#10;268.77,24.41&#10;269.62,24.41&#10;270.47,24.41&#10;271.32,24.41&#10;272.17,24.41&#10;273.02,24.41&#10;273.87,24.41&#10;274.72,24.41&#10;275.57,24.41&#10;276.42,24.41&#10;277.27,24.41&#10;278.13,24.41&#10;278.98,24.41&#10;279.83,24.41&#10;280.68,24.41&#10;281.53,24.41&#10;282.38,24.41&#10;283.23,24.41&#10;284.08,24.41&#10;284.93,24.4&#10;285.78,24.38&#10;286.63,24.38&#10;287.48,24.38&#10;288.33,24.38&#10;289.18,24.39&#10;290.03,24.38&#10;290.88,24.38&#10;291.74,24.38&#10;292.59,24.38&#10;293.44,24.37&#10;294.29,24.37&#10;295.14,24.38&#10;295.99,24.38&#10;296.84,24.38&#10;297.69,24.38&#10;298.54,24.37&#10;299.39,24.35&#10;300.24,24.32&#10;301.09,24.29&#10;301.94,24.29&#10;302.79,24.28&#10;303.64,24.23&#10;304.49,24.13&#10;305.34,24.01&#10;306.2,23.87&#10;307.05,23.65&#10;307.9,23.24&#10;308.75,22.74&#10;309.6,22.61&#10;310.45,22.97&#10;311.3,23.39&#10;312.15,23.65&#10;313,23.78&#10;313.85,23.87&#10;314.7,23.96&#10;315.55,23.95&#10;316.4,23.88&#10;317.25,23.84&#10;318.1,23.78&#10;318.95,23.66&#10;319.81,23.42&#10;320.66,23.33&#10;321.51,23.14&#10;322.36,23.03&#10;323.21,22.77&#10;324.06,22.68&#10;324.91,22.71&#10;325.76,22.52&#10;326.61,22.52&#10;327.46,22.52&#10;328.31,22.33&#10;329.16,22.15&#10;330.01,22.2&#10;330.86,22.17&#10;331.71,22.25&#10;332.56,21.81&#10;333.41,21.32&#10;334.27,20.75&#10;335.12,19.93&#10;335.97,19.54&#10;336.82,19.26&#10;337.67,18.91&#10;338.52,18.63&#10;339.37,18.51&#10;340.22,18.61&#10;341.07,18.63&#10;341.92,18.66&#10;342.77,18.9&#10;343.62,19.08&#10;344.47,18.86&#10;345.32,18.53&#10;346.17,18.46&#10;347.02,18.49&#10;347.87,18.62&#10;348.73,18.87&#10;349.58,18.94&#10;350.43,18.83&#10;351.28,18.85&#10;352.13,19.04&#10;352.98,19.06&#10;353.83,18.89&#10;354.68,18.6&#10;355.53,18.38&#10;356.38,18.31&#10;357.23,18.36&#10;358.08,18.41&#10;358.93,18.46&#10;359.78,18.59&#10;360.63,18.79&#10;361.48,18.98&#10;362.34,19.12&#10;363.19,19.21&#10;364.04,19.32&#10;364.89,19.53&#10;365.74,19.97&#10;366.59,20.67&#10;367.44,21.21&#10;368.29,21.3&#10;369.14,21.1&#10;369.99,20.82&#10;370.84,20.62&#10;371.69,20.73&#10;372.54,21.24&#10;373.39,21.89&#10;374.24,22.57&#10;375.09,23.14&#10;375.94,23.55&#10;376.8,23.83&#10;377.65,24.01&#10;378.5,24.11&#10;379.35,24.19&#10;380.2,24.24&#10;381.05,24.27&#10;381.9,24.28&#10;382.75,24.26&#10;383.6,24.31&#10;384.45,24.35&#10;385.3,24.35&#10;386.15,24.35&#10;387,24.33&#10;387.85,24.32&#10;388.7,24.32&#10;389.55,24.29&#10;390.4,24.21&#10;391.26,24.16&#10;392.11,24.11&#10;392.96,24.22&#10;393.81,24.23&#10;394.66,24.18&#10;395.51,24.38&#10;396.36,24.41&#10;397.21,24.41&#10;398.06,24.4&#10;398.91,24.39&#10;399.76,24.39&#10;400.61,24.39&#10;401.46,24.39&#10;402.31,24.39&#10;403.16,24.39&#10;404.01,24.4&#10;404.87,24.4&#10;405.72,24.41&#10;406.57,24.41&#10;407.42,24.41&#10;408.27,24.41&#10;409.12,24.4&#10;409.97,24.4&#10;410.82,24.4&#10;411.67,24.4&#10;412.52,24.41&#10;413.37,24.41&#10;414.22,24.41&#10;415.07,24.41&#10;415.92,24.41&#10;416.77,24.41&#10;417.62,24.41&#10;418.47,24.41&#10;419.33,24.41&#10;420.18,24.41&#10;421.03,24.41&#10;421.88,24.41&#10;422.73,24.41&#10;423.58,24.41&#10;424.43,24.41&#10;425.28,24.41&#10;426.13,24.41&#10;426.98,24.41&#10;427.83,24.41&#10;428.68,24.41&#10;429.53,24.41&#10;430.38,24.41&#10;431.23,24.41&#10;432.08,24.41&#10;432.93,24.41&#10;433.79,24.41&#10;434.64,24.41&#10;435.49,24.41&#10;436.34,24.41&#10;437.19,24.41&#10;438.04,24.42&#10;438.89,24.42&#10;438.89,24.42"/><polygon class="main" points="266.22,24.42&#10;266.22,24.42&#10;267.07,24.42&#10;267.92,24.42&#10;268.77,24.41&#10;269.62,24.41&#10;270.47,24.41&#10;271.32,24.42&#10;272.17,24.41&#10;273.02,24.42&#10;273.87,24.41&#10;274.72,24.41&#10;275.57,24.41&#10;276.42,24.41&#10;277.27,24.41&#10;278.13,24.41&#10;278.98,24.41&#10;279.83,24.41&#10;280.68,24.41&#10;281.53,24.41&#10;282.38,24.41&#10;283.23,24.41&#10;284.08,24.4&#10;284.93,24.39&#10;285.78,24.39&#10;286.63,24.36&#10;287.48,24.38&#10;288.33,24.39&#10;289.18,24.38&#10;290.03,24.39&#10;290.88,24.38&#10;291.74,24.39&#10;292.59,24.37&#10;293.44,24.37&#10;294.29,24.37&#10;295.14,24.36&#10;295.99,24.38&#10;296.84,24.37&#10;297.69,24.38&#10;298.54,24.38&#10;299.39,24.3&#10;300.24,24.3&#10;301.09,24.29&#10;301.94,24.28&#10;302.79,24.27&#10;303.64,24.21&#10;304.49,24.06&#10;305.34,23.89&#10;306.2,23.76&#10;307.05,23.49&#10;307.9,23.09&#10;308.75,22.5&#10;309.6,22.32&#10;310.45,22.69&#10;311.3,23.34&#10;312.15,23.51&#10;313,23.75&#10;313.85,23.76&#10;314.7,23.86&#10;315.55,23.79&#10;316.4,23.79&#10;317.25,23.72&#10;318.1,23.64&#10;318.95,23.45&#10;319.81,23.22&#10;320.66,23.35&#10;321.51,22.89&#10;322.36,22.72&#10;323.21,22.63&#10;324.06,22.35&#10;324.91,22.5&#10;325.76,22.15&#10;326.61,22.29&#10;327.46,22.25&#10;328.31,21.9&#10;329.16,21.78&#10;330.01,21.83&#10;330.86,21.79&#10;331.71,21.82&#10;332.56,21.48&#10;333.41,20.6&#10;334.27,20.1&#10;335.12,19.34&#10;335.97,18.82&#10;336.82,18.78&#10;337.67,18.39&#10;338.52,18.4&#10;339.37,18.31&#10;340.22,18.59&#10;341.07,18.74&#10;341.92,18.79&#10;342.77,18.76&#10;343.62,19.47&#10;344.47,19.13&#10;345.32,19.08&#10;346.17,19.18&#10;347.02,19.26&#10;347.87,19.57&#10;348.73,19.48&#10;349.58,19.95&#10;350.43,19.92&#10;351.28,20&#10;352.13,20.35&#10;352.98,20.24&#10;353.83,20.05&#10;354.68,20.16&#10;355.53,19.84&#10;356.38,19.98&#10;357.23,20.54&#10;358.08,20.32&#10;358.93,20.73&#10;359.78,21.16&#10;360.63,21.31&#10;361.48,21.68&#10;362.34,22.19&#10;363.19,22.33&#10;364.04,22.42&#10;364.89,22.72&#10;365.74,23.1&#10;366.59,23.39&#10;367.44,23.74&#10;368.29,23.78&#10;369.14,23.87&#10;369.99,23.89&#10;370.84,23.93&#10;371.69,23.91&#10;372.54,24.08&#10;373.39,24.2&#10;374.24,24.28&#10;375.09,24.32&#10;375.94,24.37&#10;376.8,24.38&#10;377.65,24.39&#10;378.5,24.4&#10;379.35,24.41&#10;380.2,24.41&#10;381.05,24.41&#10;381.9,24.41&#10;382.75,24.42&#10;383.6,24.41&#10;384.45,24.42&#10;385.3,24.42&#10;386.15,24.41&#10;387,24.42&#10;387.85,24.42&#10;388.7,24.42&#10;389.55,24.41&#10;390.4,24.42&#10;391.26,24.42&#10;392.11,24.41&#10;392.96,24.42&#10;392.96,24.42"/><polyline class="range" points="332.73,25.64&#10;332.73,26.86&#10;360.55,26.86&#10;360.55,25.64"/><polyline class="range" points="306.28,28.08&#10;306.28,29.3&#10;313,29.3&#10;313,28.08"/><polyline class="range" points="317,28.08&#10;317,29.3&#10;367.44,29.3&#10;367.44,28.08"/></g><g id="itemarea6" transform="translate(0 76.66)"><polygon class="shadow" points="193.07,24.42&#10;193.07,24.42&#10;193.92,24.42&#10;194.77,24.41&#10;195.62,24.41&#10;196.47,24.41&#10;197.32,24.41&#10;198.17,24.41&#10;199.02,24.41&#10;199.87,24.41&#10;200.72,24.41&#10;201.57,24.41&#10;202.42,24.41&#10;203.27,24.41&#10;204.12,24.41&#10;204.97,24.41&#10;205.82,24.41&#10;206.68,24.4&#10;207.53,24.4&#10;208.38,24.41&#10;209.23,24.41&#10;210.08,24.41&#10;210.93,24.41&#10;211.78,24.41&#10;212.63,24.41&#10;213.48,24.41&#10;214.33,24.41&#10;215.18,24.41&#10;216.03,24.41&#10;216.88,24.41&#10;217.73,24.41&#10;218.58,24.41&#10;219.43,24.41&#10;220.28,24.41&#10;221.14,24.41&#10;221.99,24.41&#10;222.84,24.41&#10;223.69,24.41&#10;224.54,24.41&#10;225.39,24.41&#10;226.24,24.41&#10;227.09,24.41&#10;227.94,24.41&#10;228.79,24.41&#10;229.64,24.41&#10;230.49,24.4&#10;231.34,24.4&#10;232.19,24.4&#10;233.04,24.4&#10;233.89,24.4&#10;234.74,24.39&#10;235.6,24.38&#10;236.45,24.38&#10;237.3,24.37&#10;238.15,24.37&#10;239,24.36&#10;239.85,24.36&#10;240.7,24.36&#10;241.55,24.37&#10;242.4,24.37&#10;243.25,24.37&#10;244.1,24.36&#10;244.95,24.36&#10;245.8,24.35&#10;246.65,24.34&#10;247.5,24.33&#10;248.35,24.3&#10;249.21,24.29&#10;250.06,24.3&#10;250.91,24.31&#10;251.76,24.33&#10;252.61,24.35&#10;253.46,24.35&#10;254.31,24.33&#10;255.16,24.27&#10;256.01,24.19&#10;256.86,24.09&#10;257.71,23.97&#10;258.56,23.9&#10;259.41,23.89&#10;260.26,23.88&#10;261.11,23.91&#10;261.96,24.05&#10;262.81,24.13&#10;263.67,24.09&#10;264.52,23.95&#10;265.37,23.84&#10;266.22,23.79&#10;267.07,23.72&#10;267.92,23.55&#10;268.77,23.37&#10;269.62,23.32&#10;270.47,23.36&#10;271.32,23.44&#10;272.17,23.53&#10;273.02,23.52&#10;273.87,23.37&#10;274.72,23.17&#10;275.57,23.04&#10;276.42,23&#10;277.27,22.84&#10;278.13,22.48&#10;278.98,22.27&#10;279.83,22.55&#10;280.68,22.89&#10;281.53,22.95&#10;282.38,22.78&#10;283.23,22.61&#10;284.08,22.29&#10;284.93,21.69&#10;285.78,21.13&#10;286.63,20.95&#10;287.48,21.05&#10;288.33,21.18&#10;289.18,21.22&#10;290.03,21.14&#10;290.88,21.04&#10;291.74,20.98&#10;292.59,20.89&#10;293.44,20.87&#10;294.29,20.87&#10;295.14,20.91&#10;295.99,21.05&#10;296.84,21.15&#10;297.69,21.08&#10;298.54,20.76&#10;299.39,20.31&#10;300.24,19.87&#10;301.09,19.63&#10;301.94,19.58&#10;302.79,19.49&#10;303.64,19.17&#10;304.49,18.78&#10;305.34,18.51&#10;306.2,18.37&#10;307.05,18.32&#10;307.9,18.47&#10;308.75,18.84&#10;309.6,18.94&#10;310.45,18.66&#10;311.3,18.4&#10;312.15,18.32&#10;313,18.33&#10;313.85,18.37&#10;314.7,18.45&#10;315.55,18.43&#10;316.4,18.37&#10;317.25,18.35&#10;318.1,18.32&#10;318.95,18.31&#10;319.81,18.38&#10;320.66,18.42&#10;321.51,18.53&#10;322.36,18.61&#10;323.21,18.8&#10;324.06,18.88&#10;324.91,18.85&#10;325.76,19.02&#10;326.61,19.02&#10;327.46,19.01&#10;328.31,19.18&#10;329.16,19.34&#10;330.01,19.29&#10;330.86,19.33&#10;331.71,19.25&#10;332.56,19.65&#10;333.41,20.1&#10;334.27,20.63&#10;335.12,21.4&#10;335.97,21.77&#10;336.82,22.05&#10;337.67,22.42&#10;338.52,22.75&#10;339.37,22.92&#10;340.22,22.77&#10;341.07,22.74&#10;341.92,22.71&#10;342.77,22.43&#10;343.62,22.24&#10;344.47,22.47&#10;345.32,22.88&#10;346.17,23&#10;347.02,22.96&#10;347.87,22.77&#10;348.73,22.47&#10;349.58,22.39&#10;350.43,22.51&#10;351.28,22.49&#10;352.13,22.28&#10;352.98,22.26&#10;353.83,22.45&#10;354.68,22.79&#10;355.53,23.16&#10;356.38,23.45&#10;357.23,23.65&#10;358.08,23.73&#10;358.93,23.79&#10;359.78,23.88&#10;360.63,23.98&#10;361.48,24.05&#10;362.34,24.09&#10;363.19,24.11&#10;364.04,24.13&#10;364.89,24.18&#10;365.74,24.24&#10;366.59,24.31&#10;367.44,24.34&#10;368.29,24.35&#10;369.14,24.34&#10;369.99,24.32&#10;370.84,24.3&#10;371.69,24.31&#10;372.54,24.35&#10;373.39,24.37&#10;374.24,24.39&#10;375.09,24.4&#10;375.94,24.41&#10;376.8,24.41&#10;377.65,24.41&#10;378.5,24.41&#10;379.35,24.41&#10;380.2,24.41&#10;381.05,24.41&#10;381.9,24.41&#10;382.75,24.41&#10;383.6,24.41&#10;384.45,24.41&#10;385.3,24.41&#10;386.15,24.41&#10;387,24.41&#10;387.85,24.41&#10;388.7,24.41&#10;389.55,24.41&#10;390.4,24.41&#10;391.26,24.41&#10;392.11,24.41&#10;392.96,24.41&#10;393.81,24.41&#10;394.66,24.41&#10;395.51,24.41&#10;396.36,24.42&#10;397.21,24.41&#10;398.06,24.41&#10;398.91,24.41&#10;399.76,24.41&#10;400.61,24.41&#10;401.46,24.41&#10;402.31,24.41&#10;403.16,24.41&#10;404.01,24.41&#10;404.87,24.41&#10;405.72,24.41&#10;406.57,24.41&#10;407.42,24.41&#10;408.27,24.41&#10;409.12,24.41&#10;409.97,24.41&#10;410.82,24.41&#10;411.67,24.41&#10;412.52,24.41&#10;413.37,24.42&#10;414.22,24.42&#10;414.22,24.42"/><polygon class="main" points="203.27,24.42&#10;203.27,24.42&#10;204.12,24.41&#10;204.97,24.41&#10;205.82,24.41&#10;206.68,24.41&#10;207.53,24.4&#10;208.38,24.41&#10;209.23,24.41&#10;210.08,24.42&#10;210.93,24.41&#10;211.78,24.41&#10;212.63,24.41&#10;213.48,24.41&#10;214.33,24.41&#10;215.18,24.42&#10;216.03,24.41&#10;216.88,24.42&#10;217.73,24.41&#10;218.58,24.41&#10;219.43,24.42&#10;220.28,24.42&#10;221.14,24.41&#10;221.99,24.41&#10;222.84,24.42&#10;223.69,24.42&#10;224.54,24.41&#10;225.39,24.41&#10;226.24,24.41&#10;227.09,24.41&#10;227.94,24.41&#10;228.79,24.41&#10;229.64,24.41&#10;230.49,24.41&#10;231.34,24.4&#10;232.19,24.4&#10;233.04,24.4&#10;233.89,24.4&#10;234.74,24.4&#10;235.6,24.38&#10;236.45,24.4&#10;237.3,24.38&#10;238.15,24.38&#10;239,24.38&#10;239.85,24.35&#10;240.7,24.36&#10;241.55,24.37&#10;242.4,24.37&#10;243.25,24.39&#10;244.1,24.38&#10;244.95,24.37&#10;245.8,24.37&#10;246.65,24.36&#10;247.5,24.34&#10;248.35,24.32&#10;249.21,24.29&#10;250.06,24.29&#10;250.91,24.3&#10;251.76,24.34&#10;252.61,24.37&#10;253.46,24.36&#10;254.31,24.32&#10;255.16,24.28&#10;256.01,24.2&#10;256.86,24.06&#10;257.71,24.05&#10;258.56,23.98&#10;259.41,23.93&#10;260.26,23.88&#10;261.11,24.02&#10;261.96,24.1&#10;262.81,24.15&#10;263.67,24.07&#10;264.52,23.95&#10;265.37,23.89&#10;266.22,23.8&#10;267.07,23.72&#10;267.92,23.54&#10;268.77,23.44&#10;269.62,23.37&#10;270.47,23.46&#10;271.32,23.54&#10;272.17,23.57&#10;273.02,23.58&#10;273.87,23.46&#10;274.72,23.35&#10;275.57,22.98&#10;276.42,23.15&#10;277.27,22.95&#10;278.13,22.74&#10;278.98,22.78&#10;279.83,22.72&#10;280.68,23&#10;281.53,23.04&#10;282.38,22.8&#10;283.23,22.78&#10;284.08,22.34&#10;284.93,22.21&#10;285.78,21.53&#10;286.63,21.48&#10;287.48,21.16&#10;288.33,21.62&#10;289.18,21.67&#10;290.03,21.39&#10;290.88,21.33&#10;291.74,21.33&#10;292.59,21.24&#10;293.44,21.1&#10;294.29,21.12&#10;295.14,21.27&#10;295.99,21.4&#10;296.84,21.41&#10;297.69,21.46&#10;298.54,21.06&#10;299.39,20.71&#10;300.24,20.37&#10;301.09,20.08&#10;301.94,19.96&#10;302.79,19.94&#10;303.64,19.72&#10;304.49,19.18&#10;305.34,19.02&#10;306.2,19.16&#10;307.05,18.99&#10;307.9,18.67&#10;308.75,19.38&#10;309.6,19.53&#10;310.45,19.2&#10;311.3,18.95&#10;312.15,18.7&#10;313,18.31&#10;313.85,18.96&#10;314.7,18.98&#10;315.55,18.82&#10;316.4,18.8&#10;317.25,18.83&#10;318.1,18.93&#10;318.95,19.1&#10;319.81,18.84&#10;320.66,18.89&#10;321.51,18.99&#10;322.36,19.18&#10;323.21,19.14&#10;324.06,19.08&#10;324.91,19.41&#10;325.76,19.27&#10;326.61,19.41&#10;327.46,19.66&#10;328.31,19.57&#10;329.16,19.71&#10;330.01,19.58&#10;330.86,19.87&#10;331.71,19.81&#10;332.56,19.94&#10;333.41,20.53&#10;334.27,20.81&#10;335.12,21.38&#10;335.97,21.9&#10;336.82,22.13&#10;337.67,22.43&#10;338.52,22.87&#10;339.37,22.99&#10;340.22,22.85&#10;341.07,22.81&#10;341.92,22.94&#10;342.77,22.76&#10;343.62,22.66&#10;344.47,22.84&#10;345.32,23.18&#10;346.17,23.32&#10;347.02,23.2&#10;347.87,23&#10;348.73,22.94&#10;349.58,22.89&#10;350.43,23.08&#10;351.28,23.01&#10;352.13,22.92&#10;352.98,22.93&#10;353.83,23.01&#10;354.68,23.25&#10;355.53,23.42&#10;356.38,23.72&#10;357.23,23.89&#10;358.08,23.99&#10;358.93,24.06&#10;359.78,24.12&#10;360.63,24.21&#10;361.48,24.21&#10;362.34,24.26&#10;363.19,24.3&#10;364.04,24.29&#10;364.89,24.33&#10;365.74,24.35&#10;366.59,24.39&#10;367.44,24.39&#10;368.29,24.4&#10;369.14,24.4&#10;369.99,24.4&#10;370.84,24.39&#10;371.69,24.41&#10;372.54,24.41&#10;373.39,24.41&#10;374.24,24.41&#10;374.24,24.42"/><polyline class="range" points="287.06,25.64&#10;287.06,26.86&#10;287.82,26.86&#10;287.82,25.64"/><polyline class="range" points="291.74,25.64&#10;291.74,26.86&#10;295.48,26.86&#10;295.48,25.64"/><polyline class="range" points="297.94,25.64&#10;297.94,26.86&#10;335.03,26.86&#10;335.03,25.64"/><polyline class="range" points="268.6,28.08&#10;268.6,29.3&#10;270.47,29.3&#10;270.47,28.08"/><polyline class="range" points="273.87,28.08&#10;273.87,29.3&#10;355.7,29.3&#10;355.7,28.08"/></g><g id="itemarea7" transform="translate(0 96.87)"><polygon class="shadow" points="282.38,24.42&#10;282.38,24.42&#10;283.23,24.42&#10;284.08,24.42&#10;284.93,24.41&#10;285.78,24.41&#10;286.63,24.41&#10;287.48,24.41&#10;288.33,24.41&#10;289.18,24.41&#10;290.03,24.41&#10;290.88,24.41&#10;291.74,24.41&#10;292.59,24.41&#10;293.44,24.41&#10;294.29,24.41&#10;295.14,24.41&#10;295.99,24.41&#10;296.84,24.41&#10;297.69,24.41&#10;298.54,24.41&#10;299.39,24.41&#10;300.24,24.41&#10;301.09,24.41&#10;301.94,24.41&#10;302.79,24.41&#10;303.64,24.41&#10;304.49,24.41&#10;305.34,24.41&#10;306.2,24.41&#10;307.05,24.41&#10;307.9,24.41&#10;308.75,24.4&#10;309.6,24.4&#10;310.45,24.4&#10;311.3,24.41&#10;312.15,24.41&#10;313,24.41&#10;313.85,24.41&#10;314.7,24.41&#10;315.55,24.41&#10;316.4,24.41&#10;317.25,24.41&#10;318.1,24.41&#10;318.95,24.41&#10;319.81,24.41&#10;320.66,24.41&#10;321.51,24.41&#10;322.36,24.4&#10;323.21,24.4&#10;324.06,24.4&#10;324.91,24.4&#10;325.76,24.39&#10;326.61,24.39&#10;327.46,24.39&#10;328.31,24.39&#10;329.16,24.38&#10;330.01,24.38&#10;330.86,24.38&#10;331.71,24.39&#10;332.56,24.37&#10;333.41,24.35&#10;334.27,24.31&#10;335.12,24.23&#10;335.97,24.16&#10;336.82,24.1&#10;337.67,23.99&#10;338.52,23.86&#10;339.37,23.78&#10;340.22,23.85&#10;341.07,23.87&#10;341.92,23.88&#10;342.77,23.99&#10;343.62,24.05&#10;344.47,23.98&#10;345.32,23.8&#10;346.17,23.73&#10;347.02,23.75&#10;347.87,23.85&#10;348.73,23.98&#10;349.58,24&#10;350.43,23.96&#10;351.28,23.96&#10;352.13,24.04&#10;352.98,24.04&#10;353.83,23.98&#10;354.68,23.84&#10;355.53,23.61&#10;356.38,23.34&#10;357.23,23.06&#10;358.08,22.93&#10;358.93,22.83&#10;359.78,22.61&#10;360.63,22.33&#10;361.48,22.09&#10;362.34,21.93&#10;363.19,21.82&#10;364.04,21.71&#10;364.89,21.47&#10;365.74,21.02&#10;366.59,20.32&#10;367.44,19.81&#10;368.29,19.72&#10;369.14,19.91&#10;369.99,20.17&#10;370.84,20.37&#10;371.69,20.26&#10;372.54,19.78&#10;373.39,19.19&#10;374.24,18.66&#10;375.09,18.35&#10;375.94,18.31&#10;376.8,18.5&#10;377.65,18.8&#10;378.5,19.11&#10;379.35,19.44&#10;380.2,19.74&#10;381.05,20.02&#10;381.9,20.04&#10;382.75,19.87&#10;383.6,20.36&#10;384.45,20.97&#10;385.3,20.91&#10;386.15,20.92&#10;387,20.64&#10;387.85,20.54&#10;388.7,20.57&#10;389.55,20.13&#10;390.4,19.51&#10;391.26,19.26&#10;392.11,19.06&#10;392.96,19.57&#10;393.81,19.68&#10;394.66,19.36&#10;395.51,22.27&#10;396.36,23.37&#10;397.21,22.96&#10;398.06,22.25&#10;398.91,21.89&#10;399.76,22.11&#10;400.61,22.19&#10;401.46,22.16&#10;402.31,22.01&#10;403.16,22.17&#10;404.01,22.51&#10;404.87,22.81&#10;405.72,22.96&#10;406.57,23.02&#10;407.42,22.98&#10;408.27,22.88&#10;409.12,22.78&#10;409.97,22.68&#10;410.82,22.66&#10;411.67,22.7&#10;412.52,22.86&#10;413.37,23.15&#10;414.22,23.49&#10;415.07,23.8&#10;415.92,24.02&#10;416.77,24.15&#10;417.62,24.2&#10;418.47,24.21&#10;419.33,24.17&#10;420.18,24.1&#10;421.03,24.01&#10;421.88,23.93&#10;422.73,23.9&#10;423.58,23.91&#10;424.43,23.96&#10;425.28,24.03&#10;426.13,24.09&#10;426.98,24.14&#10;427.83,24.14&#10;428.68,24.11&#10;429.53,24.17&#10;430.38,24.26&#10;431.23,24.25&#10;432.08,24.27&#10;432.93,24.37&#10;433.79,24.39&#10;434.64,24.38&#10;435.49,24.37&#10;436.34,24.38&#10;437.19,24.39&#10;438.04,24.4&#10;438.89,24.41&#10;439.74,24.41&#10;440.59,24.41&#10;441.44,24.41&#10;442.29,24.41&#10;443.14,24.41&#10;443.99,24.41&#10;444.84,24.41&#10;445.69,24.41&#10;446.54,24.41&#10;447.4,24.41&#10;448.25,24.41&#10;449.1,24.41&#10;449.95,24.41&#10;450.8,24.41&#10;451.65,24.41&#10;452.5,24.41&#10;453.35,24.41&#10;454.2,24.41&#10;455.05,24.41&#10;455.9,24.41&#10;456.75,24.41&#10;457.6,24.41&#10;458.45,24.41&#10;459.3,24.41&#10;460.15,24.41&#10;461,24.41&#10;461.86,24.41&#10;462.71,24.41&#10;463.56,24.41&#10;464.41,24.41&#10;465.26,24.41&#10;466.11,24.41&#10;466.96,24.41&#10;467.81,24.41&#10;468.66,24.41&#10;469.51,24.41&#10;470.36,24.41&#10;471.21,24.42&#10;472.06,24.42&#10;472.91,24.42&#10;472.91,24.42"/><polygon class="main" points="318.1,24.42&#10;318.1,24.42&#10;318.95,24.42&#10;319.81,24.41&#10;320.66,24.41&#10;321.51,24.41&#10;322.36,24.41&#10;323.21,24.41&#10;324.06,24.4&#10;324.91,24.41&#10;325.76,24.4&#10;326.61,24.4&#10;327.46,24.4&#10;328.31,24.4&#10;329.16,24.39&#10;330.01,24.38&#10;330.86,24.38&#10;331.71,24.38&#10;332.56,24.36&#10;333.41,24.32&#10;334.27,24.27&#10;335.12,24.15&#10;335.97,23.98&#10;336.82,23.86&#10;337.67,23.63&#10;338.52,23.32&#10;339.37,23.17&#10;340.22,23.16&#10;341.07,23.2&#10;341.92,23.22&#10;342.77,23.4&#10;343.62,23.42&#10;344.47,23.19&#10;345.32,22.78&#10;346.17,22.57&#10;347.02,22.57&#10;347.87,22.84&#10;348.73,23.15&#10;349.58,23.13&#10;350.43,23.09&#10;351.28,23.11&#10;352.13,23.21&#10;352.98,23.25&#10;353.83,23.05&#10;354.68,22.65&#10;355.53,22.06&#10;356.38,21.21&#10;357.23,20.55&#10;358.08,20.24&#10;358.93,19.86&#10;359.78,19.72&#10;360.63,19.27&#10;361.48,18.85&#10;362.34,18.84&#10;363.19,18.97&#10;364.04,19.09&#10;364.89,19.14&#10;365.74,18.85&#10;366.59,18.38&#10;367.44,18.31&#10;368.29,18.95&#10;369.14,19.92&#10;369.99,20.58&#10;370.84,21.29&#10;371.69,21.65&#10;372.54,21.79&#10;373.39,21.9&#10;374.24,22.19&#10;375.09,22.47&#10;375.94,22.75&#10;376.8,23.07&#10;377.65,23.3&#10;378.5,23.55&#10;379.35,23.72&#10;380.2,23.82&#10;381.05,23.94&#10;381.9,23.99&#10;382.75,24.06&#10;383.6,24.09&#10;384.45,24.17&#10;385.3,24.22&#10;386.15,24.22&#10;387,24.21&#10;387.85,24.25&#10;388.7,24.28&#10;389.55,24.29&#10;390.4,24.3&#10;391.26,24.31&#10;392.11,24.34&#10;392.96,24.36&#10;393.81,24.38&#10;394.66,24.4&#10;395.51,24.41&#10;396.36,24.41&#10;397.21,24.41&#10;398.06,24.41&#10;398.91,24.41&#10;399.76,24.41&#10;400.61,24.41&#10;401.46,24.41&#10;402.31,24.41&#10;403.16,24.41&#10;404.01,24.42&#10;404.87,24.42&#10;405.72,24.41&#10;405.72,24.42"/><polyline class="range" points="355.53,25.64&#10;355.53,26.86&#10;373.9,26.86&#10;373.9,25.64"/><polyline class="range" points="337.5,28.08&#10;337.5,29.3&#10;379.18,29.3&#10;379.18,28.08"/></g><g id="itemarea8" transform="translate(0 117.09)"/><g id="itemarea9" transform="translate(0 137.3)"><polygon class="shadow" points="267.07,24.42&#10;267.07,24.42&#10;267.92,24.41&#10;268.77,24.41&#10;269.62,24.41&#10;270.47,24.41&#10;271.32,24.41&#10;272.17,24.41&#10;273.02,24.41&#10;273.87,24.41&#10;274.72,24.41&#10;275.57,24.41&#10;276.42,24.41&#10;277.27,24.41&#10;278.13,24.41&#10;278.98,24.41&#10;279.83,24.41&#10;280.68,24.41&#10;281.53,24.41&#10;282.38,24.41&#10;283.23,24.41&#10;284.08,24.41&#10;284.93,24.41&#10;285.78,24.41&#10;286.63,24.41&#10;287.48,24.41&#10;288.33,24.41&#10;289.18,24.41&#10;290.03,24.41&#10;290.88,24.41&#10;291.74,24.41&#10;292.59,24.41&#10;293.44,24.41&#10;294.29,24.41&#10;295.14,24.41&#10;295.99,24.41&#10;296.84,24.41&#10;297.69,24.41&#10;298.54,24.41&#10;299.39,24.41&#10;300.24,24.41&#10;301.09,24.41&#10;301.94,24.41&#10;302.79,24.41&#10;303.64,24.41&#10;304.49,24.41&#10;305.34,24.4&#10;306.2,24.4&#10;307.05,24.39&#10;307.9,24.36&#10;308.75,24.31&#10;309.6,24.3&#10;310.45,24.34&#10;311.3,24.37&#10;312.15,24.39&#10;313,24.39&#10;313.85,24.4&#10;314.7,24.4&#10;315.55,24.4&#10;316.4,24.4&#10;317.25,24.4&#10;318.1,24.39&#10;318.95,24.39&#10;319.81,24.37&#10;320.66,24.37&#10;321.51,24.35&#10;322.36,24.34&#10;323.21,24.32&#10;324.06,24.31&#10;324.91,24.31&#10;325.76,24.29&#10;326.61,24.29&#10;327.46,24.29&#10;328.31,24.27&#10;329.16,24.24&#10;330.01,24.25&#10;330.86,24.24&#10;331.71,24.25&#10;332.56,24.19&#10;333.41,24.1&#10;334.27,23.96&#10;335.12,23.68&#10;335.97,23.49&#10;336.82,23.33&#10;337.67,23.05&#10;338.52,22.74&#10;339.37,22.56&#10;340.22,22.72&#10;341.07,22.75&#10;341.92,22.78&#10;342.77,23.05&#10;343.62,23.2&#10;344.47,23.01&#10;345.32,22.6&#10;346.17,22.45&#10;347.02,22.5&#10;347.87,22.71&#10;348.73,23.01&#10;349.58,23.07&#10;350.43,22.97&#10;351.28,22.98&#10;352.13,23.16&#10;352.98,23.17&#10;353.83,23.02&#10;354.68,22.69&#10;355.53,22.22&#10;356.38,21.72&#10;357.23,21.28&#10;358.08,21.07&#10;358.93,20.92&#10;359.78,20.62&#10;360.63,20.28&#10;361.48,19.99&#10;362.34,19.82&#10;363.19,19.71&#10;364.04,19.6&#10;364.89,19.38&#10;365.74,19.02&#10;366.59,18.59&#10;367.44,18.39&#10;368.29,18.37&#10;369.14,18.42&#10;369.99,18.52&#10;370.84,18.61&#10;371.69,18.55&#10;372.54,18.37&#10;373.39,18.31&#10;374.24,18.49&#10;375.09,18.93&#10;375.94,19.53&#10;376.8,20.19&#10;377.65,20.76&#10;378.5,21.21&#10;379.35,21.6&#10;380.2,21.91&#10;381.05,22.18&#10;381.9,22.21&#10;382.75,22.04&#10;383.6,22.47&#10;384.45,22.93&#10;385.3,22.88&#10;386.15,22.89&#10;387,22.69&#10;387.85,22.61&#10;388.7,22.64&#10;389.55,22.29&#10;390.4,21.69&#10;391.26,21.41&#10;392.11,21.16&#10;392.96,21.76&#10;393.81,21.87&#10;394.66,21.54&#10;395.51,23.59&#10;396.36,24.14&#10;397.21,23.99&#10;398.06,23.67&#10;398.91,23.49&#10;399.76,23.6&#10;400.61,23.64&#10;401.46,23.62&#10;402.31,23.55&#10;403.16,23.63&#10;404.01,23.79&#10;404.87,23.92&#10;405.72,23.98&#10;406.57,24.01&#10;407.42,23.99&#10;408.27,23.95&#10;409.12,23.91&#10;409.97,23.87&#10;410.82,23.86&#10;411.67,23.88&#10;412.52,23.94&#10;413.37,24.06&#10;414.22,24.18&#10;415.07,24.28&#10;415.92,24.34&#10;416.77,24.37&#10;417.62,24.38&#10;418.47,24.38&#10;419.33,24.37&#10;420.18,24.36&#10;421.03,24.34&#10;421.88,24.31&#10;422.73,24.31&#10;423.58,24.31&#10;424.43,24.32&#10;425.28,24.34&#10;426.13,24.36&#10;426.98,24.37&#10;427.83,24.37&#10;428.68,24.36&#10;429.53,24.37&#10;430.38,24.39&#10;431.23,24.39&#10;432.08,24.39&#10;432.93,24.41&#10;433.79,24.41&#10;434.64,24.41&#10;435.49,24.41&#10;436.34,24.41&#10;437.19,24.41&#10;438.04,24.41&#10;438.89,24.41&#10;439.74,24.41&#10;440.59,24.41&#10;441.44,24.41&#10;442.29,24.41&#10;443.14,24.41&#10;443.99,24.41&#10;444.84,24.41&#10;445.69,24.41&#10;446.54,24.41&#10;447.4,24.41&#10;448.25,24.41&#10;449.1,24.41&#10;449.95,24.41&#10;450.8,24.41&#10;451.65,24.41&#10;452.5,24.41&#10;453.35,24.41&#10;454.2,24.41&#10;455.05,24.41&#10;455.9,24.41&#10;456.75,24.41&#10;457.6,24.41&#10;458.45,24.41&#10;459.3,24.41&#10;460.15,24.41&#10;461,24.41&#10;461.86,24.42&#10;462.71,24.42&#10;462.71,24.42"/><polygon class="main" points="326.61,24.42&#10;326.61,24.42&#10;327.46,24.42&#10;328.31,24.42&#10;329.16,24.41&#10;330.01,24.41&#10;330.86,24.42&#10;331.71,24.41&#10;332.56,24.42&#10;333.41,24.42&#10;334.27,24.42&#10;335.12,24.41&#10;335.97,24.41&#10;336.82,24.41&#10;337.67,24.4&#10;338.52,24.38&#10;339.37,24.37&#10;340.22,24.36&#10;341.07,24.35&#10;341.92,24.35&#10;342.77,24.35&#10;343.62,24.36&#10;344.47,24.33&#10;345.32,24.29&#10;346.17,24.28&#10;347.02,24.24&#10;347.87,24.26&#10;348.73,24.25&#10;349.58,24.24&#10;350.43,24.26&#10;351.28,24.24&#10;352.13,24.24&#10;352.98,24.24&#10;353.83,24.18&#10;354.68,24.12&#10;355.53,24.02&#10;356.38,23.91&#10;357.23,23.71&#10;358.08,23.65&#10;358.93,23.4&#10;359.78,23.35&#10;360.63,22.97&#10;361.48,22.81&#10;362.34,22.53&#10;363.19,22.23&#10;364.04,22.05&#10;364.89,21.62&#10;365.74,21.25&#10;366.59,20.79&#10;367.44,20.24&#10;368.29,19.74&#10;369.14,19.72&#10;369.99,19.33&#10;370.84,19.25&#10;371.69,18.9&#10;372.54,18.4&#10;373.39,18.38&#10;374.24,18.31&#10;375.09,18.62&#10;375.94,19.02&#10;376.8,19.46&#10;377.65,20.31&#10;378.5,20.84&#10;379.35,21.11&#10;380.2,21.4&#10;381.05,21.67&#10;381.9,21.69&#10;382.75,21.47&#10;383.6,22&#10;384.45,22.51&#10;385.3,22.56&#10;386.15,22.42&#10;387,22.14&#10;387.85,22.09&#10;388.7,22.12&#10;389.55,21.75&#10;390.4,20.8&#10;391.26,20.56&#10;392.11,20.47&#10;392.96,20.9&#10;393.81,20.93&#10;394.66,21.37&#10;395.51,23.28&#10;396.36,23.99&#10;397.21,23.8&#10;398.06,23.48&#10;398.91,23.25&#10;399.76,23.32&#10;400.61,23.43&#10;401.46,23.36&#10;402.31,23.35&#10;403.16,23.37&#10;404.01,23.59&#10;404.87,23.76&#10;405.72,23.87&#10;406.57,23.88&#10;407.42,23.83&#10;408.27,23.76&#10;409.12,23.74&#10;409.97,23.74&#10;410.82,23.63&#10;411.67,23.69&#10;412.52,23.82&#10;413.37,23.93&#10;414.22,24.1&#10;415.07,24.22&#10;415.92,24.3&#10;416.77,24.35&#10;417.62,24.36&#10;418.47,24.38&#10;419.33,24.36&#10;420.18,24.34&#10;421.03,24.31&#10;421.88,24.27&#10;422.73,24.28&#10;423.58,24.27&#10;424.43,24.29&#10;425.28,24.33&#10;426.13,24.34&#10;426.98,24.35&#10;427.83,24.34&#10;428.68,24.35&#10;429.53,24.36&#10;430.38,24.39&#10;431.23,24.39&#10;432.08,24.39&#10;432.93,24.41&#10;433.79,24.41&#10;434.64,24.41&#10;435.49,24.41&#10;436.34,24.41&#10;437.19,24.41&#10;438.04,24.41&#10;438.89,24.42&#10;439.74,24.42&#10;439.74,24.42"/><polyline class="range" points="364.72,25.64&#10;364.72,26.86&#10;383.17,26.86&#10;383.17,25.64"/><polyline class="range" points="389.55,25.64&#10;389.55,26.86&#10;394.83,26.86&#10;394.83,25.64"/><polyline class="range" points="356.64,28.08&#10;356.64,29.3&#10;405.55,29.3&#10;405.55,28.08"/><polyline class="range" points="407.08,28.08&#10;407.08,29.3&#10;412.78,29.3&#10;412.78,28.08"/></g><g id="itemarea10" transform="translate(0 157.51)"><polygon class="shadow" points="227.94,24.42&#10;227.94,24.42&#10;228.79,24.42&#10;229.64,24.42&#10;230.49,24.42&#10;231.34,24.42&#10;232.19,24.42&#10;233.04,24.42&#10;233.89,24.42&#10;234.74,24.42&#10;235.6,24.42&#10;236.45,24.42&#10;237.3,24.42&#10;238.15,24.42&#10;239,24.42&#10;239.85,24.42&#10;240.7,24.42&#10;241.55,24.42&#10;242.4,24.42&#10;243.25,24.42&#10;244.1,24.42&#10;244.95,24.42&#10;245.8,24.42&#10;246.65,24.42&#10;247.5,24.42&#10;248.35,24.42&#10;249.21,24.42&#10;250.06,24.42&#10;250.91,24.42&#10;251.76,24.42&#10;252.61,24.42&#10;253.46,24.42&#10;254.31,24.42&#10;255.16,24.42&#10;256.01,24.42&#10;256.86,24.42&#10;257.71,24.42&#10;258.56,24.42&#10;259.41,24.42&#10;260.26,24.42&#10;261.11,24.42&#10;261.96,24.42&#10;262.81,24.42&#10;263.67,24.42&#10;264.52,24.42&#10;265.37,24.42&#10;266.22,24.42&#10;267.07,24.42&#10;267.92,24.42&#10;268.77,24.42&#10;269.62,24.41&#10;270.47,24.42&#10;271.32,24.42&#10;272.17,24.42&#10;273.02,24.42&#10;273.87,24.42&#10;274.72,24.41&#10;275.57,24.41&#10;276.42,24.41&#10;277.27,24.41&#10;278.13,24.4&#10;278.98,24.4&#10;279.83,24.41&#10;280.68,24.41&#10;281.53,24.41&#10;282.38,24.41&#10;283.23,24.41&#10;284.08,24.4&#10;284.93,24.39&#10;285.78,24.37&#10;286.63,24.36&#10;287.48,24.37&#10;288.33,24.37&#10;289.18,24.37&#10;290.03,24.37&#10;290.88,24.37&#10;291.74,24.37&#10;292.59,24.36&#10;293.44,24.36&#10;294.29,24.36&#10;295.14,24.36&#10;295.99,24.37&#10;296.84,24.37&#10;297.69,24.37&#10;298.54,24.36&#10;299.39,24.33&#10;300.24,24.3&#10;301.09,24.28&#10;301.94,24.27&#10;302.79,24.26&#10;303.64,24.22&#10;304.49,24.13&#10;305.34,24.03&#10;306.2,23.92&#10;307.05,23.75&#10;307.9,23.45&#10;308.75,23.09&#10;309.6,23&#10;310.45,23.26&#10;311.3,23.56&#10;312.15,23.75&#10;313,23.85&#10;313.85,23.92&#10;314.7,23.99&#10;315.55,23.98&#10;316.4,23.93&#10;317.25,23.9&#10;318.1,23.85&#10;318.95,23.76&#10;319.81,23.58&#10;320.66,23.52&#10;321.51,23.38&#10;322.36,23.3&#10;323.21,23.12&#10;324.06,23.05&#10;324.91,23.08&#10;325.76,22.94&#10;326.61,22.94&#10;327.46,22.94&#10;328.31,22.8&#10;329.16,22.68&#10;330.01,22.71&#10;330.86,22.69&#10;331.71,22.74&#10;332.56,22.43&#10;333.41,22.07&#10;334.27,21.64&#10;335.12,20.96&#10;335.97,20.61&#10;336.82,20.34&#10;337.67,19.96&#10;338.52,19.6&#10;339.37,19.42&#10;340.22,19.58&#10;341.07,19.61&#10;341.92,19.64&#10;342.77,19.95&#10;343.62,20.15&#10;344.47,19.9&#10;345.32,19.46&#10;346.17,19.33&#10;347.02,19.37&#10;347.87,19.58&#10;348.73,19.91&#10;349.58,19.99&#10;350.43,19.86&#10;351.28,19.88&#10;352.13,20.1&#10;352.98,20.12&#10;353.83,19.92&#10;354.68,19.55&#10;355.53,19.14&#10;356.38,18.81&#10;357.23,18.6&#10;358.08,18.52&#10;358.93,18.47&#10;359.78,18.39&#10;360.63,18.33&#10;361.48,18.32&#10;362.34,18.32&#10;363.19,18.32&#10;364.04,18.34&#10;364.89,18.38&#10;365.74,18.5&#10;366.59,18.8&#10;367.44,19.11&#10;368.29,19.17&#10;369.14,19.04&#10;369.99,18.88&#10;370.84,18.77&#10;371.69,18.83&#10;372.54,19.13&#10;373.39,19.61&#10;374.24,20.24&#10;375.09,20.92&#10;375.94,21.55&#10;376.8,22.09&#10;377.65,22.5&#10;378.5,22.79&#10;379.35,23.02&#10;380.2,23.2&#10;381.05,23.34&#10;381.9,23.36&#10;382.75,23.27&#10;383.6,23.5&#10;384.45,23.72&#10;385.3,23.7&#10;386.15,23.71&#10;387,23.61&#10;387.85,23.57&#10;388.7,23.58&#10;389.55,23.4&#10;390.4,23.08&#10;391.26,22.91&#10;392.11,22.76&#10;392.96,23.12&#10;393.81,23.17&#10;394.66,22.99&#10;395.51,24.03&#10;396.36,24.29&#10;397.21,24.22&#10;398.06,24.08&#10;398.91,23.99&#10;399.76,24.04&#10;400.61,24.06&#10;401.46,24.05&#10;402.31,24.02&#10;403.16,24.06&#10;404.01,24.13&#10;404.87,24.19&#10;405.72,24.22&#10;406.57,24.23&#10;407.42,24.22&#10;408.27,24.2&#10;409.12,24.18&#10;409.97,24.16&#10;410.82,24.16&#10;411.67,24.17&#10;412.52,24.2&#10;413.37,24.25&#10;414.22,24.31&#10;415.07,24.35&#10;415.92,24.38&#10;416.77,24.39&#10;417.62,24.4&#10;418.47,24.4&#10;419.33,24.4&#10;420.18,24.39&#10;421.03,24.38&#10;421.88,24.37&#10;422.73,24.36&#10;423.58,24.37&#10;424.43,24.37&#10;425.28,24.38&#10;426.13,24.39&#10;426.98,24.39&#10;427.83,24.39&#10;428.68,24.39&#10;429.53,24.4&#10;430.38,24.41&#10;431.23,24.4&#10;432.08,24.41&#10;432.93,24.42&#10;433.79,24.42&#10;434.64,24.42&#10;435.49,24.42&#10;436.34,24.42&#10;437.19,24.42&#10;438.04,24.42&#10;438.89,24.42&#10;439.74,24.42&#10;440.59,24.42&#10;441.44,24.42&#10;442.29,24.42&#10;443.14,24.42&#10;443.99,24.42&#10;444.84,24.42&#10;445.69,24.42&#10;446.54,24.42&#10;447.4,24.42&#10;448.25,24.42&#10;449.1,24.42&#10;449.95,24.42&#10;450.8,24.42&#10;451.65,24.42&#10;452.5,24.42&#10;453.35,24.42&#10;454.2,24.42&#10;455.05,24.42&#10;455.9,24.42&#10;456.75,24.42&#10;457.6,24.42&#10;458.45,24.42&#10;459.3,24.42&#10;460.15,24.42&#10;461,24.42&#10;461.86,24.42&#10;462.71,24.42&#10;463.56,24.42&#10;463.56,24.42"/><polygon class="main" points="325.76,24.42&#10;325.76,24.42&#10;326.61,24.42&#10;327.46,24.42&#10;328.31,24.42&#10;329.16,24.42&#10;330.01,24.42&#10;330.86,24.42&#10;331.71,24.42&#10;332.56,24.42&#10;333.41,24.42&#10;334.27,24.41&#10;335.12,24.41&#10;335.97,24.41&#10;336.82,24.4&#10;337.67,24.39&#10;338.52,24.37&#10;339.37,24.33&#10;340.22,24.3&#10;341.07,24.25&#10;341.92,24.25&#10;342.77,24.26&#10;343.62,24.24&#10;344.47,24.22&#10;345.32,24.16&#10;346.17,24.15&#10;347.02,24.08&#10;347.87,24.04&#10;348.73,23.99&#10;349.58,23.99&#10;350.43,23.94&#10;351.28,23.96&#10;352.13,23.91&#10;352.98,23.85&#10;353.83,23.8&#10;354.68,23.69&#10;355.53,23.59&#10;356.38,23.4&#10;357.23,23.29&#10;358.08,23.1&#10;358.93,22.9&#10;359.78,22.66&#10;360.63,22.47&#10;361.48,22.15&#10;362.34,21.61&#10;363.19,21.3&#10;364.04,21.12&#10;364.89,20.83&#10;365.74,20.54&#10;366.59,20.25&#10;367.44,20.16&#10;368.29,19.82&#10;369.14,19.17&#10;369.99,18.92&#10;370.84,18.32&#10;371.69,18.46&#10;372.54,18.37&#10;373.39,18.7&#10;374.24,18.99&#10;375.09,19.65&#10;375.94,20.26&#10;376.8,21.06&#10;377.65,21.62&#10;378.5,21.95&#10;379.35,22.27&#10;380.2,22.53&#10;381.05,22.52&#10;381.9,22.57&#10;382.75,22.67&#10;383.6,22.79&#10;384.45,23.17&#10;385.3,23.22&#10;386.15,23.12&#10;387,22.93&#10;387.85,22.96&#10;388.7,22.83&#10;389.55,22.64&#10;390.4,22.13&#10;391.26,21.64&#10;392.11,21.61&#10;392.96,22.05&#10;393.81,22.08&#10;394.66,22.15&#10;395.51,23.66&#10;396.36,24.13&#10;397.21,24.06&#10;398.06,23.82&#10;398.91,23.67&#10;399.76,23.73&#10;400.61,23.76&#10;401.46,23.78&#10;402.31,23.67&#10;403.16,23.68&#10;404.01,23.89&#10;404.87,23.96&#10;405.72,24.05&#10;406.57,24.08&#10;407.42,24.07&#10;408.27,24.03&#10;409.12,23.96&#10;409.97,23.97&#10;410.82,23.96&#10;411.67,24.03&#10;412.52,24.03&#10;413.37,24.1&#10;414.22,24.18&#10;415.07,24.27&#10;415.92,24.35&#10;416.77,24.37&#10;417.62,24.37&#10;418.47,24.38&#10;419.33,24.37&#10;420.18,24.35&#10;421.03,24.34&#10;421.88,24.33&#10;422.73,24.3&#10;423.58,24.32&#10;424.43,24.33&#10;425.28,24.34&#10;426.13,24.36&#10;426.98,24.38&#10;427.83,24.35&#10;428.68,24.36&#10;429.53,24.37&#10;430.38,24.39&#10;431.23,24.39&#10;432.08,24.4&#10;432.93,24.42&#10;433.79,24.42&#10;434.64,24.42&#10;435.49,24.42&#10;436.34,24.42&#10;437.19,24.42&#10;437.19,24.42"/><polyline class="range" points="360.89,25.64&#10;360.89,26.86&#10;379.69,26.86&#10;379.69,25.64"/><polyline class="range" points="389.98,25.64&#10;389.98,26.86&#10;394.74,26.86&#10;394.74,25.64"/><polyline class="range" points="348.04,28.08&#10;348.04,29.3&#10;396.19,29.3&#10;396.19,28.08"/><polyline class="range" points="397.29,28.08&#10;397.29,29.3&#10;405.55,29.3&#10;405.55,28.08"/><polyline class="range" points="408.27,28.08&#10;408.27,29.3&#10;411.93,29.3&#10;411.93,28.08"/></g><g id="itemarea11" transform="translate(0 177.73)"><polygon class="shadow" points="283.23,24.42&#10;283.23,24.42&#10;284.08,24.42&#10;284.93,24.41&#10;285.78,24.41&#10;286.63,24.41&#10;287.48,24.41&#10;288.33,24.41&#10;289.18,24.41&#10;290.03,24.41&#10;290.88,24.41&#10;291.74,24.41&#10;292.59,24.41&#10;293.44,24.41&#10;294.29,24.41&#10;295.14,24.41&#10;295.99,24.41&#10;296.84,24.41&#10;297.69,24.41&#10;298.54,24.41&#10;299.39,24.41&#10;300.24,24.41&#10;301.09,24.41&#10;301.94,24.41&#10;302.79,24.41&#10;303.64,24.41&#10;304.49,24.41&#10;305.34,24.41&#10;306.2,24.41&#10;307.05,24.41&#10;307.9,24.41&#10;308.75,24.4&#10;309.6,24.4&#10;310.45,24.41&#10;311.3,24.41&#10;312.15,24.41&#10;313,24.41&#10;313.85,24.41&#10;314.7,24.41&#10;315.55,24.41&#10;316.4,24.41&#10;317.25,24.41&#10;318.1,24.41&#10;318.95,24.41&#10;319.81,24.41&#10;320.66,24.41&#10;321.51,24.41&#10;322.36,24.41&#10;323.21,24.4&#10;324.06,24.4&#10;324.91,24.4&#10;325.76,24.4&#10;326.61,24.4&#10;327.46,24.4&#10;328.31,24.4&#10;329.16,24.39&#10;330.01,24.39&#10;330.86,24.39&#10;331.71,24.39&#10;332.56,24.38&#10;333.41,24.37&#10;334.27,24.34&#10;335.12,24.27&#10;335.97,24.22&#10;336.82,24.17&#10;337.67,24.08&#10;338.52,23.97&#10;339.37,23.9&#10;340.22,23.96&#10;341.07,23.97&#10;341.92,23.99&#10;342.77,24.08&#10;343.62,24.13&#10;344.47,24.07&#10;345.32,23.92&#10;346.17,23.86&#10;347.02,23.88&#10;347.87,23.96&#10;348.73,24.07&#10;349.58,24.09&#10;350.43,24.05&#10;351.28,24.06&#10;352.13,24.12&#10;352.98,24.12&#10;353.83,24.07&#10;354.68,23.95&#10;355.53,23.76&#10;356.38,23.52&#10;357.23,23.28&#10;358.08,23.16&#10;358.93,23.07&#10;359.78,22.87&#10;360.63,22.62&#10;361.48,22.4&#10;362.34,22.25&#10;363.19,22.15&#10;364.04,22.04&#10;364.89,21.82&#10;365.74,21.38&#10;366.59,20.69&#10;367.44,20.16&#10;368.29,20.08&#10;369.14,20.28&#10;369.99,20.54&#10;370.84,20.74&#10;371.69,20.63&#10;372.54,20.14&#10;373.39,19.51&#10;374.24,18.9&#10;375.09,18.47&#10;375.94,18.31&#10;376.8,18.39&#10;377.65,18.6&#10;378.5,18.86&#10;379.35,19.15&#10;380.2,19.42&#10;381.05,19.68&#10;381.9,19.7&#10;382.75,19.53&#10;383.6,20&#10;384.45,20.61&#10;385.3,20.55&#10;386.15,20.56&#10;387,20.27&#10;387.85,20.18&#10;388.7,20.21&#10;389.55,19.78&#10;390.4,19.2&#10;391.26,18.98&#10;392.11,18.81&#10;392.96,19.26&#10;393.81,19.36&#10;394.66,19.07&#10;395.51,21.99&#10;396.36,23.16&#10;397.21,22.69&#10;398.06,21.93&#10;398.91,21.55&#10;399.76,21.77&#10;400.61,21.87&#10;401.46,21.83&#10;402.31,21.67&#10;403.16,21.84&#10;404.01,22.2&#10;404.87,22.54&#10;405.72,22.71&#10;406.57,22.77&#10;407.42,22.72&#10;408.27,22.62&#10;409.12,22.5&#10;409.97,22.4&#10;410.82,22.38&#10;411.67,22.42&#10;412.52,22.59&#10;413.37,22.91&#10;414.22,23.29&#10;415.07,23.65&#10;415.92,23.92&#10;416.77,24.07&#10;417.62,24.14&#10;418.47,24.15&#10;419.33,24.1&#10;420.18,24.02&#10;421.03,23.91&#10;421.88,23.81&#10;422.73,23.77&#10;423.58,23.79&#10;424.43,23.85&#10;425.28,23.93&#10;426.13,24.01&#10;426.98,24.06&#10;427.83,24.06&#10;428.68,24.02&#10;429.53,24.1&#10;430.38,24.21&#10;431.23,24.19&#10;432.08,24.23&#10;432.93,24.36&#10;433.79,24.38&#10;434.64,24.37&#10;435.49,24.35&#10;436.34,24.36&#10;437.19,24.38&#10;438.04,24.4&#10;438.89,24.41&#10;439.74,24.41&#10;440.59,24.41&#10;441.44,24.41&#10;442.29,24.41&#10;443.14,24.41&#10;443.99,24.41&#10;444.84,24.41&#10;445.69,24.41&#10;446.54,24.41&#10;447.4,24.41&#10;448.25,24.41&#10;449.1,24.41&#10;449.95,24.41&#10;450.8,24.41&#10;451.65,24.41&#10;452.5,24.41&#10;453.35,24.41&#10;454.2,24.41&#10;455.05,24.41&#10;455.9,24.41&#10;456.75,24.41&#10;457.6,24.41&#10;458.45,24.41&#10;459.3,24.41&#10;460.15,24.41&#10;461,24.41&#10;461.86,24.41&#10;462.71,24.41&#10;463.56,24.41&#10;464.41,24.41&#10;465.26,24.41&#10;466.11,24.41&#10;466.96,24.41&#10;467.81,24.41&#10;468.66,24.41&#10;469.51,24.41&#10;470.36,24.41&#10;471.21,24.41&#10;472.06,24.42&#10;472.91,24.42&#10;472.91,24.42"/><polygon class="main" points="336.82,24.42&#10;336.82,24.42&#10;337.67,24.41&#10;338.52,24.41&#10;339.37,24.4&#10;340.22,24.4&#10;341.07,24.4&#10;341.92,24.39&#10;342.77,24.4&#10;343.62,24.4&#10;344.47,24.4&#10;345.32,24.38&#10;346.17,24.36&#10;347.02,24.34&#10;347.87,24.36&#10;348.73,24.37&#10;349.58,24.37&#10;350.43,24.36&#10;351.28,24.37&#10;352.13,24.37&#10;352.98,24.37&#10;353.83,24.34&#10;354.68,24.32&#10;355.53,24.27&#10;356.38,24.21&#10;357.23,24.15&#10;358.08,24.02&#10;358.93,24.01&#10;359.78,23.89&#10;360.63,23.77&#10;361.48,23.62&#10;362.34,23.38&#10;363.19,23.38&#10;364.04,23.12&#10;364.89,22.96&#10;365.74,22.55&#10;366.59,22.05&#10;367.44,21.49&#10;368.29,21.46&#10;369.14,21.26&#10;369.99,21.33&#10;370.84,21.51&#10;371.69,21.07&#10;372.54,20.76&#10;373.39,20.07&#10;374.24,19.44&#10;375.09,18.52&#10;375.94,18.61&#10;376.8,18.62&#10;377.65,18.99&#10;378.5,18.84&#10;379.35,19.32&#10;380.2,19.43&#10;381.05,19.45&#10;381.9,19.63&#10;382.75,19.56&#10;383.6,20.07&#10;384.45,20.5&#10;385.3,20.33&#10;386.15,20.57&#10;387,20&#10;387.85,20.05&#10;388.7,19.99&#10;389.55,19.41&#10;390.4,19.01&#10;391.26,18.39&#10;392.11,18.31&#10;392.96,18.98&#10;393.81,18.94&#10;394.66,19.06&#10;395.51,21.72&#10;396.36,22.88&#10;397.21,22.53&#10;398.06,21.91&#10;398.91,21.32&#10;399.76,21.52&#10;400.61,21.65&#10;401.46,21.66&#10;402.31,21.61&#10;403.16,21.83&#10;404.01,22.31&#10;404.87,22.32&#10;405.72,22.58&#10;406.57,22.66&#10;407.42,22.67&#10;408.27,22.45&#10;409.12,22.36&#10;409.97,22.35&#10;410.82,22.25&#10;411.67,22.32&#10;412.52,22.57&#10;413.37,22.8&#10;414.22,23.3&#10;415.07,23.66&#10;415.92,23.88&#10;416.77,24.03&#10;417.62,24.14&#10;418.47,24.13&#10;419.33,24.07&#10;420.18,23.98&#10;421.03,23.86&#10;421.88,23.76&#10;422.73,23.65&#10;423.58,23.72&#10;424.43,23.79&#10;425.28,23.91&#10;426.13,23.97&#10;426.98,24.05&#10;427.83,24.05&#10;428.68,24.04&#10;429.53,24.07&#10;430.38,24.21&#10;431.23,24.16&#10;432.08,24.23&#10;432.93,24.33&#10;433.79,24.38&#10;434.64,24.37&#10;435.49,24.35&#10;436.34,24.36&#10;437.19,24.36&#10;438.04,24.4&#10;438.89,24.4&#10;439.74,24.41&#10;440.59,24.41&#10;441.44,24.41&#10;442.29,24.42&#10;443.14,24.42&#10;443.99,24.42&#10;444.84,24.42&#10;445.69,24.41&#10;446.54,24.42&#10;447.4,24.41&#10;448.25,24.41&#10;449.1,24.41&#10;449.95,24.41&#10;450.8,24.41&#10;451.65,24.41&#10;452.5,24.41&#10;453.35,24.41&#10;454.2,24.41&#10;455.05,24.41&#10;455.9,24.42&#10;456.75,24.41&#10;457.6,24.42&#10;458.45,24.41&#10;459.3,24.41&#10;460.15,24.41&#10;460.15,24.42"/><polyline class="range" points="367.44,25.64&#10;367.44,26.86&#10;395.42,26.86&#10;395.42,25.64"/><polyline class="range" points="398.66,25.64&#10;398.66,26.86&#10;399.76,26.86&#10;399.76,25.64"/><polyline class="range" points="360.63,28.08&#10;360.63,29.3&#10;415.5,29.3&#10;415.5,28.08"/><polyline class="range" points="421.79,28.08&#10;421.79,29.3&#10;424.17,29.3&#10;424.17,28.08"/></g></g></g><g id="textarea" transform="translate(14.15 14.15)"><g id="itemarea2" transform="translate(0 -4.2)"><text transform="translate(0 2.91)" style="font-size:7.27pt" x="7.22" y="24.42">Sequence Skaill site 6 [Amodel:84]</text></g><g id="itemarea3" transform="translate(0 16.01)"><text transform="translate(0 2.91)" style="font-size:7.27pt" x="12.03" y="24.42">Phase Level 2/3</text></g><g id="itemarea4" transform="translate(0 36.23)"><text transform="translate(0 2.91)" style="font-size:7.27pt;font-style:italic" x="16.84" y="24.42">R_Date Birm-764: pit F28 [A:100]</text></g><g id="itemarea5" transform="translate(0 56.44)"><text transform="translate(0 2.91)" style="font-size:7.27pt;font-style:italic" x="16.84" y="24.42">R_Date Birm-766: Level 2 furnace [A:100]</text></g><g id="itemarea6" transform="translate(0 76.66)"><text transform="translate(0 2.91)" style="font-size:7.27pt;font-style:italic" x="16.84" y="24.42">R_Date Birm-593: hearth below paving [A:101]</text></g><g id="itemarea7" transform="translate(0 96.87)"><text transform="translate(0 2.91)" style="font-size:7.27pt;font-style:italic" x="12.03" y="24.42">R_Date Birm-765: Level 1 paving [A:74]</text></g><g id="itemarea8" transform="translate(0 117.09)"><text transform="translate(0 2.91)" style="font-size:7.27pt" x="12.03" y="24.42">Phase Level 1</text></g><g id="itemarea9" transform="translate(0 137.3)"><text transform="translate(0 2.91)" style="font-size:7.27pt;font-style:italic" x="16.84" y="24.42">R_Date Birm-763: low Level 1 deposit [A:103]</text></g><g id="itemarea10" transform="translate(0 157.51)"><text transform="translate(0 2.91)" style="font-size:7.27pt;font-style:italic" x="16.84" y="24.42">R_Date Birm-592: Level 1 hearth [A:88]</text></g><g id="itemarea11" transform="translate(0 177.73)"><text transform="translate(0 2.91)" style="font-size:7.27pt;font-style:italic" x="16.84" y="24.42">R_Date Birm-762: Level 1 deposit [A:105]</text></g></g><rect class="border" x="14.15" width="481.1" y="14.15" height="222.36"/><g><line class="gridline" x1="22.72" y1="236.51" x2="22.72" y2="14.15"/><line class="gridline" x1="107.78" y1="236.51" x2="107.78" y2="14.15"/><line class="gridline" x1="192.84" y1="236.51" x2="192.84" y2="14.15"/><line class="gridline" x1="277.9" y1="236.51" x2="277.9" y2="14.15"/><line class="gridline" x1="362.96" y1="236.51" x2="362.96" y2="14.15"/><line class="gridline" x1="448.02" y1="236.51" x2="448.02" y2="14.15"/></g><g><line class="majorpip" x1="14.15" y1="236.51" x2="495.25" y2="236.51"/><line class="minorpip" x1="22.72" y1="236.51" x2="22.72" y2="233.68"/><line class="minorpip" x1="39.73" y1="236.51" x2="39.73" y2="233.68"/><line class="minorpip" x1="56.74" y1="236.51" x2="56.74" y2="233.68"/><line class="minorpip" x1="73.76" y1="236.51" x2="73.76" y2="233.68"/><line class="minorpip" x1="90.77" y1="236.51" x2="90.77" y2="233.68"/><line class="minorpip" x1="107.78" y1="236.51" x2="107.78" y2="233.68"/><line class="minorpip" x1="124.79" y1="236.51" x2="124.79" y2="233.68"/><line class="minorpip" x1="141.8" y1="236.51" x2="141.8" y2="233.68"/><line class="minorpip" x1="158.82" y1="236.51" x2="158.82" y2="233.68"/><line class="minorpip" x1="175.83" y1="236.51" x2="175.83" y2="233.68"/><line class="minorpip" x1="192.84" y1="236.51" x2="192.84" y2="233.68"/><line class="minorpip" x1="209.85" y1="236.51" x2="209.85" y2="233.68"/><line class="minorpip" x1="226.86" y1="236.51" x2="226.86" y2="233.68"/><line class="minorpip" x1="243.88" y1="236.51" x2="243.88" y2="233.68"/><line class="minorpip" x1="260.89" y1="236.51" x2="260.89" y2="233.68"/><line class="minorpip" x1="277.9" y1="236.51" x2="277.9" y2="233.68"/><line class="minorpip" x1="294.91" y1="236.51" x2="294.91" y2="233.68"/><line class="minorpip" x1="311.92" y1="236.51" x2="311.92" y2="233.68"/><line class="minorpip" x1="328.94" y1="236.51" x2="328.94" y2="233.68"/><line class="minorpip" x1="345.95" y1="236.51" x2="345.95" y2="233.68"/><line class="minorpip" x1="362.96" y1="236.51" x2="362.96" y2="233.68"/><line class="minorpip" x1="379.97" y1="236.51" x2="379.97" y2="233.68"/><line class="minorpip" x1="396.98" y1="236.51" x2="396.98" y2="233.68"/><line class="minorpip" x1="414" y1="236.51" x2="414" y2="233.68"/><line class="minorpip" x1="431.01" y1="236.51" x2="431.01" y2="233.68"/><line class="minorpip" x1="448.02" y1="236.51" x2="448.02" y2="233.68"/><line class="minorpip" x1="465.03" y1="236.51" x2="465.03" y2="233.68"/><line class="minorpip" x1="482.04" y1="236.51" x2="482.04" y2="233.68"/><line class="majorpip" x1="22.72" y1="236.51" x2="22.72" y2="230.85"/><text transform="translate(0 8.44)" style="font-size:7.27pt;text-anchor:middle" x="22.72" y="236.51">1500</text><line class="majorpip" x1="107.78" y1="236.51" x2="107.78" y2="230.85"/><text transform="translate(0 8.44)" style="font-size:7.27pt;text-anchor:middle" x="107.78" y="236.51">1000</text><line class="majorpip" x1="192.84" y1="236.51" x2="192.84" y2="230.85"/><text transform="translate(0 8.44)" style="font-size:7.27pt;text-anchor:middle" x="192.84" y="236.51">500</text><line class="majorpip" x1="277.9" y1="236.51" x2="277.9" y2="230.85"/><text transform="translate(0 8.44)" style="font-size:7.27pt;text-anchor:middle" x="277.9" y="236.51">1BC/1AD</text><line class="majorpip" x1="362.96" y1="236.51" x2="362.96" y2="230.85"/><text transform="translate(0 8.44)" style="font-size:7.27pt;text-anchor:middle" x="362.96" y="236.51">501</text><line class="majorpip" x1="448.02" y1="236.51" x2="448.02" y2="230.85"/><text transform="translate(0 8.44)" style="font-size:7.27pt;text-anchor:middle" x="448.02" y="236.51">1001</text><text transform="translate(0 2.91)" style="font-size:7.27pt;text-anchor:middle;font-style:italic" x="254.7" y="264.81">Modelled date (BC/AD)</text></g><g id="references" transform="translate(0 0)"><text transform="translate(0 -1.05)" style="font-size:4.36pt" x="14.15" y="14.15">OxCal v4.4.4 Bronk Ramsey (2021); r:5 Atmospheric data from Reimer et al (2020)</text></g></g></g>
</svg>