<?xml version="1.0" encoding="UTF-8"?><svg id="top" version="1.1" xmlns="http://www.w3.org/2000/svg" xmlns:xlink="http://www.w3.org/1999/xlink" xmlns:ev="http://www.w3.org/2001/xml-events" width="509.400pt" height="198.100pt" zoomAndPan="magnify" preserveAspectRatio="xMinYMin" onload="createPlot()" viewBox="0 0 509.400 198.100">
   <defs id="definitions">
   <filter id="Shadow" filterUnits="userSpaceOnUse">
    <feGaussianBlur in="SourceAlpha" stdDeviation="4" result="blur"/>
    <feOffset in="blur" dx="4" dy="4" result="offsetBlurredAlpha"/>
    <feMerge>
     <feMergeNode in="offsetBlurredAlpha"/>
     <feMergeNode in="SourceGraphic"/>
    </feMerge> 
   </filter>    
    <filter id="Correlation1" x="-20%" y="-20%" width="140%" height="140%" filterUnits="objectBoundingBox">
     <feGaussianBlur in="SourceGraphic" stdDeviation="7" result="blur"/>
     <feColorMatrix type="matrix" in="blur" values="0 0 0  5.00 -2.00&#10;               0 0 0 -2.50  2.50&#10;               0 0 0  0.00  0.00&#10;               0 0 0  2.50  0.00"/>
    </filter>    
    <filter id="Correlation2" x="-20%" y="-20%" width="140%" height="140%" filterUnits="objectBoundingBox">
     <feGaussianBlur in="SourceGraphic" stdDeviation="7" result="blur"/>
     <feGaussianBlur in="SourceAlpha" stdDeviation="7" result="opacity"/>
     <feColorMatrix type="matrix" in="blur" result="newcolor" values="0 0 0  5.00 -2.00&#10;               0 0 0 -2.50  2.50&#10;               0 0 0  0.00  0.00&#10;               0 0 0  2.50  0.00"/>
     <feSpecularLighting in="opacity" surfaceScale="5" specularConstant="1" specularExponent="20" lighting-color="white" result="specularOut">
      <feDistantLight azimuth="225" elevation="30"/>
     </feSpecularLighting>
     <feComposite in="newcolor" in2="specularOut" operator="arithmetic" k1="0" k2="1" k3="1" k4="0" result="litPaint"/>
    </filter>
    <pattern id="Sequence" patternUnits="userSpaceOnUse" x="0" y="0" width="5" height="5" viewBox="0 0 5 5">
    </pattern>    
    <pattern id="U_Sequence" patternUnits="userSpaceOnUse" x="0" y="0" width="5" height="5" viewBox="0 0 5 5">
     <line x1="-2.5" x2="5" y1="5" y2="-2.5" style="stroke-width:1.5;stroke:black"/>
     <line x1="0" x2="7.5" y1="7.5" y2="0" style="stroke-width:1.5;stroke:black"/>
    </pattern>    
    <pattern id="D_Sequence" patternUnits="userSpaceOnUse" x="0" y="0" width="5" height="5" viewBox="0 0 5 5">
     <line x1="-2.5" x2="7.5" y1="-2.5" y2="7.5" style="stroke-width:1;stroke:black"/>
     <line x1="-2.5" x2="7.5" y1="7.5" y2="-2.5" style="stroke-width:1;stroke:black"/>
    </pattern>    
    <pattern id="V_Sequence" patternUnits="userSpaceOnUse" x="0" y="0" width="5" height="5" viewBox="0 0 5 5">
     <ellipse cx="2.5" cy="2.5" rx="1.5" ry="0.7" style="fill:black"/>
    </pattern>    
    <pattern id="P_Sequence" patternUnits="userSpaceOnUse" x="0" y="0" width="5" height="5" viewBox="0 0 5 5">
     <circle cx="1.25" cy="3.75" r="1" style="fill:black"/>
     <circle cx="3.75" cy="1.25" r="1" style="fill:black"/>
    </pattern>
    <style type="text/css">
      rect.border { fill:none; stroke:black;stroke-width:1px }
      rect.fillblack { fill:black; stroke:black;stroke-width:1px }
      rect.structure { fill:none; stroke:none }
      rect.structtab { fill:none; stroke:none }
      rect.structclip { fill:white; stroke:none }
      rect.structborder { fill:none; stroke:black; stroke-width:0.5px }
      rect.range3 {fill:none;stroke:black;stroke-width:1px }
      rect.range2 {fill:none;stroke:black;stroke-width:1px }
      rect.range1 {fill:none;stroke:black;stroke-width:1px }
      rect.fillbackground { fill:#000099 }
      rect.fillmodel { fill:none;stroke:black;stroke-width:1px }
      rect.modeldist { fill:none;stroke:black;stroke-width:1px }
      rect.fill { }
      polygon.main { fill:black; stroke:black;stroke-width:0.2px }
      polygon.shadow { fill:none;stroke:black;stroke-width:0.2px }
      polygon.curve { fill:none;stroke:black;stroke-width:1px }
      polygon.normal { fill:none;stroke:black;stroke-width:1px }
      polygon.kdesigma { fill:lightgrey; stroke:grey;stroke-width:0px;fill-opacity:0.2 }
      polygon.modeldist { fill:url(#U_Sequence);stroke:black;stroke-width:1px }
      polyline.datacurve { fill:none; stroke:black;stroke-width:1px }
      polyline.range { fill:none; stroke:black; stroke-width:1px; stroke-linejoin:round }
      polyline.ensemble { fill:none; stroke:black; stroke-width:0.5px;stroke-opacity:0.2 }
      polyline.kdemean { fill:none; stroke:black; stroke-width:1px }
      path.model3 { fill:none;stroke:black;stroke-width:1px }
      path.model2 { fill:none;stroke:black;stroke-width:1px }
      path.model1 { fill:none;stroke:black;stroke-width:1px }
      g.curve { fill:none;stroke:black;stroke-width:1px }
      line.majorpip { stroke:black; stroke-width:1px }
      line.minorpip { stroke:black; stroke-width:0.5px }
      line.gridline { stroke:black; stroke-width:0.5px }
      line.majorpip2 { stroke:white; stroke-width:1px }
      line.minorpip2 { stroke:white; stroke-width:0.5px }
      line.gridline2 { stroke:white; stroke-width:0.5px }
      line.okline { stroke:black; stroke-width:1px }
      line.errorline { stroke:black; stroke-width:1px }
      line.range { stroke:black; stroke-width:1px }
      line.modelline { stroke:black; stroke-width:1px }
      line.constrshadow { stroke:none; stroke-width:2px }
      line.constrok { stroke:black; stroke-width:1px }
      line.constrerror { stroke:black; stroke-width:1px }
      line.curve { stroke:black;stroke-width:1px }
      text { fill:black; stroke:none; font-size:10pt; font-family:"Arial","Helvetica"; font-style:normal }
    </style>
   <clipPath id="clip1"><rect x="0" width="481.1" y="0" height="141.5"/></clipPath><clipPath id="clip2"><rect x="0" width="481.1" y="0" height="141.5"/></clipPath></defs>
    <g id="mainframe"><rect x="-50.94" width="611.28" y="-19.81" height="237.72" style="fill:white" stroke="none"/><g id="mainviewport" transform="translate(0 0)"><rect class="border" x="14.15" width="481.1" y="14.15" height="141.5"/><g id="tabarea" transform="translate(14.15 14.15)"/><g id="plotarea" transform="translate(14.15 14.15)"><g id="structarea" transform="translate(0 0)"><g clip-path="url(#clip1)"/></g><g clip-path="url(#clip2)"><g id="itemarea2" transform="translate(0 -4.2)"/><g id="itemarea3" transform="translate(0 16.01)"><polygon class="main" points="145.86,24.42&#10;145.86,24.42&#10;147.14,24.42&#10;148.41,24.41&#10;149.68,24.41&#10;150.96,24.41&#10;152.23,24.41&#10;153.5,24.41&#10;154.77,24.41&#10;156.05,24.41&#10;157.32,24.41&#10;158.59,24.41&#10;159.87,24.41&#10;161.14,24.41&#10;162.41,24.41&#10;163.68,24.41&#10;164.96,24.41&#10;166.23,24.41&#10;167.5,24.41&#10;168.77,24.41&#10;170.05,24.41&#10;171.32,24.41&#10;172.59,24.41&#10;173.87,24.41&#10;175.14,24.41&#10;176.41,24.41&#10;177.68,24.41&#10;178.96,24.41&#10;180.23,24.41&#10;181.5,24.41&#10;182.77,24.41&#10;184.05,24.41&#10;185.32,24.41&#10;186.59,24.41&#10;187.87,24.41&#10;189.14,24.41&#10;190.41,24.41&#10;191.68,24.41&#10;192.96,24.41&#10;194.23,24.41&#10;195.5,24.41&#10;196.77,24.41&#10;198.05,24.41&#10;199.32,24.41&#10;200.59,24.41&#10;201.87,24.41&#10;203.14,24.4&#10;204.41,24.39&#10;205.68,24.37&#10;206.96,24.37&#10;208.23,24.38&#10;209.5,24.38&#10;210.78,24.39&#10;212.05,24.39&#10;213.32,24.4&#10;214.59,24.4&#10;215.87,24.4&#10;217.14,24.4&#10;218.41,24.39&#10;219.68,24.39&#10;220.96,24.36&#10;222.23,24.34&#10;223.5,24.32&#10;224.78,24.29&#10;226.05,24.24&#10;227.32,24.04&#10;228.59,23.74&#10;229.87,23.48&#10;231.14,23.01&#10;232.41,22.55&#10;233.68,22.51&#10;234.96,21.95&#10;236.23,21.04&#10;237.5,20.47&#10;238.78,20.3&#10;240.05,19.92&#10;241.32,19.45&#10;242.59,18.95&#10;243.87,18.76&#10;245.14,18.63&#10;246.41,18.52&#10;247.68,18.5&#10;248.96,18.45&#10;250.23,18.33&#10;251.5,18.32&#10;252.78,18.48&#10;254.05,18.5&#10;255.32,18.56&#10;256.59,18.85&#10;257.87,19.22&#10;259.14,19.75&#10;260.41,20.29&#10;261.69,20&#10;262.96,19.2&#10;264.23,18.37&#10;265.5,18.31&#10;266.78,18.49&#10;268.05,18.84&#10;269.32,19.18&#10;270.59,19.33&#10;271.87,19.62&#10;273.14,19.69&#10;274.41,19.45&#10;275.69,19.36&#10;276.96,19.57&#10;278.23,19.92&#10;279.5,20.1&#10;280.78,19.9&#10;282.05,19.49&#10;283.32,19.23&#10;284.59,19.27&#10;285.87,19.41&#10;287.14,19.32&#10;288.41,19.09&#10;289.69,18.97&#10;290.96,19.01&#10;292.23,18.99&#10;293.5,18.63&#10;294.78,18.34&#10;296.05,18.34&#10;297.32,18.33&#10;298.59,18.32&#10;299.87,18.32&#10;301.14,18.34&#10;302.41,18.42&#10;303.69,18.41&#10;304.96,18.39&#10;306.23,18.36&#10;307.5,18.36&#10;308.78,18.38&#10;310.05,18.41&#10;311.32,18.46&#10;312.6,18.48&#10;313.87,18.49&#10;315.14,18.55&#10;316.41,18.64&#10;317.69,18.71&#10;318.96,18.71&#10;320.23,18.59&#10;321.5,18.5&#10;322.78,18.45&#10;324.05,18.44&#10;325.32,18.51&#10;326.6,18.69&#10;327.87,19.09&#10;329.14,19.82&#10;330.41,20.85&#10;331.69,21.92&#10;332.96,22.78&#10;334.23,23.33&#10;335.5,23.62&#10;336.78,23.76&#10;338.05,23.83&#10;339.32,23.9&#10;340.6,24&#10;341.87,24.13&#10;343.14,24.26&#10;344.41,24.33&#10;345.69,24.37&#10;346.96,24.38&#10;348.23,24.39&#10;349.51,24.38&#10;350.78,24.36&#10;352.05,24.33&#10;353.32,24.29&#10;354.6,24.27&#10;355.87,24.26&#10;357.14,24.27&#10;358.41,24.26&#10;359.69,24.22&#10;360.96,24.15&#10;362.23,24.06&#10;363.51,23.98&#10;364.78,23.99&#10;366.05,24.06&#10;367.32,24.12&#10;368.6,24.14&#10;369.87,24.1&#10;371.14,24&#10;372.41,23.99&#10;373.69,24.16&#10;374.96,24.25&#10;376.23,24.25&#10;377.51,24.21&#10;378.78,24.22&#10;380.05,24.3&#10;381.32,24.36&#10;382.6,24.39&#10;383.87,24.4&#10;385.14,24.39&#10;386.41,24.39&#10;387.69,24.39&#10;388.96,24.4&#10;390.23,24.41&#10;391.51,24.41&#10;392.78,24.41&#10;394.05,24.41&#10;395.32,24.41&#10;396.6,24.41&#10;397.87,24.41&#10;399.14,24.41&#10;400.42,24.41&#10;401.69,24.41&#10;402.96,24.41&#10;404.23,24.41&#10;405.51,24.41&#10;406.78,24.41&#10;408.05,24.41&#10;409.32,24.41&#10;410.6,24.41&#10;411.87,24.41&#10;413.14,24.41&#10;414.42,24.41&#10;415.69,24.41&#10;416.96,24.41&#10;418.23,24.41&#10;419.51,24.41&#10;420.78,24.41&#10;422.05,24.41&#10;423.32,24.41&#10;424.6,24.41&#10;425.87,24.41&#10;427.14,24.41&#10;428.42,24.41&#10;429.69,24.41&#10;430.96,24.41&#10;432.23,24.41&#10;433.51,24.41&#10;434.78,24.41&#10;436.05,24.41&#10;437.32,24.41&#10;438.6,24.42&#10;439.87,24.42&#10;439.87,24.42"/><polyline class="range" points="241.83,25.64&#10;241.83,26.86&#10;257.87,26.86&#10;257.87,25.64"/><polyline class="range" points="262.96,25.64&#10;262.96,26.86&#10;269.7,26.86&#10;269.7,25.64"/><polyline class="range" points="287.65,25.64&#10;287.65,26.86&#10;328.12,26.86&#10;328.12,25.64"/><polyline class="range" points="233.81,28.08&#10;233.81,29.3&#10;332.45,29.3&#10;332.45,28.08"/></g><g id="itemarea4" transform="translate(0 36.23)"><polygon class="main" points="103.86,24.42&#10;103.86,24.42&#10;105.14,24.41&#10;106.41,24.41&#10;107.68,24.41&#10;108.95,24.41&#10;110.23,24.41&#10;111.5,24.41&#10;112.77,24.41&#10;114.05,24.41&#10;115.32,24.41&#10;116.59,24.41&#10;117.86,24.41&#10;119.14,24.41&#10;120.41,24.41&#10;121.68,24.41&#10;122.96,24.41&#10;124.23,24.41&#10;125.5,24.41&#10;126.77,24.41&#10;128.05,24.41&#10;129.32,24.41&#10;130.59,24.41&#10;131.86,24.41&#10;133.14,24.41&#10;134.41,24.41&#10;135.68,24.41&#10;136.96,24.41&#10;138.23,24.41&#10;139.5,24.41&#10;140.77,24.41&#10;142.05,24.41&#10;143.32,24.41&#10;144.59,24.41&#10;145.86,24.41&#10;147.14,24.41&#10;148.41,24.41&#10;149.68,24.41&#10;150.96,24.41&#10;152.23,24.41&#10;153.5,24.41&#10;154.77,24.41&#10;156.05,24.41&#10;157.32,24.41&#10;158.59,24.41&#10;159.87,24.41&#10;161.14,24.41&#10;162.41,24.41&#10;163.68,24.41&#10;164.96,24.41&#10;166.23,24.4&#10;167.5,24.39&#10;168.77,24.39&#10;170.05,24.4&#10;171.32,24.4&#10;172.59,24.4&#10;173.87,24.4&#10;175.14,24.38&#10;176.41,24.36&#10;177.68,24.34&#10;178.96,24.33&#10;180.23,24.33&#10;181.5,24.32&#10;182.77,24.31&#10;184.05,24.28&#10;185.32,24.26&#10;186.59,24.24&#10;187.87,24.24&#10;189.14,24.26&#10;190.41,24.29&#10;191.68,24.31&#10;192.96,24.31&#10;194.23,24.3&#10;195.5,24.25&#10;196.77,24.17&#10;198.05,24.09&#10;199.32,24.03&#10;200.59,23.98&#10;201.87,23.87&#10;203.14,23.66&#10;204.41,23.33&#10;205.68,23&#10;206.96,22.9&#10;208.23,23.02&#10;209.5,23.2&#10;210.78,23.35&#10;212.05,23.44&#10;213.32,23.48&#10;214.59,23.51&#10;215.87,23.5&#10;217.14,23.46&#10;218.41,23.39&#10;219.68,23.2&#10;220.96,22.76&#10;222.23,22.34&#10;223.5,22.14&#10;224.78,21.81&#10;226.05,21.35&#10;227.32,20.24&#10;228.59,19.32&#10;229.87,18.87&#10;231.14,18.45&#10;232.41,18.31&#10;233.68,18.31&#10;234.96,18.39&#10;236.23,18.84&#10;237.5,19.26&#10;238.78,19.4&#10;240.05,19.74&#10;241.32,20.25&#10;242.59,20.88&#10;243.87,21.18&#10;245.14,21.42&#10;246.41,21.63&#10;247.68,21.68&#10;248.96,21.81&#10;250.23,22.24&#10;251.5,22.27&#10;252.78,21.72&#10;254.05,21.68&#10;255.32,21.54&#10;256.59,21.03&#10;257.87,20.52&#10;259.14,19.92&#10;260.41,19.4&#10;261.69,19.67&#10;262.96,20.54&#10;264.23,22.06&#10;265.5,22.34&#10;266.78,21.71&#10;268.05,21.05&#10;269.32,20.59&#10;270.59,20.39&#10;271.87,20.06&#10;273.14,19.99&#10;274.41,20.26&#10;275.69,20.37&#10;276.96,20.12&#10;278.23,19.76&#10;279.5,19.59&#10;280.78,19.78&#10;282.05,20.22&#10;283.32,20.53&#10;284.59,20.48&#10;285.87,20.31&#10;287.14,20.41&#10;288.41,20.71&#10;289.69,20.89&#10;290.96,20.81&#10;292.23,20.86&#10;293.5,21.44&#10;294.78,22.29&#10;296.05,22.76&#10;297.32,22.7&#10;298.59,22.46&#10;299.87,22.48&#10;301.14,22.76&#10;302.41,22.97&#10;303.69,22.98&#10;304.96,22.88&#10;306.23,22.82&#10;307.5,22.81&#10;308.78,22.87&#10;310.05,22.97&#10;311.32,23.06&#10;312.6,23.11&#10;313.87,23.13&#10;315.14,23.2&#10;316.41,23.33&#10;317.69,23.4&#10;318.96,23.38&#10;320.23,23.28&#10;321.5,23.15&#10;322.78,23.05&#10;324.05,23.05&#10;325.32,23.16&#10;326.6,23.38&#10;327.87,23.67&#10;329.14,23.97&#10;330.41,24.2&#10;331.69,24.32&#10;332.96,24.38&#10;334.23,24.4&#10;335.5,24.4&#10;336.78,24.41&#10;338.05,24.41&#10;339.32,24.41&#10;340.6,24.41&#10;341.87,24.41&#10;343.14,24.41&#10;344.41,24.41&#10;345.69,24.41&#10;346.96,24.41&#10;348.23,24.41&#10;349.51,24.41&#10;350.78,24.41&#10;352.05,24.41&#10;353.32,24.41&#10;354.6,24.41&#10;355.87,24.41&#10;357.14,24.41&#10;358.41,24.41&#10;359.69,24.41&#10;360.96,24.41&#10;362.23,24.41&#10;363.51,24.41&#10;364.78,24.41&#10;366.05,24.41&#10;367.32,24.41&#10;368.6,24.41&#10;369.87,24.41&#10;371.14,24.41&#10;372.41,24.41&#10;373.69,24.41&#10;374.96,24.41&#10;376.23,24.41&#10;377.51,24.41&#10;378.78,24.41&#10;380.05,24.41&#10;381.32,24.41&#10;382.6,24.41&#10;383.87,24.41&#10;385.14,24.41&#10;386.41,24.41&#10;387.69,24.41&#10;388.96,24.41&#10;390.23,24.41&#10;391.51,24.41&#10;392.78,24.42&#10;392.78,24.42"/><polyline class="range" points="225.16,25.64&#10;225.16,26.86&#10;247.56,26.86&#10;247.56,25.64"/><polyline class="range" points="254.18,25.64&#10;254.18,26.86&#10;263.85,26.86&#10;263.85,25.64"/><polyline class="range" points="266.9,25.64&#10;266.9,26.86&#10;293.89,26.86&#10;293.89,25.64"/><polyline class="range" points="204.16,28.08&#10;204.16,29.3&#10;211.28,29.3&#10;211.28,28.08"/><polyline class="range" points="218.41,28.08&#10;218.41,29.3&#10;326.6,29.3&#10;326.6,28.08"/></g><g id="itemarea5" transform="translate(0 56.44)"/><g id="itemarea6" transform="translate(0 76.66)"/><g id="itemarea7" transform="translate(0 96.87)"><polygon class="main" points="246.41,24.42&#10;246.41,24.42&#10;247.68,24.41&#10;248.96,24.41&#10;250.23,24.41&#10;251.5,24.41&#10;252.78,24.41&#10;254.05,24.41&#10;255.32,24.42&#10;256.59,24.42&#10;257.87,24.42&#10;259.14,24.42&#10;260.41,24.42&#10;261.69,24.42&#10;262.96,24.42&#10;264.23,24.41&#10;265.5,24.41&#10;266.78,24.41&#10;268.05,24.42&#10;269.32,24.42&#10;270.59,24.42&#10;271.87,24.42&#10;273.14,24.42&#10;274.41,24.42&#10;275.69,24.42&#10;276.96,24.42&#10;278.23,24.42&#10;279.5,24.42&#10;280.78,24.42&#10;282.05,24.42&#10;283.32,24.42&#10;284.59,24.42&#10;285.87,24.42&#10;287.14,24.42&#10;288.41,24.42&#10;289.69,24.42&#10;290.96,24.42&#10;292.23,24.42&#10;293.5,24.42&#10;294.78,24.41&#10;296.05,24.41&#10;297.32,24.41&#10;298.59,24.41&#10;299.87,24.41&#10;301.14,24.41&#10;302.41,24.41&#10;303.69,24.41&#10;304.96,24.41&#10;306.23,24.41&#10;307.5,24.41&#10;308.78,24.41&#10;310.05,24.41&#10;311.32,24.41&#10;312.6,24.41&#10;313.87,24.41&#10;315.14,24.41&#10;316.41,24.41&#10;317.69,24.41&#10;318.96,24.41&#10;320.23,24.41&#10;321.5,24.41&#10;322.78,24.41&#10;324.05,24.41&#10;325.32,24.41&#10;326.6,24.41&#10;327.87,24.41&#10;329.14,24.41&#10;330.41,24.4&#10;331.69,24.37&#10;332.96,24.28&#10;334.23,24.11&#10;335.5,23.91&#10;336.78,23.77&#10;338.05,23.65&#10;339.32,23.51&#10;340.6,23.27&#10;341.87,22.75&#10;343.14,21.83&#10;344.41,20.71&#10;345.69,19.74&#10;346.96,19.2&#10;348.23,19.12&#10;349.51,19.38&#10;350.78,19.99&#10;352.05,20.7&#10;353.32,21.31&#10;354.6,21.6&#10;355.87,21.7&#10;357.14,21.68&#10;358.41,21.77&#10;359.69,22.09&#10;360.96,22.57&#10;362.23,23.02&#10;363.51,23.25&#10;364.78,23.23&#10;366.05,23.03&#10;367.32,22.75&#10;368.6,22.62&#10;369.87,22.83&#10;371.14,23.26&#10;372.41,23.27&#10;373.69,22.55&#10;374.96,21.83&#10;376.23,21.86&#10;377.51,22.19&#10;378.78,22.15&#10;380.05,21.3&#10;381.32,19.94&#10;382.6,18.97&#10;383.87,18.72&#10;385.14,18.89&#10;386.41,19.1&#10;387.69,18.8&#10;388.96,18.39&#10;390.23,18.31&#10;391.51,18.39&#10;392.78,18.43&#10;394.05,18.56&#10;395.32,18.81&#10;396.6,18.82&#10;397.87,18.68&#10;399.14,18.56&#10;400.42,18.49&#10;401.69,18.55&#10;402.96,18.63&#10;404.23,18.69&#10;405.51,18.83&#10;406.78,19.09&#10;408.05,19.47&#10;409.32,20.02&#10;410.6,20.35&#10;411.87,20.21&#10;413.14,19.83&#10;414.42,19.4&#10;415.69,19.04&#10;416.96,18.98&#10;418.23,19.54&#10;419.51,20.63&#10;420.78,21.77&#10;422.05,22.71&#10;423.32,23.31&#10;424.6,23.53&#10;425.87,23.53&#10;427.14,23.58&#10;428.42,23.48&#10;429.69,22.93&#10;430.96,22.42&#10;432.23,22.69&#10;433.51,23.36&#10;434.78,23.67&#10;436.05,23.77&#10;437.32,23.9&#10;438.6,24.09&#10;439.87,24.21&#10;441.14,24.24&#10;442.42,24.22&#10;443.69,24.17&#10;444.96,24.11&#10;446.23,24.11&#10;447.51,24.21&#10;448.78,24.29&#10;450.05,24.32&#10;451.33,24.33&#10;452.6,24.36&#10;453.87,24.39&#10;455.14,24.4&#10;456.42,24.38&#10;457.69,24.35&#10;458.96,24.34&#10;460.23,24.36&#10;461.51,24.38&#10;462.78,24.4&#10;464.05,24.41&#10;465.33,24.41&#10;466.6,24.41&#10;467.87,24.41&#10;469.14,24.41&#10;470.42,24.41&#10;471.69,24.41&#10;472.96,24.41&#10;474.23,24.41&#10;475.51,24.41&#10;476.78,24.41&#10;478.05,24.41&#10;479.33,24.41&#10;480.6,24.41&#10;481.87,24.41&#10;483.14,24.41&#10;484.42,24.41&#10;485.69,24.41&#10;486.96,24.41&#10;488.23,24.41&#10;489.51,24.41&#10;490.78,24.41&#10;492.05,24.41&#10;493.33,24.42&#10;494.6,24.42&#10;495.87,24.42&#10;495.87,24.42"/><polyline class="range" points="344.8,25.64&#10;344.8,26.86&#10;351.67,26.86&#10;351.67,25.64"/><polyline class="range" points="380.81,25.64&#10;380.81,26.86&#10;419.25,26.86&#10;419.25,25.64"/><polyline class="range" points="340.21,28.08&#10;340.21,29.3&#10;423.58,29.3&#10;423.58,28.08"/><polyline class="range" points="428.67,28.08&#10;428.67,29.3&#10;433.51,29.3&#10;433.51,28.08"/></g></g></g><g id="textarea" transform="translate(14.15 14.15)"><g id="itemarea2" transform="translate(0 -4.2)"><text transform="translate(0 2.91)" style="font-size:7.272727272727273pt" x="7.22" y="24.42">primary occupation of roundhouse</text></g><g id="itemarea3" transform="translate(0 16.01)"><text transform="translate(0 2.91)" style="font-size:7.272727272727273pt" x="7.22" y="24.42">R_Date Q-1464</text></g><g id="itemarea4" transform="translate(0 36.23)"><text transform="translate(0 2.91)" style="font-size:7.272727272727273pt" x="7.22" y="24.42">R_Date Q-1465</text></g><g id="itemarea5" transform="translate(0 56.44)"><text transform="translate(0 2.91)" style="font-size:7.272727272727273pt" x="7.22" y="24.42"></text></g><g id="itemarea6" transform="translate(0 76.66)"><text transform="translate(0 2.91)" style="font-size:7.272727272727273pt" x="7.22" y="24.42">TAQ for secondary dividing wall E-K</text></g><g id="itemarea7" transform="translate(0 96.87)"><text transform="translate(0 2.91)" style="font-size:7.272727272727273pt" x="7.22" y="24.42">R_Date Q-1463</text></g></g><rect class="border" x="14.15" width="481.1" y="14.15" height="141.5"/><g><line class="gridline" x1="39.23" y1="155.65" x2="39.23" y2="14.15"/><line class="gridline" x1="90.14" y1="155.65" x2="90.14" y2="14.15"/><line class="gridline" x1="141.05" y1="155.65" x2="141.05" y2="14.15"/><line class="gridline" x1="191.96" y1="155.65" x2="191.96" y2="14.15"/><line class="gridline" x1="242.87" y1="155.65" x2="242.87" y2="14.15"/><line class="gridline" x1="293.78" y1="155.65" x2="293.78" y2="14.15"/><line class="gridline" x1="344.69" y1="155.65" x2="344.69" y2="14.15"/><line class="gridline" x1="395.6" y1="155.65" x2="395.6" y2="14.15"/><line class="gridline" x1="446.51" y1="155.65" x2="446.51" y2="14.15"/></g><g><line class="majorpip" x1="14.15" y1="155.65" x2="495.25" y2="155.65"/><line class="minorpip" x1="26.5" y1="155.65" x2="26.5" y2="152.82"/><line class="minorpip" x1="39.23" y1="155.65" x2="39.23" y2="152.82"/><line class="minorpip" x1="51.96" y1="155.65" x2="51.96" y2="152.82"/><line class="minorpip" x1="64.69" y1="155.65" x2="64.69" y2="152.82"/><line class="minorpip" x1="77.41" y1="155.65" x2="77.41" y2="152.82"/><line class="minorpip" x1="90.14" y1="155.65" x2="90.14" y2="152.82"/><line class="minorpip" x1="102.87" y1="155.65" x2="102.87" y2="152.82"/><line class="minorpip" x1="115.6" y1="155.65" x2="115.6" y2="152.82"/><line class="minorpip" x1="128.32" y1="155.65" x2="128.32" y2="152.82"/><line class="minorpip" x1="141.05" y1="155.65" x2="141.05" y2="152.82"/><line class="minorpip" x1="153.78" y1="155.65" x2="153.78" y2="152.82"/><line class="minorpip" x1="166.51" y1="155.65" x2="166.51" y2="152.82"/><line class="minorpip" x1="179.23" y1="155.65" x2="179.23" y2="152.82"/><line class="minorpip" x1="191.96" y1="155.65" x2="191.96" y2="152.82"/><line class="minorpip" x1="204.69" y1="155.65" x2="204.69" y2="152.82"/><line class="minorpip" x1="217.42" y1="155.65" x2="217.42" y2="152.82"/><line class="minorpip" x1="230.14" y1="155.65" x2="230.14" y2="152.82"/><line class="minorpip" x1="242.87" y1="155.65" x2="242.87" y2="152.82"/><line class="minorpip" x1="255.6" y1="155.65" x2="255.6" y2="152.82"/><line class="minorpip" x1="268.33" y1="155.65" x2="268.33" y2="152.82"/><line class="minorpip" x1="281.05" y1="155.65" x2="281.05" y2="152.82"/><line class="minorpip" x1="293.78" y1="155.65" x2="293.78" y2="152.82"/><line class="minorpip" x1="306.51" y1="155.65" x2="306.51" y2="152.82"/><line class="minorpip" x1="319.24" y1="155.65" x2="319.24" y2="152.82"/><line class="minorpip" x1="331.96" y1="155.65" x2="331.96" y2="152.82"/><line class="minorpip" x1="344.69" y1="155.65" x2="344.69" y2="152.82"/><line class="minorpip" x1="357.42" y1="155.65" x2="357.42" y2="152.82"/><line class="minorpip" x1="370.15" y1="155.65" x2="370.15" y2="152.82"/><line class="minorpip" x1="382.87" y1="155.65" x2="382.87" y2="152.82"/><line class="minorpip" x1="395.6" y1="155.65" x2="395.6" y2="152.82"/><line class="minorpip" x1="408.33" y1="155.65" x2="408.33" y2="152.82"/><line class="minorpip" x1="421.06" y1="155.65" x2="421.06" y2="152.82"/><line class="minorpip" x1="433.78" y1="155.65" x2="433.78" y2="152.82"/><line class="minorpip" x1="446.51" y1="155.65" x2="446.51" y2="152.82"/><line class="minorpip" x1="459.24" y1="155.65" x2="459.24" y2="152.82"/><line class="minorpip" x1="471.97" y1="155.65" x2="471.97" y2="152.82"/><line class="minorpip" x1="484.69" y1="155.65" x2="484.69" y2="152.82"/><line class="majorpip" x1="39.23" y1="155.65" x2="39.23" y2="149.99"/><text transform="translate(0 8.44)" style="font-size:7.272727272727273pt;text-anchor:middle" x="39.23" y="155.65">1600</text><line class="majorpip" x1="90.14" y1="155.65" x2="90.14" y2="149.99"/><text transform="translate(0 8.44)" style="font-size:7.272727272727273pt;text-anchor:middle" x="90.14" y="155.65">1400</text><line class="majorpip" x1="141.05" y1="155.65" x2="141.05" y2="149.99"/><text transform="translate(0 8.44)" style="font-size:7.272727272727273pt;text-anchor:middle" x="141.05" y="155.65">1200</text><line class="majorpip" x1="191.96" y1="155.65" x2="191.96" y2="149.99"/><text transform="translate(0 8.44)" style="font-size:7.272727272727273pt;text-anchor:middle" x="191.96" y="155.65">1000</text><line class="majorpip" x1="242.87" y1="155.65" x2="242.87" y2="149.99"/><text transform="translate(0 8.44)" style="font-size:7.272727272727273pt;text-anchor:middle" x="242.87" y="155.65">800</text><line class="majorpip" x1="293.78" y1="155.65" x2="293.78" y2="149.99"/><text transform="translate(0 8.44)" style="font-size:7.272727272727273pt;text-anchor:middle" x="293.78" y="155.65">600</text><line class="majorpip" x1="344.69" y1="155.65" x2="344.69" y2="149.99"/><text transform="translate(0 8.44)" style="font-size:7.272727272727273pt;text-anchor:middle" x="344.69" y="155.65">400</text><line class="majorpip" x1="395.6" y1="155.65" x2="395.6" y2="149.99"/><text transform="translate(0 8.44)" style="font-size:7.272727272727273pt;text-anchor:middle" x="395.6" y="155.65">200</text><line class="majorpip" x1="446.51" y1="155.65" x2="446.51" y2="149.99"/><text transform="translate(0 8.44)" style="font-size:7.272727272727273pt;text-anchor:middle" x="446.51" y="155.65">1calBC/1calAD</text><text transform="translate(0 2.91)" style="font-size:7.272727272727273pt;text-anchor:middle" x="254.7" y="183.95">Calibrated date (calBC/calAD)</text></g><g id="references" transform="translate(0 0)"><text transform="translate(0 -1.05)" style="font-size:4.363636363636363pt" x="14.15" y="14.15">OxCal v4.4.4 Bronk Ramsey (2021); r:5 Atmospheric data from Reimer et al (2020)</text></g></g></g>
</svg>