<?xml version="1.0" encoding="UTF-8"?><svg id="top" version="1.1" xmlns="http://www.w3.org/2000/svg" xmlns:xlink="http://www.w3.org/1999/xlink" xmlns:ev="http://www.w3.org/2001/xml-events" width="509.400pt" height="295.129pt" zoomAndPan="magnify" preserveAspectRatio="xMinYMin" onload="createPlot()" viewBox="0 0 509.400 295.129">
   <defs id="definitions">
   <filter id="Shadow" filterUnits="userSpaceOnUse">
    <feGaussianBlur in="SourceAlpha" stdDeviation="4" result="blur"/>
    <feOffset in="blur" dx="4" dy="4" result="offsetBlurredAlpha"/>
    <feMerge>
     <feMergeNode in="offsetBlurredAlpha"/>
     <feMergeNode in="SourceGraphic"/>
    </feMerge> 
   </filter>    
    <filter id="Correlation1" x="-20%" y="-20%" width="140%" height="140%" filterUnits="objectBoundingBox">
     <feGaussianBlur in="SourceGraphic" stdDeviation="7" result="blur"/>
     <feColorMatrix type="matrix" in="blur" values="0 0 0  5.00 -2.00&#10;               0 0 0 -2.50  2.50&#10;               0 0 0  0.00  0.00&#10;               0 0 0  2.50  0.00"/>
    </filter>    
    <filter id="Correlation2" x="-20%" y="-20%" width="140%" height="140%" filterUnits="objectBoundingBox">
     <feGaussianBlur in="SourceGraphic" stdDeviation="7" result="blur"/>
     <feGaussianBlur in="SourceAlpha" stdDeviation="7" result="opacity"/>
     <feColorMatrix type="matrix" in="blur" result="newcolor" values="0 0 0  5.00 -2.00&#10;               0 0 0 -2.50  2.50&#10;               0 0 0  0.00  0.00&#10;               0 0 0  2.50  0.00"/>
     <feSpecularLighting in="opacity" surfaceScale="5" specularConstant="1" specularExponent="20" lighting-color="white" result="specularOut">
      <feDistantLight azimuth="225" elevation="30"/>
     </feSpecularLighting>
     <feComposite in="newcolor" in2="specularOut" operator="arithmetic" k1="0" k2="1" k3="1" k4="0" result="litPaint"/>
    </filter>
    <pattern id="Sequence" patternUnits="userSpaceOnUse" x="0" y="0" width="5" height="5" viewBox="0 0 5 5">
    </pattern>    
    <pattern id="U_Sequence" patternUnits="userSpaceOnUse" x="0" y="0" width="5" height="5" viewBox="0 0 5 5">
     <line x1="-2.5" x2="5" y1="5" y2="-2.5" style="stroke-width:1.5;stroke:black"/>
     <line x1="0" x2="7.5" y1="7.5" y2="0" style="stroke-width:1.5;stroke:black"/>
    </pattern>    
    <pattern id="D_Sequence" patternUnits="userSpaceOnUse" x="0" y="0" width="5" height="5" viewBox="0 0 5 5">
     <line x1="-2.5" x2="7.5" y1="-2.5" y2="7.5" style="stroke-width:1;stroke:black"/>
     <line x1="-2.5" x2="7.5" y1="7.5" y2="-2.5" style="stroke-width:1;stroke:black"/>
    </pattern>    
    <pattern id="V_Sequence" patternUnits="userSpaceOnUse" x="0" y="0" width="5" height="5" viewBox="0 0 5 5">
     <ellipse cx="2.5" cy="2.5" rx="1.5" ry="0.7" style="fill:black"/>
    </pattern>    
    <pattern id="P_Sequence" patternUnits="userSpaceOnUse" x="0" y="0" width="5" height="5" viewBox="0 0 5 5">
     <circle cx="1.25" cy="3.75" r="1" style="fill:black"/>
     <circle cx="3.75" cy="1.25" r="1" style="fill:black"/>
    </pattern>
    <style type="text/css">
      rect.border { fill:none; stroke:black;stroke-width:1px }
      rect.fillblack { fill:black; stroke:black;stroke-width:1px }
      rect.structure { fill:none; stroke:none }
      rect.structtab { fill:none; stroke:none }
      rect.structclip { fill:white; stroke:none }
      rect.structborder { fill:none; stroke:black; stroke-width:0.5px }
      rect.range3 {fill:none;stroke:black;stroke-width:1px }
      rect.range2 {fill:none;stroke:black;stroke-width:1px }
      rect.range1 {fill:none;stroke:black;stroke-width:1px }
      rect.fillbackground { fill:#000099 }
      rect.fillmodel { fill:none;stroke:black;stroke-width:1px }
      rect.modeldist { fill:none;stroke:black;stroke-width:1px }
      rect.fill { }
      polygon.main { fill:black; stroke:black;stroke-width:0.2px }
      polygon.shadow { fill:none;stroke:black;stroke-width:0.2px }
      polygon.curve { fill:none;stroke:black;stroke-width:1px }
      polygon.normal { fill:none;stroke:black;stroke-width:1px }
      polygon.kdesigma { fill:lightgrey; stroke:grey;stroke-width:0px;fill-opacity:0.2 }
      polygon.modeldist { fill:url(#U_Sequence);stroke:black;stroke-width:1px }
      polyline.datacurve { fill:none; stroke:black;stroke-width:1px }
      polyline.range { fill:none; stroke:black; stroke-width:1px; stroke-linejoin:round }
      polyline.ensemble { fill:none; stroke:black; stroke-width:0.5px;stroke-opacity:0.2 }
      polyline.kdemean { fill:none; stroke:black; stroke-width:1px }
      path.model3 { fill:none;stroke:black;stroke-width:1px }
      path.model2 { fill:none;stroke:black;stroke-width:1px }
      path.model1 { fill:none;stroke:black;stroke-width:1px }
      g.curve { fill:none;stroke:black;stroke-width:1px }
      line.majorpip { stroke:black; stroke-width:1px }
      line.minorpip { stroke:black; stroke-width:0.5px }
      line.gridline { stroke:black; stroke-width:0.5px }
      line.majorpip2 { stroke:white; stroke-width:1px }
      line.minorpip2 { stroke:white; stroke-width:0.5px }
      line.gridline2 { stroke:white; stroke-width:0.5px }
      line.okline { stroke:black; stroke-width:1px }
      line.errorline { stroke:black; stroke-width:1px }
      line.range { stroke:black; stroke-width:1px }
      line.modelline { stroke:black; stroke-width:1px }
      line.constrshadow { stroke:none; stroke-width:2px }
      line.constrok { stroke:black; stroke-width:1px }
      line.constrerror { stroke:black; stroke-width:1px }
      line.curve { stroke:black;stroke-width:1px }
      text { fill:black; stroke:none; font-size:10pt; font-family:"Arial","Helvetica"; font-style:normal }
    </style>
   <clipPath id="clip1"><rect x="0" width="481.1" y="0" height="238.53"/></clipPath><clipPath id="clip2"><rect x="0" width="481.1" y="0" height="238.53"/></clipPath></defs>
    <g id="mainframe"><rect x="-50.94" width="611.28" y="-29.51" height="354.15" style="fill:white" stroke="none"/><g id="mainviewport" transform="translate(0 0)"><rect class="border" x="14.15" width="481.1" y="14.15" height="238.53"/><g id="tabarea" transform="translate(14.15 14.15)"/><g id="plotarea" transform="translate(14.15 14.15)"><g id="structarea" transform="translate(0 0)"><g clip-path="url(#clip1)"/></g><g clip-path="url(#clip2)"><g id="itemarea2" transform="translate(0 -6.22)"/><g id="itemarea3" transform="translate(0 13.99)"><polygon class="main" points="103.09,24.42&#10;103.09,24.42&#10;104.89,24.42&#10;106.69,24.41&#10;108.49,24.41&#10;110.29,24.41&#10;112.09,24.41&#10;113.89,24.41&#10;115.69,24.41&#10;117.49,24.41&#10;119.29,24.42&#10;121.08,24.41&#10;122.88,24.41&#10;124.68,24.41&#10;126.48,24.41&#10;128.28,24.41&#10;130.08,24.41&#10;131.88,24.41&#10;133.68,24.41&#10;135.48,24.41&#10;137.28,24.41&#10;139.08,24.41&#10;140.88,24.41&#10;142.67,24.41&#10;144.47,24.41&#10;146.27,24.41&#10;148.07,24.41&#10;149.87,24.41&#10;151.67,24.41&#10;153.47,24.41&#10;155.27,24.41&#10;157.07,24.41&#10;158.87,24.41&#10;160.67,24.41&#10;162.47,24.41&#10;164.26,24.41&#10;166.06,24.41&#10;167.86,24.39&#10;169.66,24.39&#10;171.46,24.39&#10;173.26,24.4&#10;175.06,24.4&#10;176.86,24.39&#10;178.66,24.39&#10;180.46,24.39&#10;182.26,24.39&#10;184.06,24.38&#10;185.86,24.38&#10;187.65,24.39&#10;189.45,24.39&#10;191.25,24.39&#10;193.05,24.39&#10;194.85,24.38&#10;196.65,24.35&#10;198.45,24.31&#10;200.25,24.27&#10;202.05,24.26&#10;203.85,24.24&#10;205.65,24.15&#10;207.45,23.96&#10;209.24,23.69&#10;211.04,23.36&#10;212.84,22.84&#10;214.64,21.87&#10;216.44,20.8&#10;218.24,20.55&#10;220.04,21.27&#10;221.84,22.22&#10;223.64,22.82&#10;225.44,23.15&#10;227.24,23.37&#10;229.04,23.58&#10;230.83,23.54&#10;232.63,23.37&#10;234.43,23.3&#10;236.23,23.14&#10;238.03,22.86&#10;239.83,22.28&#10;241.63,22.07&#10;243.43,21.64&#10;245.23,21.4&#10;247.03,20.86&#10;248.83,20.68&#10;250.63,20.75&#10;252.42,20.37&#10;254.22,20.37&#10;256.02,20.38&#10;257.82,20.04&#10;259.62,19.75&#10;261.42,19.83&#10;263.22,19.77&#10;265.02,19.9&#10;266.82,19.26&#10;268.62,18.72&#10;270.42,18.34&#10;272.22,18.31&#10;274.01,18.53&#10;275.81,18.8&#10;277.61,19.32&#10;279.41,19.93&#10;281.21,20.28&#10;283.01,19.97&#10;284.81,19.91&#10;286.61,19.85&#10;288.41,19.33&#10;290.21,19.04&#10;292.01,19.41&#10;293.81,20.2&#10;295.6,20.47&#10;297.4,20.38&#10;299.2,19.98&#10;301,19.4&#10;302.8,19.28&#10;304.6,19.48&#10;306.4,19.46&#10;308.2,19.12&#10;310,19.09&#10;311.8,19.39&#10;313.6,20.03&#10;315.4,20.88&#10;317.19,21.68&#10;318.99,22.28&#10;320.79,22.53&#10;322.59,22.69&#10;324.39,23&#10;326.19,23.3&#10;327.99,23.52&#10;329.79,23.64&#10;331.59,23.71&#10;333.39,23.78&#10;335.19,23.9&#10;336.99,24.07&#10;338.79,24.25&#10;340.58,24.32&#10;342.38,24.33&#10;344.18,24.31&#10;345.98,24.27&#10;347.78,24.24&#10;349.58,24.26&#10;351.38,24.33&#10;353.18,24.38&#10;354.98,24.4&#10;356.78,24.41&#10;358.58,24.41&#10;360.38,24.41&#10;362.17,24.41&#10;363.97,24.41&#10;365.77,24.41&#10;367.57,24.41&#10;369.37,24.41&#10;371.17,24.41&#10;372.97,24.41&#10;374.77,24.41&#10;376.57,24.42&#10;378.37,24.42&#10;380.17,24.42&#10;381.97,24.42&#10;383.76,24.42&#10;385.56,24.42&#10;387.36,24.41&#10;389.16,24.41&#10;390.96,24.41&#10;392.76,24.41&#10;394.56,24.41&#10;396.36,24.41&#10;398.16,24.41&#10;399.96,24.42&#10;401.76,24.42&#10;403.56,24.42&#10;403.56,24.42"/><polyline class="range" points="252.06,25.64&#10;252.06,26.86&#10;314.5,26.86&#10;314.5,25.64"/><polyline class="range" points="211.04,28.08&#10;211.04,29.3&#10;227.24,29.3&#10;227.24,28.08"/><polyline class="range" points="232.81,28.08&#10;232.81,29.3&#10;326.73,29.3&#10;326.73,28.08"/></g><g id="itemarea4" transform="translate(0 34.21)"/><g id="itemarea5" transform="translate(0 54.42)"><polygon class="main" points="207.45,24.42&#10;207.45,24.42&#10;209.24,24.42&#10;211.04,24.41&#10;212.84,24.41&#10;214.64,24.41&#10;216.44,24.41&#10;218.24,24.41&#10;220.04,24.41&#10;221.84,24.41&#10;223.64,24.41&#10;225.44,24.41&#10;227.24,24.41&#10;229.04,24.42&#10;230.83,24.42&#10;232.63,24.41&#10;234.43,24.41&#10;236.23,24.41&#10;238.03,24.41&#10;239.83,24.41&#10;241.63,24.41&#10;243.43,24.41&#10;245.23,24.41&#10;247.03,24.41&#10;248.83,24.41&#10;250.63,24.41&#10;252.42,24.41&#10;254.22,24.41&#10;256.02,24.41&#10;257.82,24.4&#10;259.62,24.4&#10;261.42,24.4&#10;263.22,24.4&#10;265.02,24.4&#10;266.82,24.37&#10;268.62,24.31&#10;270.42,24.12&#10;272.22,23.47&#10;274.01,22.88&#10;275.81,22.28&#10;277.61,21.24&#10;279.41,20.13&#10;281.21,19.56&#10;283.01,20.06&#10;284.81,20.17&#10;286.61,20.27&#10;288.41,21.22&#10;290.21,21.79&#10;292.01,21.08&#10;293.81,19.69&#10;295.6,19.29&#10;297.4,19.44&#10;299.2,20.06&#10;301,21.09&#10;302.8,21.33&#10;304.6,20.94&#10;306.4,21&#10;308.2,21.64&#10;310,21.69&#10;311.8,21.12&#10;313.6,19.99&#10;315.4,18.81&#10;317.19,18.31&#10;318.99,18.45&#10;320.79,18.69&#10;322.59,18.91&#10;324.39,19.47&#10;326.19,20.25&#10;327.99,20.94&#10;329.79,21.37&#10;331.59,21.63&#10;333.39,21.91&#10;335.19,22.41&#10;336.99,23.17&#10;338.79,23.92&#10;340.58,24.2&#10;342.38,24.23&#10;344.18,24.16&#10;345.98,24.02&#10;347.78,23.88&#10;349.58,23.98&#10;351.38,24.22&#10;353.18,24.36&#10;354.98,24.4&#10;356.78,24.41&#10;358.58,24.41&#10;360.38,24.41&#10;362.17,24.41&#10;363.97,24.42&#10;365.77,24.42&#10;365.77,24.42"/><polyline class="range" points="277.79,25.64&#10;277.79,26.86&#10;288.23,26.86&#10;288.23,25.64"/><polyline class="range" points="292.01,25.64&#10;292.01,26.86&#10;301,26.86&#10;301,25.64"/><polyline class="range" points="303.88,25.64&#10;303.88,26.86&#10;306.58,26.86&#10;306.58,25.64"/><polyline class="range" points="311.8,25.64&#10;311.8,26.86&#10;328.53,26.86&#10;328.53,25.64"/><polyline class="range" points="274.01,28.08&#10;274.01,29.3&#10;336.27,29.3&#10;336.27,28.08"/></g><g id="itemarea8" transform="translate(0 74.63)"/><g id="itemarea9" transform="translate(0 94.85)"><polygon class="main" points="266.82,24.42&#10;266.82,24.42&#10;268.62,24.42&#10;270.42,24.41&#10;272.22,24.41&#10;274.01,24.41&#10;275.81,24.41&#10;277.61,24.41&#10;279.41,24.41&#10;281.21,24.4&#10;283.01,24.41&#10;284.81,24.41&#10;286.61,24.41&#10;288.41,24.41&#10;290.21,24.41&#10;292.01,24.41&#10;293.81,24.4&#10;295.6,24.4&#10;297.4,24.4&#10;299.2,24.41&#10;301,24.41&#10;302.8,24.41&#10;304.6,24.41&#10;306.4,24.41&#10;308.2,24.41&#10;310,24.41&#10;311.8,24.41&#10;313.6,24.41&#10;315.4,24.38&#10;317.19,24.31&#10;318.99,24.17&#10;320.79,24.07&#10;322.59,23.98&#10;324.39,23.75&#10;326.19,23.37&#10;327.99,22.95&#10;329.79,22.64&#10;331.59,22.42&#10;333.39,22.17&#10;335.19,21.63&#10;336.99,20.54&#10;338.79,19.01&#10;340.58,18.37&#10;342.38,18.33&#10;344.18,18.45&#10;345.98,18.77&#10;347.78,19.11&#10;349.58,18.88&#10;351.38,18.31&#10;353.18,18.59&#10;354.98,20.05&#10;356.78,21.94&#10;358.58,23.29&#10;360.38,23.96&#10;362.17,24.24&#10;363.97,24.34&#10;365.77,24.38&#10;367.57,24.4&#10;369.37,24.41&#10;371.17,24.41&#10;372.97,24.4&#10;374.77,24.41&#10;376.57,24.41&#10;378.37,24.41&#10;380.17,24.41&#10;381.97,24.41&#10;383.76,24.41&#10;385.56,24.41&#10;387.36,24.41&#10;389.16,24.39&#10;390.96,24.37&#10;392.76,24.34&#10;394.56,24.4&#10;396.36,24.4&#10;398.16,24.38&#10;399.96,24.41&#10;401.76,24.42&#10;403.56,24.42&#10;405.35,24.41&#10;407.15,24.41&#10;408.95,24.41&#10;410.75,24.41&#10;412.55,24.41&#10;414.35,24.41&#10;416.15,24.41&#10;417.95,24.41&#10;419.75,24.42&#10;421.55,24.42&#10;421.55,24.42"/><polyline class="range" points="337.53,25.64&#10;337.53,26.86&#10;354.98,26.86&#10;354.98,25.64"/><polyline class="range" points="326.01,28.08&#10;326.01,29.3&#10;358.94,29.3&#10;358.94,28.08"/></g><g id="itemarea10" transform="translate(0 115.06)"/><g id="itemarea11" transform="translate(0 135.28)"/><g id="itemarea12" transform="translate(0 155.49)"><polygon class="main" points="191.25,24.42&#10;191.25,24.42&#10;193.05,24.42&#10;194.85,24.41&#10;196.65,24.41&#10;198.45,24.41&#10;200.25,24.41&#10;202.05,24.41&#10;203.85,24.41&#10;205.65,24.41&#10;207.45,24.41&#10;209.24,24.41&#10;211.04,24.41&#10;212.84,24.41&#10;214.64,24.39&#10;216.44,24.35&#10;218.24,24.33&#10;220.04,24.37&#10;221.84,24.4&#10;223.64,24.41&#10;225.44,24.41&#10;227.24,24.41&#10;229.04,24.41&#10;230.83,24.41&#10;232.63,24.41&#10;234.43,24.41&#10;236.23,24.41&#10;238.03,24.41&#10;239.83,24.4&#10;241.63,24.4&#10;243.43,24.38&#10;245.23,24.38&#10;247.03,24.35&#10;248.83,24.34&#10;250.63,24.35&#10;252.42,24.32&#10;254.22,24.32&#10;256.02,24.32&#10;257.82,24.29&#10;259.62,24.25&#10;261.42,24.26&#10;263.22,24.26&#10;265.02,24.27&#10;266.82,24.17&#10;268.62,23.99&#10;270.42,23.7&#10;272.22,23.01&#10;274.01,22.54&#10;275.81,22.12&#10;277.61,21.43&#10;279.41,20.71&#10;281.21,20.32&#10;283.01,20.67&#10;284.81,20.74&#10;286.61,20.81&#10;288.41,21.42&#10;290.21,21.79&#10;292.01,21.33&#10;293.81,20.41&#10;295.6,20.12&#10;297.4,20.22&#10;299.2,20.66&#10;301,21.34&#10;302.8,21.49&#10;304.6,21.24&#10;306.4,21.28&#10;308.2,21.7&#10;310,21.73&#10;311.8,21.36&#10;313.6,20.61&#10;315.4,19.7&#10;317.19,18.98&#10;318.99,18.55&#10;320.79,18.42&#10;322.59,18.36&#10;324.39,18.31&#10;326.19,18.38&#10;327.99,18.54&#10;329.79,18.68&#10;331.59,18.78&#10;333.39,18.91&#10;335.19,19.2&#10;336.99,19.85&#10;338.79,20.94&#10;340.58,21.77&#10;342.38,21.9&#10;344.18,21.6&#10;345.98,21.18&#10;347.78,20.86&#10;349.58,21.04&#10;351.38,21.81&#10;353.18,22.71&#10;354.98,23.47&#10;356.78,23.96&#10;358.58,24.21&#10;360.38,24.32&#10;362.17,24.37&#10;363.97,24.39&#10;365.77,24.4&#10;367.57,24.41&#10;369.37,24.41&#10;371.17,24.41&#10;372.97,24.41&#10;374.77,24.41&#10;376.57,24.41&#10;378.37,24.41&#10;380.17,24.41&#10;381.97,24.41&#10;383.76,24.41&#10;385.56,24.41&#10;387.36,24.41&#10;389.16,24.41&#10;390.96,24.4&#10;392.76,24.39&#10;394.56,24.41&#10;396.36,24.41&#10;398.16,24.4&#10;399.96,24.41&#10;401.76,24.42&#10;403.56,24.41&#10;405.35,24.41&#10;407.15,24.41&#10;408.95,24.41&#10;410.75,24.41&#10;412.55,24.41&#10;414.35,24.41&#10;416.15,24.41&#10;417.95,24.41&#10;419.75,24.41&#10;421.55,24.41&#10;423.35,24.41&#10;425.15,24.41&#10;426.94,24.41&#10;428.74,24.41&#10;430.54,24.41&#10;432.34,24.41&#10;434.14,24.41&#10;435.94,24.41&#10;437.74,24.41&#10;439.54,24.42&#10;441.34,24.42&#10;441.34,24.42"/><polyline class="range" points="278.15,25.64&#10;278.15,26.86&#10;287.69,26.86&#10;287.69,25.64"/><polyline class="range" points="292.37,25.64&#10;292.37,26.86&#10;300.64,26.86&#10;300.64,25.64"/><polyline class="range" points="312.16,25.64&#10;312.16,26.86&#10;339.32,26.86&#10;339.32,25.64"/><polyline class="range" points="345.98,25.64&#10;345.98,26.86&#10;349.94,26.86&#10;349.94,25.64"/><polyline class="range" points="273.65,28.08&#10;273.65,29.3&#10;353,29.3&#10;353,28.08"/></g><g id="itemarea15" transform="translate(0 175.71)"/><g id="itemarea16" transform="translate(0 195.92)"><polygon class="main" points="261.42,24.42&#10;261.42,24.42&#10;263.22,24.42&#10;265.02,24.42&#10;266.82,24.41&#10;268.62,24.41&#10;270.42,24.41&#10;272.22,24.41&#10;274.01,24.41&#10;275.81,24.41&#10;277.61,24.41&#10;279.41,24.39&#10;281.21,24.38&#10;283.01,24.39&#10;284.81,24.39&#10;286.61,24.4&#10;288.41,24.41&#10;290.21,24.41&#10;292.01,24.4&#10;293.81,24.38&#10;295.6,24.37&#10;297.4,24.38&#10;299.2,24.39&#10;301,24.4&#10;302.8,24.41&#10;304.6,24.4&#10;306.4,24.4&#10;308.2,24.41&#10;310,24.41&#10;311.8,24.4&#10;313.6,24.39&#10;315.4,24.35&#10;317.19,24.25&#10;318.99,24.1&#10;320.79,24.01&#10;322.59,23.93&#10;324.39,23.73&#10;326.19,23.43&#10;327.99,23.11&#10;329.79,22.87&#10;331.59,22.71&#10;333.39,22.52&#10;335.19,22.12&#10;336.99,21.27&#10;338.79,19.91&#10;340.58,19&#10;342.38,18.88&#10;344.18,19.17&#10;345.98,19.63&#10;347.78,20.01&#10;349.58,19.79&#10;351.38,18.94&#10;353.18,18.31&#10;354.98,18.49&#10;356.78,19.62&#10;358.58,21.08&#10;360.38,22.34&#10;362.17,23.16&#10;363.97,23.62&#10;365.77,23.89&#10;367.57,24.08&#10;369.37,24.19&#10;371.17,24.21&#10;372.97,24.15&#10;374.77,24.28&#10;376.57,24.36&#10;378.37,24.36&#10;380.17,24.36&#10;381.97,24.33&#10;383.76,24.32&#10;385.56,24.32&#10;387.36,24.24&#10;389.16,23.98&#10;390.96,23.8&#10;392.76,23.6&#10;394.56,24.02&#10;396.36,24.07&#10;398.16,23.89&#10;399.96,24.38&#10;401.76,24.41&#10;403.56,24.41&#10;405.35,24.41&#10;407.15,24.41&#10;408.95,24.41&#10;410.75,24.41&#10;412.55,24.41&#10;414.35,24.41&#10;416.15,24.41&#10;417.95,24.41&#10;419.75,24.41&#10;421.55,24.41&#10;423.35,24.41&#10;425.15,24.41&#10;426.94,24.41&#10;428.74,24.41&#10;430.54,24.41&#10;432.34,24.41&#10;434.14,24.41&#10;435.94,24.41&#10;437.74,24.41&#10;439.54,24.41&#10;441.34,24.41&#10;443.14,24.42&#10;444.94,24.42&#10;446.74,24.42&#10;446.74,24.42"/><polyline class="range" points="337.17,25.64&#10;337.17,26.86&#10;358.58,26.86&#10;358.58,25.64"/><polyline class="range" points="320.79,28.08&#10;320.79,29.3&#10;366.85,29.3&#10;366.85,28.08"/><polyline class="range" points="388.98,28.08&#10;388.98,29.3&#10;394.56,29.3&#10;394.56,28.08"/><polyline class="range" points="396.9,28.08&#10;396.9,29.3&#10;398.52,29.3&#10;398.52,28.08"/></g></g></g><g id="textarea" transform="translate(14.15 14.15)"><g id="itemarea2" transform="translate(0 -6.22)"><text transform="translate(0 2.91)" style="font-size:7.27pt" x="7.22" y="24.42">Brough Road Cairn 1</text></g><g id="itemarea3" transform="translate(0 13.99)"><text transform="translate(0 2.91)" style="font-size:7.27pt" x="7.22" y="24.42">R_Date GU-1550: skeleton 1</text></g><g id="itemarea4" transform="translate(0 34.21)"><text transform="translate(0 2.91)" style="font-size:7.27pt" x="7.22" y="24.42">skeleton 2</text></g><g id="itemarea5" transform="translate(0 54.42)"><text transform="translate(0 2.91)" style="font-size:7.27pt" x="7.22" y="24.42">R_Combine GU-1551 + TO-7047</text></g><g id="itemarea8" transform="translate(0 74.63)"><text transform="translate(0 2.91)" style="font-size:7.27pt" x="7.22" y="24.42"></text></g><g id="itemarea9" transform="translate(0 94.85)"><text transform="translate(0 2.91)" style="font-size:7.27pt" x="7.22" y="24.42">R_Date TO-6696: Brough Road Cairn 2</text></g><g id="itemarea10" transform="translate(0 115.06)"><text transform="translate(0 2.91)" style="font-size:7.27pt" x="7.22" y="24.42"></text></g><g id="itemarea11" transform="translate(0 135.28)"><text transform="translate(0 2.91)" style="font-size:7.27pt" x="7.22" y="24.42">Hermisgarth Cist 003</text></g><g id="itemarea12" transform="translate(0 155.49)"><text transform="translate(0 2.91)" style="font-size:7.27pt" x="7.22" y="24.42">R_Combine GU-4232 + GU-4233</text></g><g id="itemarea15" transform="translate(0 175.71)"><text transform="translate(0 2.91)" style="font-size:7.27pt" x="7.22" y="24.42"></text></g><g id="itemarea16" transform="translate(0 195.92)"><text transform="translate(0 2.91)" style="font-size:7.27pt" x="7.22" y="24.42">R_Date GU-7245: Bay of Skaill</text></g></g><rect class="border" x="14.15" width="481.1" y="14.15" height="238.53"/><g><line class="gridline" x1="63.45" y1="252.68" x2="63.45" y2="14.15"/><line class="gridline" x1="135.41" y1="252.68" x2="135.41" y2="14.15"/><line class="gridline" x1="207.38" y1="252.68" x2="207.38" y2="14.15"/><line class="gridline" x1="279.35" y1="252.68" x2="279.35" y2="14.15"/><line class="gridline" x1="351.32" y1="252.68" x2="351.32" y2="14.15"/><line class="gridline" x1="423.28" y1="252.68" x2="423.28" y2="14.15"/><line class="gridline" x1="495.25" y1="252.68" x2="495.25" y2="14.15"/></g><g><line class="majorpip" x1="14.15" y1="252.68" x2="495.25" y2="252.68"/><line class="minorpip" x1="27.46" y1="252.68" x2="27.46" y2="249.85"/><line class="minorpip" x1="45.46" y1="252.68" x2="45.46" y2="249.85"/><line class="minorpip" x1="63.45" y1="252.68" x2="63.45" y2="249.85"/><line class="minorpip" x1="81.44" y1="252.68" x2="81.44" y2="249.85"/><line class="minorpip" x1="99.43" y1="252.68" x2="99.43" y2="249.85"/><line class="minorpip" x1="117.42" y1="252.68" x2="117.42" y2="249.85"/><line class="minorpip" x1="135.41" y1="252.68" x2="135.41" y2="249.85"/><line class="minorpip" x1="153.41" y1="252.68" x2="153.41" y2="249.85"/><line class="minorpip" x1="171.4" y1="252.68" x2="171.4" y2="249.85"/><line class="minorpip" x1="189.39" y1="252.68" x2="189.39" y2="249.85"/><line class="minorpip" x1="207.38" y1="252.68" x2="207.38" y2="249.85"/><line class="minorpip" x1="225.37" y1="252.68" x2="225.37" y2="249.85"/><line class="minorpip" x1="243.37" y1="252.68" x2="243.37" y2="249.85"/><line class="minorpip" x1="261.36" y1="252.68" x2="261.36" y2="249.85"/><line class="minorpip" x1="279.35" y1="252.68" x2="279.35" y2="249.85"/><line class="minorpip" x1="297.34" y1="252.68" x2="297.34" y2="249.85"/><line class="minorpip" x1="315.33" y1="252.68" x2="315.33" y2="249.85"/><line class="minorpip" x1="333.32" y1="252.68" x2="333.32" y2="249.85"/><line class="minorpip" x1="351.32" y1="252.68" x2="351.32" y2="249.85"/><line class="minorpip" x1="369.31" y1="252.68" x2="369.31" y2="249.85"/><line class="minorpip" x1="387.3" y1="252.68" x2="387.3" y2="249.85"/><line class="minorpip" x1="405.29" y1="252.68" x2="405.29" y2="249.85"/><line class="minorpip" x1="423.28" y1="252.68" x2="423.28" y2="249.85"/><line class="minorpip" x1="441.27" y1="252.68" x2="441.27" y2="249.85"/><line class="minorpip" x1="459.27" y1="252.68" x2="459.27" y2="249.85"/><line class="minorpip" x1="477.26" y1="252.68" x2="477.26" y2="249.85"/><line class="minorpip" x1="495.25" y1="252.68" x2="495.25" y2="249.85"/><line class="majorpip" x1="63.45" y1="252.68" x2="63.45" y2="247.02"/><text transform="translate(0 8.44)" style="font-size:7.27pt;text-anchor:middle" x="63.45" y="252.68">200</text><line class="majorpip" x1="135.41" y1="252.68" x2="135.41" y2="247.02"/><text transform="translate(0 8.44)" style="font-size:7.27pt;text-anchor:middle" x="135.41" y="252.68">1calBC/1calAD</text><line class="majorpip" x1="207.38" y1="252.68" x2="207.38" y2="247.02"/><text transform="translate(0 8.44)" style="font-size:7.27pt;text-anchor:middle" x="207.38" y="252.68">201</text><line class="majorpip" x1="279.35" y1="252.68" x2="279.35" y2="247.02"/><text transform="translate(0 8.44)" style="font-size:7.27pt;text-anchor:middle" x="279.35" y="252.68">401</text><line class="majorpip" x1="351.32" y1="252.68" x2="351.32" y2="247.02"/><text transform="translate(0 8.44)" style="font-size:7.27pt;text-anchor:middle" x="351.32" y="252.68">601</text><line class="majorpip" x1="423.28" y1="252.68" x2="423.28" y2="247.02"/><text transform="translate(0 8.44)" style="font-size:7.27pt;text-anchor:middle" x="423.28" y="252.68">801</text><line class="majorpip" x1="495.25" y1="252.68" x2="495.25" y2="247.02"/><text transform="translate(0 8.44)" style="font-size:7.27pt;text-anchor:middle" x="495.25" y="252.68">1001</text><text transform="translate(0 2.91)" style="font-size:7.27pt;text-anchor:middle" x="254.7" y="280.98">Calibrated date (calBC/calAD)</text></g><g id="references" transform="translate(0 0)"><text transform="translate(0 -1.05)" style="font-size:4.36pt" x="14.15" y="14.15">OxCal v4.4.4 Bronk Ramsey (2021); r:5 Atmospheric data from Reimer et al (2020)</text></g></g></g>
</svg>