<?xml version="1.0" encoding="UTF-8"?><svg id="top" version="1.1" xmlns="http://www.w3.org/2000/svg" xmlns:xlink="http://www.w3.org/1999/xlink" xmlns:ev="http://www.w3.org/2001/xml-events" width="509.400pt" height="561.957pt" zoomAndPan="magnify" preserveAspectRatio="xMinYMin" onload="createPlot()" viewBox="0 0 509.400 561.957">
   <defs id="definitions">
   <filter id="Shadow" filterUnits="userSpaceOnUse">
    <feGaussianBlur in="SourceAlpha" stdDeviation="4" result="blur"/>
    <feOffset in="blur" dx="4" dy="4" result="offsetBlurredAlpha"/>
    <feMerge>
     <feMergeNode in="offsetBlurredAlpha"/>
     <feMergeNode in="SourceGraphic"/>
    </feMerge> 
   </filter>    
    <filter id="Correlation1" x="-20%" y="-20%" width="140%" height="140%" filterUnits="objectBoundingBox">
     <feGaussianBlur in="SourceGraphic" stdDeviation="7" result="blur"/>
     <feColorMatrix type="matrix" in="blur" values="0 0 0  5.00 -2.00&#10;               0 0 0 -2.50  2.50&#10;               0 0 0  0.00  0.00&#10;               0 0 0  2.50  0.00"/>
    </filter>    
    <filter id="Correlation2" x="-20%" y="-20%" width="140%" height="140%" filterUnits="objectBoundingBox">
     <feGaussianBlur in="SourceGraphic" stdDeviation="7" result="blur"/>
     <feGaussianBlur in="SourceAlpha" stdDeviation="7" result="opacity"/>
     <feColorMatrix type="matrix" in="blur" result="newcolor" values="0 0 0  5.00 -2.00&#10;               0 0 0 -2.50  2.50&#10;               0 0 0  0.00  0.00&#10;               0 0 0  2.50  0.00"/>
     <feSpecularLighting in="opacity" surfaceScale="5" specularConstant="1" specularExponent="20" lighting-color="white" result="specularOut">
      <feDistantLight azimuth="225" elevation="30"/>
     </feSpecularLighting>
     <feComposite in="newcolor" in2="specularOut" operator="arithmetic" k1="0" k2="1" k3="1" k4="0" result="litPaint"/>
    </filter>
    <pattern id="Sequence" patternUnits="userSpaceOnUse" x="0" y="0" width="5" height="5" viewBox="0 0 5 5">
    </pattern>    
    <pattern id="U_Sequence" patternUnits="userSpaceOnUse" x="0" y="0" width="5" height="5" viewBox="0 0 5 5">
     <line x1="-2.5" x2="5" y1="5" y2="-2.5" style="stroke-width:1.5;stroke:black"/>
     <line x1="0" x2="7.5" y1="7.5" y2="0" style="stroke-width:1.5;stroke:black"/>
    </pattern>    
    <pattern id="D_Sequence" patternUnits="userSpaceOnUse" x="0" y="0" width="5" height="5" viewBox="0 0 5 5">
     <line x1="-2.5" x2="7.5" y1="-2.5" y2="7.5" style="stroke-width:1;stroke:black"/>
     <line x1="-2.5" x2="7.5" y1="7.5" y2="-2.5" style="stroke-width:1;stroke:black"/>
    </pattern>    
    <pattern id="V_Sequence" patternUnits="userSpaceOnUse" x="0" y="0" width="5" height="5" viewBox="0 0 5 5">
     <ellipse cx="2.5" cy="2.5" rx="1.5" ry="0.7" style="fill:black"/>
    </pattern>    
    <pattern id="P_Sequence" patternUnits="userSpaceOnUse" x="0" y="0" width="5" height="5" viewBox="0 0 5 5">
     <circle cx="1.25" cy="3.75" r="1" style="fill:black"/>
     <circle cx="3.75" cy="1.25" r="1" style="fill:black"/>
    </pattern>
    <style type="text/css">
      rect.border { fill:none; stroke:black;stroke-width:1px }
      rect.fillblack { fill:black; stroke:black;stroke-width:1px }
      rect.structure { fill:none; stroke:none }
      rect.structtab { fill:none; stroke:none }
      rect.structclip { fill:white; stroke:none }
      rect.structborder { fill:none; stroke:black; stroke-width:0.5px }
      rect.range3 {fill:none;stroke:black;stroke-width:1px }
      rect.range2 {fill:none;stroke:black;stroke-width:1px }
      rect.range1 {fill:none;stroke:black;stroke-width:1px }
      rect.fillbackground { fill:#000099 }
      rect.fillmodel { fill:none;stroke:black;stroke-width:1px }
      rect.modeldist { fill:none;stroke:black;stroke-width:1px }
      rect.fill { }
      polygon.main { fill:black; stroke:black;stroke-width:0.2px }
      polygon.shadow { fill:none;stroke:black;stroke-width:0.2px }
      polygon.curve { fill:none;stroke:black;stroke-width:1px }
      polygon.normal { fill:none;stroke:black;stroke-width:1px }
      polygon.kdesigma { fill:lightgrey; stroke:grey;stroke-width:0px;fill-opacity:0.2 }
      polygon.modeldist { fill:url(#U_Sequence);stroke:black;stroke-width:1px }
      polyline.datacurve { fill:none; stroke:black;stroke-width:1px }
      polyline.range { fill:none; stroke:black; stroke-width:1px; stroke-linejoin:round }
      polyline.ensemble { fill:none; stroke:black; stroke-width:0.5px;stroke-opacity:0.2 }
      polyline.kdemean { fill:none; stroke:black; stroke-width:1px }
      path.model3 { fill:none;stroke:black;stroke-width:1px }
      path.model2 { fill:none;stroke:black;stroke-width:1px }
      path.model1 { fill:none;stroke:black;stroke-width:1px }
      g.curve { fill:none;stroke:black;stroke-width:1px }
      line.majorpip { stroke:black; stroke-width:1px }
      line.minorpip { stroke:black; stroke-width:0.5px }
      line.gridline { stroke:black; stroke-width:0.5px }
      line.majorpip2 { stroke:white; stroke-width:1px }
      line.minorpip2 { stroke:white; stroke-width:0.5px }
      line.gridline2 { stroke:white; stroke-width:0.5px }
      line.okline { stroke:black; stroke-width:1px }
      line.errorline { stroke:black; stroke-width:1px }
      line.range { stroke:black; stroke-width:1px }
      line.modelline { stroke:black; stroke-width:1px }
      line.constrshadow { stroke:none; stroke-width:2px }
      line.constrok { stroke:black; stroke-width:1px }
      line.constrerror { stroke:black; stroke-width:1px }
      line.curve { stroke:black;stroke-width:1px }
      text { fill:black; stroke:none; font-size:10pt; font-family:"Arial","Helvetica"; font-style:normal }
    </style>
   <clipPath id="clip1"><rect x="0" width="481.1" y="0" height="505.36"/></clipPath><clipPath id="clip2"><rect x="0" width="481.1" y="0" height="505.36"/></clipPath></defs>
    <g id="mainframe"><rect x="-50.94" width="611.28" y="-56.2" height="674.35" style="fill:white" stroke="none"/><g id="mainviewport" transform="translate(0 0)"><rect class="border" x="14.15" width="481.1" y="14.15" height="505.36"/><g id="tabarea" transform="translate(14.15 14.15)"/><g id="plotarea" transform="translate(14.15 14.15)"><g id="structarea" transform="translate(0 0)"><g clip-path="url(#clip1)"><polyline class="range" points="9.62,-311.3&#10;4.81,-311.3&#10;4.81,493.23&#10;9.62,493.23"/><polyline class="range" points="14.43,52.56&#10;9.62,52.56&#10;9.62,190.02&#10;14.43,190.02"/><polyline class="range" points="14.43,194.06&#10;9.62,194.06&#10;9.62,473.02&#10;14.43,473.02"/><polyline class="range" points="19.24,254.7&#10;14.43,254.7&#10;14.43,473.02&#10;19.24,473.02"/><polyline class="range" points="24.06,274.92&#10;19.24,274.92&#10;19.24,371.94&#10;24.06,371.94"/><polyline class="range" points="24.06,396.2&#10;19.24,396.2&#10;19.24,473.02&#10;24.06,473.02"/></g></g><g clip-path="url(#clip2)"><g id="itemarea18" transform="translate(0 -4.2)"/><g id="itemarea19" transform="translate(0 16.01)"><polygon class="main" points="88.56,24.42&#10;88.56,24.42&#10;90.16,24.41&#10;91.77,24.41&#10;93.37,24.41&#10;94.97,24.41&#10;96.58,24.4&#10;98.18,24.4&#10;99.79,24.4&#10;101.39,24.39&#10;102.99,24.39&#10;104.6,24.39&#10;106.2,24.38&#10;107.8,24.38&#10;109.41,24.38&#10;111.01,24.36&#10;112.62,24.35&#10;114.22,24.33&#10;115.82,24.32&#10;117.43,24.29&#10;119.03,24.26&#10;120.63,24.26&#10;122.24,24.23&#10;123.84,24.21&#10;125.44,24.19&#10;127.05,24.15&#10;128.65,24.08&#10;130.26,23.97&#10;131.86,23.81&#10;133.46,23.6&#10;135.07,23.36&#10;136.67,23.14&#10;138.27,22.92&#10;139.88,22.67&#10;141.48,22.44&#10;143.08,22.21&#10;144.69,21.87&#10;146.29,21.48&#10;147.9,21.08&#10;149.5,20.68&#10;151.1,20.27&#10;152.71,19.88&#10;154.31,19.61&#10;155.91,19.37&#10;157.52,19.15&#10;159.12,18.8&#10;160.73,18.51&#10;162.33,18.31&#10;163.93,18.35&#10;165.54,18.52&#10;167.14,18.82&#10;168.74,19.19&#10;170.35,19.64&#10;171.95,20.17&#10;173.55,20.63&#10;175.16,21.25&#10;176.76,21.77&#10;178.37,22.42&#10;179.97,22.99&#10;181.57,23.48&#10;183.18,23.8&#10;184.78,23.9&#10;186.38,23.98&#10;187.99,24.04&#10;189.59,24.1&#10;191.19,24.17&#10;192.8,24.23&#10;194.4,24.28&#10;196.01,24.31&#10;197.61,24.34&#10;199.21,24.36&#10;200.82,24.38&#10;202.42,24.39&#10;204.02,24.4&#10;205.63,24.41&#10;207.23,24.41&#10;208.84,24.41&#10;210.44,24.42&#10;210.44,24.42"/><polyline class="range" points="148.7,25.64&#10;148.7,26.86&#10;174.2,26.86&#10;174.2,25.64"/><polyline class="range" points="131.38,28.08&#10;131.38,29.3&#10;184.14,29.3&#10;184.14,28.08"/></g><g id="itemarea20" transform="translate(0 36.23)"/><g id="itemarea21" transform="translate(0 56.44)"><polygon class="shadow" points="86.96,24.42&#10;86.96,24.42&#10;88.56,24.42&#10;90.16,24.41&#10;91.77,24.41&#10;93.37,24.41&#10;94.97,24.41&#10;96.58,24.41&#10;98.18,24.41&#10;99.79,24.41&#10;101.39,24.41&#10;102.99,24.41&#10;104.6,24.41&#10;106.2,24.41&#10;107.8,24.41&#10;109.41,24.41&#10;111.01,24.41&#10;112.62,24.41&#10;114.22,24.41&#10;115.82,24.41&#10;117.43,24.41&#10;119.03,24.41&#10;120.63,24.41&#10;122.24,24.41&#10;123.84,24.41&#10;125.44,24.41&#10;127.05,24.41&#10;128.65,24.41&#10;130.26,24.4&#10;131.86,24.38&#10;133.46,24.36&#10;135.07,24.36&#10;136.67,24.35&#10;138.27,24.36&#10;139.88,24.39&#10;141.48,24.41&#10;143.08,24.4&#10;144.69,24.37&#10;146.29,24.34&#10;147.9,24.32&#10;149.5,24.28&#10;151.1,24.16&#10;152.71,23.99&#10;154.31,23.93&#10;155.91,23.98&#10;157.52,24.07&#10;159.12,24.15&#10;160.73,24.14&#10;162.33,23.99&#10;163.93,23.75&#10;165.54,23.55&#10;167.14,23.49&#10;168.74,23.22&#10;170.35,22.5&#10;171.95,22.03&#10;173.55,22.64&#10;175.16,23.31&#10;176.76,23.41&#10;178.37,23.11&#10;179.97,22.77&#10;181.57,22.09&#10;183.18,20.68&#10;184.78,19.46&#10;186.38,19.11&#10;187.99,19.32&#10;189.59,19.56&#10;191.19,19.65&#10;192.8,19.49&#10;194.4,19.29&#10;196.01,19.19&#10;197.61,19.05&#10;199.21,19&#10;200.82,19&#10;202.42,19.08&#10;204.02,19.32&#10;205.63,19.51&#10;207.23,19.37&#10;208.84,18.85&#10;210.44,18.38&#10;212.04,18.31&#10;213.65,18.47&#10;215.25,18.49&#10;216.85,18.63&#10;218.46,19.17&#10;220.06,20.29&#10;221.66,21.42&#10;223.27,22.32&#10;224.87,23.17&#10;226.48,23.92&#10;228.08,24.24&#10;229.68,24.28&#10;231.29,24.13&#10;232.89,23.71&#10;234.49,23.18&#10;236.1,22.74&#10;237.7,22.31&#10;239.3,21.77&#10;240.91,21.88&#10;242.51,22.3&#10;244.12,22.49&#10;245.72,22.78&#10;247.32,23.18&#10;248.93,23.69&#10;250.53,23.83&#10;252.13,24.03&#10;253.74,24.11&#10;255.34,24.23&#10;256.95,24.26&#10;258.55,24.25&#10;260.15,24.31&#10;261.76,24.31&#10;263.36,24.31&#10;264.96,24.34&#10;266.57,24.36&#10;268.17,24.36&#10;269.77,24.36&#10;271.38,24.35&#10;272.98,24.39&#10;274.59,24.4&#10;276.19,24.41&#10;277.79,24.41&#10;279.4,24.41&#10;281,24.41&#10;282.6,24.41&#10;284.21,24.41&#10;285.81,24.42&#10;287.41,24.41&#10;289.02,24.41&#10;290.62,24.41&#10;292.23,24.41&#10;293.83,24.41&#10;295.43,24.41&#10;297.04,24.41&#10;298.64,24.42&#10;300.24,24.42&#10;301.85,24.41&#10;303.45,24.41&#10;305.06,24.41&#10;306.66,24.41&#10;308.26,24.41&#10;309.87,24.41&#10;311.47,24.41&#10;313.07,24.41&#10;314.68,24.41&#10;316.28,24.42&#10;317.88,24.42&#10;317.88,24.42"/><polygon class="main" points="127.05,24.42&#10;127.05,24.42&#10;128.65,24.41&#10;130.26,24.41&#10;131.86,24.41&#10;133.46,24.41&#10;135.07,24.41&#10;136.67,24.41&#10;138.27,24.41&#10;139.88,24.41&#10;141.48,24.41&#10;143.08,24.41&#10;144.69,24.41&#10;146.29,24.4&#10;147.9,24.39&#10;149.5,24.38&#10;151.1,24.34&#10;152.71,24.27&#10;154.31,24.23&#10;155.91,24.23&#10;157.52,24.24&#10;159.12,24.26&#10;160.73,24.23&#10;162.33,24.11&#10;163.93,23.92&#10;165.54,23.72&#10;167.14,23.57&#10;168.74,23.21&#10;170.35,22.51&#10;171.95,22.06&#10;173.55,22.51&#10;175.16,23.06&#10;176.76,23.19&#10;178.37,22.85&#10;179.97,22.39&#10;181.57,21.47&#10;183.18,19.87&#10;184.78,18.65&#10;186.38,18.31&#10;187.99,18.7&#10;189.59,19.07&#10;191.19,19.37&#10;192.8,19.31&#10;194.4,19.4&#10;196.01,19.48&#10;197.61,19.51&#10;199.21,19.68&#10;200.82,19.99&#10;202.42,20.24&#10;204.02,20.57&#10;205.63,20.9&#10;207.23,20.92&#10;208.84,20.79&#10;210.44,20.82&#10;212.04,21.16&#10;213.65,21.65&#10;215.25,22.12&#10;216.85,22.56&#10;218.46,23.07&#10;220.06,23.58&#10;221.66,23.97&#10;223.27,24.21&#10;224.87,24.32&#10;226.48,24.39&#10;228.08,24.41&#10;229.68,24.41&#10;231.29,24.4&#10;232.89,24.39&#10;234.49,24.39&#10;236.1,24.39&#10;237.7,24.4&#10;239.3,24.4&#10;240.91,24.41&#10;242.51,24.41&#10;244.12,24.41&#10;245.72,24.41&#10;247.32,24.41&#10;247.32,24.42"/><polyline class="range" points="182.21,25.64&#10;182.21,26.86&#10;210.92,26.86&#10;210.92,25.64"/><polyline class="range" points="167.62,28.08&#10;167.62,29.3&#10;219.74,29.3&#10;219.74,28.08"/></g><g id="itemarea22" transform="translate(0 76.66)"><polygon class="shadow" points="123.84,24.42&#10;123.84,24.42&#10;125.44,24.42&#10;127.05,24.41&#10;128.65,24.41&#10;130.26,24.41&#10;131.86,24.41&#10;133.46,24.41&#10;135.07,24.41&#10;136.67,24.41&#10;138.27,24.41&#10;139.88,24.41&#10;141.48,24.41&#10;143.08,24.41&#10;144.69,24.41&#10;146.29,24.41&#10;147.9,24.41&#10;149.5,24.41&#10;151.1,24.41&#10;152.71,24.4&#10;154.31,24.4&#10;155.91,24.4&#10;157.52,24.4&#10;159.12,24.41&#10;160.73,24.41&#10;162.33,24.4&#10;163.93,24.38&#10;165.54,24.37&#10;167.14,24.36&#10;168.74,24.34&#10;170.35,24.24&#10;171.95,24.16&#10;173.55,24.26&#10;175.16,24.35&#10;176.76,24.36&#10;178.37,24.32&#10;179.97,24.28&#10;181.57,24.17&#10;183.18,23.81&#10;184.78,23.24&#10;186.38,22.99&#10;187.99,23.12&#10;189.59,23.28&#10;191.19,23.34&#10;192.8,23.24&#10;194.4,23.1&#10;196.01,23.02&#10;197.61,22.9&#10;199.21,22.86&#10;200.82,22.86&#10;202.42,22.93&#10;204.02,23.12&#10;205.63,23.25&#10;207.23,23.16&#10;208.84,22.7&#10;210.44,21.9&#10;212.04,20.97&#10;213.65,20.41&#10;215.25,20.29&#10;216.85,20.07&#10;218.46,19.32&#10;220.06,18.55&#10;221.66,18.31&#10;223.27,18.58&#10;224.87,19.39&#10;226.48,20.98&#10;228.08,22.4&#10;229.68,22.67&#10;231.29,21.82&#10;232.89,20.42&#10;234.49,19.41&#10;236.1,18.88&#10;237.7,18.57&#10;239.3,18.36&#10;240.91,18.39&#10;242.51,18.56&#10;244.12,18.65&#10;245.72,18.88&#10;247.32,19.35&#10;248.93,20.33&#10;250.53,20.68&#10;252.13,21.34&#10;253.74,21.67&#10;255.34,22.35&#10;256.95,22.55&#10;258.55,22.48&#10;260.15,22.87&#10;261.76,22.87&#10;263.36,22.86&#10;264.96,23.17&#10;266.57,23.41&#10;268.17,23.35&#10;269.77,23.39&#10;271.38,23.29&#10;272.98,23.75&#10;274.59,24.06&#10;276.19,24.26&#10;277.79,24.37&#10;279.4,24.4&#10;281,24.4&#10;282.6,24.41&#10;284.21,24.41&#10;285.81,24.41&#10;287.41,24.41&#10;289.02,24.41&#10;290.62,24.41&#10;292.23,24.41&#10;293.83,24.41&#10;295.43,24.41&#10;297.04,24.41&#10;298.64,24.41&#10;300.24,24.41&#10;301.85,24.41&#10;303.45,24.41&#10;305.06,24.41&#10;306.66,24.41&#10;308.26,24.41&#10;309.87,24.41&#10;311.47,24.41&#10;313.07,24.41&#10;314.68,24.41&#10;316.28,24.41&#10;317.88,24.41&#10;319.49,24.41&#10;321.09,24.41&#10;322.7,24.41&#10;324.3,24.41&#10;325.9,24.42&#10;327.51,24.42&#10;327.51,24.42"/><polygon class="main" points="157.52,24.42&#10;157.52,24.42&#10;159.12,24.42&#10;160.73,24.41&#10;162.33,24.41&#10;163.93,24.41&#10;165.54,24.41&#10;167.14,24.41&#10;168.74,24.41&#10;170.35,24.4&#10;171.95,24.39&#10;173.55,24.39&#10;175.16,24.4&#10;176.76,24.4&#10;178.37,24.39&#10;179.97,24.38&#10;181.57,24.33&#10;183.18,24.15&#10;184.78,23.84&#10;186.38,23.55&#10;187.99,23.48&#10;189.59,23.45&#10;191.19,23.4&#10;192.8,23.18&#10;194.4,22.93&#10;196.01,22.73&#10;197.61,22.48&#10;199.21,22.32&#10;200.82,22.19&#10;202.42,22.18&#10;204.02,22.36&#10;205.63,22.51&#10;207.23,22.25&#10;208.84,21.48&#10;210.44,20.17&#10;212.04,18.87&#10;213.65,18.31&#10;215.25,18.47&#10;216.85,18.59&#10;218.46,18.54&#10;220.06,18.68&#10;221.66,19.55&#10;223.27,20.75&#10;224.87,21.9&#10;226.48,23.04&#10;228.08,23.71&#10;229.68,23.88&#10;231.29,23.79&#10;232.89,23.65&#10;234.49,23.67&#10;236.1,23.79&#10;237.7,23.97&#10;239.3,24.09&#10;240.91,24.2&#10;242.51,24.29&#10;244.12,24.34&#10;245.72,24.38&#10;247.32,24.39&#10;248.93,24.41&#10;250.53,24.41&#10;252.13,24.41&#10;253.74,24.41&#10;255.34,24.41&#10;256.95,24.41&#10;256.95,24.42"/><polyline class="range" points="200.18,25.64&#10;200.18,26.86&#10;202.9,26.86&#10;202.9,25.64"/><polyline class="range" points="207.23,25.64&#10;207.23,26.86&#10;225.35,26.86&#10;225.35,25.64"/><polyline class="range" points="185.1,28.08&#10;185.1,29.3&#10;228.88,29.3&#10;228.88,28.08"/><polyline class="range" points="231.29,28.08&#10;231.29,29.3&#10;236.1,29.3&#10;236.1,28.08"/></g><g id="itemarea23" transform="translate(0 96.87)"><polygon class="shadow" points="24.41,24.42&#10;24.41,24.42&#10;26.02,24.42&#10;27.62,24.41&#10;29.22,24.41&#10;30.83,24.41&#10;32.43,24.41&#10;34.04,24.41&#10;35.64,24.41&#10;37.24,24.41&#10;38.85,24.41&#10;40.45,24.41&#10;42.05,24.41&#10;43.66,24.41&#10;45.26,24.41&#10;46.86,24.41&#10;48.47,24.41&#10;50.07,24.41&#10;51.68,24.41&#10;53.28,24.41&#10;54.88,24.41&#10;56.49,24.41&#10;58.09,24.41&#10;59.69,24.41&#10;61.3,24.41&#10;62.9,24.41&#10;64.51,24.41&#10;66.11,24.41&#10;67.71,24.41&#10;69.32,24.41&#10;70.92,24.41&#10;72.52,24.41&#10;74.13,24.41&#10;75.73,24.41&#10;77.33,24.41&#10;78.94,24.41&#10;80.54,24.41&#10;82.15,24.41&#10;83.75,24.41&#10;85.35,24.41&#10;86.96,24.41&#10;88.56,24.4&#10;90.16,24.39&#10;91.77,24.38&#10;93.37,24.38&#10;94.97,24.36&#10;96.58,24.34&#10;98.18,24.34&#10;99.79,24.35&#10;101.39,24.36&#10;102.99,24.37&#10;104.6,24.36&#10;106.2,24.36&#10;107.8,24.35&#10;109.41,24.34&#10;111.01,24.31&#10;112.62,24.26&#10;114.22,24.17&#10;115.82,24.1&#10;117.43,24.13&#10;119.03,24.2&#10;120.63,24.27&#10;122.24,24.31&#10;123.84,24.32&#10;125.44,24.25&#10;127.05,24.04&#10;128.65,23.63&#10;130.26,22.98&#10;131.86,22.26&#10;133.46,21.87&#10;135.07,21.82&#10;136.67,21.73&#10;138.27,21.93&#10;139.88,22.75&#10;141.48,23.23&#10;143.08,23&#10;144.69,22.15&#10;146.29,21.51&#10;147.9,21.26&#10;149.5,20.86&#10;151.1,20.07&#10;152.71,19.41&#10;154.31,19.25&#10;155.91,19.38&#10;157.52,19.66&#10;159.12,20&#10;160.73,19.96&#10;162.33,19.4&#10;163.93,18.88&#10;165.54,18.62&#10;167.14,18.57&#10;168.74,18.39&#10;170.35,18.34&#10;171.95,18.48&#10;173.55,18.32&#10;175.16,18.44&#10;176.76,18.5&#10;178.37,18.35&#10;179.97,18.31&#10;181.57,18.46&#10;183.18,19.26&#10;184.78,20.33&#10;186.38,20.72&#10;187.99,20.51&#10;189.59,20.25&#10;191.19,20.16&#10;192.8,20.32&#10;194.4,20.53&#10;196.01,20.65&#10;197.61,20.82&#10;199.21,20.87&#10;200.82,20.87&#10;202.42,20.78&#10;204.02,20.51&#10;205.63,20.3&#10;207.23,20.44&#10;208.84,21.08&#10;210.44,21.95&#10;212.04,22.69&#10;213.65,23.05&#10;215.25,23.13&#10;216.85,23.25&#10;218.46,23.64&#10;220.06,24.02&#10;221.66,24.22&#10;223.27,24.32&#10;224.87,24.37&#10;226.48,24.41&#10;228.08,24.41&#10;229.68,24.41&#10;231.29,24.41&#10;232.89,24.4&#10;234.49,24.37&#10;236.1,24.35&#10;237.7,24.32&#10;239.3,24.26&#10;240.91,24.27&#10;242.51,24.31&#10;244.12,24.33&#10;245.72,24.35&#10;247.32,24.38&#10;248.93,24.4&#10;250.53,24.4&#10;252.13,24.41&#10;253.74,24.41&#10;255.34,24.41&#10;256.95,24.41&#10;258.55,24.41&#10;260.15,24.41&#10;261.76,24.41&#10;263.36,24.41&#10;264.96,24.41&#10;266.57,24.41&#10;268.17,24.41&#10;269.77,24.41&#10;271.38,24.41&#10;272.98,24.41&#10;274.59,24.41&#10;276.19,24.41&#10;277.79,24.42&#10;279.4,24.42&#10;281,24.42&#10;281,24.42"/><polygon class="main" points="122.24,24.42&#10;122.24,24.42&#10;123.84,24.41&#10;125.44,24.41&#10;127.05,24.41&#10;128.65,24.41&#10;130.26,24.4&#10;131.86,24.37&#10;133.46,24.36&#10;135.07,24.34&#10;136.67,24.32&#10;138.27,24.31&#10;139.88,24.32&#10;141.48,24.33&#10;143.08,24.29&#10;144.69,24.19&#10;146.29,24.08&#10;147.9,23.98&#10;149.5,23.83&#10;151.1,23.57&#10;152.71,23.27&#10;154.31,23.05&#10;155.91,22.9&#10;157.52,22.8&#10;159.12,22.72&#10;160.73,22.46&#10;162.33,21.99&#10;163.93,21.42&#10;165.54,21.03&#10;167.14,20.57&#10;168.74,20.15&#10;170.35,19.7&#10;171.95,19.45&#10;173.55,19.18&#10;175.16,18.96&#10;176.76,18.73&#10;178.37,18.42&#10;179.97,18.31&#10;181.57,18.39&#10;183.18,18.99&#10;184.78,19.99&#10;186.38,20.41&#10;187.99,20.21&#10;189.59,19.99&#10;191.19,19.88&#10;192.8,20&#10;194.4,20.14&#10;196.01,20.29&#10;197.61,20.42&#10;199.21,20.57&#10;200.82,20.61&#10;202.42,20.44&#10;204.02,20.18&#10;205.63,20.02&#10;207.23,20.25&#10;208.84,20.92&#10;210.44,21.85&#10;212.04,22.64&#10;213.65,23.08&#10;215.25,23.25&#10;216.85,23.43&#10;218.46,23.82&#10;220.06,24.11&#10;221.66,24.29&#10;223.27,24.37&#10;224.87,24.4&#10;226.48,24.41&#10;228.08,24.41&#10;229.68,24.41&#10;231.29,24.41&#10;232.89,24.41&#10;234.49,24.41&#10;236.1,24.41&#10;237.7,24.41&#10;239.3,24.41&#10;240.91,24.41&#10;242.51,24.41&#10;244.12,24.41&#10;245.72,24.41&#10;245.72,24.42"/><polyline class="range" points="167.62,25.64&#10;167.62,26.86&#10;197.77,26.86&#10;197.77,25.64"/><polyline class="range" points="202.42,25.64&#10;202.42,26.86&#10;207.71,26.86&#10;207.71,25.64"/><polyline class="range" points="152.87,28.08&#10;152.87,29.3&#10;215.25,29.3&#10;215.25,28.08"/></g><g id="itemarea24" transform="translate(0 117.08)"><polygon class="shadow" points="107.8,24.42&#10;107.8,24.42&#10;109.41,24.42&#10;111.01,24.42&#10;112.62,24.42&#10;114.22,24.42&#10;115.82,24.42&#10;117.43,24.42&#10;119.03,24.42&#10;120.63,24.42&#10;122.24,24.42&#10;123.84,24.42&#10;125.44,24.42&#10;127.05,24.42&#10;128.65,24.41&#10;130.26,24.35&#10;131.86,24.16&#10;133.46,23.95&#10;135.07,23.89&#10;136.67,23.83&#10;138.27,23.96&#10;139.88,24.31&#10;141.48,24.39&#10;143.08,24.35&#10;144.69,24.08&#10;146.29,23.65&#10;147.9,23.41&#10;149.5,22.93&#10;151.1,21.64&#10;152.71,20.22&#10;154.31,19.85&#10;155.91,20.14&#10;157.52,20.78&#10;159.12,21.49&#10;160.73,21.42&#10;162.33,20.19&#10;163.93,19.02&#10;165.54,18.51&#10;167.14,18.43&#10;168.74,18.32&#10;170.35,19.24&#10;171.95,20.18&#10;173.55,18.98&#10;175.16,18.32&#10;176.76,18.35&#10;178.37,18.38&#10;179.97,18.78&#10;181.57,20.05&#10;183.18,22.62&#10;184.78,23.87&#10;186.38,24.08&#10;187.99,23.94&#10;189.59,23.77&#10;191.19,23.69&#10;192.8,23.82&#10;194.4,23.95&#10;196.01,24.02&#10;197.61,24.09&#10;199.21,24.12&#10;200.82,24.12&#10;202.42,24.08&#10;204.02,23.94&#10;205.63,23.81&#10;207.23,23.9&#10;208.84,24.19&#10;210.44,24.36&#10;212.04,24.41&#10;213.65,24.42&#10;215.25,24.42&#10;216.85,24.42&#10;218.46,24.42&#10;220.06,24.42&#10;221.66,24.42&#10;223.27,24.42&#10;224.87,24.42&#10;224.87,24.42"/><polygon class="main" points="127.05,24.42&#10;127.05,24.42&#10;128.65,24.42&#10;130.26,24.42&#10;131.86,24.42&#10;133.46,24.41&#10;135.07,24.41&#10;136.67,24.4&#10;138.27,24.4&#10;139.88,24.42&#10;141.48,24.42&#10;143.08,24.41&#10;144.69,24.39&#10;146.29,24.34&#10;147.9,24.3&#10;149.5,24.19&#10;151.1,23.94&#10;152.71,23.64&#10;154.31,23.41&#10;155.91,23.32&#10;157.52,23.35&#10;159.12,23.38&#10;160.73,23.22&#10;162.33,22.58&#10;163.93,21.82&#10;165.54,21.27&#10;167.14,20.84&#10;168.74,20.49&#10;170.35,20.68&#10;171.95,20.92&#10;173.55,19.85&#10;175.16,18.95&#10;176.76,18.59&#10;178.37,18.32&#10;179.97,18.46&#10;181.57,19.68&#10;183.18,22.22&#10;184.78,23.65&#10;186.38,23.93&#10;187.99,23.78&#10;189.59,23.54&#10;191.19,23.44&#10;192.8,23.58&#10;194.4,23.72&#10;196.01,23.83&#10;197.61,23.94&#10;199.21,23.96&#10;200.82,23.96&#10;202.42,23.89&#10;204.02,23.7&#10;205.63,23.54&#10;207.23,23.71&#10;208.84,24.08&#10;210.44,24.33&#10;212.04,24.4&#10;213.65,24.41&#10;215.25,24.42&#10;216.85,24.42&#10;218.46,24.42&#10;220.06,24.42&#10;221.66,24.42&#10;221.66,24.42"/><polyline class="range" points="163.77,25.64&#10;163.77,26.86&#10;183.02,26.86&#10;183.02,25.64"/><polyline class="range" points="151.26,28.08&#10;151.26,29.3&#10;197.29,29.3&#10;197.29,28.08"/><polyline class="range" points="201.78,28.08&#10;201.78,29.3&#10;208.19,29.3&#10;208.19,28.08"/></g><g id="itemarea25" transform="translate(0 137.3)"/><g id="itemarea26" transform="translate(0 157.51)"><polygon class="shadow" points="83.75,24.42&#10;83.75,24.42&#10;85.35,24.42&#10;86.96,24.42&#10;88.56,24.42&#10;90.16,24.42&#10;91.77,24.42&#10;93.37,24.42&#10;94.97,24.42&#10;96.58,24.42&#10;98.18,24.42&#10;99.79,24.42&#10;101.39,24.42&#10;102.99,24.42&#10;104.6,24.42&#10;106.2,24.42&#10;107.8,24.42&#10;109.41,24.42&#10;111.01,24.42&#10;112.62,24.42&#10;114.22,24.41&#10;115.82,24.41&#10;117.43,24.41&#10;119.03,24.41&#10;120.63,24.42&#10;122.24,24.42&#10;123.84,24.42&#10;125.44,24.42&#10;127.05,24.4&#10;128.65,24.34&#10;130.26,24.16&#10;131.86,23.85&#10;133.46,23.61&#10;135.07,23.57&#10;136.67,23.51&#10;138.27,23.64&#10;139.88,24.07&#10;141.48,24.24&#10;143.08,24.17&#10;144.69,23.77&#10;146.29,23.35&#10;147.9,23.15&#10;149.5,22.79&#10;151.1,21.93&#10;152.71,21&#10;154.31,20.74&#10;155.91,20.95&#10;157.52,21.38&#10;159.12,21.84&#10;160.73,21.79&#10;162.33,20.98&#10;163.93,20.08&#10;165.54,19.53&#10;167.14,19.39&#10;168.74,18.91&#10;170.35,18.34&#10;171.95,18.33&#10;173.55,18.39&#10;175.16,19.05&#10;176.76,19.22&#10;178.37,18.77&#10;179.97,18.46&#10;181.57,18.32&#10;183.18,19.13&#10;184.78,20.58&#10;186.38,21.1&#10;187.99,20.81&#10;189.59,20.46&#10;191.19,20.34&#10;192.8,20.56&#10;194.4,20.85&#10;196.01,21&#10;197.61,21.23&#10;199.21,21.3&#10;200.82,21.3&#10;202.42,21.18&#10;204.02,20.81&#10;205.63,20.53&#10;207.23,20.73&#10;208.84,21.57&#10;210.44,22.62&#10;212.04,23.39&#10;213.65,23.72&#10;215.25,23.79&#10;216.85,23.87&#10;218.46,24.14&#10;220.06,24.33&#10;221.66,24.39&#10;223.27,24.41&#10;224.87,24.42&#10;226.48,24.42&#10;228.08,24.42&#10;229.68,24.42&#10;231.29,24.42&#10;232.89,24.42&#10;234.49,24.42&#10;236.1,24.42&#10;237.7,24.41&#10;239.3,24.4&#10;240.91,24.4&#10;242.51,24.41&#10;244.12,24.41&#10;245.72,24.42&#10;247.32,24.42&#10;248.93,24.42&#10;250.53,24.42&#10;252.13,24.42&#10;253.74,24.42&#10;255.34,24.42&#10;256.95,24.42&#10;258.55,24.42&#10;260.15,24.42&#10;261.76,24.42&#10;263.36,24.42&#10;263.36,24.42"/><polygon class="main" points="122.24,24.42&#10;122.24,24.42&#10;123.84,24.42&#10;125.44,24.42&#10;127.05,24.42&#10;128.65,24.42&#10;130.26,24.42&#10;131.86,24.41&#10;133.46,24.4&#10;135.07,24.39&#10;136.67,24.39&#10;138.27,24.38&#10;139.88,24.4&#10;141.48,24.4&#10;143.08,24.39&#10;144.69,24.35&#10;146.29,24.29&#10;147.9,24.23&#10;149.5,24.12&#10;151.1,23.9&#10;152.71,23.63&#10;154.31,23.43&#10;155.91,23.35&#10;157.52,23.37&#10;159.12,23.35&#10;160.73,23.19&#10;162.33,22.69&#10;163.93,22.06&#10;165.54,21.45&#10;167.14,21.07&#10;168.74,20.47&#10;170.35,19.85&#10;171.95,19.48&#10;173.55,19.27&#10;175.16,19.52&#10;176.76,19.46&#10;178.37,18.95&#10;179.97,18.47&#10;181.57,18.32&#10;183.18,18.94&#10;184.78,20.31&#10;186.38,20.82&#10;187.99,20.6&#10;189.59,20.24&#10;191.19,20.04&#10;192.8,20.32&#10;194.4,20.5&#10;196.01,20.75&#10;197.61,20.95&#10;199.21,21.09&#10;200.82,21.05&#10;202.42,20.94&#10;204.02,20.59&#10;205.63,20.34&#10;207.23,20.61&#10;208.84,21.5&#10;210.44,22.56&#10;212.04,23.34&#10;213.65,23.72&#10;215.25,23.85&#10;216.85,23.99&#10;218.46,24.2&#10;220.06,24.35&#10;221.66,24.4&#10;223.27,24.42&#10;224.87,24.42&#10;226.48,24.42&#10;228.08,24.42&#10;229.68,24.42&#10;231.29,24.42&#10;232.89,24.42&#10;234.49,24.42&#10;236.1,24.42&#10;237.7,24.42&#10;239.3,24.42&#10;240.91,24.42&#10;242.51,24.42&#10;244.12,24.42&#10;245.72,24.42&#10;247.32,24.42&#10;247.32,24.42"/><polyline class="range" points="167.78,25.64&#10;167.78,26.86&#10;196.49,26.86&#10;196.49,25.64"/><polyline class="range" points="203.06,25.64&#10;203.06,26.86&#10;207.55,26.86&#10;207.55,25.64"/><polyline class="range" points="155.59,28.08&#10;155.59,29.3&#10;212.2,29.3&#10;212.2,28.08"/></g><g id="itemarea27" transform="translate(0 177.73)"/><g id="itemarea28" transform="translate(0 197.94)"><polygon class="shadow" points="123.84,24.42&#10;123.84,24.42&#10;125.44,24.42&#10;127.05,24.41&#10;128.65,24.41&#10;130.26,24.41&#10;131.86,24.41&#10;133.46,24.41&#10;135.07,24.41&#10;136.67,24.41&#10;138.27,24.41&#10;139.88,24.41&#10;141.48,24.41&#10;143.08,24.41&#10;144.69,24.41&#10;146.29,24.41&#10;147.9,24.41&#10;149.5,24.41&#10;151.1,24.41&#10;152.71,24.4&#10;154.31,24.4&#10;155.91,24.4&#10;157.52,24.4&#10;159.12,24.41&#10;160.73,24.41&#10;162.33,24.4&#10;163.93,24.38&#10;165.54,24.37&#10;167.14,24.36&#10;168.74,24.34&#10;170.35,24.24&#10;171.95,24.16&#10;173.55,24.26&#10;175.16,24.35&#10;176.76,24.36&#10;178.37,24.32&#10;179.97,24.28&#10;181.57,24.17&#10;183.18,23.81&#10;184.78,23.24&#10;186.38,22.99&#10;187.99,23.12&#10;189.59,23.28&#10;191.19,23.34&#10;192.8,23.24&#10;194.4,23.1&#10;196.01,23.02&#10;197.61,22.9&#10;199.21,22.86&#10;200.82,22.86&#10;202.42,22.93&#10;204.02,23.12&#10;205.63,23.25&#10;207.23,23.16&#10;208.84,22.7&#10;210.44,21.9&#10;212.04,20.97&#10;213.65,20.41&#10;215.25,20.29&#10;216.85,20.07&#10;218.46,19.32&#10;220.06,18.55&#10;221.66,18.31&#10;223.27,18.58&#10;224.87,19.39&#10;226.48,20.98&#10;228.08,22.4&#10;229.68,22.67&#10;231.29,21.82&#10;232.89,20.42&#10;234.49,19.41&#10;236.1,18.88&#10;237.7,18.57&#10;239.3,18.36&#10;240.91,18.39&#10;242.51,18.56&#10;244.12,18.65&#10;245.72,18.88&#10;247.32,19.35&#10;248.93,20.33&#10;250.53,20.68&#10;252.13,21.34&#10;253.74,21.67&#10;255.34,22.35&#10;256.95,22.55&#10;258.55,22.48&#10;260.15,22.87&#10;261.76,22.87&#10;263.36,22.86&#10;264.96,23.17&#10;266.57,23.41&#10;268.17,23.35&#10;269.77,23.39&#10;271.38,23.29&#10;272.98,23.75&#10;274.59,24.06&#10;276.19,24.26&#10;277.79,24.37&#10;279.4,24.4&#10;281,24.4&#10;282.6,24.41&#10;284.21,24.41&#10;285.81,24.41&#10;287.41,24.41&#10;289.02,24.41&#10;290.62,24.41&#10;292.23,24.41&#10;293.83,24.41&#10;295.43,24.41&#10;297.04,24.41&#10;298.64,24.41&#10;300.24,24.41&#10;301.85,24.41&#10;303.45,24.41&#10;305.06,24.41&#10;306.66,24.41&#10;308.26,24.41&#10;309.87,24.41&#10;311.47,24.41&#10;313.07,24.41&#10;314.68,24.41&#10;316.28,24.41&#10;317.88,24.41&#10;319.49,24.41&#10;321.09,24.41&#10;322.7,24.41&#10;324.3,24.41&#10;325.9,24.42&#10;327.51,24.42&#10;327.51,24.42"/><polygon class="main" points="179.97,24.42&#10;179.97,24.42&#10;181.57,24.41&#10;183.18,24.41&#10;184.78,24.41&#10;186.38,24.41&#10;187.99,24.4&#10;189.59,24.39&#10;191.19,24.39&#10;192.8,24.37&#10;194.4,24.36&#10;196.01,24.34&#10;197.61,24.31&#10;199.21,24.26&#10;200.82,24.23&#10;202.42,24.19&#10;204.02,24.18&#10;205.63,24.16&#10;207.23,24.08&#10;208.84,23.89&#10;210.44,23.51&#10;212.04,22.92&#10;213.65,22.32&#10;215.25,21.84&#10;216.85,21.25&#10;218.46,20.21&#10;220.06,19.09&#10;221.66,18.47&#10;223.27,18.31&#10;224.87,19.1&#10;226.48,20.66&#10;228.08,22.13&#10;229.68,22.41&#10;231.29,21.7&#10;232.89,20.53&#10;234.49,19.67&#10;236.1,19.29&#10;237.7,19.16&#10;239.3,19.12&#10;240.91,19.36&#10;242.51,19.65&#10;244.12,20.01&#10;245.72,20.49&#10;247.32,21.06&#10;248.93,21.87&#10;250.53,22.38&#10;252.13,22.81&#10;253.74,23.17&#10;255.34,23.55&#10;256.95,23.7&#10;258.55,23.78&#10;260.15,23.93&#10;261.76,24&#10;263.36,24.07&#10;264.96,24.17&#10;266.57,24.24&#10;268.17,24.28&#10;269.77,24.31&#10;271.38,24.34&#10;272.98,24.38&#10;274.59,24.4&#10;276.19,24.41&#10;277.79,24.41&#10;279.4,24.41&#10;281,24.42&#10;282.6,24.42&#10;284.21,24.42&#10;285.81,24.42&#10;287.41,24.42&#10;289.02,24.42&#10;290.62,24.42&#10;292.23,24.41&#10;293.83,24.42&#10;295.43,24.42&#10;297.04,24.42&#10;298.64,24.42&#10;300.24,24.42&#10;301.85,24.42&#10;303.45,24.42&#10;305.06,24.41&#10;306.66,24.42&#10;308.26,24.42&#10;309.87,24.42&#10;309.87,24.42"/><polyline class="range" points="217.17,25.64&#10;217.17,26.86&#10;226.8,26.86&#10;226.8,25.64"/><polyline class="range" points="232.25,25.64&#10;232.25,26.86&#10;247.16,26.86&#10;247.16,25.64"/><polyline class="range" points="209.32,28.08&#10;209.32,29.3&#10;258.23,29.3&#10;258.23,28.08"/></g><g id="itemarea29" transform="translate(0 218.16)"><polygon class="shadow" points="127.05,24.42&#10;127.05,24.42&#10;128.65,24.42&#10;130.26,24.41&#10;131.86,24.41&#10;133.46,24.41&#10;135.07,24.41&#10;136.67,24.41&#10;138.27,24.41&#10;139.88,24.41&#10;141.48,24.42&#10;143.08,24.41&#10;144.69,24.41&#10;146.29,24.41&#10;147.9,24.41&#10;149.5,24.41&#10;151.1,24.41&#10;152.71,24.41&#10;154.31,24.41&#10;155.91,24.41&#10;157.52,24.41&#10;159.12,24.41&#10;160.73,24.41&#10;162.33,24.41&#10;163.93,24.41&#10;165.54,24.41&#10;167.14,24.41&#10;168.74,24.41&#10;170.35,24.4&#10;171.95,24.39&#10;173.55,24.4&#10;175.16,24.41&#10;176.76,24.41&#10;178.37,24.41&#10;179.97,24.4&#10;181.57,24.39&#10;183.18,24.33&#10;184.78,24.19&#10;186.38,24.12&#10;187.99,24.16&#10;189.59,24.2&#10;191.19,24.22&#10;192.8,24.19&#10;194.4,24.15&#10;196.01,24.13&#10;197.61,24.09&#10;199.21,24.08&#10;200.82,24.08&#10;202.42,24.1&#10;204.02,24.16&#10;205.63,24.19&#10;207.23,24.17&#10;208.84,24.03&#10;210.44,23.73&#10;212.04,23.26&#10;213.65,22.91&#10;215.25,22.84&#10;216.85,22.67&#10;218.46,22&#10;220.06,20.85&#10;221.66,19.75&#10;223.27,18.93&#10;224.87,18.37&#10;226.48,18.53&#10;228.08,19.65&#10;229.68,19.97&#10;231.29,19.09&#10;232.89,18.39&#10;234.49,18.37&#10;236.1,18.6&#10;237.7,18.94&#10;239.3,19.42&#10;240.91,19.32&#10;242.51,18.95&#10;244.12,18.78&#10;245.72,18.56&#10;247.32,18.33&#10;248.93,18.31&#10;250.53,18.4&#10;252.13,18.7&#10;253.74,18.92&#10;255.34,19.55&#10;256.95,19.78&#10;258.55,19.69&#10;260.15,20.2&#10;261.76,20.2&#10;263.36,20.19&#10;264.96,20.67&#10;266.57,21.09&#10;268.17,20.98&#10;269.77,21.06&#10;271.38,20.87&#10;272.98,21.84&#10;274.59,22.7&#10;276.19,23.43&#10;277.79,24.04&#10;279.4,24.2&#10;281,24.28&#10;282.6,24.35&#10;284.21,24.39&#10;285.81,24.4&#10;287.41,24.39&#10;289.02,24.39&#10;290.62,24.38&#10;292.23,24.35&#10;293.83,24.32&#10;295.43,24.36&#10;297.04,24.39&#10;298.64,24.4&#10;300.24,24.4&#10;301.85,24.39&#10;303.45,24.36&#10;305.06,24.35&#10;306.66,24.36&#10;308.26,24.36&#10;309.87,24.33&#10;311.47,24.33&#10;313.07,24.35&#10;314.68,24.39&#10;316.28,24.41&#10;317.88,24.41&#10;319.49,24.41&#10;321.09,24.41&#10;322.7,24.41&#10;324.3,24.41&#10;325.9,24.41&#10;327.51,24.41&#10;329.11,24.41&#10;330.71,24.41&#10;332.32,24.41&#10;333.92,24.41&#10;335.52,24.42&#10;337.13,24.42&#10;338.73,24.42&#10;338.73,24.42"/><polygon class="main" points="199.21,24.42&#10;199.21,24.42&#10;200.82,24.41&#10;202.42,24.41&#10;204.02,24.41&#10;205.63,24.41&#10;207.23,24.41&#10;208.84,24.41&#10;210.44,24.4&#10;212.04,24.39&#10;213.65,24.35&#10;215.25,24.33&#10;216.85,24.28&#10;218.46,24.14&#10;220.06,23.92&#10;221.66,23.6&#10;223.27,23.2&#10;224.87,22.78&#10;226.48,22.58&#10;228.08,22.82&#10;229.68,22.83&#10;231.29,22.4&#10;232.89,21.94&#10;234.49,21.7&#10;236.1,21.52&#10;237.7,21.34&#10;239.3,21.19&#10;240.91,20.97&#10;242.51,20.3&#10;244.12,19.84&#10;245.72,19.28&#10;247.32,18.67&#10;248.93,18.54&#10;250.53,18.31&#10;252.13,18.46&#10;253.74,18.59&#10;255.34,19.02&#10;256.95,19.18&#10;258.55,19&#10;260.15,19.38&#10;261.76,19.43&#10;263.36,19.35&#10;264.96,19.85&#10;266.57,20.22&#10;268.17,20.17&#10;269.77,20.11&#10;271.38,20.17&#10;272.98,21.16&#10;274.59,22.16&#10;276.19,23.16&#10;277.79,23.9&#10;279.4,24.13&#10;281,24.26&#10;282.6,24.33&#10;284.21,24.38&#10;285.81,24.39&#10;287.41,24.38&#10;289.02,24.38&#10;290.62,24.38&#10;292.23,24.34&#10;293.83,24.31&#10;295.43,24.35&#10;297.04,24.38&#10;298.64,24.4&#10;300.24,24.39&#10;301.85,24.38&#10;303.45,24.34&#10;305.06,24.33&#10;306.66,24.35&#10;308.26,24.33&#10;309.87,24.31&#10;311.47,24.3&#10;313.07,24.34&#10;314.68,24.38&#10;316.28,24.4&#10;317.88,24.41&#10;319.49,24.41&#10;321.09,24.41&#10;322.7,24.41&#10;324.3,24.41&#10;325.9,24.41&#10;327.51,24.41&#10;329.11,24.42&#10;329.11,24.42"/><polyline class="range" points="242.51,25.64&#10;242.51,26.86&#10;271.54,26.86&#10;271.54,25.64"/><polyline class="range" points="223.43,28.08&#10;223.43,29.3&#10;276.19,29.3&#10;276.19,28.08"/></g><g id="itemarea30" transform="translate(0 238.37)"/><g id="itemarea31" transform="translate(0 258.59)"/><g id="itemarea32" transform="translate(0 278.8)"><polygon class="shadow" points="147.9,24.42&#10;147.9,24.42&#10;149.5,24.42&#10;151.1,24.42&#10;152.71,24.41&#10;154.31,24.41&#10;155.91,24.41&#10;157.52,24.41&#10;159.12,24.41&#10;160.73,24.41&#10;162.33,24.41&#10;163.93,24.41&#10;165.54,24.41&#10;167.14,24.41&#10;168.74,24.41&#10;170.35,24.41&#10;171.95,24.41&#10;173.55,24.41&#10;175.16,24.41&#10;176.76,24.41&#10;178.37,24.41&#10;179.97,24.41&#10;181.57,24.41&#10;183.18,24.41&#10;184.78,24.41&#10;186.38,24.41&#10;187.99,24.41&#10;189.59,24.41&#10;191.19,24.41&#10;192.8,24.41&#10;194.4,24.41&#10;196.01,24.41&#10;197.61,24.41&#10;199.21,24.41&#10;200.82,24.41&#10;202.42,24.41&#10;204.02,24.41&#10;205.63,24.41&#10;207.23,24.41&#10;208.84,24.4&#10;210.44,24.39&#10;212.04,24.36&#10;213.65,24.33&#10;215.25,24.33&#10;216.85,24.31&#10;218.46,24.23&#10;220.06,24.03&#10;221.66,23.72&#10;223.27,23.31&#10;224.87,22.6&#10;226.48,21.27&#10;228.08,19.91&#10;229.68,19.62&#10;231.29,20.49&#10;232.89,21.75&#10;234.49,22.58&#10;236.1,23.02&#10;237.7,23.32&#10;239.3,23.59&#10;240.91,23.54&#10;242.51,23.32&#10;244.12,23.22&#10;245.72,23.01&#10;247.32,22.63&#10;248.93,21.83&#10;250.53,21.54&#10;252.13,20.95&#10;253.74,20.65&#10;255.34,19.97&#10;256.95,19.76&#10;258.55,19.83&#10;260.15,19.41&#10;261.76,19.41&#10;263.36,19.42&#10;264.96,19.07&#10;266.57,18.81&#10;268.17,18.88&#10;269.77,18.82&#10;271.38,18.94&#10;272.98,18.46&#10;274.59,18.31&#10;276.19,18.6&#10;277.79,19.71&#10;279.4,20.44&#10;281,21.04&#10;282.6,21.87&#10;284.21,22.57&#10;285.81,22.9&#10;287.41,22.61&#10;289.02,22.55&#10;290.62,22.49&#10;292.23,21.88&#10;293.83,21.45&#10;295.43,21.97&#10;297.04,22.83&#10;298.64,23.06&#10;300.24,22.97&#10;301.85,22.61&#10;303.45,21.96&#10;305.06,21.79&#10;306.66,22.06&#10;308.26,22&#10;309.87,21.55&#10;311.47,21.51&#10;313.07,21.92&#10;314.68,22.65&#10;316.28,23.35&#10;317.88,23.8&#10;319.49,24.05&#10;321.09,24.13&#10;322.7,24.18&#10;324.3,24.25&#10;325.9,24.32&#10;327.51,24.35&#10;329.11,24.37&#10;330.71,24.37&#10;332.32,24.38&#10;333.92,24.39&#10;335.52,24.4&#10;337.13,24.41&#10;338.73,24.41&#10;340.34,24.41&#10;341.94,24.41&#10;343.54,24.41&#10;345.15,24.41&#10;346.75,24.41&#10;348.35,24.41&#10;349.96,24.41&#10;351.56,24.41&#10;353.17,24.41&#10;354.77,24.42&#10;356.37,24.42&#10;356.37,24.42"/><polygon class="main" points="189.59,24.42&#10;189.59,24.42&#10;191.19,24.41&#10;192.8,24.41&#10;194.4,24.41&#10;196.01,24.41&#10;197.61,24.41&#10;199.21,24.41&#10;200.82,24.41&#10;202.42,24.41&#10;204.02,24.41&#10;205.63,24.41&#10;207.23,24.41&#10;208.84,24.41&#10;210.44,24.4&#10;212.04,24.39&#10;213.65,24.36&#10;215.25,24.35&#10;216.85,24.32&#10;218.46,24.23&#10;220.06,24.02&#10;221.66,23.61&#10;223.27,23.04&#10;224.87,22.03&#10;226.48,20.35&#10;228.08,18.66&#10;229.68,18.31&#10;231.29,19.28&#10;232.89,20.7&#10;234.49,21.85&#10;236.1,22.48&#10;237.7,22.88&#10;239.3,23.21&#10;240.91,23.17&#10;242.51,22.9&#10;244.12,22.75&#10;245.72,22.45&#10;247.32,21.92&#10;248.93,21&#10;250.53,20.59&#10;252.13,19.96&#10;253.74,19.52&#10;255.34,18.99&#10;256.95,18.69&#10;258.55,18.86&#10;260.15,18.55&#10;261.76,18.75&#10;263.36,18.81&#10;264.96,18.68&#10;266.57,18.7&#10;268.17,18.84&#10;269.77,19.02&#10;271.38,19.35&#10;272.98,19.25&#10;274.59,19.37&#10;276.19,20.01&#10;277.79,20.93&#10;279.4,21.7&#10;281,22.22&#10;282.6,22.86&#10;284.21,23.33&#10;285.81,23.6&#10;287.41,23.58&#10;289.02,23.6&#10;290.62,23.6&#10;292.23,23.47&#10;293.83,23.4&#10;295.43,23.67&#10;297.04,23.95&#10;298.64,24.07&#10;300.24,24.06&#10;301.85,24.04&#10;303.45,23.98&#10;305.06,23.98&#10;306.66,24.08&#10;308.26,24.11&#10;309.87,24.12&#10;311.47,24.16&#10;313.07,24.22&#10;314.68,24.31&#10;316.28,24.36&#10;317.88,24.39&#10;319.49,24.4&#10;321.09,24.41&#10;322.7,24.41&#10;324.3,24.41&#10;325.9,24.41&#10;327.51,24.41&#10;329.11,24.41&#10;329.11,24.42"/><polyline class="range" points="226.15,25.64&#10;226.15,26.86&#10;232.89,26.86&#10;232.89,25.64"/><polyline class="range" points="250.37,25.64&#10;250.37,26.86&#10;277.31,26.86&#10;277.31,25.64"/><polyline class="range" points="221.66,28.08&#10;221.66,29.3&#10;295.11,29.3&#10;295.11,28.08"/></g><g id="itemarea33" transform="translate(0 299.01)"><polygon class="shadow" points="109.41,24.42&#10;109.41,24.42&#10;111.01,24.42&#10;112.62,24.42&#10;114.22,24.42&#10;115.82,24.42&#10;117.43,24.42&#10;119.03,24.42&#10;120.63,24.42&#10;122.24,24.42&#10;123.84,24.42&#10;125.44,24.42&#10;127.05,24.42&#10;128.65,24.42&#10;130.26,24.42&#10;131.86,24.42&#10;133.46,24.42&#10;135.07,24.42&#10;136.67,24.42&#10;138.27,24.42&#10;139.88,24.42&#10;141.48,24.42&#10;143.08,24.42&#10;144.69,24.42&#10;146.29,24.41&#10;147.9,24.41&#10;149.5,24.41&#10;151.1,24.39&#10;152.71,24.37&#10;154.31,24.35&#10;155.91,24.36&#10;157.52,24.38&#10;159.12,24.39&#10;160.73,24.39&#10;162.33,24.36&#10;163.93,24.32&#10;165.54,24.28&#10;167.14,24.26&#10;168.74,24.19&#10;170.35,23.97&#10;171.95,23.8&#10;173.55,24.02&#10;175.16,24.22&#10;176.76,24.24&#10;178.37,24.16&#10;179.97,24.06&#10;181.57,23.82&#10;183.18,23.13&#10;184.78,22.21&#10;186.38,21.84&#10;187.99,22.04&#10;189.59,22.28&#10;191.19,22.36&#10;192.8,22.21&#10;194.4,22.01&#10;196.01,21.9&#10;197.61,21.73&#10;199.21,21.68&#10;200.82,21.68&#10;202.42,21.77&#10;204.02,22.04&#10;205.63,22.23&#10;207.23,22.1&#10;208.84,21.46&#10;210.44,20.49&#10;212.04,19.55&#10;213.65,19.09&#10;215.25,18.98&#10;216.85,18.84&#10;218.46,18.4&#10;220.06,18.32&#10;221.66,18.77&#10;223.27,19.55&#10;224.87,20.71&#10;226.48,22.31&#10;228.08,23.36&#10;229.68,23.54&#10;231.29,22.96&#10;232.89,21.79&#10;234.49,20.74&#10;236.1,20.06&#10;237.7,19.54&#10;239.3,19.03&#10;240.91,19.12&#10;242.51,19.52&#10;244.12,19.72&#10;245.72,20.08&#10;247.32,20.7&#10;248.93,21.73&#10;250.53,22.04&#10;252.13,22.61&#10;253.74,22.86&#10;255.34,23.34&#10;256.95,23.47&#10;258.55,23.43&#10;260.15,23.67&#10;261.76,23.67&#10;263.36,23.66&#10;264.96,23.85&#10;266.57,23.98&#10;268.17,23.94&#10;269.77,23.97&#10;271.38,23.91&#10;272.98,24.15&#10;274.59,24.29&#10;276.19,24.37&#10;277.79,24.41&#10;279.4,24.42&#10;281,24.42&#10;282.6,24.42&#10;284.21,24.42&#10;285.81,24.42&#10;287.41,24.42&#10;289.02,24.42&#10;290.62,24.42&#10;292.23,24.42&#10;293.83,24.42&#10;295.43,24.42&#10;297.04,24.42&#10;298.64,24.42&#10;300.24,24.42&#10;301.85,24.42&#10;303.45,24.42&#10;305.06,24.42&#10;306.66,24.42&#10;308.26,24.42&#10;309.87,24.42&#10;311.47,24.42&#10;313.07,24.42&#10;314.68,24.42&#10;316.28,24.42&#10;317.88,24.42&#10;319.49,24.42&#10;321.09,24.42&#10;322.7,24.42&#10;322.7,24.42"/><polygon class="main" points="178.37,24.42&#10;178.37,24.42&#10;179.97,24.42&#10;181.57,24.42&#10;183.18,24.42&#10;184.78,24.42&#10;186.38,24.41&#10;187.99,24.4&#10;189.59,24.39&#10;191.19,24.38&#10;192.8,24.36&#10;194.4,24.34&#10;196.01,24.3&#10;197.61,24.26&#10;199.21,24.21&#10;200.82,24.16&#10;202.42,24.11&#10;204.02,24.08&#10;205.63,24.05&#10;207.23,23.94&#10;208.84,23.72&#10;210.44,23.27&#10;212.04,22.77&#10;213.65,22.16&#10;215.25,21.72&#10;216.85,21.13&#10;218.46,20.39&#10;220.06,19.75&#10;221.66,19.48&#10;223.27,19.92&#10;224.87,20.83&#10;226.48,22.21&#10;228.08,23.23&#10;229.68,23.39&#10;231.29,22.78&#10;232.89,21.53&#10;234.49,20.39&#10;236.1,19.59&#10;237.7,18.88&#10;239.3,18.32&#10;240.91,18.33&#10;242.51,18.7&#10;244.12,18.91&#10;245.72,19.38&#10;247.32,20.11&#10;248.93,21.2&#10;250.53,21.7&#10;252.13,22.3&#10;253.74,22.68&#10;255.34,23.13&#10;256.95,23.33&#10;258.55,23.38&#10;260.15,23.55&#10;261.76,23.6&#10;263.36,23.65&#10;264.96,23.8&#10;266.57,23.95&#10;268.17,23.96&#10;269.77,23.98&#10;271.38,23.98&#10;272.98,24.16&#10;274.59,24.31&#10;276.19,24.38&#10;277.79,24.41&#10;279.4,24.42&#10;281,24.42&#10;282.6,24.42&#10;284.21,24.42&#10;284.21,24.42"/><polyline class="range" points="215.89,25.64&#10;215.89,26.86&#10;225.67,26.86&#10;225.67,25.64"/><polyline class="range" points="233.05,25.64&#10;233.05,26.86&#10;249.73,26.86&#10;249.73,25.64"/><polyline class="range" points="207.87,28.08&#10;207.87,29.3&#10;265.44,29.3&#10;265.44,28.08"/></g><g id="itemarea34" transform="translate(0 319.23)"><polygon class="shadow" points="127.05,24.42&#10;127.05,24.42&#10;128.65,24.42&#10;130.26,24.41&#10;131.86,24.41&#10;133.46,24.41&#10;135.07,24.41&#10;136.67,24.41&#10;138.27,24.41&#10;139.88,24.41&#10;141.48,24.42&#10;143.08,24.41&#10;144.69,24.41&#10;146.29,24.41&#10;147.9,24.41&#10;149.5,24.41&#10;151.1,24.41&#10;152.71,24.41&#10;154.31,24.41&#10;155.91,24.41&#10;157.52,24.41&#10;159.12,24.41&#10;160.73,24.41&#10;162.33,24.41&#10;163.93,24.41&#10;165.54,24.41&#10;167.14,24.41&#10;168.74,24.41&#10;170.35,24.4&#10;171.95,24.39&#10;173.55,24.4&#10;175.16,24.41&#10;176.76,24.41&#10;178.37,24.41&#10;179.97,24.4&#10;181.57,24.39&#10;183.18,24.33&#10;184.78,24.19&#10;186.38,24.12&#10;187.99,24.16&#10;189.59,24.2&#10;191.19,24.22&#10;192.8,24.19&#10;194.4,24.15&#10;196.01,24.13&#10;197.61,24.09&#10;199.21,24.08&#10;200.82,24.08&#10;202.42,24.1&#10;204.02,24.16&#10;205.63,24.19&#10;207.23,24.17&#10;208.84,24.03&#10;210.44,23.73&#10;212.04,23.26&#10;213.65,22.91&#10;215.25,22.84&#10;216.85,22.67&#10;218.46,22&#10;220.06,20.85&#10;221.66,19.75&#10;223.27,18.93&#10;224.87,18.37&#10;226.48,18.53&#10;228.08,19.65&#10;229.68,19.97&#10;231.29,19.09&#10;232.89,18.39&#10;234.49,18.37&#10;236.1,18.6&#10;237.7,18.94&#10;239.3,19.42&#10;240.91,19.32&#10;242.51,18.95&#10;244.12,18.78&#10;245.72,18.56&#10;247.32,18.33&#10;248.93,18.31&#10;250.53,18.4&#10;252.13,18.7&#10;253.74,18.92&#10;255.34,19.55&#10;256.95,19.78&#10;258.55,19.69&#10;260.15,20.2&#10;261.76,20.2&#10;263.36,20.19&#10;264.96,20.67&#10;266.57,21.09&#10;268.17,20.98&#10;269.77,21.06&#10;271.38,20.87&#10;272.98,21.84&#10;274.59,22.7&#10;276.19,23.43&#10;277.79,24.04&#10;279.4,24.2&#10;281,24.28&#10;282.6,24.35&#10;284.21,24.39&#10;285.81,24.4&#10;287.41,24.39&#10;289.02,24.39&#10;290.62,24.38&#10;292.23,24.35&#10;293.83,24.32&#10;295.43,24.36&#10;297.04,24.39&#10;298.64,24.4&#10;300.24,24.4&#10;301.85,24.39&#10;303.45,24.36&#10;305.06,24.35&#10;306.66,24.36&#10;308.26,24.36&#10;309.87,24.33&#10;311.47,24.33&#10;313.07,24.35&#10;314.68,24.39&#10;316.28,24.41&#10;317.88,24.41&#10;319.49,24.41&#10;321.09,24.41&#10;322.7,24.41&#10;324.3,24.41&#10;325.9,24.41&#10;327.51,24.41&#10;329.11,24.41&#10;330.71,24.41&#10;332.32,24.41&#10;333.92,24.41&#10;335.52,24.42&#10;337.13,24.42&#10;338.73,24.42&#10;338.73,24.42"/><polygon class="main" points="184.78,24.42&#10;184.78,24.42&#10;186.38,24.41&#10;187.99,24.41&#10;189.59,24.41&#10;191.19,24.41&#10;192.8,24.41&#10;194.4,24.41&#10;196.01,24.4&#10;197.61,24.39&#10;199.21,24.39&#10;200.82,24.38&#10;202.42,24.37&#10;204.02,24.37&#10;205.63,24.37&#10;207.23,24.36&#10;208.84,24.32&#10;210.44,24.2&#10;212.04,23.99&#10;213.65,23.79&#10;215.25,23.57&#10;216.85,23.36&#10;218.46,22.77&#10;220.06,21.77&#10;221.66,20.69&#10;223.27,19.72&#10;224.87,18.99&#10;226.48,18.9&#10;228.08,19.8&#10;229.68,20.06&#10;231.29,19.32&#10;232.89,18.57&#10;234.49,18.42&#10;236.1,18.58&#10;237.7,18.93&#10;239.3,19.3&#10;240.91,19.22&#10;242.51,18.95&#10;244.12,18.65&#10;245.72,18.52&#10;247.32,18.31&#10;248.93,18.36&#10;250.53,18.57&#10;252.13,18.74&#10;253.74,19.09&#10;255.34,19.7&#10;256.95,19.95&#10;258.55,20.06&#10;260.15,20.38&#10;261.76,20.58&#10;263.36,20.64&#10;264.96,21.11&#10;266.57,21.54&#10;268.17,21.49&#10;269.77,21.64&#10;271.38,21.7&#10;272.98,22.45&#10;274.59,23.15&#10;276.19,23.75&#10;277.79,24.15&#10;279.4,24.27&#10;281,24.34&#10;282.6,24.38&#10;284.21,24.4&#10;285.81,24.41&#10;287.41,24.41&#10;289.02,24.4&#10;290.62,24.4&#10;292.23,24.39&#10;293.83,24.39&#10;295.43,24.4&#10;297.04,24.41&#10;298.64,24.41&#10;300.24,24.41&#10;301.85,24.41&#10;303.45,24.4&#10;305.06,24.4&#10;306.66,24.41&#10;308.26,24.41&#10;309.87,24.41&#10;311.47,24.41&#10;313.07,24.41&#10;314.68,24.41&#10;316.28,24.41&#10;317.88,24.42&#10;317.88,24.42"/><polyline class="range" points="222.79,25.64&#10;222.79,26.86&#10;257.59,26.86&#10;257.59,25.64"/><polyline class="range" points="218.62,28.08&#10;218.62,29.3&#10;273.62,29.3&#10;273.62,28.08"/></g><g id="itemarea35" transform="translate(0 339.44)"><polygon class="shadow" points="125.44,24.42&#10;125.44,24.42&#10;127.05,24.42&#10;128.65,24.42&#10;130.26,24.42&#10;131.86,24.42&#10;133.46,24.42&#10;135.07,24.42&#10;136.67,24.42&#10;138.27,24.42&#10;139.88,24.42&#10;141.48,24.42&#10;143.08,24.42&#10;144.69,24.42&#10;146.29,24.42&#10;147.9,24.42&#10;149.5,24.42&#10;151.1,24.42&#10;152.71,24.42&#10;154.31,24.42&#10;155.91,24.42&#10;157.52,24.42&#10;159.12,24.42&#10;160.73,24.42&#10;162.33,24.42&#10;163.93,24.41&#10;165.54,24.41&#10;167.14,24.41&#10;168.74,24.4&#10;170.35,24.36&#10;171.95,24.33&#10;173.55,24.37&#10;175.16,24.4&#10;176.76,24.4&#10;178.37,24.39&#10;179.97,24.38&#10;181.57,24.33&#10;183.18,24.18&#10;184.78,23.88&#10;186.38,23.73&#10;187.99,23.8&#10;189.59,23.9&#10;191.19,23.93&#10;192.8,23.87&#10;194.4,23.79&#10;196.01,23.75&#10;197.61,23.68&#10;199.21,23.65&#10;200.82,23.65&#10;202.42,23.69&#10;204.02,23.8&#10;205.63,23.88&#10;207.23,23.83&#10;208.84,23.55&#10;210.44,23.01&#10;212.04,22.29&#10;213.65,21.8&#10;215.25,21.7&#10;216.85,21.48&#10;218.46,20.67&#10;220.06,19.53&#10;221.66,18.71&#10;223.27,18.36&#10;224.87,18.52&#10;226.48,19.6&#10;228.08,21.1&#10;229.68,21.43&#10;231.29,20.44&#10;232.89,19.17&#10;234.49,18.53&#10;236.1,18.35&#10;237.7,18.36&#10;239.3,18.53&#10;240.91,18.49&#10;242.51,18.37&#10;244.12,18.32&#10;245.72,18.32&#10;247.32,18.47&#10;248.93,19.07&#10;250.53,19.34&#10;252.13,19.92&#10;253.74,20.26&#10;255.34,21.02&#10;256.95,21.26&#10;258.55,21.18&#10;260.15,21.68&#10;261.76,21.68&#10;263.36,21.67&#10;264.96,22.1&#10;266.57,22.46&#10;268.17,22.36&#10;269.77,22.43&#10;271.38,22.28&#10;272.98,23.02&#10;274.59,23.59&#10;276.19,23.99&#10;277.79,24.29&#10;279.4,24.35&#10;281,24.38&#10;282.6,24.4&#10;284.21,24.41&#10;285.81,24.42&#10;287.41,24.41&#10;289.02,24.41&#10;290.62,24.41&#10;292.23,24.4&#10;293.83,24.39&#10;295.43,24.4&#10;297.04,24.42&#10;298.64,24.42&#10;300.24,24.42&#10;301.85,24.41&#10;303.45,24.4&#10;305.06,24.4&#10;306.66,24.41&#10;308.26,24.4&#10;309.87,24.39&#10;311.47,24.39&#10;313.07,24.4&#10;314.68,24.41&#10;316.28,24.42&#10;317.88,24.42&#10;319.49,24.42&#10;321.09,24.42&#10;322.7,24.42&#10;324.3,24.42&#10;325.9,24.42&#10;327.51,24.42&#10;329.11,24.42&#10;330.71,24.42&#10;330.71,24.42"/><polygon class="main" points="183.18,24.42&#10;183.18,24.42&#10;184.78,24.42&#10;186.38,24.42&#10;187.99,24.41&#10;189.59,24.41&#10;191.19,24.41&#10;192.8,24.4&#10;194.4,24.4&#10;196.01,24.39&#10;197.61,24.37&#10;199.21,24.35&#10;200.82,24.33&#10;202.42,24.32&#10;204.02,24.33&#10;205.63,24.32&#10;207.23,24.29&#10;208.84,24.21&#10;210.44,24&#10;212.04,23.69&#10;213.65,23.37&#10;215.25,23.1&#10;216.85,22.74&#10;218.46,22.01&#10;220.06,20.96&#10;221.66,19.96&#10;223.27,19.35&#10;224.87,19.25&#10;226.48,20.05&#10;228.08,21.27&#10;229.68,21.5&#10;231.29,20.68&#10;232.89,19.47&#10;234.49,18.79&#10;236.1,18.49&#10;237.7,18.46&#10;239.3,18.54&#10;240.91,18.54&#10;242.51,18.46&#10;244.12,18.36&#10;245.72,18.32&#10;247.32,18.55&#10;248.93,19.12&#10;250.53,19.48&#10;252.13,20.02&#10;253.74,20.38&#10;255.34,21.11&#10;256.95,21.37&#10;258.55,21.43&#10;260.15,21.82&#10;261.76,21.94&#10;263.36,22.04&#10;264.96,22.41&#10;266.57,22.68&#10;268.17,22.73&#10;269.77,22.8&#10;271.38,22.84&#10;272.98,23.31&#10;274.59,23.8&#10;276.19,24.13&#10;277.79,24.32&#10;279.4,24.37&#10;281,24.4&#10;282.6,24.41&#10;284.21,24.42&#10;285.81,24.42&#10;287.41,24.42&#10;289.02,24.42&#10;290.62,24.42&#10;292.23,24.42&#10;293.83,24.41&#10;295.43,24.41&#10;297.04,24.42&#10;298.64,24.42&#10;300.24,24.42&#10;301.85,24.42&#10;303.45,24.42&#10;305.06,24.42&#10;305.06,24.42"/><polyline class="range" points="220.22,25.64&#10;220.22,26.86&#10;227.6,26.86&#10;227.6,25.64"/><polyline class="range" points="230.97,25.64&#10;230.97,26.86&#10;254.7,26.86&#10;254.7,25.64"/><polyline class="range" points="215.57,28.08&#10;215.57,29.3&#10;272.02,29.3&#10;272.02,28.08"/></g><g id="itemarea36" transform="translate(0 359.66)"><polygon class="main" points="221.66,24.42&#10;221.66,24.42&#10;223.27,24.41&#10;224.87,24.41&#10;226.48,24.41&#10;228.08,24.41&#10;229.68,24.4&#10;231.29,24.39&#10;232.89,24.37&#10;234.49,24.36&#10;236.1,24.34&#10;237.7,24.3&#10;239.3,24.27&#10;240.91,24.23&#10;242.51,24.19&#10;244.12,24.11&#10;245.72,24.05&#10;247.32,23.95&#10;248.93,23.81&#10;250.53,23.69&#10;252.13,23.53&#10;253.74,23.33&#10;255.34,23.16&#10;256.95,22.93&#10;258.55,22.66&#10;260.15,22.43&#10;261.76,22.09&#10;263.36,21.73&#10;264.96,21.38&#10;266.57,21.05&#10;268.17,20.68&#10;269.77,20.31&#10;271.38,19.85&#10;272.98,19.51&#10;274.59,19.05&#10;276.19,18.74&#10;277.79,18.48&#10;279.4,18.41&#10;281,18.31&#10;282.6,18.37&#10;284.21,18.55&#10;285.81,18.68&#10;287.41,18.86&#10;289.02,19.04&#10;290.62,19.18&#10;292.23,19.37&#10;293.83,19.5&#10;295.43,19.49&#10;297.04,19.78&#10;298.64,20&#10;300.24,20.28&#10;301.85,20.48&#10;303.45,20.68&#10;305.06,20.86&#10;306.66,21.04&#10;308.26,21.24&#10;309.87,21.4&#10;311.47,21.56&#10;313.07,21.76&#10;314.68,22.05&#10;316.28,22.32&#10;317.88,22.62&#10;319.49,22.89&#10;321.09,23.15&#10;322.7,23.42&#10;324.3,23.64&#10;325.9,23.83&#10;327.51,23.95&#10;329.11,24.06&#10;330.71,24.16&#10;332.32,24.25&#10;333.92,24.31&#10;335.52,24.35&#10;337.13,24.37&#10;338.73,24.38&#10;340.34,24.38&#10;341.94,24.39&#10;343.54,24.4&#10;345.15,24.41&#10;346.75,24.41&#10;348.35,24.41&#10;349.96,24.41&#10;351.56,24.42&#10;351.56,24.42"/><polyline class="range" points="267.53,25.64&#10;267.53,26.86&#10;304.89,26.86&#10;304.89,25.64"/><polyline class="range" points="252.94,28.08&#10;252.94,29.3&#10;322.7,29.3&#10;322.7,28.08"/></g><g id="itemarea37" transform="translate(0 379.87)"/><g id="itemarea38" transform="translate(0 400.09)"><polygon class="shadow" points="215.25,24.42&#10;215.25,24.42&#10;216.85,24.42&#10;218.46,24.42&#10;220.06,24.41&#10;221.66,24.41&#10;223.27,24.41&#10;224.87,24.41&#10;226.48,24.41&#10;228.08,24.37&#10;229.68,24.36&#10;231.29,24.39&#10;232.89,24.41&#10;234.49,24.41&#10;236.1,24.41&#10;237.7,24.41&#10;239.3,24.41&#10;240.91,24.41&#10;242.51,24.41&#10;244.12,24.41&#10;245.72,24.41&#10;247.32,24.41&#10;248.93,24.41&#10;250.53,24.41&#10;252.13,24.4&#10;253.74,24.4&#10;255.34,24.38&#10;256.95,24.37&#10;258.55,24.37&#10;260.15,24.35&#10;261.76,24.35&#10;263.36,24.35&#10;264.96,24.32&#10;266.57,24.27&#10;268.17,24.29&#10;269.77,24.28&#10;271.38,24.3&#10;272.98,24.16&#10;274.59,23.89&#10;276.19,23.37&#10;277.79,22.08&#10;279.4,21.23&#10;281,20.51&#10;282.6,19.52&#10;284.21,18.75&#10;285.81,18.47&#10;287.41,18.71&#10;289.02,18.77&#10;290.62,18.83&#10;292.23,19.5&#10;293.83,20.01&#10;295.43,19.39&#10;297.04,18.53&#10;298.64,18.37&#10;300.24,18.45&#10;301.85,18.73&#10;303.45,19.42&#10;305.06,19.61&#10;306.66,19.3&#10;308.26,19.37&#10;309.87,19.89&#10;311.47,19.94&#10;313.07,19.47&#10;314.68,18.69&#10;316.28,18.31&#10;317.88,18.65&#10;319.49,19.33&#10;321.09,19.73&#10;322.7,20.03&#10;324.3,20.68&#10;325.9,21.43&#10;327.51,22.02&#10;329.11,22.36&#10;330.71,22.56&#10;332.32,22.76&#10;333.92,23.12&#10;335.52,23.63&#10;337.13,24.11&#10;338.73,24.28&#10;340.34,24.3&#10;341.94,24.26&#10;343.54,24.17&#10;345.15,24.09&#10;346.75,24.15&#10;348.35,24.29&#10;349.96,24.38&#10;351.56,24.41&#10;353.17,24.41&#10;354.77,24.41&#10;356.37,24.41&#10;357.98,24.41&#10;359.58,24.42&#10;361.18,24.42&#10;361.18,24.42"/><polygon class="main" points="250.53,24.42&#10;250.53,24.42&#10;252.13,24.42&#10;253.74,24.42&#10;255.34,24.41&#10;256.95,24.41&#10;258.55,24.41&#10;260.15,24.41&#10;261.76,24.41&#10;263.36,24.41&#10;264.96,24.41&#10;266.57,24.4&#10;268.17,24.4&#10;269.77,24.4&#10;271.38,24.39&#10;272.98,24.37&#10;274.59,24.32&#10;276.19,24.17&#10;277.79,23.87&#10;279.4,23.58&#10;281,23.27&#10;282.6,22.78&#10;284.21,22.41&#10;285.81,22.18&#10;287.41,22.09&#10;289.02,21.93&#10;290.62,21.85&#10;292.23,21.98&#10;293.83,21.98&#10;295.43,21.54&#10;297.04,20.92&#10;298.64,20.61&#10;300.24,20.49&#10;301.85,20.48&#10;303.45,20.78&#10;305.06,20.67&#10;306.66,20.41&#10;308.26,20.3&#10;309.87,20.45&#10;311.47,20.38&#10;313.07,19.71&#10;314.68,18.82&#10;316.28,18.35&#10;317.88,18.31&#10;319.49,18.82&#10;321.09,19.1&#10;322.7,19.43&#10;324.3,19.97&#10;325.9,20.76&#10;327.51,21.41&#10;329.11,21.72&#10;330.71,21.98&#10;332.32,22.26&#10;333.92,22.67&#10;335.52,23.34&#10;337.13,23.95&#10;338.73,24.2&#10;340.34,24.25&#10;341.94,24.18&#10;343.54,24.07&#10;345.15,23.95&#10;346.75,24.04&#10;348.35,24.23&#10;349.96,24.35&#10;351.56,24.4&#10;353.17,24.41&#10;354.77,24.41&#10;356.37,24.41&#10;356.37,24.42"/><polyline class="range" points="296.07,25.64&#10;296.07,26.86&#10;327.35,26.86&#10;327.35,25.64"/><polyline class="range" points="280.84,28.08&#10;280.84,29.3&#10;335.36,29.3&#10;335.36,28.08"/></g><g id="itemarea39" transform="translate(0 420.3)"><polygon class="shadow" points="333.92,24.42&#10;333.92,24.42&#10;335.52,24.42&#10;337.13,24.41&#10;338.73,24.41&#10;340.34,24.41&#10;341.94,24.41&#10;343.54,24.41&#10;345.15,24.41&#10;346.75,24.41&#10;348.35,24.41&#10;349.96,24.41&#10;351.56,24.41&#10;353.17,24.41&#10;354.77,24.4&#10;356.37,24.37&#10;357.98,24.31&#10;359.58,24.22&#10;361.18,24.08&#10;362.79,23.92&#10;364.39,23.74&#10;365.99,23.73&#10;367.6,23.86&#10;369.2,23.46&#10;370.81,22.74&#10;372.41,22.82&#10;374.01,22.82&#10;375.62,23.18&#10;377.22,23.29&#10;378.82,23.26&#10;380.43,23.67&#10;382.03,24.07&#10;383.63,24.18&#10;385.24,24.25&#10;386.84,24.04&#10;388.45,23.98&#10;390.05,24.14&#10;391.65,20.44&#10;393.26,18.31&#10;394.86,18.83&#10;396.46,20.36&#10;398.07,21.14&#10;399.67,20.68&#10;401.28,20.48&#10;402.88,20.55&#10;404.48,20.9&#10;406.09,20.53&#10;407.69,19.79&#10;409.29,19.16&#10;410.9,18.92&#10;412.5,18.79&#10;414.1,18.83&#10;415.71,19&#10;417.31,19.23&#10;418.92,19.41&#10;420.52,19.45&#10;422.12,19.36&#10;423.73,19.06&#10;425.33,18.61&#10;426.93,18.42&#10;428.54,18.95&#10;430.14,20.14&#10;431.74,21.27&#10;433.35,21.88&#10;434.95,21.92&#10;436.56,21.5&#10;438.16,20.8&#10;439.76,20.1&#10;441.37,19.58&#10;442.97,19.41&#10;444.57,19.48&#10;446.18,19.77&#10;447.78,20.22&#10;449.39,20.73&#10;450.99,21.13&#10;452.59,21.16&#10;454.2,20.81&#10;455.8,21.49&#10;457.4,22.51&#10;459.01,22.37&#10;460.61,22.73&#10;462.21,24.08&#10;463.82,24.29&#10;465.42,24.15&#10;467.03,24.04&#10;468.63,24.11&#10;470.23,24.25&#10;471.84,24.37&#10;473.44,24.4&#10;475.04,24.41&#10;476.65,24.41&#10;478.25,24.41&#10;479.85,24.41&#10;481.46,24.41&#10;483.06,24.41&#10;484.67,24.41&#10;486.27,24.41&#10;487.87,24.41&#10;489.48,24.41&#10;491.08,24.41&#10;492.68,24.41&#10;494.29,24.41&#10;495.89,24.41&#10;497.5,24.41&#10;499.1,24.41&#10;500.7,24.41&#10;502.31,24.41&#10;503.91,24.41&#10;505.51,24.41&#10;507.12,24.41&#10;508.72,24.41&#10;510.32,24.41&#10;511.93,24.41&#10;513.53,24.41&#10;515.14,24.41&#10;516.74,24.42&#10;518.34,24.42&#10;519.95,24.42&#10;519.95,24.42"/><polygon class="main" points="346.75,24.42&#10;346.75,24.42&#10;348.35,24.41&#10;349.96,24.41&#10;351.56,24.4&#10;353.17,24.36&#10;354.77,24.22&#10;356.37,23.84&#10;357.98,23.26&#10;359.58,22.48&#10;361.18,21.63&#10;362.79,20.71&#10;364.39,20.11&#10;365.99,20.65&#10;367.6,21.35&#10;369.2,20.07&#10;370.81,18.31&#10;372.41,19.01&#10;374.01,19.68&#10;375.62,21.06&#10;377.22,21.71&#10;378.82,22.12&#10;380.43,23.08&#10;382.03,23.79&#10;383.63,24.06&#10;385.24,24.16&#10;386.84,24.03&#10;388.45,23.99&#10;390.05,23.88&#10;391.65,21.36&#10;393.26,20.13&#10;394.86,20.9&#10;396.46,21.98&#10;398.07,22.64&#10;399.67,22.73&#10;401.28,22.81&#10;402.88,22.98&#10;404.48,23.22&#10;406.09,23.23&#10;407.69,23.13&#10;409.29,23.09&#10;410.9,23.19&#10;412.5,23.26&#10;414.1,23.4&#10;415.71,23.51&#10;417.31,23.6&#10;418.92,23.71&#10;420.52,23.78&#10;422.12,23.85&#10;423.73,23.88&#10;425.33,23.9&#10;426.93,23.92&#10;428.54,23.99&#10;430.14,24.12&#10;431.74,24.2&#10;433.35,24.25&#10;434.95,24.28&#10;436.56,24.28&#10;438.16,24.25&#10;439.76,24.25&#10;441.37,24.24&#10;442.97,24.24&#10;444.57,24.25&#10;446.18,24.29&#10;447.78,24.31&#10;449.39,24.32&#10;450.99,24.34&#10;452.59,24.35&#10;454.2,24.35&#10;455.8,24.36&#10;457.4,24.38&#10;459.01,24.38&#10;460.61,24.4&#10;462.21,24.41&#10;463.82,24.41&#10;465.42,24.41&#10;467.03,24.41&#10;468.63,24.41&#10;470.23,24.41&#10;471.84,24.41&#10;473.44,24.42&#10;475.04,24.41&#10;475.04,24.42"/><polyline class="range" points="359.26,25.64&#10;359.26,26.86&#10;379.63,26.86&#10;379.63,25.64"/><polyline class="range" points="390.85,25.64&#10;390.85,26.86&#10;398.07,26.86&#10;398.07,25.64"/><polyline class="range" points="355.73,28.08&#10;355.73,29.3&#10;383.15,29.3&#10;383.15,28.08"/><polyline class="range" points="388.45,28.08&#10;388.45,29.3&#10;428.7,29.3&#10;428.7,28.08"/></g><g id="itemarea40" transform="translate(0 440.52)"><polygon class="shadow" points="223.27,24.42&#10;223.27,24.42&#10;224.87,24.42&#10;226.48,24.42&#10;228.08,24.41&#10;229.68,24.41&#10;231.29,24.41&#10;232.89,24.42&#10;234.49,24.42&#10;236.1,24.42&#10;237.7,24.42&#10;239.3,24.42&#10;240.91,24.42&#10;242.51,24.42&#10;244.12,24.42&#10;245.72,24.42&#10;247.32,24.42&#10;248.93,24.42&#10;250.53,24.42&#10;252.13,24.41&#10;253.74,24.41&#10;255.34,24.41&#10;256.95,24.41&#10;258.55,24.41&#10;260.15,24.41&#10;261.76,24.41&#10;263.36,24.41&#10;264.96,24.41&#10;266.57,24.41&#10;268.17,24.41&#10;269.77,24.41&#10;271.38,24.41&#10;272.98,24.41&#10;274.59,24.41&#10;276.19,24.41&#10;277.79,24.4&#10;279.4,24.38&#10;281,24.36&#10;282.6,24.3&#10;284.21,24.2&#10;285.81,24.12&#10;287.41,24.19&#10;289.02,24.2&#10;290.62,24.22&#10;292.23,24.3&#10;293.83,24.34&#10;295.43,24.29&#10;297.04,24.14&#10;298.64,24.06&#10;300.24,24.08&#10;301.85,24.18&#10;303.45,24.29&#10;305.06,24.31&#10;306.66,24.28&#10;308.26,24.28&#10;309.87,24.33&#10;311.47,24.33&#10;313.07,24.29&#10;314.68,24.18&#10;316.28,23.91&#10;317.88,23.46&#10;319.49,22.93&#10;321.09,22.64&#10;322.7,22.41&#10;324.3,21.91&#10;325.9,21.26&#10;327.51,20.7&#10;329.11,20.34&#10;330.71,20.12&#10;332.32,19.89&#10;333.92,19.45&#10;335.52,18.81&#10;337.13,18.34&#10;338.73,18.55&#10;340.34,18.63&#10;341.94,18.47&#10;343.54,18.35&#10;345.15,18.35&#10;346.75,18.31&#10;348.35,18.55&#10;349.96,19.47&#10;351.56,20.94&#10;353.17,22.4&#10;354.77,23.39&#10;356.37,23.93&#10;357.98,24.19&#10;359.58,24.3&#10;361.18,24.35&#10;362.79,24.38&#10;364.39,24.39&#10;365.99,24.4&#10;367.6,24.39&#10;369.2,24.4&#10;370.81,24.41&#10;372.41,24.41&#10;374.01,24.41&#10;375.62,24.41&#10;377.22,24.41&#10;378.82,24.41&#10;380.43,24.4&#10;382.03,24.37&#10;383.63,24.34&#10;385.24,24.3&#10;386.84,24.37&#10;388.45,24.38&#10;390.05,24.35&#10;391.65,24.41&#10;393.26,24.42&#10;394.86,24.41&#10;396.46,24.41&#10;398.07,24.41&#10;399.67,24.41&#10;401.28,24.41&#10;402.88,24.41&#10;404.48,24.41&#10;406.09,24.41&#10;407.69,24.41&#10;409.29,24.41&#10;410.9,24.41&#10;412.5,24.41&#10;414.1,24.41&#10;415.71,24.41&#10;417.31,24.41&#10;418.92,24.41&#10;420.52,24.41&#10;422.12,24.41&#10;423.73,24.41&#10;425.33,24.41&#10;426.93,24.42&#10;428.54,24.42&#10;430.14,24.42&#10;430.14,24.42"/><polygon class="main" points="261.76,24.42&#10;261.76,24.42&#10;263.36,24.42&#10;264.96,24.41&#10;266.57,24.41&#10;268.17,24.42&#10;269.77,24.42&#10;271.38,24.41&#10;272.98,24.41&#10;274.59,24.41&#10;276.19,24.41&#10;277.79,24.41&#10;279.4,24.4&#10;281,24.39&#10;282.6,24.36&#10;284.21,24.32&#10;285.81,24.28&#10;287.41,24.29&#10;289.02,24.3&#10;290.62,24.3&#10;292.23,24.35&#10;293.83,24.36&#10;295.43,24.33&#10;297.04,24.23&#10;298.64,24.16&#10;300.24,24.17&#10;301.85,24.23&#10;303.45,24.31&#10;305.06,24.32&#10;306.66,24.3&#10;308.26,24.3&#10;309.87,24.33&#10;311.47,24.33&#10;313.07,24.3&#10;314.68,24.18&#10;316.28,23.94&#10;317.88,23.52&#10;319.49,23.02&#10;321.09,22.71&#10;322.7,22.4&#10;324.3,21.93&#10;325.9,21.32&#10;327.51,20.78&#10;329.11,20.33&#10;330.71,20.13&#10;332.32,19.9&#10;333.92,19.38&#10;335.52,18.72&#10;337.13,18.32&#10;338.73,18.4&#10;340.34,18.58&#10;341.94,18.42&#10;343.54,18.31&#10;345.15,18.34&#10;346.75,18.35&#10;348.35,18.51&#10;349.96,19.5&#10;351.56,20.92&#10;353.17,22.38&#10;354.77,23.35&#10;356.37,23.89&#10;357.98,24.17&#10;359.58,24.3&#10;361.18,24.34&#10;362.79,24.38&#10;364.39,24.39&#10;365.99,24.39&#10;367.6,24.39&#10;369.2,24.4&#10;370.81,24.41&#10;372.41,24.41&#10;374.01,24.41&#10;375.62,24.41&#10;377.22,24.41&#10;378.82,24.41&#10;380.43,24.41&#10;382.03,24.38&#10;383.63,24.37&#10;385.24,24.35&#10;386.84,24.39&#10;388.45,24.39&#10;390.05,24.39&#10;391.65,24.41&#10;393.26,24.42&#10;394.86,24.42&#10;396.46,24.42&#10;398.07,24.42&#10;399.67,24.41&#10;399.67,24.42"/><polyline class="range" points="330.39,25.64&#10;330.39,26.86&#10;350.76,26.86&#10;350.76,25.64"/><polyline class="range" points="317.24,28.08&#10;317.24,29.3&#10;355.89,29.3&#10;355.89,28.08"/></g><g id="itemarea41" transform="translate(0 460.73)"><polygon class="main" points="351.56,24.42&#10;351.56,24.42&#10;353.17,24.41&#10;354.77,24.36&#10;356.37,24.31&#10;357.98,24.08&#10;359.58,23.74&#10;361.18,23.25&#10;362.79,22.54&#10;364.39,21.94&#10;365.99,21.24&#10;367.6,20.79&#10;369.2,20.57&#10;370.81,19.66&#10;372.41,18.75&#10;374.01,18.62&#10;375.62,18.31&#10;377.22,18.45&#10;378.82,18.54&#10;380.43,18.88&#10;382.03,19.24&#10;383.63,19.67&#10;385.24,20.47&#10;386.84,20.74&#10;388.45,21.08&#10;390.05,21.39&#10;391.65,21.47&#10;393.26,20.93&#10;394.86,20.45&#10;396.46,20.57&#10;398.07,20.34&#10;399.67,20.55&#10;401.28,20.42&#10;402.88,20.69&#10;404.48,20.96&#10;406.09,21.1&#10;407.69,21.2&#10;409.29,21.2&#10;410.9,21.34&#10;412.5,21.52&#10;414.1,21.52&#10;415.71,21.65&#10;417.31,21.84&#10;418.92,21.85&#10;420.52,22.1&#10;422.12,22.08&#10;423.73,22.27&#10;425.33,22.33&#10;426.93,22.51&#10;428.54,22.56&#10;430.14,22.71&#10;431.74,22.78&#10;433.35,23.05&#10;434.95,23.09&#10;436.56,23.15&#10;438.16,23.26&#10;439.76,23.32&#10;441.37,23.34&#10;442.97,23.44&#10;444.57,23.42&#10;446.18,23.6&#10;447.78,23.63&#10;449.39,23.69&#10;450.99,23.78&#10;452.59,23.79&#10;454.2,23.86&#10;455.8,23.85&#10;457.4,23.9&#10;459.01,23.93&#10;460.61,23.98&#10;462.21,24.03&#10;463.82,24.03&#10;465.42,24.08&#10;467.03,24.07&#10;468.63,24.14&#10;470.23,24.13&#10;471.84,24.18&#10;473.44,24.2&#10;475.04,24.23&#10;476.65,24.23&#10;478.25,24.25&#10;479.85,24.23&#10;481.46,24.27&#10;483.06,24.28&#10;484.67,24.29&#10;486.27,24.28&#10;487.87,24.31&#10;489.48,24.32&#10;491.08,24.33&#10;492.68,24.33&#10;494.29,24.33&#10;495.89,24.35&#10;497.5,24.35&#10;499.1,24.36&#10;500.7,24.37&#10;502.31,24.37&#10;503.91,24.36&#10;505.51,24.37&#10;507.12,24.38&#10;508.72,24.38&#10;510.32,24.38&#10;511.93,24.38&#10;513.53,24.39&#10;515.14,24.39&#10;516.74,24.39&#10;518.34,24.39&#10;519.95,24.39&#10;521.55,24.4&#10;523.15,24.4&#10;524.76,24.4&#10;526.36,24.4&#10;527.96,24.4&#10;529.57,24.4&#10;531.17,24.4&#10;532.78,24.4&#10;534.38,24.4&#10;535.98,24.41&#10;537.59,24.4&#10;539.19,24.41&#10;540.79,24.41&#10;542.4,24.41&#10;544,24.41&#10;545.61,24.41&#10;547.21,24.41&#10;548.81,24.41&#10;550.42,24.41&#10;552.02,24.41&#10;553.62,24.41&#10;555.23,24.41&#10;556.83,24.41&#10;558.43,24.41&#10;560.04,24.41&#10;561.64,24.41&#10;563.25,24.41&#10;564.85,24.41&#10;566.45,24.41&#10;568.06,24.41&#10;569.66,24.41&#10;571.26,24.41&#10;572.87,24.41&#10;574.47,24.41&#10;576.07,24.41&#10;577.68,24.41&#10;579.28,24.41&#10;580.89,24.41&#10;582.49,24.41&#10;584.09,24.41&#10;585.7,24.41&#10;587.3,24.41&#10;588.9,24.41&#10;590.51,24.41&#10;592.11,24.41&#10;593.72,24.41&#10;595.32,24.41&#10;596.92,24.41&#10;598.53,24.41&#10;600.13,24.41&#10;600.13,24.42"/><polyline class="range" points="365.35,25.64&#10;365.35,26.86&#10;412.5,26.86&#10;412.5,25.64"/><polyline class="range" points="359.1,28.08&#10;359.1,29.3&#10;453.88,29.3&#10;453.88,28.08"/></g></g></g><g id="textarea" transform="translate(14.15 14.15)"><g id="itemarea18" transform="translate(0 -4.2)"><text transform="translate(0 2.33)" style="font-size:5.818181818181818pt" x="12.03" y="24.42">... continued</text></g><g id="itemarea19" transform="translate(0 16.01)"><text transform="translate(0 2.33)" style="font-size:5.818181818181818pt;font-style:italic" x="12.03" y="24.42">Boundary broch 2 constructed</text></g><g id="itemarea20" transform="translate(0 36.23)"><text transform="translate(0 2.33)" style="font-size:5.818181818181818pt" x="12.03" y="24.42">Phase phase 7</text></g><g id="itemarea21" transform="translate(0 56.44)"><text transform="translate(0 2.33)" style="font-size:5.818181818181818pt;font-style:italic" x="16.84" y="24.42">R_Date GU-2351 [A:107]</text></g><g id="itemarea22" transform="translate(0 76.66)"><text transform="translate(0 2.33)" style="font-size:5.818181818181818pt;font-style:italic" x="16.84" y="24.42">R_Date GU-2349 [A:88]</text></g><g id="itemarea23" transform="translate(0 96.87)"><text transform="translate(0 2.33)" style="font-size:5.818181818181818pt;font-style:italic" x="16.84" y="24.42">R_Date GU-1788 [A:106]</text></g><g id="itemarea24" transform="translate(0 117.08)"><text transform="translate(0 2.33)" style="font-size:5.818181818181818pt;font-style:italic" x="16.84" y="24.42">R_Date SUERC-68731 [A:101]</text></g><g id="itemarea25" transform="translate(0 137.3)"><text transform="translate(0 2.33)" style="font-size:5.818181818181818pt" x="16.84" y="24.42">articulated skeleton in NW yard</text></g><g id="itemarea26" transform="translate(0 157.51)"><text transform="translate(0 2.33)" style="font-size:5.818181818181818pt;font-style:italic" x="16.84" y="24.42">R_Date SUERC-25599 [A:105]</text></g><g id="itemarea27" transform="translate(0 177.73)"><text transform="translate(0 2.33)" style="font-size:5.818181818181818pt" x="12.03" y="24.42">Phase phase 7/8</text></g><g id="itemarea28" transform="translate(0 197.94)"><text transform="translate(0 2.33)" style="font-size:5.818181818181818pt;font-style:italic" x="16.84" y="24.42">R_Date GU-2342 [A:119]</text></g><g id="itemarea29" transform="translate(0 218.16)"><text transform="translate(0 2.33)" style="font-size:5.818181818181818pt;font-style:italic" x="16.84" y="24.42">R_Date GU-2345 [A:101]</text></g><g id="itemarea30" transform="translate(0 238.37)"><text transform="translate(0 2.33)" style="font-size:5.818181818181818pt" x="16.84" y="24.42">Sequence</text></g><g id="itemarea31" transform="translate(0 258.59)"><text transform="translate(0 2.33)" style="font-size:5.818181818181818pt" x="21.65" y="24.42">Phase late phase 7</text></g><g id="itemarea32" transform="translate(0 278.8)"><text transform="translate(0 2.33)" style="font-size:5.818181818181818pt;font-style:italic" x="26.46" y="24.42">R_Date GU-1787 [A:107]</text></g><g id="itemarea33" transform="translate(0 299.01)"><text transform="translate(0 2.33)" style="font-size:5.818181818181818pt;font-style:italic" x="26.46" y="24.42">R_Date GU-2344 [A:108]</text></g><g id="itemarea34" transform="translate(0 319.23)"><text transform="translate(0 2.33)" style="font-size:5.818181818181818pt;font-style:italic" x="26.46" y="24.42">R_Date GU-2346 [A:106]</text></g><g id="itemarea35" transform="translate(0 339.44)"><text transform="translate(0 2.33)" style="font-size:5.818181818181818pt;font-style:italic" x="26.46" y="24.42">R_Date GU-2353 [A:108]</text></g><g id="itemarea36" transform="translate(0 359.66)"><text transform="translate(0 2.33)" style="font-size:5.818181818181818pt;font-style:italic" x="21.65" y="24.42">Boundary major broch wall collapse</text></g><g id="itemarea37" transform="translate(0 379.87)"><text transform="translate(0 2.33)" style="font-size:5.818181818181818pt" x="21.65" y="24.42">Phase phase 8</text></g><g id="itemarea38" transform="translate(0 400.09)"><text transform="translate(0 2.33)" style="font-size:5.818181818181818pt;font-style:italic" x="26.46" y="24.42">R_Date GU-1749 [A:97]</text></g><g id="itemarea39" transform="translate(0 420.3)"><text transform="translate(0 2.33)" style="font-size:5.818181818181818pt;font-style:italic" x="26.46" y="24.42">R_Date GU-2347 [A:58]</text></g><g id="itemarea40" transform="translate(0 440.52)"><text transform="translate(0 2.33)" style="font-size:5.818181818181818pt;font-style:italic" x="26.46" y="24.42">R_Date GU-1757 [A:101]</text></g><g id="itemarea41" transform="translate(0 460.73)"><text transform="translate(0 2.33)" style="font-size:5.818181818181818pt;font-style:italic" x="12.03" y="24.42">Boundary end Howe</text></g></g><rect class="border" x="14.15" width="481.1" y="14.15" height="505.36"/><g><line class="gridline" x1="29.1" y1="519.51" x2="29.1" y2="14.15"/><line class="gridline" x1="93.25" y1="519.51" x2="93.25" y2="14.15"/><line class="gridline" x1="157.4" y1="519.51" x2="157.4" y2="14.15"/><line class="gridline" x1="221.54" y1="519.51" x2="221.54" y2="14.15"/><line class="gridline" x1="285.69" y1="519.51" x2="285.69" y2="14.15"/><line class="gridline" x1="349.84" y1="519.51" x2="349.84" y2="14.15"/><line class="gridline" x1="413.98" y1="519.51" x2="413.98" y2="14.15"/><line class="gridline" x1="478.13" y1="519.51" x2="478.13" y2="14.15"/></g><g><line class="majorpip" x1="14.15" y1="519.51" x2="495.25" y2="519.51"/><line class="minorpip" x1="29.1" y1="519.51" x2="29.1" y2="516.68"/><line class="minorpip" x1="45.14" y1="519.51" x2="45.14" y2="516.68"/><line class="minorpip" x1="61.18" y1="519.51" x2="61.18" y2="516.68"/><line class="minorpip" x1="77.21" y1="519.51" x2="77.21" y2="516.68"/><line class="minorpip" x1="93.25" y1="519.51" x2="93.25" y2="516.68"/><line class="minorpip" x1="109.29" y1="519.51" x2="109.29" y2="516.68"/><line class="minorpip" x1="125.32" y1="519.51" x2="125.32" y2="516.68"/><line class="minorpip" x1="141.36" y1="519.51" x2="141.36" y2="516.68"/><line class="minorpip" x1="157.4" y1="519.51" x2="157.4" y2="516.68"/><line class="minorpip" x1="173.43" y1="519.51" x2="173.43" y2="516.68"/><line class="minorpip" x1="189.47" y1="519.51" x2="189.47" y2="516.68"/><line class="minorpip" x1="205.51" y1="519.51" x2="205.51" y2="516.68"/><line class="minorpip" x1="221.54" y1="519.51" x2="221.54" y2="516.68"/><line class="minorpip" x1="237.58" y1="519.51" x2="237.58" y2="516.68"/><line class="minorpip" x1="253.62" y1="519.51" x2="253.62" y2="516.68"/><line class="minorpip" x1="269.65" y1="519.51" x2="269.65" y2="516.68"/><line class="minorpip" x1="285.69" y1="519.51" x2="285.69" y2="516.68"/><line class="minorpip" x1="301.73" y1="519.51" x2="301.73" y2="516.68"/><line class="minorpip" x1="317.76" y1="519.51" x2="317.76" y2="516.68"/><line class="minorpip" x1="333.8" y1="519.51" x2="333.8" y2="516.68"/><line class="minorpip" x1="349.84" y1="519.51" x2="349.84" y2="516.68"/><line class="minorpip" x1="365.87" y1="519.51" x2="365.87" y2="516.68"/><line class="minorpip" x1="381.91" y1="519.51" x2="381.91" y2="516.68"/><line class="minorpip" x1="397.95" y1="519.51" x2="397.95" y2="516.68"/><line class="minorpip" x1="413.98" y1="519.51" x2="413.98" y2="516.68"/><line class="minorpip" x1="430.02" y1="519.51" x2="430.02" y2="516.68"/><line class="minorpip" x1="446.06" y1="519.51" x2="446.06" y2="516.68"/><line class="minorpip" x1="462.09" y1="519.51" x2="462.09" y2="516.68"/><line class="minorpip" x1="478.13" y1="519.51" x2="478.13" y2="516.68"/><line class="minorpip" x1="494.17" y1="519.51" x2="494.17" y2="516.68"/><line class="majorpip" x1="29.1" y1="519.51" x2="29.1" y2="513.85"/><text transform="translate(0 6.75)" style="font-size:5.818181818181818pt;text-anchor:middle" x="29.1" y="519.51">400</text><line class="majorpip" x1="93.25" y1="519.51" x2="93.25" y2="513.85"/><text transform="translate(0 6.75)" style="font-size:5.818181818181818pt;text-anchor:middle" x="93.25" y="519.51">200</text><line class="majorpip" x1="157.4" y1="519.51" x2="157.4" y2="513.85"/><text transform="translate(0 6.75)" style="font-size:5.818181818181818pt;text-anchor:middle" x="157.4" y="519.51">1BC/1AD</text><line class="majorpip" x1="221.54" y1="519.51" x2="221.54" y2="513.85"/><text transform="translate(0 6.75)" style="font-size:5.818181818181818pt;text-anchor:middle" x="221.54" y="519.51">201</text><line class="majorpip" x1="285.69" y1="519.51" x2="285.69" y2="513.85"/><text transform="translate(0 6.75)" style="font-size:5.818181818181818pt;text-anchor:middle" x="285.69" y="519.51">401</text><line class="majorpip" x1="349.84" y1="519.51" x2="349.84" y2="513.85"/><text transform="translate(0 6.75)" style="font-size:5.818181818181818pt;text-anchor:middle" x="349.84" y="519.51">601</text><line class="majorpip" x1="413.98" y1="519.51" x2="413.98" y2="513.85"/><text transform="translate(0 6.75)" style="font-size:5.818181818181818pt;text-anchor:middle" x="413.98" y="519.51">801</text><line class="majorpip" x1="478.13" y1="519.51" x2="478.13" y2="513.85"/><text transform="translate(0 6.75)" style="font-size:5.818181818181818pt;text-anchor:middle" x="478.13" y="519.51">1001</text><text transform="translate(0 2.33)" style="font-size:5.818181818181818pt;text-anchor:middle;font-style:italic" x="254.7" y="547.81">Modelled date (BC/AD)</text></g><g id="references" transform="translate(0 0)"><text transform="translate(0 -0.84)" style="font-size:3.4909090909090907pt" x="14.15" y="14.15">OxCal v4.4.4 Bronk Ramsey (2021); r:5 Atmospheric data from Reimer et al (2020)</text></g></g></g>
</svg>