<?xml version="1.0" encoding="UTF-8"?><svg id="top" version="1.1" xmlns="http://www.w3.org/2000/svg" xmlns:xlink="http://www.w3.org/1999/xlink" xmlns:ev="http://www.w3.org/2001/xml-events" width="509.400pt" height="238.529pt" zoomAndPan="magnify" preserveAspectRatio="xMinYMin" onload="createPlot()" viewBox="0 0 509.400 238.529">
   <defs id="definitions">
   <filter id="Shadow" filterUnits="userSpaceOnUse">
    <feGaussianBlur in="SourceAlpha" stdDeviation="4" result="blur"/>
    <feOffset in="blur" dx="4" dy="4" result="offsetBlurredAlpha"/>
    <feMerge>
     <feMergeNode in="offsetBlurredAlpha"/>
     <feMergeNode in="SourceGraphic"/>
    </feMerge> 
   </filter>    
    <filter id="Correlation1" x="-20%" y="-20%" width="140%" height="140%" filterUnits="objectBoundingBox">
     <feGaussianBlur in="SourceGraphic" stdDeviation="7" result="blur"/>
     <feColorMatrix type="matrix" in="blur" values="0 0 0  5.00 -2.00&#10;               0 0 0 -2.50  2.50&#10;               0 0 0  0.00  0.00&#10;               0 0 0  2.50  0.00"/>
    </filter>    
    <filter id="Correlation2" x="-20%" y="-20%" width="140%" height="140%" filterUnits="objectBoundingBox">
     <feGaussianBlur in="SourceGraphic" stdDeviation="7" result="blur"/>
     <feGaussianBlur in="SourceAlpha" stdDeviation="7" result="opacity"/>
     <feColorMatrix type="matrix" in="blur" result="newcolor" values="0 0 0  5.00 -2.00&#10;               0 0 0 -2.50  2.50&#10;               0 0 0  0.00  0.00&#10;               0 0 0  2.50  0.00"/>
     <feSpecularLighting in="opacity" surfaceScale="5" specularConstant="1" specularExponent="20" lighting-color="white" result="specularOut">
      <feDistantLight azimuth="225" elevation="30"/>
     </feSpecularLighting>
     <feComposite in="newcolor" in2="specularOut" operator="arithmetic" k1="0" k2="1" k3="1" k4="0" result="litPaint"/>
    </filter>
    <pattern id="Sequence" patternUnits="userSpaceOnUse" x="0" y="0" width="5" height="5" viewBox="0 0 5 5">
    </pattern>    
    <pattern id="U_Sequence" patternUnits="userSpaceOnUse" x="0" y="0" width="5" height="5" viewBox="0 0 5 5">
     <line x1="-2.5" x2="5" y1="5" y2="-2.5" style="stroke-width:1.5;stroke:black"/>
     <line x1="0" x2="7.5" y1="7.5" y2="0" style="stroke-width:1.5;stroke:black"/>
    </pattern>    
    <pattern id="D_Sequence" patternUnits="userSpaceOnUse" x="0" y="0" width="5" height="5" viewBox="0 0 5 5">
     <line x1="-2.5" x2="7.5" y1="-2.5" y2="7.5" style="stroke-width:1;stroke:black"/>
     <line x1="-2.5" x2="7.5" y1="7.5" y2="-2.5" style="stroke-width:1;stroke:black"/>
    </pattern>    
    <pattern id="V_Sequence" patternUnits="userSpaceOnUse" x="0" y="0" width="5" height="5" viewBox="0 0 5 5">
     <ellipse cx="2.5" cy="2.5" rx="1.5" ry="0.7" style="fill:black"/>
    </pattern>    
    <pattern id="P_Sequence" patternUnits="userSpaceOnUse" x="0" y="0" width="5" height="5" viewBox="0 0 5 5">
     <circle cx="1.25" cy="3.75" r="1" style="fill:black"/>
     <circle cx="3.75" cy="1.25" r="1" style="fill:black"/>
    </pattern>
    <style type="text/css">
      rect.border { fill:none; stroke:black;stroke-width:1px }
      rect.fillblack { fill:black; stroke:black;stroke-width:1px }
      rect.structure { fill:none; stroke:none }
      rect.structtab { fill:none; stroke:none }
      rect.structclip { fill:white; stroke:none }
      rect.structborder { fill:none; stroke:black; stroke-width:0.5px }
      rect.range3 {fill:none;stroke:black;stroke-width:1px }
      rect.range2 {fill:none;stroke:black;stroke-width:1px }
      rect.range1 {fill:none;stroke:black;stroke-width:1px }
      rect.fillbackground { fill:#000099 }
      rect.fillmodel { fill:none;stroke:black;stroke-width:1px }
      rect.modeldist { fill:none;stroke:black;stroke-width:1px }
      rect.fill { }
      polygon.main { fill:black; stroke:black;stroke-width:0.2px }
      polygon.shadow { fill:none;stroke:black;stroke-width:0.2px }
      polygon.curve { fill:none;stroke:black;stroke-width:1px }
      polygon.normal { fill:none;stroke:black;stroke-width:1px }
      polygon.kdesigma { fill:lightgrey; stroke:grey;stroke-width:0px;fill-opacity:0.2 }
      polygon.modeldist { fill:url(#U_Sequence);stroke:black;stroke-width:1px }
      polyline.datacurve { fill:none; stroke:black;stroke-width:1px }
      polyline.range { fill:none; stroke:black; stroke-width:1px; stroke-linejoin:round }
      polyline.ensemble { fill:none; stroke:black; stroke-width:0.5px;stroke-opacity:0.2 }
      polyline.kdemean { fill:none; stroke:black; stroke-width:1px }
      path.model3 { fill:none;stroke:black;stroke-width:1px }
      path.model2 { fill:none;stroke:black;stroke-width:1px }
      path.model1 { fill:none;stroke:black;stroke-width:1px }
      g.curve { fill:none;stroke:black;stroke-width:1px }
      line.majorpip { stroke:black; stroke-width:1px }
      line.minorpip { stroke:black; stroke-width:0.5px }
      line.gridline { stroke:black; stroke-width:0.5px }
      line.majorpip2 { stroke:white; stroke-width:1px }
      line.minorpip2 { stroke:white; stroke-width:0.5px }
      line.gridline2 { stroke:white; stroke-width:0.5px }
      line.okline { stroke:black; stroke-width:1px }
      line.errorline { stroke:black; stroke-width:1px }
      line.range { stroke:black; stroke-width:1px }
      line.modelline { stroke:black; stroke-width:1px }
      line.constrshadow { stroke:none; stroke-width:2px }
      line.constrok { stroke:black; stroke-width:1px }
      line.constrerror { stroke:black; stroke-width:1px }
      line.curve { stroke:black;stroke-width:1px }
      text { fill:black; stroke:none; font-size:10pt; font-family:"Arial","Helvetica"; font-style:normal }
    </style>
   <clipPath id="clip1"><rect x="0" width="481.1" y="0" height="181.93"/></clipPath><clipPath id="clip2"><rect x="0" width="481.1" y="0" height="181.93"/></clipPath></defs>
    <g id="mainframe"><rect x="-50.94" width="611.28" y="-23.85" height="286.23" style="fill:white" stroke="none"/><g id="mainviewport" transform="translate(0 0)"><rect class="border" x="14.15" width="481.1" y="14.15" height="181.93"/><g id="tabarea" transform="translate(14.15 14.15)"/><g id="plotarea" transform="translate(14.15 14.15)"><g id="structarea" transform="translate(0 0)"><g clip-path="url(#clip1)"><polyline class="range" points="9.62,12.13&#10;4.81,12.13&#10;4.81,109.16&#10;9.62,109.16"/><polyline class="range" points="9.62,113.2&#10;4.81,113.2&#10;4.81,169.8&#10;9.62,169.8"/></g></g><g clip-path="url(#clip2)"><g id="itemarea43" transform="translate(0 -4.2)"/><g id="itemarea44" transform="translate(0 16.01)"><polygon class="main" points="155.79,24.42&#10;155.79,24.42&#10;159,24.41&#10;162.21,24.41&#10;165.41,24.41&#10;168.62,24.41&#10;171.83,24.41&#10;175.04,24.41&#10;178.24,24.41&#10;181.45,24.41&#10;184.66,24.41&#10;187.86,24.41&#10;191.07,24.41&#10;194.28,24.4&#10;197.49,24.39&#10;200.69,24.38&#10;203.9,24.34&#10;207.11,24.27&#10;210.32,24.23&#10;213.52,24.23&#10;216.73,24.24&#10;219.94,24.26&#10;223.15,24.23&#10;226.35,24.11&#10;229.56,23.92&#10;232.77,23.72&#10;235.97,23.57&#10;239.18,23.21&#10;242.39,22.51&#10;245.6,22.06&#10;248.8,22.51&#10;252.01,23.06&#10;255.22,23.19&#10;258.43,22.85&#10;261.63,22.39&#10;264.84,21.47&#10;268.05,19.87&#10;271.26,18.65&#10;274.46,18.31&#10;277.67,18.7&#10;280.88,19.07&#10;284.08,19.37&#10;287.29,19.31&#10;290.5,19.4&#10;293.71,19.48&#10;296.91,19.51&#10;300.12,19.68&#10;303.33,19.99&#10;306.54,20.24&#10;309.74,20.57&#10;312.95,20.9&#10;316.16,20.92&#10;319.37,20.79&#10;322.57,20.82&#10;325.78,21.16&#10;328.99,21.65&#10;332.19,22.12&#10;335.4,22.56&#10;338.61,23.07&#10;341.82,23.58&#10;345.02,23.97&#10;348.23,24.21&#10;351.44,24.32&#10;354.65,24.39&#10;357.85,24.41&#10;361.06,24.41&#10;364.27,24.4&#10;367.48,24.39&#10;370.68,24.39&#10;373.89,24.39&#10;377.1,24.4&#10;380.3,24.4&#10;383.51,24.41&#10;386.72,24.41&#10;389.93,24.41&#10;393.13,24.41&#10;396.34,24.41&#10;396.34,24.42"/><polyline class="range" points="266.12,25.64&#10;266.12,26.86&#10;323.54,26.86&#10;323.54,25.64"/><polyline class="range" points="236.94,28.08&#10;236.94,29.3&#10;341.18,29.3&#10;341.18,28.08"/></g><g id="itemarea45" transform="translate(0 36.23)"><polygon class="main" points="216.73,24.42&#10;216.73,24.42&#10;219.94,24.42&#10;223.15,24.41&#10;226.35,24.41&#10;229.56,24.41&#10;232.77,24.41&#10;235.97,24.41&#10;239.18,24.41&#10;242.39,24.4&#10;245.6,24.39&#10;248.8,24.39&#10;252.01,24.4&#10;255.22,24.4&#10;258.43,24.39&#10;261.63,24.38&#10;264.84,24.33&#10;268.05,24.15&#10;271.26,23.84&#10;274.46,23.55&#10;277.67,23.48&#10;280.88,23.45&#10;284.08,23.4&#10;287.29,23.18&#10;290.5,22.93&#10;293.71,22.73&#10;296.91,22.48&#10;300.12,22.32&#10;303.33,22.19&#10;306.54,22.18&#10;309.74,22.36&#10;312.95,22.51&#10;316.16,22.25&#10;319.37,21.48&#10;322.57,20.17&#10;325.78,18.87&#10;328.99,18.31&#10;332.19,18.47&#10;335.4,18.59&#10;338.61,18.54&#10;341.82,18.68&#10;345.02,19.55&#10;348.23,20.75&#10;351.44,21.9&#10;354.65,23.04&#10;357.85,23.71&#10;361.06,23.88&#10;364.27,23.79&#10;367.48,23.65&#10;370.68,23.67&#10;373.89,23.79&#10;377.1,23.97&#10;380.3,24.09&#10;383.51,24.2&#10;386.72,24.29&#10;389.93,24.34&#10;393.13,24.38&#10;396.34,24.39&#10;399.55,24.41&#10;402.76,24.41&#10;405.96,24.41&#10;409.17,24.41&#10;412.38,24.41&#10;415.59,24.41&#10;415.59,24.42"/><polyline class="range" points="302.05,25.64&#10;302.05,26.86&#10;307.5,26.86&#10;307.5,25.64"/><polyline class="range" points="316.16,25.64&#10;316.16,26.86&#10;352.4,26.86&#10;352.4,25.64"/><polyline class="range" points="271.9,28.08&#10;271.9,29.3&#10;359.46,29.3&#10;359.46,28.08"/><polyline class="range" points="364.27,28.08&#10;364.27,29.3&#10;373.89,29.3&#10;373.89,28.08"/></g><g id="itemarea46" transform="translate(0 56.44)"><polygon class="main" points="261.63,24.42&#10;261.63,24.42&#10;264.84,24.41&#10;268.05,24.41&#10;271.26,24.41&#10;274.46,24.41&#10;277.67,24.4&#10;280.88,24.39&#10;284.08,24.39&#10;287.29,24.37&#10;290.5,24.36&#10;293.71,24.34&#10;296.91,24.31&#10;300.12,24.26&#10;303.33,24.23&#10;306.54,24.19&#10;309.74,24.18&#10;312.95,24.16&#10;316.16,24.08&#10;319.37,23.89&#10;322.57,23.51&#10;325.78,22.92&#10;328.99,22.32&#10;332.19,21.84&#10;335.4,21.25&#10;338.61,20.21&#10;341.82,19.09&#10;345.02,18.47&#10;348.23,18.31&#10;351.44,19.1&#10;354.65,20.66&#10;357.85,22.13&#10;361.06,22.41&#10;364.27,21.7&#10;367.48,20.53&#10;370.68,19.67&#10;373.89,19.29&#10;377.1,19.16&#10;380.3,19.12&#10;383.51,19.36&#10;386.72,19.65&#10;389.93,20.01&#10;393.13,20.49&#10;396.34,21.06&#10;399.55,21.87&#10;402.76,22.38&#10;405.96,22.81&#10;409.17,23.17&#10;412.38,23.55&#10;415.59,23.7&#10;418.79,23.78&#10;422,23.93&#10;425.21,24&#10;428.41,24.07&#10;431.62,24.17&#10;434.83,24.24&#10;438.04,24.28&#10;441.24,24.31&#10;444.45,24.34&#10;447.66,24.38&#10;450.87,24.4&#10;454.07,24.41&#10;457.28,24.41&#10;460.49,24.41&#10;463.7,24.42&#10;466.9,24.42&#10;470.11,24.42&#10;473.32,24.42&#10;476.52,24.42&#10;479.73,24.42&#10;482.94,24.42&#10;486.15,24.41&#10;489.35,24.42&#10;492.56,24.42&#10;495.77,24.42&#10;498.98,24.42&#10;502.18,24.42&#10;505.39,24.42&#10;508.6,24.42&#10;511.81,24.41&#10;515.01,24.42&#10;518.22,24.42&#10;521.43,24.42&#10;521.43,24.42"/><polyline class="range" points="336.04,25.64&#10;336.04,26.86&#10;355.29,26.86&#10;355.29,25.64"/><polyline class="range" points="366.19,25.64&#10;366.19,26.86&#10;396.02,26.86&#10;396.02,25.64"/><polyline class="range" points="320.33,28.08&#10;320.33,29.3&#10;418.15,29.3&#10;418.15,28.08"/></g><g id="itemarea47" transform="translate(0 76.66)"><polygon class="main" points="300.12,24.42&#10;300.12,24.42&#10;303.33,24.41&#10;306.54,24.41&#10;309.74,24.41&#10;312.95,24.41&#10;316.16,24.41&#10;319.37,24.41&#10;322.57,24.4&#10;325.78,24.39&#10;328.99,24.35&#10;332.19,24.33&#10;335.4,24.28&#10;338.61,24.14&#10;341.82,23.92&#10;345.02,23.6&#10;348.23,23.2&#10;351.44,22.78&#10;354.65,22.58&#10;357.85,22.82&#10;361.06,22.83&#10;364.27,22.4&#10;367.48,21.94&#10;370.68,21.7&#10;373.89,21.52&#10;377.1,21.34&#10;380.3,21.19&#10;383.51,20.97&#10;386.72,20.3&#10;389.93,19.84&#10;393.13,19.28&#10;396.34,18.67&#10;399.55,18.54&#10;402.76,18.31&#10;405.96,18.46&#10;409.17,18.59&#10;412.38,19.02&#10;415.59,19.18&#10;418.79,19&#10;422,19.38&#10;425.21,19.43&#10;428.41,19.35&#10;431.62,19.85&#10;434.83,20.22&#10;438.04,20.17&#10;441.24,20.11&#10;444.45,20.17&#10;447.66,21.16&#10;450.87,22.16&#10;454.07,23.16&#10;457.28,23.9&#10;460.49,24.13&#10;463.7,24.26&#10;466.9,24.33&#10;470.11,24.38&#10;473.32,24.39&#10;476.52,24.38&#10;479.73,24.38&#10;482.94,24.38&#10;486.15,24.34&#10;489.35,24.31&#10;492.56,24.35&#10;495.77,24.38&#10;498.98,24.4&#10;502.18,24.39&#10;505.39,24.38&#10;508.6,24.34&#10;511.81,24.33&#10;515.01,24.35&#10;518.22,24.33&#10;521.43,24.31&#10;524.63,24.3&#10;527.84,24.34&#10;531.05,24.38&#10;534.26,24.4&#10;537.46,24.41&#10;540.67,24.41&#10;543.88,24.41&#10;547.09,24.41&#10;550.29,24.41&#10;553.5,24.41&#10;556.71,24.41&#10;559.92,24.42&#10;559.92,24.42"/><polyline class="range" points="386.72,25.64&#10;386.72,26.86&#10;444.77,26.86&#10;444.77,25.64"/><polyline class="range" points="348.55,28.08&#10;348.55,29.3&#10;454.07,29.3&#10;454.07,28.08"/></g><g id="itemarea48" transform="translate(0 96.87)"/><g id="itemarea49" transform="translate(0 117.09)"><polygon class="shadow" points="-65.51,24.42&#10;-65.51,24.42&#10;-62.31,24.42&#10;-59.1,24.41&#10;-55.89,24.41&#10;-52.69,24.41&#10;-49.48,24.41&#10;-46.27,24.41&#10;-43.06,24.41&#10;-39.86,24.41&#10;-36.65,24.41&#10;-33.44,24.41&#10;-30.23,24.4&#10;-27.03,24.39&#10;-23.82,24.38&#10;-20.61,24.39&#10;-17.4,24.4&#10;-14.2,24.41&#10;-10.99,24.41&#10;-7.78,24.41&#10;-4.58,24.41&#10;-1.37,24.41&#10;1.84,24.41&#10;5.05,24.41&#10;8.25,24.41&#10;11.46,24.41&#10;14.67,24.41&#10;17.88,24.41&#10;21.08,24.41&#10;24.29,24.41&#10;27.5,24.41&#10;30.71,24.41&#10;33.91,24.41&#10;37.12,24.41&#10;40.33,24.41&#10;43.53,24.41&#10;46.74,24.41&#10;49.95,24.41&#10;53.16,24.41&#10;56.36,24.41&#10;59.57,24.4&#10;62.78,24.38&#10;65.99,24.36&#10;69.19,24.37&#10;72.4,24.38&#10;75.61,24.37&#10;78.82,24.31&#10;82.02,24.24&#10;85.23,24.18&#10;88.44,24.15&#10;91.64,24.07&#10;94.85,23.95&#10;98.06,23.94&#10;101.27,24.01&#10;104.47,24.07&#10;107.68,24.1&#10;110.89,24.07&#10;114.1,24.04&#10;117.3,24&#10;120.51,23.94&#10;123.72,23.81&#10;126.93,23.61&#10;130.13,23.3&#10;133.34,23.08&#10;136.55,23.18&#10;139.75,23.41&#10;142.96,23.65&#10;146.17,23.83&#10;149.38,23.86&#10;152.58,23.58&#10;155.79,22.89&#10;159,21.88&#10;162.21,20.73&#10;165.41,19.77&#10;168.62,19.36&#10;171.83,19.34&#10;175.04,19.26&#10;178.24,19.44&#10;181.45,20.39&#10;184.66,21.13&#10;187.86,20.75&#10;191.07,19.66&#10;194.28,19.07&#10;197.49,18.89&#10;200.69,18.65&#10;203.9,18.36&#10;207.11,18.33&#10;210.32,18.36&#10;213.52,18.33&#10;216.73,18.31&#10;219.94,18.34&#10;223.15,18.34&#10;226.35,18.33&#10;229.56,18.52&#10;232.77,18.74&#10;235.97,18.81&#10;239.18,19.14&#10;242.39,19.99&#10;245.6,20.51&#10;248.8,19.83&#10;252.01,19.03&#10;255.22,18.91&#10;258.43,19.28&#10;261.63,19.68&#10;264.84,20.44&#10;268.05,21.79&#10;271.26,22.75&#10;274.46,23.02&#10;277.67,22.86&#10;280.88,22.67&#10;284.08,22.6&#10;287.29,22.73&#10;290.5,22.88&#10;293.71,22.96&#10;296.91,23.07&#10;300.12,23.1&#10;303.33,23.1&#10;306.54,23.05&#10;309.74,22.86&#10;312.95,22.71&#10;316.16,22.82&#10;319.37,23.23&#10;322.57,23.68&#10;325.78,23.98&#10;328.99,24.11&#10;332.19,24.14&#10;335.4,24.17&#10;338.61,24.28&#10;341.82,24.36&#10;345.02,24.39&#10;348.23,24.41&#10;351.44,24.41&#10;354.65,24.41&#10;357.85,24.41&#10;361.06,24.41&#10;364.27,24.41&#10;367.48,24.41&#10;370.68,24.41&#10;373.89,24.41&#10;377.1,24.41&#10;380.3,24.4&#10;383.51,24.4&#10;386.72,24.41&#10;389.93,24.41&#10;393.13,24.41&#10;396.34,24.41&#10;399.55,24.41&#10;402.76,24.41&#10;405.96,24.41&#10;409.17,24.41&#10;412.38,24.41&#10;415.59,24.41&#10;418.79,24.41&#10;422,24.41&#10;425.21,24.41&#10;428.41,24.41&#10;431.62,24.41&#10;434.83,24.41&#10;438.04,24.41&#10;441.24,24.41&#10;444.45,24.41&#10;447.66,24.41&#10;450.87,24.42&#10;454.07,24.42&#10;454.07,24.42"/><polygon class="main" points="-43.06,24.42&#10;-43.06,24.42&#10;-39.86,24.42&#10;-36.65,24.41&#10;-33.44,24.41&#10;-30.23,24.4&#10;-27.03,24.39&#10;-23.82,24.39&#10;-20.61,24.39&#10;-17.4,24.4&#10;-14.2,24.41&#10;-10.99,24.41&#10;-7.78,24.41&#10;-4.58,24.41&#10;-1.37,24.41&#10;1.84,24.41&#10;5.05,24.42&#10;8.25,24.41&#10;11.46,24.41&#10;14.67,24.41&#10;17.88,24.42&#10;21.08,24.41&#10;24.29,24.41&#10;27.5,24.42&#10;30.71,24.41&#10;33.91,24.42&#10;37.12,24.42&#10;40.33,24.41&#10;43.53,24.41&#10;46.74,24.41&#10;49.95,24.41&#10;53.16,24.41&#10;56.36,24.41&#10;59.57,24.4&#10;62.78,24.38&#10;65.99,24.37&#10;69.19,24.38&#10;72.4,24.39&#10;75.61,24.37&#10;78.82,24.31&#10;82.02,24.24&#10;85.23,24.2&#10;88.44,24.12&#10;91.64,24.07&#10;94.85,23.99&#10;98.06,23.94&#10;101.27,24.02&#10;104.47,24.09&#10;107.68,24.08&#10;110.89,24.08&#10;114.1,24.04&#10;117.3,23.99&#10;120.51,23.94&#10;123.72,23.84&#10;126.93,23.62&#10;130.13,23.31&#10;133.34,23.14&#10;136.55,23.18&#10;139.75,23.38&#10;142.96,23.69&#10;146.17,23.8&#10;149.38,23.85&#10;152.58,23.53&#10;155.79,22.92&#10;159,21.97&#10;162.21,20.78&#10;165.41,19.93&#10;168.62,19.65&#10;171.83,19.49&#10;175.04,19.35&#10;178.24,19.43&#10;181.45,20.38&#10;184.66,21.01&#10;187.86,20.73&#10;191.07,19.86&#10;194.28,19.1&#10;197.49,19.03&#10;200.69,18.7&#10;203.9,18.36&#10;207.11,18.42&#10;210.32,18.54&#10;213.52,18.31&#10;216.73,18.49&#10;219.94,18.53&#10;223.15,18.44&#10;226.35,18.48&#10;229.56,18.57&#10;232.77,18.67&#10;235.97,18.9&#10;239.18,19.39&#10;242.39,20.07&#10;245.6,20.47&#10;248.8,19.77&#10;252.01,19.08&#10;255.22,19.16&#10;258.43,19.25&#10;261.63,19.74&#10;264.84,20.59&#10;268.05,21.86&#10;271.26,22.67&#10;274.46,23.05&#10;277.67,22.85&#10;280.88,22.7&#10;284.08,22.69&#10;287.29,22.76&#10;290.5,22.9&#10;293.71,22.97&#10;296.91,23.03&#10;300.12,23.11&#10;303.33,23.12&#10;306.54,23.04&#10;309.74,22.91&#10;312.95,22.76&#10;316.16,22.91&#10;319.37,23.3&#10;322.57,23.67&#10;325.78,24.01&#10;328.99,24.11&#10;332.19,24.17&#10;335.4,24.2&#10;338.61,24.3&#10;341.82,24.37&#10;345.02,24.4&#10;348.23,24.41&#10;351.44,24.41&#10;354.65,24.41&#10;357.85,24.42&#10;361.06,24.42&#10;364.27,24.42&#10;367.48,24.41&#10;370.68,24.41&#10;373.89,24.41&#10;377.1,24.41&#10;380.3,24.41&#10;383.51,24.41&#10;386.72,24.41&#10;386.72,24.42"/><polyline class="range" points="163.81,25.64&#10;163.81,26.86&#10;181.45,26.86&#10;181.45,25.64"/><polyline class="range" points="189.15,25.64&#10;189.15,26.86&#10;264.2,26.86&#10;264.2,25.64"/><polyline class="range" points="126.6,28.08&#10;126.6,29.3&#10;142.64,29.3&#10;142.64,28.08"/><polyline class="range" points="151.3,28.08&#10;151.3,29.3&#10;322.25,29.3&#10;322.25,28.08"/></g><g id="itemarea50" transform="translate(0 137.3)"><polygon class="main" points="261.63,24.42&#10;261.63,24.42&#10;264.84,24.41&#10;268.05,24.41&#10;271.26,24.41&#10;274.46,24.41&#10;277.67,24.4&#10;280.88,24.39&#10;284.08,24.39&#10;287.29,24.37&#10;290.5,24.36&#10;293.71,24.34&#10;296.91,24.31&#10;300.12,24.26&#10;303.33,24.23&#10;306.54,24.19&#10;309.74,24.18&#10;312.95,24.16&#10;316.16,24.08&#10;319.37,23.89&#10;322.57,23.51&#10;325.78,22.92&#10;328.99,22.32&#10;332.19,21.84&#10;335.4,21.25&#10;338.61,20.21&#10;341.82,19.09&#10;345.02,18.47&#10;348.23,18.31&#10;351.44,19.1&#10;354.65,20.66&#10;357.85,22.13&#10;361.06,22.41&#10;364.27,21.7&#10;367.48,20.53&#10;370.68,19.67&#10;373.89,19.29&#10;377.1,19.16&#10;380.3,19.12&#10;383.51,19.36&#10;386.72,19.65&#10;389.93,20.01&#10;393.13,20.49&#10;396.34,21.06&#10;399.55,21.87&#10;402.76,22.38&#10;405.96,22.81&#10;409.17,23.17&#10;412.38,23.55&#10;415.59,23.7&#10;418.79,23.78&#10;422,23.93&#10;425.21,24&#10;428.41,24.07&#10;431.62,24.17&#10;434.83,24.24&#10;438.04,24.28&#10;441.24,24.31&#10;444.45,24.34&#10;447.66,24.38&#10;450.87,24.4&#10;454.07,24.41&#10;457.28,24.41&#10;460.49,24.41&#10;463.7,24.42&#10;466.9,24.42&#10;470.11,24.42&#10;473.32,24.42&#10;476.52,24.42&#10;479.73,24.42&#10;482.94,24.42&#10;486.15,24.41&#10;489.35,24.42&#10;492.56,24.42&#10;495.77,24.42&#10;498.98,24.42&#10;502.18,24.42&#10;505.39,24.42&#10;508.6,24.42&#10;511.81,24.41&#10;515.01,24.42&#10;518.22,24.42&#10;521.43,24.42&#10;521.43,24.42"/><polyline class="range" points="336.04,25.64&#10;336.04,26.86&#10;355.29,26.86&#10;355.29,25.64"/><polyline class="range" points="366.19,25.64&#10;366.19,26.86&#10;396.02,26.86&#10;396.02,25.64"/><polyline class="range" points="320.33,28.08&#10;320.33,29.3&#10;418.15,29.3&#10;418.15,28.08"/></g></g></g><g id="textarea" transform="translate(14.15 14.15)"><g id="itemarea43" transform="translate(0 -4.2)"><text transform="translate(0 2.33)" style="font-size:5.818181818181818pt" x="7.22" y="24.42">Sequence stratified broch 2 floor deposits [Amodel:98]</text></g><g id="itemarea44" transform="translate(0 16.01)"><text transform="translate(0 2.33)" style="font-size:5.818181818181818pt;font-style:italic" x="12.03" y="24.42">=GU-2351</text></g><g id="itemarea45" transform="translate(0 36.23)"><text transform="translate(0 2.33)" style="font-size:5.818181818181818pt;font-style:italic" x="12.03" y="24.42">=GU-2349</text></g><g id="itemarea46" transform="translate(0 56.44)"><text transform="translate(0 2.33)" style="font-size:5.818181818181818pt;font-style:italic" x="12.03" y="24.42">=GU-2342</text></g><g id="itemarea47" transform="translate(0 76.66)"><text transform="translate(0 2.33)" style="font-size:5.818181818181818pt;font-style:italic" x="12.03" y="24.42">=GU-2345</text></g><g id="itemarea48" transform="translate(0 96.87)"><text transform="translate(0 2.33)" style="font-size:5.818181818181818pt" x="7.22" y="24.42">Sequence GU-1786 is from a roof timber, so treat as residual [Amodel:98]</text></g><g id="itemarea49" transform="translate(0 117.09)"><text transform="translate(0 2.33)" style="font-size:5.818181818181818pt;font-style:italic" x="12.03" y="24.42">R_Date GU-1786 [A:100]</text></g><g id="itemarea50" transform="translate(0 137.3)"><text transform="translate(0 2.33)" style="font-size:5.818181818181818pt;font-style:italic" x="12.03" y="24.42">=GU-2342</text></g></g><rect class="border" x="14.15" width="481.1" y="14.15" height="181.93"/><g><line class="gridline" x1="74.04" y1="196.08" x2="74.04" y2="14.15"/><line class="gridline" x1="138.19" y1="196.08" x2="138.19" y2="14.15"/><line class="gridline" x1="202.34" y1="196.08" x2="202.34" y2="14.15"/><line class="gridline" x1="266.48" y1="196.08" x2="266.48" y2="14.15"/><line class="gridline" x1="330.63" y1="196.08" x2="330.63" y2="14.15"/><line class="gridline" x1="394.78" y1="196.08" x2="394.78" y2="14.15"/><line class="gridline" x1="458.92" y1="196.08" x2="458.92" y2="14.15"/></g><g><line class="majorpip" x1="14.15" y1="196.08" x2="495.25" y2="196.08"/><line class="minorpip" x1="22.72" y1="196.08" x2="22.72" y2="193.25"/><line class="minorpip" x1="35.55" y1="196.08" x2="35.55" y2="193.25"/><line class="minorpip" x1="48.38" y1="196.08" x2="48.38" y2="193.25"/><line class="minorpip" x1="61.21" y1="196.08" x2="61.21" y2="193.25"/><line class="minorpip" x1="74.04" y1="196.08" x2="74.04" y2="193.25"/><line class="minorpip" x1="86.87" y1="196.08" x2="86.87" y2="193.25"/><line class="minorpip" x1="99.7" y1="196.08" x2="99.7" y2="193.25"/><line class="minorpip" x1="112.53" y1="196.08" x2="112.53" y2="193.25"/><line class="minorpip" x1="125.36" y1="196.08" x2="125.36" y2="193.25"/><line class="minorpip" x1="138.19" y1="196.08" x2="138.19" y2="193.25"/><line class="minorpip" x1="151.02" y1="196.08" x2="151.02" y2="193.25"/><line class="minorpip" x1="163.85" y1="196.08" x2="163.85" y2="193.25"/><line class="minorpip" x1="176.68" y1="196.08" x2="176.68" y2="193.25"/><line class="minorpip" x1="189.51" y1="196.08" x2="189.51" y2="193.25"/><line class="minorpip" x1="202.34" y1="196.08" x2="202.34" y2="193.25"/><line class="minorpip" x1="215.16" y1="196.08" x2="215.16" y2="193.25"/><line class="minorpip" x1="227.99" y1="196.08" x2="227.99" y2="193.25"/><line class="minorpip" x1="240.82" y1="196.08" x2="240.82" y2="193.25"/><line class="minorpip" x1="253.65" y1="196.08" x2="253.65" y2="193.25"/><line class="minorpip" x1="266.48" y1="196.08" x2="266.48" y2="193.25"/><line class="minorpip" x1="279.31" y1="196.08" x2="279.31" y2="193.25"/><line class="minorpip" x1="292.14" y1="196.08" x2="292.14" y2="193.25"/><line class="minorpip" x1="304.97" y1="196.08" x2="304.97" y2="193.25"/><line class="minorpip" x1="317.8" y1="196.08" x2="317.8" y2="193.25"/><line class="minorpip" x1="330.63" y1="196.08" x2="330.63" y2="193.25"/><line class="minorpip" x1="343.46" y1="196.08" x2="343.46" y2="193.25"/><line class="minorpip" x1="356.29" y1="196.08" x2="356.29" y2="193.25"/><line class="minorpip" x1="369.12" y1="196.08" x2="369.12" y2="193.25"/><line class="minorpip" x1="381.95" y1="196.08" x2="381.95" y2="193.25"/><line class="minorpip" x1="394.78" y1="196.08" x2="394.78" y2="193.25"/><line class="minorpip" x1="407.6" y1="196.08" x2="407.6" y2="193.25"/><line class="minorpip" x1="420.43" y1="196.08" x2="420.43" y2="193.25"/><line class="minorpip" x1="433.26" y1="196.08" x2="433.26" y2="193.25"/><line class="minorpip" x1="446.09" y1="196.08" x2="446.09" y2="193.25"/><line class="minorpip" x1="458.92" y1="196.08" x2="458.92" y2="193.25"/><line class="minorpip" x1="471.75" y1="196.08" x2="471.75" y2="193.25"/><line class="minorpip" x1="484.58" y1="196.08" x2="484.58" y2="193.25"/><line class="majorpip" x1="74.04" y1="196.08" x2="74.04" y2="190.42"/><text transform="translate(0 6.75)" style="font-size:5.818181818181818pt;text-anchor:middle" x="74.04" y="196.08">200</text><line class="majorpip" x1="138.19" y1="196.08" x2="138.19" y2="190.42"/><text transform="translate(0 6.75)" style="font-size:5.818181818181818pt;text-anchor:middle" x="138.19" y="196.08">100</text><line class="majorpip" x1="202.34" y1="196.08" x2="202.34" y2="190.42"/><text transform="translate(0 6.75)" style="font-size:5.818181818181818pt;text-anchor:middle" x="202.34" y="196.08">1BC/1AD</text><line class="majorpip" x1="266.48" y1="196.08" x2="266.48" y2="190.42"/><text transform="translate(0 6.75)" style="font-size:5.818181818181818pt;text-anchor:middle" x="266.48" y="196.08">101</text><line class="majorpip" x1="330.63" y1="196.08" x2="330.63" y2="190.42"/><text transform="translate(0 6.75)" style="font-size:5.818181818181818pt;text-anchor:middle" x="330.63" y="196.08">201</text><line class="majorpip" x1="394.78" y1="196.08" x2="394.78" y2="190.42"/><text transform="translate(0 6.75)" style="font-size:5.818181818181818pt;text-anchor:middle" x="394.78" y="196.08">301</text><line class="majorpip" x1="458.92" y1="196.08" x2="458.92" y2="190.42"/><text transform="translate(0 6.75)" style="font-size:5.818181818181818pt;text-anchor:middle" x="458.92" y="196.08">401</text><text transform="translate(0 2.33)" style="font-size:5.818181818181818pt;text-anchor:middle;font-style:italic" x="254.7" y="224.38">Modelled date (BC/AD)</text></g><g id="references" transform="translate(0 0)"><text transform="translate(0 -0.84)" style="font-size:3.4909090909090907pt" x="14.15" y="14.15">OxCal v4.4.4 Bronk Ramsey (2021); r:5 Atmospheric data from Reimer et al (2020)</text></g></g></g>
</svg>