<?xml version="1.0" encoding="UTF-8"?><svg id="top" version="1.1" xmlns="http://www.w3.org/2000/svg" xmlns:xlink="http://www.w3.org/1999/xlink" xmlns:ev="http://www.w3.org/2001/xml-events" width="509.400pt" height="400.243pt" zoomAndPan="magnify" preserveAspectRatio="xMinYMin" onload="createPlot()" viewBox="0 0 509.400 400.243">
   <defs id="definitions">
   <filter id="Shadow" filterUnits="userSpaceOnUse">
    <feGaussianBlur in="SourceAlpha" stdDeviation="4" result="blur"/>
    <feOffset in="blur" dx="4" dy="4" result="offsetBlurredAlpha"/>
    <feMerge>
     <feMergeNode in="offsetBlurredAlpha"/>
     <feMergeNode in="SourceGraphic"/>
    </feMerge> 
   </filter>    
    <filter id="Correlation1" x="-20%" y="-20%" width="140%" height="140%" filterUnits="objectBoundingBox">
     <feGaussianBlur in="SourceGraphic" stdDeviation="7" result="blur"/>
     <feColorMatrix type="matrix" in="blur" values="0 0 0  5.00 -2.00&#10;               0 0 0 -2.50  2.50&#10;               0 0 0  0.00  0.00&#10;               0 0 0  2.50  0.00"/>
    </filter>    
    <filter id="Correlation2" x="-20%" y="-20%" width="140%" height="140%" filterUnits="objectBoundingBox">
     <feGaussianBlur in="SourceGraphic" stdDeviation="7" result="blur"/>
     <feGaussianBlur in="SourceAlpha" stdDeviation="7" result="opacity"/>
     <feColorMatrix type="matrix" in="blur" result="newcolor" values="0 0 0  5.00 -2.00&#10;               0 0 0 -2.50  2.50&#10;               0 0 0  0.00  0.00&#10;               0 0 0  2.50  0.00"/>
     <feSpecularLighting in="opacity" surfaceScale="5" specularConstant="1" specularExponent="20" lighting-color="white" result="specularOut">
      <feDistantLight azimuth="225" elevation="30"/>
     </feSpecularLighting>
     <feComposite in="newcolor" in2="specularOut" operator="arithmetic" k1="0" k2="1" k3="1" k4="0" result="litPaint"/>
    </filter>
    <pattern id="Sequence" patternUnits="userSpaceOnUse" x="0" y="0" width="5" height="5" viewBox="0 0 5 5">
    </pattern>    
    <pattern id="U_Sequence" patternUnits="userSpaceOnUse" x="0" y="0" width="5" height="5" viewBox="0 0 5 5">
     <line x1="-2.5" x2="5" y1="5" y2="-2.5" style="stroke-width:1.5;stroke:black"/>
     <line x1="0" x2="7.5" y1="7.5" y2="0" style="stroke-width:1.5;stroke:black"/>
    </pattern>    
    <pattern id="D_Sequence" patternUnits="userSpaceOnUse" x="0" y="0" width="5" height="5" viewBox="0 0 5 5">
     <line x1="-2.5" x2="7.5" y1="-2.5" y2="7.5" style="stroke-width:1;stroke:black"/>
     <line x1="-2.5" x2="7.5" y1="7.5" y2="-2.5" style="stroke-width:1;stroke:black"/>
    </pattern>    
    <pattern id="V_Sequence" patternUnits="userSpaceOnUse" x="0" y="0" width="5" height="5" viewBox="0 0 5 5">
     <ellipse cx="2.5" cy="2.5" rx="1.5" ry="0.7" style="fill:black"/>
    </pattern>    
    <pattern id="P_Sequence" patternUnits="userSpaceOnUse" x="0" y="0" width="5" height="5" viewBox="0 0 5 5">
     <circle cx="1.25" cy="3.75" r="1" style="fill:black"/>
     <circle cx="3.75" cy="1.25" r="1" style="fill:black"/>
    </pattern>
    <style type="text/css">
      rect.border { fill:none; stroke:black;stroke-width:1px }
      rect.fillblack { fill:black; stroke:black;stroke-width:1px }
      rect.structure { fill:none; stroke:none }
      rect.structtab { fill:none; stroke:none }
      rect.structclip { fill:white; stroke:none }
      rect.structborder { fill:none; stroke:black; stroke-width:0.5px }
      rect.range3 {fill:none;stroke:black;stroke-width:1px }
      rect.range2 {fill:none;stroke:black;stroke-width:1px }
      rect.range1 {fill:none;stroke:black;stroke-width:1px }
      rect.fillbackground { fill:#000099 }
      rect.fillmodel { fill:none;stroke:black;stroke-width:1px }
      rect.modeldist { fill:none;stroke:black;stroke-width:1px }
      rect.fill { }
      polygon.main { fill:black; stroke:black;stroke-width:0.2px }
      polygon.shadow { fill:none;stroke:black;stroke-width:0.2px }
      polygon.curve { fill:none;stroke:black;stroke-width:1px }
      polygon.normal { fill:none;stroke:black;stroke-width:1px }
      polygon.kdesigma { fill:lightgrey; stroke:grey;stroke-width:0px;fill-opacity:0.2 }
      polygon.modeldist { fill:url(#U_Sequence);stroke:black;stroke-width:1px }
      polyline.datacurve { fill:none; stroke:black;stroke-width:1px }
      polyline.range { fill:none; stroke:black; stroke-width:1px; stroke-linejoin:round }
      polyline.ensemble { fill:none; stroke:black; stroke-width:0.5px;stroke-opacity:0.2 }
      polyline.kdemean { fill:none; stroke:black; stroke-width:1px }
      path.model3 { fill:none;stroke:black;stroke-width:1px }
      path.model2 { fill:none;stroke:black;stroke-width:1px }
      path.model1 { fill:none;stroke:black;stroke-width:1px }
      g.curve { fill:none;stroke:black;stroke-width:1px }
      line.majorpip { stroke:black; stroke-width:1px }
      line.minorpip { stroke:black; stroke-width:0.5px }
      line.gridline { stroke:black; stroke-width:0.5px }
      line.majorpip2 { stroke:white; stroke-width:1px }
      line.minorpip2 { stroke:white; stroke-width:0.5px }
      line.gridline2 { stroke:white; stroke-width:0.5px }
      line.okline { stroke:black; stroke-width:1px }
      line.errorline { stroke:black; stroke-width:1px }
      line.range { stroke:black; stroke-width:1px }
      line.modelline { stroke:black; stroke-width:1px }
      line.constrshadow { stroke:none; stroke-width:2px }
      line.constrok { stroke:black; stroke-width:1px }
      line.constrerror { stroke:black; stroke-width:1px }
      line.curve { stroke:black;stroke-width:1px }
      text { fill:black; stroke:none; font-size:10pt; font-family:"Arial","Helvetica"; font-style:normal }
    </style>
   <clipPath id="clip1"><rect x="0" width="481.1" y="0" height="343.64"/></clipPath><clipPath id="clip2"><rect x="0" width="481.1" y="0" height="343.64"/></clipPath></defs>
    <g id="mainframe"><rect x="-50.94" width="611.28" y="-40.02" height="480.29" style="fill:white" stroke="none"/><g id="mainviewport" transform="translate(0 0)"><rect class="border" x="14.15" width="481.1" y="14.15" height="343.64"/><g id="tabarea" transform="translate(14.15 14.15)"/><g id="plotarea" transform="translate(14.15 14.15)"><g id="structarea" transform="translate(0 0)"><g clip-path="url(#clip1)"><polyline class="range" points="9.62,12.13&#10;4.81,12.13&#10;4.81,816.65&#10;9.62,816.65"/><polyline class="range" points="14.43,52.56&#10;9.62,52.56&#10;9.62,109.16&#10;14.43,109.16"/><polyline class="range" points="14.43,153.63&#10;9.62,153.63&#10;9.62,210.23&#10;14.43,210.23"/><polyline class="range" points="14.43,234.48&#10;9.62,234.48&#10;9.62,311.3&#10;14.43,311.3"/></g></g><g clip-path="url(#clip2)"><g id="itemarea1" transform="translate(0 -4.2)"/><g id="itemarea2" transform="translate(0 16.01)"><polygon class="main" points="-265.4,24.42&#10;-265.4,24.42&#10;-263.98,24.42&#10;-262.57,24.41&#10;-261.15,24.41&#10;-259.74,24.41&#10;-258.32,24.4&#10;-256.91,24.4&#10;-255.49,24.41&#10;-254.08,24.41&#10;-252.66,24.4&#10;-251.25,24.4&#10;-249.83,24.41&#10;-248.42,24.41&#10;-247,24.4&#10;-245.59,24.41&#10;-244.17,24.4&#10;-242.76,24.41&#10;-241.34,24.4&#10;-239.93,24.41&#10;-238.51,24.4&#10;-237.1,24.41&#10;-235.68,24.4&#10;-234.27,24.4&#10;-232.85,24.41&#10;-231.44,24.4&#10;-230.02,24.4&#10;-228.61,24.4&#10;-227.19,24.4&#10;-225.78,24.4&#10;-224.36,24.41&#10;-222.95,24.41&#10;-221.53,24.4&#10;-220.12,24.4&#10;-218.7,24.4&#10;-217.29,24.4&#10;-215.87,24.4&#10;-214.46,24.41&#10;-213.04,24.4&#10;-211.63,24.41&#10;-210.21,24.4&#10;-208.8,24.41&#10;-207.38,24.4&#10;-205.97,24.41&#10;-204.55,24.4&#10;-203.14,24.4&#10;-201.72,24.4&#10;-200.31,24.4&#10;-198.89,24.4&#10;-197.48,24.41&#10;-196.06,24.4&#10;-194.65,24.4&#10;-193.23,24.4&#10;-191.82,24.4&#10;-190.4,24.4&#10;-188.99,24.4&#10;-187.57,24.4&#10;-186.16,24.4&#10;-184.74,24.4&#10;-183.33,24.4&#10;-181.91,24.4&#10;-180.5,24.4&#10;-179.08,24.4&#10;-177.67,24.4&#10;-176.25,24.4&#10;-174.84,24.4&#10;-173.42,24.4&#10;-172.01,24.4&#10;-170.59,24.4&#10;-169.18,24.4&#10;-167.76,24.4&#10;-166.35,24.4&#10;-164.93,24.4&#10;-163.52,24.4&#10;-162.1,24.4&#10;-160.69,24.4&#10;-159.27,24.4&#10;-157.86,24.4&#10;-156.44,24.4&#10;-155.03,24.4&#10;-153.61,24.4&#10;-152.2,24.4&#10;-150.78,24.4&#10;-149.37,24.4&#10;-147.95,24.39&#10;-146.54,24.4&#10;-145.12,24.4&#10;-143.71,24.4&#10;-142.29,24.39&#10;-140.88,24.4&#10;-139.46,24.39&#10;-138.05,24.39&#10;-136.63,24.4&#10;-135.22,24.39&#10;-133.8,24.39&#10;-132.39,24.39&#10;-130.97,24.39&#10;-129.56,24.4&#10;-128.14,24.39&#10;-126.73,24.39&#10;-125.31,24.39&#10;-123.9,24.39&#10;-122.48,24.39&#10;-121.07,24.39&#10;-119.65,24.38&#10;-118.24,24.39&#10;-116.82,24.39&#10;-115.41,24.38&#10;-113.99,24.39&#10;-112.58,24.4&#10;-111.16,24.39&#10;-109.75,24.39&#10;-108.33,24.38&#10;-106.92,24.39&#10;-105.5,24.39&#10;-104.09,24.38&#10;-102.67,24.38&#10;-101.26,24.38&#10;-99.84,24.38&#10;-98.43,24.39&#10;-97.01,24.39&#10;-95.6,24.37&#10;-94.18,24.38&#10;-92.77,24.38&#10;-91.35,24.39&#10;-89.94,24.39&#10;-88.52,24.38&#10;-87.11,24.38&#10;-85.69,24.38&#10;-84.28,24.38&#10;-82.86,24.38&#10;-81.45,24.37&#10;-80.03,24.38&#10;-78.62,24.37&#10;-77.2,24.37&#10;-75.79,24.38&#10;-74.37,24.38&#10;-72.96,24.37&#10;-71.54,24.37&#10;-70.13,24.37&#10;-68.71,24.38&#10;-67.3,24.37&#10;-65.88,24.38&#10;-64.47,24.37&#10;-63.05,24.36&#10;-61.64,24.37&#10;-60.22,24.37&#10;-58.81,24.37&#10;-57.39,24.37&#10;-55.98,24.38&#10;-54.56,24.36&#10;-53.15,24.36&#10;-51.73,24.36&#10;-50.32,24.37&#10;-48.9,24.36&#10;-47.49,24.36&#10;-46.07,24.35&#10;-44.66,24.36&#10;-43.24,24.36&#10;-41.83,24.36&#10;-40.41,24.36&#10;-39,24.35&#10;-37.58,24.36&#10;-36.17,24.36&#10;-34.75,24.36&#10;-33.34,24.35&#10;-31.92,24.36&#10;-30.51,24.35&#10;-29.09,24.35&#10;-27.68,24.35&#10;-26.26,24.35&#10;-24.85,24.33&#10;-23.43,24.34&#10;-22.02,24.35&#10;-20.6,24.35&#10;-19.19,24.35&#10;-17.77,24.34&#10;-16.36,24.34&#10;-14.94,24.34&#10;-13.53,24.33&#10;-12.11,24.34&#10;-10.7,24.33&#10;-9.28,24.33&#10;-7.87,24.33&#10;-6.45,24.33&#10;-5.04,24.33&#10;-3.62,24.33&#10;-2.21,24.33&#10;-0.79,24.32&#10;0.62,24.32&#10;2.04,24.31&#10;3.45,24.31&#10;4.87,24.32&#10;6.28,24.3&#10;7.7,24.31&#10;9.11,24.3&#10;10.53,24.31&#10;11.94,24.29&#10;13.36,24.3&#10;14.77,24.32&#10;16.19,24.31&#10;17.6,24.29&#10;19.02,24.29&#10;20.43,24.3&#10;21.85,24.27&#10;23.26,24.3&#10;24.68,24.27&#10;26.09,24.3&#10;27.51,24.25&#10;28.92,24.28&#10;30.34,24.27&#10;31.75,24.27&#10;33.17,24.25&#10;34.58,24.26&#10;36,24.27&#10;37.41,24.27&#10;38.83,24.25&#10;40.24,24.25&#10;41.66,24.27&#10;43.07,24.24&#10;44.49,24.25&#10;45.9,24.25&#10;47.32,24.25&#10;48.73,24.23&#10;50.15,24.21&#10;51.56,24.24&#10;52.98,24.21&#10;54.39,24.21&#10;55.81,24.22&#10;57.22,24.21&#10;58.64,24.21&#10;60.05,24.2&#10;61.47,24.19&#10;62.88,24.2&#10;64.3,24.18&#10;65.71,24.17&#10;67.13,24.15&#10;68.54,24.18&#10;69.96,24.16&#10;71.37,24.17&#10;72.79,24.16&#10;74.2,24.18&#10;75.62,24.16&#10;77.03,24.11&#10;78.45,24.13&#10;79.86,24.12&#10;81.28,24.11&#10;82.69,24.12&#10;84.11,24.11&#10;85.52,24.1&#10;86.94,24.09&#10;88.35,24.05&#10;89.77,24.04&#10;91.18,23.99&#10;92.6,24.01&#10;94.01,24.04&#10;95.43,24.01&#10;96.84,23.99&#10;98.26,24&#10;99.67,23.93&#10;101.09,23.9&#10;102.5,23.97&#10;103.92,23.92&#10;105.33,23.9&#10;106.75,23.87&#10;108.16,23.87&#10;109.58,23.83&#10;110.99,23.84&#10;112.41,23.87&#10;113.82,23.71&#10;115.24,23.75&#10;116.65,23.7&#10;118.07,23.75&#10;119.48,23.77&#10;120.9,23.69&#10;122.31,23.64&#10;123.73,23.63&#10;125.14,23.57&#10;126.56,23.6&#10;127.97,23.57&#10;129.39,23.49&#10;130.8,23.46&#10;132.22,23.33&#10;133.63,23.38&#10;135.05,23.43&#10;136.46,23.28&#10;137.88,23.27&#10;139.29,23.32&#10;140.71,23.22&#10;142.12,23.06&#10;143.54,23.08&#10;144.95,23.03&#10;146.37,22.96&#10;147.78,22.97&#10;149.2,22.93&#10;150.61,22.8&#10;152.03,22.68&#10;153.44,22.66&#10;154.86,22.68&#10;156.27,22.49&#10;157.69,22.5&#10;159.1,22.28&#10;160.52,22.39&#10;161.93,22.27&#10;163.35,22.25&#10;164.76,22.27&#10;166.18,22.35&#10;167.59,22.34&#10;169.01,22.23&#10;170.42,22.17&#10;171.84,22.14&#10;173.25,22.2&#10;174.67,22.36&#10;176.08,22.17&#10;177.5,22.04&#10;178.91,21.98&#10;180.33,21.89&#10;181.74,21.85&#10;183.16,21.79&#10;184.57,21.8&#10;185.99,21.73&#10;187.4,21.5&#10;188.82,21.46&#10;190.23,21.5&#10;191.65,21.31&#10;193.06,21.21&#10;194.48,21.1&#10;195.89,21.12&#10;197.31,20.94&#10;198.72,20.84&#10;200.14,20.67&#10;201.55,20.37&#10;202.97,20.28&#10;204.38,20.15&#10;205.8,19.87&#10;207.21,19.77&#10;208.63,19.47&#10;210.04,19.82&#10;211.46,19.41&#10;212.87,19.3&#10;214.29,19.06&#10;215.7,19.12&#10;217.12,19.02&#10;218.53,18.66&#10;219.95,18.7&#10;221.36,18.5&#10;222.78,18.69&#10;224.19,18.71&#10;225.61,18.45&#10;227.02,18.54&#10;228.44,18.85&#10;229.85,18.31&#10;231.27,18.59&#10;232.68,18.31&#10;234.1,18.57&#10;235.51,19.04&#10;236.93,18.91&#10;238.34,18.88&#10;239.76,18.99&#10;241.17,19.14&#10;242.59,19.52&#10;244,20.04&#10;245.42,20.02&#10;246.83,20.67&#10;248.25,20.72&#10;249.66,21.48&#10;251.08,21.92&#10;252.49,22.35&#10;253.91,23.06&#10;255.32,23.64&#10;256.74,24.02&#10;258.15,24.22&#10;259.57,24.32&#10;260.98,24.38&#10;260.98,24.42"/><polyline class="range" points="180.19,25.64&#10;180.19,26.86&#10;251.08,26.86&#10;251.08,25.64"/><polyline class="range" points="75.62,28.08&#10;75.62,29.3&#10;257.73,29.3&#10;257.73,28.08"/></g><g id="itemarea3" transform="translate(0 36.23)"/><g id="itemarea4" transform="translate(0 56.44)"><polygon class="shadow" points="89.77,24.42&#10;89.77,24.42&#10;91.18,24.41&#10;92.6,24.41&#10;94.01,24.41&#10;95.43,24.41&#10;96.84,24.41&#10;98.26,24.41&#10;99.67,24.41&#10;101.09,24.41&#10;102.5,24.41&#10;103.92,24.41&#10;105.33,24.41&#10;106.75,24.41&#10;108.16,24.41&#10;109.58,24.41&#10;110.99,24.41&#10;112.41,24.41&#10;113.82,24.41&#10;115.24,24.41&#10;116.65,24.41&#10;118.07,24.41&#10;119.48,24.41&#10;120.9,24.41&#10;122.31,24.41&#10;123.73,24.41&#10;125.14,24.41&#10;126.56,24.41&#10;127.97,24.41&#10;129.39,24.41&#10;130.8,24.41&#10;132.22,24.41&#10;133.63,24.41&#10;135.05,24.41&#10;136.46,24.41&#10;137.88,24.41&#10;139.29,24.41&#10;140.71,24.4&#10;142.12,24.37&#10;143.54,24.3&#10;144.95,24.23&#10;146.37,24.06&#10;147.78,23.87&#10;149.2,23.84&#10;150.61,23.55&#10;152.03,22.93&#10;153.44,22.46&#10;154.86,22.3&#10;156.27,21.93&#10;157.69,21.38&#10;159.1,20.68&#10;160.52,20.34&#10;161.93,20.08&#10;163.35,19.83&#10;164.76,19.79&#10;166.18,19.64&#10;167.59,19.18&#10;169.01,19.15&#10;170.42,19.74&#10;171.84,19.78&#10;173.25,19.94&#10;174.67,20.51&#10;176.08,21.08&#10;177.5,21.74&#10;178.91,22.3&#10;180.33,22.01&#10;181.74,21.05&#10;183.16,19.37&#10;184.57,19.07&#10;185.99,19.75&#10;187.4,20.49&#10;188.82,21&#10;190.23,21.23&#10;191.65,21.58&#10;193.06,21.66&#10;194.48,21.36&#10;195.89,21.24&#10;197.31,21.51&#10;198.72,21.91&#10;200.14,22.1&#10;201.55,21.89&#10;202.97,21.41&#10;204.38,21.07&#10;205.8,21.13&#10;207.21,21.3&#10;208.63,21.2&#10;210.04,20.87&#10;211.46,20.67&#10;212.87,20.75&#10;214.29,20.71&#10;215.7,20.05&#10;217.12,19.13&#10;218.53,18.69&#10;219.95,18.74&#10;221.36,18.96&#10;222.78,18.94&#10;224.19,18.69&#10;225.61,18.53&#10;227.02,18.51&#10;228.44,18.59&#10;229.85,18.64&#10;231.27,18.64&#10;232.68,18.61&#10;234.1,18.52&#10;235.51,18.47&#10;236.93,18.43&#10;238.34,18.41&#10;239.76,18.39&#10;241.17,18.33&#10;242.59,18.31&#10;244,18.33&#10;245.42,18.35&#10;246.83,18.41&#10;248.25,18.46&#10;249.66,18.46&#10;251.08,18.4&#10;252.49,18.31&#10;253.91,18.35&#10;255.32,18.75&#10;256.74,19.64&#10;258.15,20.87&#10;259.57,22.01&#10;260.98,22.8&#10;262.4,23.24&#10;263.81,23.44&#10;265.23,23.55&#10;266.64,23.65&#10;268.06,23.8&#10;269.47,24.01&#10;270.89,24.19&#10;272.3,24.31&#10;273.72,24.36&#10;275.13,24.38&#10;276.55,24.38&#10;277.96,24.37&#10;279.38,24.35&#10;280.79,24.3&#10;282.21,24.25&#10;283.62,24.22&#10;285.04,24.21&#10;286.45,24.21&#10;287.87,24.19&#10;289.28,24.14&#10;290.7,24.04&#10;292.11,23.9&#10;293.53,23.78&#10;294.94,23.79&#10;296.36,23.89&#10;297.77,23.98&#10;299.19,24.02&#10;300.6,23.97&#10;302.02,23.8&#10;303.43,23.79&#10;304.85,24.05&#10;306.26,24.19&#10;307.68,24.18&#10;309.09,24.13&#10;310.51,24.14&#10;311.92,24.25&#10;313.34,24.35&#10;314.75,24.39&#10;316.17,24.39&#10;317.58,24.39&#10;319,24.38&#10;320.41,24.39&#10;321.83,24.4&#10;323.24,24.41&#10;324.66,24.41&#10;326.07,24.41&#10;327.49,24.41&#10;328.9,24.41&#10;330.32,24.41&#10;331.73,24.41&#10;333.15,24.41&#10;334.56,24.41&#10;335.98,24.41&#10;337.39,24.41&#10;338.81,24.41&#10;340.22,24.41&#10;341.64,24.41&#10;343.05,24.41&#10;344.47,24.41&#10;345.88,24.41&#10;347.3,24.41&#10;348.71,24.41&#10;350.13,24.41&#10;351.54,24.41&#10;352.96,24.41&#10;354.37,24.41&#10;355.79,24.41&#10;357.2,24.41&#10;358.62,24.41&#10;360.03,24.41&#10;361.45,24.41&#10;362.86,24.41&#10;364.28,24.41&#10;365.69,24.41&#10;367.11,24.41&#10;368.52,24.41&#10;369.94,24.41&#10;371.35,24.41&#10;372.77,24.41&#10;374.18,24.42&#10;375.6,24.42&#10;375.6,24.42"/><polygon class="main" points="137.88,24.42&#10;137.88,24.42&#10;139.29,24.41&#10;140.71,24.41&#10;142.12,24.41&#10;143.54,24.41&#10;144.95,24.4&#10;146.37,24.39&#10;147.78,24.38&#10;149.2,24.37&#10;150.61,24.35&#10;152.03,24.3&#10;153.44,24.26&#10;154.86,24.24&#10;156.27,24.2&#10;157.69,24.13&#10;159.1,24.06&#10;160.52,24.02&#10;161.93,23.98&#10;163.35,23.93&#10;164.76,23.9&#10;166.18,23.87&#10;167.59,23.81&#10;169.01,23.8&#10;170.42,23.83&#10;171.84,23.85&#10;173.25,23.86&#10;174.67,23.9&#10;176.08,23.95&#10;177.5,24.03&#10;178.91,24.09&#10;180.33,24.05&#10;181.74,23.87&#10;183.16,23.63&#10;184.57,23.55&#10;185.99,23.64&#10;187.4,23.7&#10;188.82,23.78&#10;190.23,23.82&#10;191.65,23.87&#10;193.06,23.85&#10;194.48,23.78&#10;195.89,23.75&#10;197.31,23.77&#10;198.72,23.83&#10;200.14,23.85&#10;201.55,23.79&#10;202.97,23.66&#10;204.38,23.53&#10;205.8,23.5&#10;207.21,23.51&#10;208.63,23.43&#10;210.04,23.32&#10;211.46,23.18&#10;212.87,23.15&#10;214.29,23.08&#10;215.7,22.77&#10;217.12,22.4&#10;218.53,22.14&#10;219.95,22.03&#10;221.36,22.05&#10;222.78,21.92&#10;224.19,21.68&#10;225.61,21.51&#10;227.02,21.42&#10;228.44,21.32&#10;229.85,21.19&#10;231.27,21.09&#10;232.68,20.91&#10;234.1,20.71&#10;235.51,20.53&#10;236.93,20.36&#10;238.34,20.21&#10;239.76,19.98&#10;241.17,19.79&#10;242.59,19.63&#10;244,19.4&#10;245.42,19.23&#10;246.83,19.11&#10;248.25,19.03&#10;249.66,18.93&#10;251.08,18.61&#10;252.49,18.36&#10;253.91,18.31&#10;255.32,18.88&#10;256.74,19.89&#10;258.15,21.24&#10;259.57,22.47&#10;260.98,23.27&#10;262.4,23.65&#10;263.81,23.88&#10;265.23,24&#10;266.64,24.09&#10;268.06,24.18&#10;269.47,24.27&#10;270.89,24.34&#10;272.3,24.38&#10;273.72,24.39&#10;275.13,24.4&#10;276.55,24.4&#10;277.96,24.4&#10;279.38,24.4&#10;280.79,24.39&#10;282.21,24.37&#10;283.62,24.36&#10;285.04,24.37&#10;286.45,24.37&#10;287.87,24.37&#10;289.28,24.36&#10;290.7,24.34&#10;292.11,24.33&#10;293.53,24.31&#10;294.94,24.32&#10;296.36,24.35&#10;297.77,24.37&#10;299.19,24.37&#10;300.6,24.37&#10;302.02,24.37&#10;303.43,24.39&#10;304.85,24.4&#10;306.26,24.41&#10;307.68,24.41&#10;309.09,24.41&#10;310.51,24.41&#10;311.92,24.41&#10;313.34,24.42&#10;314.75,24.41&#10;314.75,24.42"/><polyline class="range" points="224.05,25.64&#10;224.05,26.86&#10;258.72,26.86&#10;258.72,25.64"/><polyline class="range" points="164.76,28.08&#10;164.76,29.3&#10;174.67,29.3&#10;174.67,28.08"/><polyline class="range" points="181.46,28.08&#10;181.46,29.3&#10;264.1,29.3&#10;264.1,28.08"/></g><g id="itemarea5" transform="translate(0 76.66)"><polygon class="shadow" points="113.82,24.42&#10;113.82,24.42&#10;115.24,24.42&#10;116.65,24.41&#10;118.07,24.41&#10;119.48,24.41&#10;120.9,24.41&#10;122.31,24.41&#10;123.73,24.41&#10;125.14,24.42&#10;126.56,24.42&#10;127.97,24.42&#10;129.39,24.42&#10;130.8,24.42&#10;132.22,24.42&#10;133.63,24.41&#10;135.05,24.41&#10;136.46,24.41&#10;137.88,24.41&#10;139.29,24.41&#10;140.71,24.41&#10;142.12,24.41&#10;143.54,24.4&#10;144.95,24.39&#10;146.37,24.34&#10;147.78,24.26&#10;149.2,24.25&#10;150.61,24.08&#10;152.03,23.61&#10;153.44,23.15&#10;154.86,22.99&#10;156.27,22.58&#10;157.69,21.9&#10;159.1,20.98&#10;160.52,20.53&#10;161.93,20.17&#10;163.35,19.84&#10;164.76,19.77&#10;166.18,19.57&#10;167.59,18.97&#10;169.01,18.93&#10;170.42,19.71&#10;171.84,19.76&#10;173.25,19.97&#10;174.67,20.76&#10;176.08,21.52&#10;177.5,22.35&#10;178.91,22.99&#10;180.33,22.66&#10;181.74,21.49&#10;183.16,19.22&#10;184.57,18.84&#10;185.99,19.72&#10;187.4,20.73&#10;188.82,21.42&#10;190.23,21.71&#10;191.65,22.15&#10;193.06,22.25&#10;194.48,21.88&#10;195.89,21.72&#10;197.31,22.06&#10;198.72,22.55&#10;200.14,22.76&#10;201.55,22.52&#10;202.97,21.94&#10;204.38,21.5&#10;205.8,21.57&#10;207.21,21.8&#10;208.63,21.67&#10;210.04,21.24&#10;211.46,20.96&#10;212.87,21.08&#10;214.29,21.02&#10;215.7,20.13&#10;217.12,18.93&#10;218.53,18.46&#10;219.95,18.5&#10;221.36,18.74&#10;222.78,18.71&#10;224.19,18.46&#10;225.61,18.36&#10;227.02,18.33&#10;228.44,18.4&#10;229.85,18.42&#10;231.27,18.42&#10;232.68,18.41&#10;234.1,18.34&#10;235.51,18.34&#10;236.93,18.31&#10;238.34,18.31&#10;239.76,18.34&#10;241.17,18.37&#10;242.59,18.43&#10;244,18.44&#10;245.42,18.35&#10;246.83,18.31&#10;248.25,18.32&#10;249.66,18.32&#10;251.08,18.31&#10;252.49,18.41&#10;253.91,18.86&#10;255.32,19.94&#10;256.74,21.51&#10;258.15,22.92&#10;259.57,23.76&#10;260.98,24.12&#10;262.4,24.26&#10;263.81,24.31&#10;265.23,24.33&#10;266.64,24.35&#10;268.06,24.37&#10;269.47,24.4&#10;270.89,24.41&#10;272.3,24.41&#10;273.72,24.41&#10;275.13,24.41&#10;276.55,24.41&#10;277.96,24.41&#10;279.38,24.41&#10;280.79,24.41&#10;282.21,24.41&#10;283.62,24.41&#10;285.04,24.41&#10;286.45,24.41&#10;287.87,24.41&#10;289.28,24.41&#10;290.7,24.4&#10;292.11,24.38&#10;293.53,24.37&#10;294.94,24.37&#10;296.36,24.38&#10;297.77,24.39&#10;299.19,24.4&#10;300.6,24.39&#10;302.02,24.37&#10;303.43,24.37&#10;304.85,24.4&#10;306.26,24.41&#10;307.68,24.41&#10;309.09,24.41&#10;310.51,24.41&#10;311.92,24.41&#10;313.34,24.41&#10;314.75,24.41&#10;316.17,24.41&#10;317.58,24.41&#10;319,24.41&#10;320.41,24.41&#10;321.83,24.41&#10;323.24,24.41&#10;324.66,24.41&#10;326.07,24.41&#10;327.49,24.42&#10;327.49,24.42"/><polygon class="main" points="139.29,24.42&#10;139.29,24.42&#10;140.71,24.41&#10;142.12,24.41&#10;143.54,24.41&#10;144.95,24.41&#10;146.37,24.41&#10;147.78,24.4&#10;149.2,24.4&#10;150.61,24.39&#10;152.03,24.36&#10;153.44,24.32&#10;154.86,24.29&#10;156.27,24.25&#10;157.69,24.2&#10;159.1,24.1&#10;160.52,24.06&#10;161.93,23.98&#10;163.35,23.95&#10;164.76,23.93&#10;166.18,23.86&#10;167.59,23.8&#10;169.01,23.78&#10;170.42,23.85&#10;171.84,23.83&#10;173.25,23.84&#10;174.67,23.94&#10;176.08,24.02&#10;177.5,24.12&#10;178.91,24.2&#10;180.33,24.14&#10;181.74,23.96&#10;183.16,23.58&#10;184.57,23.53&#10;185.99,23.62&#10;187.4,23.76&#10;188.82,23.86&#10;190.23,23.91&#10;191.65,23.97&#10;193.06,23.98&#10;194.48,23.9&#10;195.89,23.84&#10;197.31,23.9&#10;198.72,23.99&#10;200.14,24.02&#10;201.55,23.94&#10;202.97,23.78&#10;204.38,23.63&#10;205.8,23.63&#10;207.21,23.66&#10;208.63,23.58&#10;210.04,23.45&#10;211.46,23.32&#10;212.87,23.3&#10;214.29,23.22&#10;215.7,22.86&#10;217.12,22.38&#10;218.53,22.1&#10;219.95,22&#10;221.36,21.98&#10;222.78,21.91&#10;224.19,21.73&#10;225.61,21.5&#10;227.02,21.38&#10;228.44,21.29&#10;229.85,21.15&#10;231.27,21.05&#10;232.68,20.93&#10;234.1,20.66&#10;235.51,20.58&#10;236.93,20.4&#10;238.34,20.18&#10;239.76,20&#10;241.17,19.95&#10;242.59,19.75&#10;244,19.56&#10;245.42,19.27&#10;246.83,19.1&#10;248.25,18.84&#10;249.66,18.65&#10;251.08,18.46&#10;252.49,18.31&#10;253.91,18.59&#10;255.32,19.75&#10;256.74,21.28&#10;258.15,22.82&#10;259.57,23.74&#10;260.98,24.15&#10;262.4,24.29&#10;263.81,24.34&#10;265.23,24.37&#10;266.64,24.39&#10;268.06,24.4&#10;269.47,24.41&#10;270.89,24.41&#10;272.3,24.41&#10;273.72,24.42&#10;275.13,24.42&#10;276.55,24.41&#10;277.96,24.42&#10;279.38,24.42&#10;280.79,24.41&#10;282.21,24.41&#10;283.62,24.41&#10;285.04,24.41&#10;286.45,24.41&#10;287.87,24.41&#10;289.28,24.41&#10;290.7,24.41&#10;292.11,24.41&#10;293.53,24.41&#10;294.94,24.41&#10;296.36,24.41&#10;297.77,24.41&#10;299.19,24.41&#10;300.6,24.41&#10;302.02,24.41&#10;303.43,24.41&#10;304.85,24.41&#10;306.26,24.41&#10;307.68,24.41&#10;309.09,24.41&#10;310.51,24.41&#10;310.51,24.42"/><polyline class="range" points="225.61,25.64&#10;225.61,26.86&#10;256.88,26.86&#10;256.88,25.64"/><polyline class="range" points="163.77,28.08&#10;163.77,29.3&#10;174.67,29.3&#10;174.67,28.08"/><polyline class="range" points="181.74,28.08&#10;181.74,29.3&#10;191.08,29.3&#10;191.08,28.08"/><polyline class="range" points="193.77,28.08&#10;193.77,29.3&#10;198.02,29.3&#10;198.02,28.08"/><polyline class="range" points="201.55,28.08&#10;201.55,29.3&#10;260.28,29.3&#10;260.28,28.08"/></g><g id="itemarea6" transform="translate(0 96.87)"/><g id="itemarea7" transform="translate(0 117.08)"><polygon class="shadow" points="139.29,24.42&#10;139.29,24.42&#10;140.71,24.42&#10;142.12,24.42&#10;143.54,24.41&#10;144.95,24.41&#10;146.37,24.41&#10;147.78,24.41&#10;149.2,24.41&#10;150.61,24.41&#10;152.03,24.41&#10;153.44,24.4&#10;154.86,24.4&#10;156.27,24.39&#10;157.69,24.36&#10;159.1,24.31&#10;160.52,24.27&#10;161.93,24.23&#10;163.35,24.19&#10;164.76,24.18&#10;166.18,24.14&#10;167.59,24&#10;169.01,23.99&#10;170.42,24.17&#10;171.84,24.18&#10;173.25,24.21&#10;174.67,24.29&#10;176.08,24.34&#10;177.5,24.38&#10;178.91,24.4&#10;180.33,24.39&#10;181.74,24.34&#10;183.16,24.07&#10;184.57,23.95&#10;185.99,24.17&#10;187.4,24.29&#10;188.82,24.34&#10;190.23,24.35&#10;191.65,24.37&#10;193.06,24.38&#10;194.48,24.36&#10;195.89,24.35&#10;197.31,24.37&#10;198.72,24.38&#10;200.14,24.39&#10;201.55,24.38&#10;202.97,24.36&#10;204.38,24.34&#10;205.8,24.34&#10;207.21,24.35&#10;208.63,24.35&#10;210.04,24.32&#10;211.46,24.3&#10;212.87,24.31&#10;214.29,24.31&#10;215.7,24.22&#10;217.12,23.96&#10;218.53,23.69&#10;219.95,23.73&#10;221.36,23.88&#10;222.78,23.86&#10;224.19,23.68&#10;225.61,23.49&#10;227.02,23.49&#10;228.44,23.57&#10;229.85,23.64&#10;231.27,23.64&#10;232.68,23.58&#10;234.1,23.5&#10;235.51,23.39&#10;236.93,23.34&#10;238.34,23.32&#10;239.76,23.22&#10;241.17,23.05&#10;242.59,22.93&#10;244,22.94&#10;245.42,23.13&#10;246.83,23.3&#10;248.25,23.41&#10;249.66,23.41&#10;251.08,23.29&#10;252.49,22.96&#10;253.91,22.33&#10;255.32,21.24&#10;256.74,19.82&#10;258.15,18.63&#10;259.57,18.31&#10;260.98,18.73&#10;262.4,19.32&#10;263.81,19.7&#10;265.23,19.97&#10;266.64,20.27&#10;268.06,20.75&#10;269.47,21.56&#10;270.89,22.55&#10;272.3,23.32&#10;273.72,23.77&#10;275.13,23.97&#10;276.55,24&#10;277.96,23.91&#10;279.38,23.67&#10;280.79,23.3&#10;282.21,22.9&#10;283.62,22.71&#10;285.04,22.64&#10;286.45,22.66&#10;287.87,22.56&#10;289.28,22.27&#10;290.7,21.74&#10;292.11,21.13&#10;293.53,20.74&#10;294.94,20.77&#10;296.36,21.1&#10;297.77,21.5&#10;299.19,21.66&#10;300.6,21.41&#10;302.02,20.75&#10;303.43,20.73&#10;304.85,21.78&#10;306.26,22.51&#10;307.68,22.49&#10;309.09,22.19&#10;310.51,22.23&#10;311.92,22.94&#10;313.34,23.69&#10;314.75,24.06&#10;316.17,24.14&#10;317.58,24.08&#10;319,24.01&#10;320.41,24.11&#10;321.83,24.26&#10;323.24,24.33&#10;324.66,24.35&#10;326.07,24.36&#10;327.49,24.37&#10;328.9,24.39&#10;330.32,24.39&#10;331.73,24.38&#10;333.15,24.37&#10;334.56,24.37&#10;335.98,24.37&#10;337.39,24.38&#10;338.81,24.38&#10;340.22,24.39&#10;341.64,24.4&#10;343.05,24.4&#10;344.47,24.41&#10;345.88,24.41&#10;347.3,24.41&#10;348.71,24.41&#10;350.13,24.4&#10;351.54,24.4&#10;352.96,24.39&#10;354.37,24.4&#10;355.79,24.41&#10;357.2,24.41&#10;358.62,24.41&#10;360.03,24.41&#10;361.45,24.41&#10;362.86,24.41&#10;364.28,24.41&#10;365.69,24.41&#10;367.11,24.41&#10;368.52,24.41&#10;369.94,24.41&#10;371.35,24.41&#10;372.77,24.41&#10;374.18,24.41&#10;375.6,24.41&#10;377.01,24.41&#10;378.43,24.42&#10;379.84,24.42&#10;379.84,24.42"/><polygon class="main" points="161.93,24.42&#10;161.93,24.42&#10;163.35,24.41&#10;164.76,24.41&#10;166.18,24.41&#10;167.59,24.41&#10;169.01,24.41&#10;170.42,24.41&#10;171.84,24.41&#10;173.25,24.41&#10;174.67,24.41&#10;176.08,24.41&#10;177.5,24.41&#10;178.91,24.41&#10;180.33,24.41&#10;181.74,24.41&#10;183.16,24.41&#10;184.57,24.41&#10;185.99,24.41&#10;187.4,24.41&#10;188.82,24.41&#10;190.23,24.41&#10;191.65,24.41&#10;193.06,24.41&#10;194.48,24.41&#10;195.89,24.41&#10;197.31,24.41&#10;198.72,24.41&#10;200.14,24.41&#10;201.55,24.41&#10;202.97,24.41&#10;204.38,24.41&#10;205.8,24.41&#10;207.21,24.41&#10;208.63,24.41&#10;210.04,24.41&#10;211.46,24.41&#10;212.87,24.41&#10;214.29,24.41&#10;215.7,24.4&#10;217.12,24.39&#10;218.53,24.37&#10;219.95,24.36&#10;221.36,24.36&#10;222.78,24.36&#10;224.19,24.34&#10;225.61,24.31&#10;227.02,24.3&#10;228.44,24.3&#10;229.85,24.29&#10;231.27,24.27&#10;232.68,24.26&#10;234.1,24.22&#10;235.51,24.18&#10;236.93,24.14&#10;238.34,24.1&#10;239.76,24.04&#10;241.17,23.96&#10;242.59,23.86&#10;244,23.81&#10;245.42,23.82&#10;246.83,23.86&#10;248.25,23.86&#10;249.66,23.81&#10;251.08,23.64&#10;252.49,23.33&#10;253.91,22.71&#10;255.32,21.6&#10;256.74,20&#10;258.15,18.73&#10;259.57,18.31&#10;260.98,18.79&#10;262.4,19.41&#10;263.81,19.87&#10;265.23,20.22&#10;266.64,20.69&#10;268.06,21.21&#10;269.47,21.97&#10;270.89,22.85&#10;272.3,23.52&#10;273.72,23.89&#10;275.13,24.07&#10;276.55,24.11&#10;277.96,24.05&#10;279.38,23.9&#10;280.79,23.68&#10;282.21,23.45&#10;283.62,23.36&#10;285.04,23.35&#10;286.45,23.37&#10;287.87,23.34&#10;289.28,23.21&#10;290.7,22.96&#10;292.11,22.72&#10;293.53,22.56&#10;294.94,22.61&#10;296.36,22.84&#10;297.77,23.06&#10;299.19,23.15&#10;300.6,23.1&#10;302.02,22.92&#10;303.43,23&#10;304.85,23.4&#10;306.26,23.67&#10;307.68,23.71&#10;309.09,23.67&#10;310.51,23.73&#10;311.92,23.96&#10;313.34,24.19&#10;314.75,24.3&#10;316.17,24.34&#10;317.58,24.33&#10;319,24.32&#10;320.41,24.35&#10;321.83,24.38&#10;323.24,24.4&#10;324.66,24.4&#10;326.07,24.41&#10;327.49,24.41&#10;328.9,24.41&#10;330.32,24.41&#10;331.73,24.41&#10;333.15,24.41&#10;334.56,24.41&#10;335.98,24.41&#10;337.39,24.41&#10;338.81,24.41&#10;340.22,24.41&#10;341.64,24.41&#10;343.05,24.41&#10;344.47,24.41&#10;345.88,24.41&#10;347.3,24.41&#10;348.71,24.41&#10;350.13,24.41&#10;351.54,24.41&#10;352.96,24.41&#10;354.37,24.41&#10;355.79,24.41&#10;357.2,24.42&#10;358.62,24.42&#10;358.62,24.42"/><polyline class="range" points="253.2,25.64&#10;253.2,26.86&#10;271.31,26.86&#10;271.31,25.64"/><polyline class="range" points="290.27,25.64&#10;290.27,26.86&#10;297.49,26.86&#10;297.49,25.64"/><polyline class="range" points="301.17,25.64&#10;301.17,26.86&#10;303.58,26.86&#10;303.58,25.64"/><polyline class="range" points="239.48,28.08&#10;239.48,29.3&#10;274.99,29.3&#10;274.99,28.08"/><polyline class="range" points="277.96,28.08&#10;277.96,29.3&#10;312.49,29.3&#10;312.49,28.08"/></g><g id="itemarea8" transform="translate(0 137.3)"/><g id="itemarea9" transform="translate(0 157.51)"><polygon class="shadow" points="103.92,24.42&#10;103.92,24.42&#10;105.33,24.42&#10;106.75,24.42&#10;108.16,24.41&#10;109.58,24.41&#10;110.99,24.41&#10;112.41,24.41&#10;113.82,24.41&#10;115.24,24.41&#10;116.65,24.41&#10;118.07,24.41&#10;119.48,24.41&#10;120.9,24.41&#10;122.31,24.41&#10;123.73,24.41&#10;125.14,24.41&#10;126.56,24.41&#10;127.97,24.41&#10;129.39,24.41&#10;130.8,24.41&#10;132.22,24.41&#10;133.63,24.41&#10;135.05,24.41&#10;136.46,24.41&#10;137.88,24.41&#10;139.29,24.41&#10;140.71,24.41&#10;142.12,24.39&#10;143.54,24.35&#10;144.95,24.3&#10;146.37,24.18&#10;147.78,24.03&#10;149.2,24.01&#10;150.61,23.76&#10;152.03,23.21&#10;153.44,22.76&#10;154.86,22.6&#10;156.27,22.23&#10;157.69,21.67&#10;159.1,20.93&#10;160.52,20.58&#10;161.93,20.29&#10;163.35,20.02&#10;164.76,19.97&#10;166.18,19.8&#10;167.59,19.29&#10;169.01,19.26&#10;170.42,19.92&#10;171.84,19.96&#10;173.25,20.13&#10;174.67,20.75&#10;176.08,21.36&#10;177.5,22.04&#10;178.91,22.6&#10;180.33,22.31&#10;181.74,21.33&#10;183.16,19.51&#10;184.57,19.17&#10;185.99,19.93&#10;187.4,20.73&#10;188.82,21.28&#10;190.23,21.51&#10;191.65,21.87&#10;193.06,21.96&#10;194.48,21.65&#10;195.89,21.53&#10;197.31,21.81&#10;198.72,22.21&#10;200.14,22.4&#10;201.55,22.19&#10;202.97,21.7&#10;204.38,21.35&#10;205.8,21.41&#10;207.21,21.59&#10;208.63,21.48&#10;210.04,21.13&#10;211.46,20.92&#10;212.87,21.01&#10;214.29,20.96&#10;215.7,20.25&#10;217.12,19.24&#10;218.53,18.74&#10;219.95,18.8&#10;221.36,19.05&#10;222.78,19.02&#10;224.19,18.74&#10;225.61,18.56&#10;227.02,18.54&#10;228.44,18.63&#10;229.85,18.68&#10;231.27,18.69&#10;232.68,18.65&#10;234.1,18.55&#10;235.51,18.49&#10;236.93,18.44&#10;238.34,18.43&#10;239.76,18.4&#10;241.17,18.33&#10;242.59,18.31&#10;244,18.33&#10;245.42,18.35&#10;246.83,18.42&#10;248.25,18.48&#10;249.66,18.49&#10;251.08,18.41&#10;252.49,18.31&#10;253.91,18.36&#10;255.32,18.81&#10;256.74,19.81&#10;258.15,21.13&#10;259.57,22.31&#10;260.98,23.08&#10;262.4,23.48&#10;263.81,23.66&#10;265.23,23.76&#10;266.64,23.85&#10;268.06,23.98&#10;269.47,24.14&#10;270.89,24.28&#10;272.3,24.35&#10;273.72,24.38&#10;275.13,24.4&#10;276.55,24.4&#10;277.96,24.39&#10;279.38,24.38&#10;280.79,24.35&#10;282.21,24.31&#10;283.62,24.3&#10;285.04,24.29&#10;286.45,24.29&#10;287.87,24.28&#10;289.28,24.24&#10;290.7,24.16&#10;292.11,24.05&#10;293.53,23.96&#10;294.94,23.96&#10;296.36,24.05&#10;297.77,24.12&#10;299.19,24.15&#10;300.6,24.11&#10;302.02,23.97&#10;303.43,23.97&#10;304.85,24.17&#10;306.26,24.27&#10;307.68,24.27&#10;309.09,24.23&#10;310.51,24.24&#10;311.92,24.32&#10;313.34,24.38&#10;314.75,24.4&#10;316.17,24.4&#10;317.58,24.4&#10;319,24.4&#10;320.41,24.4&#10;321.83,24.41&#10;323.24,24.41&#10;324.66,24.41&#10;326.07,24.41&#10;327.49,24.41&#10;328.9,24.41&#10;330.32,24.41&#10;331.73,24.41&#10;333.15,24.41&#10;334.56,24.41&#10;335.98,24.41&#10;337.39,24.41&#10;338.81,24.41&#10;340.22,24.41&#10;341.64,24.41&#10;343.05,24.41&#10;344.47,24.41&#10;345.88,24.41&#10;347.3,24.41&#10;348.71,24.41&#10;350.13,24.41&#10;351.54,24.41&#10;352.96,24.41&#10;354.37,24.41&#10;355.79,24.41&#10;357.2,24.41&#10;358.62,24.41&#10;360.03,24.42&#10;361.45,24.42&#10;362.86,24.42&#10;364.28,24.42&#10;365.69,24.42&#10;367.11,24.42&#10;368.52,24.41&#10;369.94,24.41&#10;371.35,24.42&#10;372.77,24.42&#10;372.77,24.42"/><polygon class="main" points="132.22,24.42&#10;132.22,24.42&#10;133.63,24.42&#10;135.05,24.41&#10;136.46,24.41&#10;137.88,24.41&#10;139.29,24.41&#10;140.71,24.4&#10;142.12,24.39&#10;143.54,24.36&#10;144.95,24.3&#10;146.37,24.19&#10;147.78,24.08&#10;149.2,23.99&#10;150.61,23.75&#10;152.03,23.26&#10;153.44,22.82&#10;154.86,22.63&#10;156.27,22.27&#10;157.69,21.7&#10;159.1,21.02&#10;160.52,20.69&#10;161.93,20.44&#10;163.35,20.14&#10;164.76,20.06&#10;166.18,19.84&#10;167.59,19.51&#10;169.01,19.45&#10;170.42,20.02&#10;171.84,20.11&#10;173.25,20.26&#10;174.67,20.76&#10;176.08,21.46&#10;177.5,22.04&#10;178.91,22.52&#10;180.33,22.3&#10;181.74,21.3&#10;183.16,19.78&#10;184.57,19.45&#10;185.99,20&#10;187.4,20.84&#10;188.82,21.38&#10;190.23,21.62&#10;191.65,21.84&#10;193.06,21.98&#10;194.48,21.71&#10;195.89,21.58&#10;197.31,21.9&#10;198.72,22.25&#10;200.14,22.38&#10;201.55,22.24&#10;202.97,21.79&#10;204.38,21.51&#10;205.8,21.48&#10;207.21,21.66&#10;208.63,21.54&#10;210.04,21.25&#10;211.46,21.09&#10;212.87,21.04&#10;214.29,20.98&#10;215.7,20.28&#10;217.12,19.41&#10;218.53,18.86&#10;219.95,18.83&#10;221.36,19.16&#10;222.78,19.22&#10;224.19,18.83&#10;225.61,18.81&#10;227.02,18.64&#10;228.44,18.67&#10;229.85,18.9&#10;231.27,18.77&#10;232.68,18.81&#10;234.1,18.69&#10;235.51,18.69&#10;236.93,18.51&#10;238.34,18.56&#10;239.76,18.54&#10;241.17,18.31&#10;242.59,18.47&#10;244,18.48&#10;245.42,18.46&#10;246.83,18.44&#10;248.25,18.57&#10;249.66,18.63&#10;251.08,18.62&#10;252.49,18.5&#10;253.91,18.43&#10;255.32,18.98&#10;256.74,20&#10;258.15,21.14&#10;259.57,22.26&#10;260.98,23.12&#10;262.4,23.46&#10;263.81,23.72&#10;265.23,23.81&#10;266.64,23.89&#10;268.06,24.02&#10;269.47,24.17&#10;270.89,24.28&#10;272.3,24.36&#10;273.72,24.38&#10;275.13,24.4&#10;276.55,24.4&#10;277.96,24.39&#10;279.38,24.38&#10;280.79,24.37&#10;282.21,24.35&#10;283.62,24.34&#10;285.04,24.33&#10;286.45,24.32&#10;287.87,24.34&#10;289.28,24.29&#10;290.7,24.24&#10;292.11,24.17&#10;293.53,24.13&#10;294.94,24.12&#10;296.36,24.2&#10;297.77,24.24&#10;299.19,24.24&#10;300.6,24.23&#10;302.02,24.18&#10;303.43,24.21&#10;304.85,24.28&#10;306.26,24.34&#10;307.68,24.35&#10;309.09,24.33&#10;310.51,24.34&#10;311.92,24.37&#10;313.34,24.4&#10;314.75,24.41&#10;316.17,24.41&#10;317.58,24.41&#10;319,24.41&#10;320.41,24.41&#10;320.41,24.42"/><polyline class="range" points="160.66,25.64&#10;160.66,26.86&#10;174.39,26.86&#10;174.39,25.64"/><polyline class="range" points="182.31,25.64&#10;182.31,26.86&#10;187.12,26.86&#10;187.12,25.64"/><polyline class="range" points="214.86,25.64&#10;214.86,26.86&#10;257.59,26.86&#10;257.59,25.64"/><polyline class="range" points="155.14,28.08&#10;155.14,29.3&#10;260.14,29.3&#10;260.14,28.08"/></g><g id="itemarea10" transform="translate(0 177.73)"><polygon class="shadow" points="147.78,24.42&#10;147.78,24.42&#10;149.2,24.42&#10;150.61,24.41&#10;152.03,24.41&#10;153.44,24.41&#10;154.86,24.41&#10;156.27,24.41&#10;157.69,24.41&#10;159.1,24.41&#10;160.52,24.41&#10;161.93,24.41&#10;163.35,24.4&#10;164.76,24.4&#10;166.18,24.4&#10;167.59,24.38&#10;169.01,24.38&#10;170.42,24.4&#10;171.84,24.4&#10;173.25,24.4&#10;174.67,24.41&#10;176.08,24.41&#10;177.5,24.41&#10;178.91,24.41&#10;180.33,24.41&#10;181.74,24.41&#10;183.16,24.39&#10;184.57,24.38&#10;185.99,24.4&#10;187.4,24.41&#10;188.82,24.41&#10;190.23,24.41&#10;191.65,24.41&#10;193.06,24.41&#10;194.48,24.41&#10;195.89,24.41&#10;197.31,24.41&#10;198.72,24.41&#10;200.14,24.41&#10;201.55,24.41&#10;202.97,24.41&#10;204.38,24.41&#10;205.8,24.41&#10;207.21,24.41&#10;208.63,24.41&#10;210.04,24.41&#10;211.46,24.41&#10;212.87,24.41&#10;214.29,24.41&#10;215.7,24.41&#10;217.12,24.38&#10;218.53,24.33&#10;219.95,24.34&#10;221.36,24.36&#10;222.78,24.36&#10;224.19,24.33&#10;225.61,24.29&#10;227.02,24.29&#10;228.44,24.3&#10;229.85,24.32&#10;231.27,24.32&#10;232.68,24.31&#10;234.1,24.29&#10;235.51,24.26&#10;236.93,24.25&#10;238.34,24.25&#10;239.76,24.22&#10;241.17,24.17&#10;242.59,24.13&#10;244,24.13&#10;245.42,24.19&#10;246.83,24.24&#10;248.25,24.27&#10;249.66,24.27&#10;251.08,24.24&#10;252.49,24.14&#10;253.91,23.9&#10;255.32,23.29&#10;256.74,22.07&#10;258.15,20.29&#10;259.57,18.82&#10;260.98,18.31&#10;262.4,18.47&#10;263.81,18.69&#10;265.23,18.92&#10;266.64,19.2&#10;268.06,19.68&#10;269.47,20.63&#10;270.89,21.93&#10;272.3,23.01&#10;273.72,23.63&#10;275.13,23.9&#10;276.55,23.95&#10;277.96,23.83&#10;279.38,23.5&#10;280.79,22.99&#10;282.21,22.43&#10;283.62,22.16&#10;285.04,22.06&#10;286.45,22.09&#10;287.87,21.96&#10;289.28,21.57&#10;290.7,20.87&#10;292.11,20.13&#10;293.53,19.71&#10;294.94,19.75&#10;296.36,20.11&#10;297.77,20.58&#10;299.19,20.79&#10;300.6,20.46&#10;302.02,19.7&#10;303.43,19.68&#10;304.85,20.92&#10;306.26,21.88&#10;307.68,21.86&#10;309.09,21.45&#10;310.51,21.51&#10;311.92,22.48&#10;313.34,23.52&#10;314.75,24.01&#10;316.17,24.12&#10;317.58,24.05&#10;319,23.95&#10;320.41,24.09&#10;321.83,24.27&#10;323.24,24.34&#10;324.66,24.36&#10;326.07,24.37&#10;327.49,24.38&#10;328.9,24.4&#10;330.32,24.4&#10;331.73,24.39&#10;333.15,24.39&#10;334.56,24.38&#10;335.98,24.38&#10;337.39,24.39&#10;338.81,24.39&#10;340.22,24.4&#10;341.64,24.4&#10;343.05,24.41&#10;344.47,24.41&#10;345.88,24.41&#10;347.3,24.41&#10;348.71,24.41&#10;350.13,24.41&#10;351.54,24.4&#10;352.96,24.4&#10;354.37,24.41&#10;355.79,24.41&#10;357.2,24.41&#10;358.62,24.41&#10;360.03,24.41&#10;361.45,24.41&#10;362.86,24.41&#10;364.28,24.41&#10;365.69,24.41&#10;367.11,24.41&#10;368.52,24.41&#10;369.94,24.41&#10;371.35,24.41&#10;372.77,24.42&#10;374.18,24.42&#10;375.6,24.42&#10;375.6,24.42"/><polygon class="main" points="153.44,24.42&#10;153.44,24.42&#10;154.86,24.41&#10;156.27,24.41&#10;157.69,24.41&#10;159.1,24.41&#10;160.52,24.41&#10;161.93,24.41&#10;163.35,24.4&#10;164.76,24.4&#10;166.18,24.4&#10;167.59,24.38&#10;169.01,24.38&#10;170.42,24.4&#10;171.84,24.4&#10;173.25,24.4&#10;174.67,24.41&#10;176.08,24.41&#10;177.5,24.41&#10;178.91,24.41&#10;180.33,24.41&#10;181.74,24.41&#10;183.16,24.4&#10;184.57,24.38&#10;185.99,24.4&#10;187.4,24.41&#10;188.82,24.41&#10;190.23,24.41&#10;191.65,24.41&#10;193.06,24.41&#10;194.48,24.41&#10;195.89,24.41&#10;197.31,24.41&#10;198.72,24.41&#10;200.14,24.41&#10;201.55,24.41&#10;202.97,24.41&#10;204.38,24.41&#10;205.8,24.41&#10;207.21,24.41&#10;208.63,24.41&#10;210.04,24.41&#10;211.46,24.41&#10;212.87,24.41&#10;214.29,24.41&#10;215.7,24.4&#10;217.12,24.36&#10;218.53,24.33&#10;219.95,24.32&#10;221.36,24.35&#10;222.78,24.34&#10;224.19,24.32&#10;225.61,24.27&#10;227.02,24.27&#10;228.44,24.28&#10;229.85,24.3&#10;231.27,24.3&#10;232.68,24.28&#10;234.1,24.26&#10;235.51,24.22&#10;236.93,24.22&#10;238.34,24.22&#10;239.76,24.17&#10;241.17,24.1&#10;242.59,24.06&#10;244,24.06&#10;245.42,24.14&#10;246.83,24.2&#10;248.25,24.23&#10;249.66,24.24&#10;251.08,24.2&#10;252.49,24.08&#10;253.91,23.79&#10;255.32,23.1&#10;256.74,21.79&#10;258.15,20.02&#10;259.57,18.63&#10;260.98,18.31&#10;262.4,18.56&#10;263.81,19.09&#10;265.23,19.28&#10;266.64,19.82&#10;268.06,20.39&#10;269.47,21.31&#10;270.89,22.43&#10;272.3,23.29&#10;273.72,23.81&#10;275.13,24.01&#10;276.55,24.08&#10;277.96,24&#10;279.38,23.8&#10;280.79,23.52&#10;282.21,23.22&#10;283.62,23.1&#10;285.04,23.13&#10;286.45,23.11&#10;287.87,23.14&#10;289.28,22.93&#10;290.7,22.66&#10;292.11,22.35&#10;293.53,22.24&#10;294.94,22.38&#10;296.36,22.57&#10;297.77,22.86&#10;299.19,22.93&#10;300.6,22.88&#10;302.02,22.76&#10;303.43,22.83&#10;304.85,23.22&#10;306.26,23.54&#10;307.68,23.61&#10;309.09,23.53&#10;310.51,23.62&#10;311.92,23.92&#10;313.34,24.18&#10;314.75,24.3&#10;316.17,24.33&#10;317.58,24.33&#10;319,24.33&#10;320.41,24.35&#10;321.83,24.39&#10;323.24,24.4&#10;324.66,24.41&#10;326.07,24.41&#10;327.49,24.41&#10;328.9,24.41&#10;330.32,24.41&#10;331.73,24.41&#10;333.15,24.41&#10;334.56,24.41&#10;335.98,24.41&#10;337.39,24.41&#10;338.81,24.41&#10;340.22,24.41&#10;341.64,24.41&#10;343.05,24.41&#10;344.47,24.41&#10;345.88,24.41&#10;347.3,24.42&#10;348.71,24.41&#10;350.13,24.41&#10;351.54,24.41&#10;352.96,24.41&#10;354.37,24.41&#10;355.79,24.42&#10;355.79,24.42"/><polyline class="range" points="255.61,25.64&#10;255.61,26.86&#10;271.6,26.86&#10;271.6,25.64"/><polyline class="range" points="289.57,25.64&#10;289.57,26.86&#10;297.92,26.86&#10;297.92,25.64"/><polyline class="range" points="300.75,25.64&#10;300.75,26.86&#10;303.58,26.86&#10;303.58,25.64"/><polyline class="range" points="239.76,28.08&#10;239.76,29.3&#10;245.99,29.3&#10;245.99,28.08"/><polyline class="range" points="251.5,28.08&#10;251.5,29.3&#10;313.2,29.3&#10;313.2,28.08"/></g><g id="itemarea11" transform="translate(0 197.94)"><polygon class="main" points="225.61,24.42&#10;225.61,24.42&#10;227.02,24.41&#10;228.44,24.41&#10;229.85,24.41&#10;231.27,24.41&#10;232.68,24.41&#10;234.1,24.41&#10;235.51,24.4&#10;236.93,24.41&#10;238.34,24.4&#10;239.76,24.39&#10;241.17,24.38&#10;242.59,24.37&#10;244,24.36&#10;245.42,24.33&#10;246.83,24.3&#10;248.25,24.3&#10;249.66,24.3&#10;251.08,24.3&#10;252.49,24.29&#10;253.91,24.24&#10;255.32,24.14&#10;256.74,23.89&#10;258.15,23.43&#10;259.57,22.69&#10;260.98,22.02&#10;262.4,21.31&#10;263.81,20.72&#10;265.23,20.11&#10;266.64,19.59&#10;268.06,19.06&#10;269.47,18.84&#10;270.89,18.9&#10;272.3,18.98&#10;273.72,19.24&#10;275.13,19.49&#10;276.55,19.74&#10;277.96,19.9&#10;279.38,20.12&#10;280.79,20.25&#10;282.21,20.28&#10;283.62,20.25&#10;285.04,20.25&#10;286.45,20.16&#10;287.87,20.13&#10;289.28,20.1&#10;290.7,19.98&#10;292.11,19.73&#10;293.53,19.58&#10;294.94,19.26&#10;296.36,19.05&#10;297.77,18.91&#10;299.19,18.81&#10;300.6,18.66&#10;302.02,18.54&#10;303.43,18.4&#10;304.85,18.31&#10;306.26,18.32&#10;307.68,18.37&#10;309.09,18.39&#10;310.51,18.52&#10;311.92,18.55&#10;313.34,18.82&#10;314.75,18.99&#10;316.17,19.19&#10;317.58,19.31&#10;319,19.55&#10;320.41,19.74&#10;321.83,19.97&#10;323.24,20.11&#10;324.66,20.16&#10;326.07,20.32&#10;327.49,20.46&#10;328.9,20.52&#10;330.32,20.58&#10;331.73,20.78&#10;333.15,20.81&#10;334.56,20.88&#10;335.98,21.02&#10;337.39,21.2&#10;338.81,21.23&#10;340.22,21.31&#10;341.64,21.4&#10;343.05,21.64&#10;344.47,21.66&#10;345.88,21.71&#10;347.3,21.73&#10;348.71,21.89&#10;350.13,21.9&#10;351.54,22.04&#10;352.96,22.32&#10;354.37,22.57&#10;355.79,22.73&#10;357.2,22.87&#10;358.62,22.94&#10;360.03,23.12&#10;361.45,23.22&#10;362.86,23.22&#10;364.28,23.26&#10;365.69,23.36&#10;367.11,23.42&#10;368.52,23.45&#10;369.94,23.62&#10;371.35,23.66&#10;372.77,23.81&#10;374.18,23.83&#10;375.6,23.95&#10;377.01,24.02&#10;378.43,24.1&#10;379.84,24.12&#10;381.26,24.19&#10;382.67,24.22&#10;384.09,24.26&#10;385.5,24.28&#10;386.92,24.32&#10;388.33,24.36&#10;389.75,24.37&#10;391.16,24.37&#10;392.58,24.4&#10;393.99,24.39&#10;395.41,24.4&#10;396.82,24.4&#10;398.24,24.41&#10;399.65,24.41&#10;401.07,24.41&#10;401.07,24.42"/><polyline class="range" points="264.8,25.64&#10;264.8,26.86&#10;325.65,26.86&#10;325.65,25.64"/><polyline class="range" points="258.58,28.08&#10;258.58,29.3&#10;361.45,29.3&#10;361.45,28.08"/></g><g id="itemarea12" transform="translate(0 218.15)"/><g id="itemarea13" transform="translate(0 238.37)"><polygon class="shadow" points="106.75,24.42&#10;106.75,24.42&#10;108.16,24.42&#10;109.58,24.41&#10;110.99,24.41&#10;112.41,24.41&#10;113.82,24.41&#10;115.24,24.41&#10;116.65,24.41&#10;118.07,24.41&#10;119.48,24.41&#10;120.9,24.41&#10;122.31,24.41&#10;123.73,24.41&#10;125.14,24.41&#10;126.56,24.41&#10;127.97,24.41&#10;129.39,24.41&#10;130.8,24.41&#10;132.22,24.41&#10;133.63,24.41&#10;135.05,24.41&#10;136.46,24.41&#10;137.88,24.41&#10;139.29,24.41&#10;140.71,24.41&#10;142.12,24.41&#10;143.54,24.41&#10;144.95,24.41&#10;146.37,24.4&#10;147.78,24.39&#10;149.2,24.38&#10;150.61,24.36&#10;152.03,24.31&#10;153.44,24.27&#10;154.86,24.25&#10;156.27,24.21&#10;157.69,24.13&#10;159.1,24.01&#10;160.52,23.94&#10;161.93,23.87&#10;163.35,23.81&#10;164.76,23.8&#10;166.18,23.75&#10;167.59,23.58&#10;169.01,23.56&#10;170.42,23.78&#10;171.84,23.79&#10;173.25,23.84&#10;174.67,23.98&#10;176.08,24.08&#10;177.5,24.18&#10;178.91,24.25&#10;180.33,24.22&#10;181.74,24.08&#10;183.16,23.65&#10;184.57,23.53&#10;185.99,23.78&#10;187.4,23.97&#10;188.82,24.07&#10;190.23,24.11&#10;191.65,24.16&#10;193.06,24.17&#10;194.48,24.13&#10;195.89,24.11&#10;197.31,24.15&#10;198.72,24.2&#10;200.14,24.23&#10;201.55,24.2&#10;202.97,24.13&#10;204.38,24.08&#10;205.8,24.09&#10;207.21,24.11&#10;208.63,24.1&#10;210.04,24.04&#10;211.46,24&#10;212.87,24.02&#10;214.29,24.01&#10;215.7,23.86&#10;217.12,23.54&#10;218.53,23.28&#10;219.95,23.32&#10;221.36,23.46&#10;222.78,23.44&#10;224.19,23.27&#10;225.61,23.11&#10;227.02,23.11&#10;228.44,23.18&#10;229.85,23.23&#10;231.27,23.24&#10;232.68,23.19&#10;234.1,23.12&#10;235.51,23.03&#10;236.93,23&#10;238.34,22.98&#10;239.76,22.91&#10;241.17,22.78&#10;242.59,22.69&#10;244,22.7&#10;245.42,22.83&#10;246.83,22.96&#10;248.25,23.05&#10;249.66,23.05&#10;251.08,22.95&#10;252.49,22.71&#10;253.91,22.29&#10;255.32,21.62&#10;256.74,20.72&#10;258.15,19.77&#10;259.57,18.99&#10;260.98,18.55&#10;262.4,18.38&#10;263.81,18.32&#10;265.23,18.31&#10;266.64,18.32&#10;268.06,18.37&#10;269.47,18.53&#10;270.89,18.93&#10;272.3,19.52&#10;273.72,20.13&#10;275.13,20.54&#10;276.55,20.6&#10;277.96,20.38&#10;279.38,19.96&#10;280.79,19.53&#10;282.21,19.2&#10;283.62,19.04&#10;285.04,19&#10;286.45,19.01&#10;287.87,18.97&#10;289.28,18.82&#10;290.7,18.61&#10;292.11,18.45&#10;293.53,18.39&#10;294.94,18.4&#10;296.36,18.44&#10;297.77,18.54&#10;299.19,18.59&#10;300.6,18.51&#10;302.02,18.38&#10;303.43,18.37&#10;304.85,18.61&#10;306.26,18.93&#10;307.68,18.92&#10;309.09,18.77&#10;310.51,18.79&#10;311.92,19.2&#10;313.34,20&#10;314.75,20.74&#10;316.17,20.99&#10;317.58,20.81&#10;319,20.62&#10;320.41,20.91&#10;321.83,21.51&#10;323.24,21.94&#10;324.66,22.14&#10;326.07,22.23&#10;327.49,22.42&#10;328.9,22.65&#10;330.32,22.66&#10;331.73,22.57&#10;333.15,22.45&#10;334.56,22.36&#10;335.98,22.43&#10;337.39,22.51&#10;338.81,22.57&#10;340.22,22.69&#10;341.64,22.86&#10;343.05,23.07&#10;344.47,23.29&#10;345.88,23.41&#10;347.3,23.36&#10;348.71,23.22&#10;350.13,23.03&#10;351.54,22.83&#10;352.96,22.8&#10;354.37,23.1&#10;355.79,23.5&#10;357.2,23.82&#10;358.62,24.03&#10;360.03,24.16&#10;361.45,24.2&#10;362.86,24.2&#10;364.28,24.21&#10;365.69,24.19&#10;367.11,24.08&#10;368.52,23.97&#10;369.94,24.03&#10;371.35,24.17&#10;372.77,24.23&#10;374.18,24.25&#10;375.6,24.28&#10;377.01,24.32&#10;378.43,24.35&#10;379.84,24.36&#10;381.26,24.35&#10;382.67,24.34&#10;384.09,24.32&#10;385.5,24.33&#10;386.92,24.35&#10;388.33,24.37&#10;389.75,24.38&#10;391.16,24.38&#10;392.58,24.39&#10;393.99,24.4&#10;395.41,24.4&#10;396.82,24.4&#10;398.24,24.39&#10;399.65,24.38&#10;401.07,24.39&#10;402.48,24.4&#10;403.9,24.4&#10;405.31,24.41&#10;406.73,24.41&#10;408.14,24.41&#10;409.56,24.41&#10;410.97,24.41&#10;412.39,24.41&#10;413.8,24.41&#10;415.22,24.41&#10;416.63,24.41&#10;418.05,24.41&#10;419.46,24.41&#10;420.88,24.41&#10;422.29,24.41&#10;423.71,24.41&#10;425.12,24.41&#10;426.54,24.41&#10;427.95,24.41&#10;429.37,24.41&#10;430.78,24.41&#10;432.2,24.41&#10;433.61,24.41&#10;435.03,24.41&#10;436.44,24.41&#10;437.86,24.41&#10;439.27,24.41&#10;440.69,24.41&#10;442.1,24.41&#10;443.52,24.42&#10;444.93,24.42&#10;446.35,24.42&#10;447.76,24.42&#10;449.18,24.42&#10;450.59,24.41&#10;452.01,24.41&#10;453.42,24.41&#10;454.84,24.41&#10;456.25,24.41&#10;457.67,24.41&#10;459.08,24.41&#10;460.5,24.41&#10;461.91,24.41&#10;463.33,24.42&#10;463.33,24.42"/><polygon class="main" points="245.42,24.42&#10;245.42,24.42&#10;246.83,24.41&#10;248.25,24.41&#10;249.66,24.41&#10;251.08,24.41&#10;252.49,24.41&#10;253.91,24.41&#10;255.32,24.41&#10;256.74,24.4&#10;258.15,24.39&#10;259.57,24.36&#10;260.98,24.33&#10;262.4,24.27&#10;263.81,24.23&#10;265.23,24.16&#10;266.64,24.06&#10;268.06,24&#10;269.47,23.9&#10;270.89,23.82&#10;272.3,23.83&#10;273.72,23.8&#10;275.13,23.8&#10;276.55,23.75&#10;277.96,23.66&#10;279.38,23.5&#10;280.79,23.28&#10;282.21,23.22&#10;283.62,23.08&#10;285.04,22.98&#10;286.45,22.86&#10;287.87,22.76&#10;289.28,22.64&#10;290.7,22.45&#10;292.11,22.27&#10;293.53,22.06&#10;294.94,21.91&#10;296.36,21.77&#10;297.77,21.62&#10;299.19,21.57&#10;300.6,21.28&#10;302.02,20.99&#10;303.43,20.75&#10;304.85,20.66&#10;306.26,20.64&#10;307.68,20.3&#10;309.09,19.94&#10;310.51,19.64&#10;311.92,19.75&#10;313.34,20.13&#10;314.75,20.58&#10;316.17,20.6&#10;317.58,20.26&#10;319,19.82&#10;320.41,19.95&#10;321.83,20.38&#10;323.24,20.91&#10;324.66,21.02&#10;326.07,20.98&#10;327.49,21.08&#10;328.9,21.23&#10;330.32,21.19&#10;331.73,20.95&#10;333.15,20.52&#10;334.56,20.12&#10;335.98,20.08&#10;337.39,20.09&#10;338.81,19.96&#10;340.22,20.08&#10;341.64,20.39&#10;343.05,20.68&#10;344.47,21.1&#10;345.88,21.23&#10;347.3,20.97&#10;348.71,20.36&#10;350.13,19.69&#10;351.54,18.69&#10;352.96,18.31&#10;354.37,19.21&#10;355.79,20.3&#10;357.2,21.55&#10;358.62,22.4&#10;360.03,22.91&#10;361.45,23.11&#10;362.86,23.16&#10;364.28,23.13&#10;365.69,22.91&#10;367.11,22.21&#10;368.52,21.66&#10;369.94,21.89&#10;371.35,22.61&#10;372.77,23.05&#10;374.18,23.2&#10;375.6,23.32&#10;377.01,23.67&#10;378.43,23.87&#10;379.84,23.94&#10;381.26,23.95&#10;382.67,23.91&#10;384.09,23.87&#10;385.5,23.92&#10;386.92,24.05&#10;388.33,24.19&#10;389.75,24.25&#10;391.16,24.29&#10;392.58,24.33&#10;393.99,24.37&#10;395.41,24.38&#10;396.82,24.39&#10;398.24,24.38&#10;399.65,24.38&#10;401.07,24.4&#10;402.48,24.41&#10;403.9,24.41&#10;405.31,24.41&#10;406.73,24.41&#10;406.73,24.42"/><polyline class="range" points="300.89,25.64&#10;300.89,26.86&#10;356.78,26.86&#10;356.78,25.64"/><polyline class="range" points="277.96,28.08&#10;277.96,29.3&#10;377.01,29.3&#10;377.01,28.08"/></g><g id="itemarea14" transform="translate(0 258.58)"><polygon class="shadow" points="258.15,24.42&#10;258.15,24.42&#10;259.57,24.42&#10;260.98,24.42&#10;262.4,24.41&#10;263.81,24.41&#10;265.23,24.41&#10;266.64,24.41&#10;268.06,24.41&#10;269.47,24.41&#10;270.89,24.41&#10;272.3,24.41&#10;273.72,24.41&#10;275.13,24.4&#10;276.55,24.4&#10;277.96,24.41&#10;279.38,24.41&#10;280.79,24.41&#10;282.21,24.41&#10;283.62,24.41&#10;285.04,24.41&#10;286.45,24.41&#10;287.87,24.41&#10;289.28,24.41&#10;290.7,24.41&#10;292.11,24.41&#10;293.53,24.41&#10;294.94,24.41&#10;296.36,24.41&#10;297.77,24.41&#10;299.19,24.41&#10;300.6,24.41&#10;302.02,24.41&#10;303.43,24.41&#10;304.85,24.41&#10;306.26,24.41&#10;307.68,24.41&#10;309.09,24.41&#10;310.51,24.41&#10;311.92,24.41&#10;313.34,24.41&#10;314.75,24.4&#10;316.17,24.4&#10;317.58,24.4&#10;319,24.4&#10;320.41,24.4&#10;321.83,24.38&#10;323.24,24.35&#10;324.66,24.32&#10;326.07,24.31&#10;327.49,24.28&#10;328.9,24.23&#10;330.32,24.23&#10;331.73,24.26&#10;333.15,24.28&#10;334.56,24.3&#10;335.98,24.28&#10;337.39,24.27&#10;338.81,24.25&#10;340.22,24.23&#10;341.64,24.17&#10;343.05,24.08&#10;344.47,23.94&#10;345.88,23.83&#10;347.3,23.88&#10;348.71,23.99&#10;350.13,24.1&#10;351.54,24.18&#10;352.96,24.19&#10;354.37,24.07&#10;355.79,23.73&#10;357.2,23.17&#10;358.62,22.4&#10;360.03,21.62&#10;361.45,21.21&#10;362.86,21.17&#10;364.28,21.08&#10;365.69,21.28&#10;367.11,22.14&#10;368.52,22.68&#10;369.94,22.42&#10;371.35,21.5&#10;372.77,20.86&#10;374.18,20.62&#10;375.6,20.26&#10;377.01,19.57&#10;378.43,19.02&#10;379.84,18.9&#10;381.26,19&#10;382.67,19.22&#10;384.09,19.5&#10;385.5,19.47&#10;386.92,19.01&#10;388.33,18.63&#10;389.75,18.45&#10;391.16,18.42&#10;392.58,18.32&#10;393.99,18.4&#10;395.41,18.58&#10;396.82,18.36&#10;398.24,18.34&#10;399.65,18.38&#10;401.07,18.31&#10;402.48,18.33&#10;403.9,18.55&#10;405.31,19.37&#10;406.73,20.37&#10;408.14,20.73&#10;409.56,20.53&#10;410.97,20.29&#10;412.39,20.21&#10;413.8,20.36&#10;415.22,20.56&#10;416.63,20.66&#10;418.05,20.82&#10;419.46,20.87&#10;420.88,20.87&#10;422.29,20.79&#10;423.71,20.53&#10;425.12,20.34&#10;426.54,20.47&#10;427.95,21.06&#10;429.37,21.86&#10;430.78,22.57&#10;432.2,22.92&#10;433.61,23&#10;435.03,23.11&#10;436.44,23.51&#10;437.86,23.91&#10;439.27,24.15&#10;440.69,24.27&#10;442.1,24.35&#10;443.52,24.4&#10;444.93,24.41&#10;446.35,24.41&#10;447.76,24.4&#10;449.18,24.38&#10;450.59,24.35&#10;452.01,24.31&#10;453.42,24.27&#10;454.84,24.2&#10;456.25,24.21&#10;457.67,24.26&#10;459.08,24.29&#10;460.5,24.31&#10;461.91,24.35&#10;463.33,24.38&#10;464.74,24.39&#10;466.16,24.4&#10;467.57,24.4&#10;468.99,24.41&#10;470.4,24.41&#10;471.82,24.41&#10;473.23,24.41&#10;474.65,24.41&#10;476.06,24.41&#10;477.48,24.41&#10;478.89,24.41&#10;480.31,24.41&#10;481.72,24.41&#10;483.14,24.41&#10;484.55,24.41&#10;485.97,24.41&#10;487.38,24.41&#10;488.8,24.41&#10;490.21,24.41&#10;491.63,24.42&#10;493.04,24.42&#10;493.04,24.42"/><polygon class="main" points="268.06,24.42&#10;268.06,24.42&#10;269.47,24.41&#10;270.89,24.41&#10;272.3,24.41&#10;273.72,24.41&#10;275.13,24.41&#10;276.55,24.41&#10;277.96,24.41&#10;279.38,24.41&#10;280.79,24.41&#10;282.21,24.41&#10;283.62,24.42&#10;285.04,24.41&#10;286.45,24.41&#10;287.87,24.41&#10;289.28,24.41&#10;290.7,24.42&#10;292.11,24.42&#10;293.53,24.41&#10;294.94,24.42&#10;296.36,24.42&#10;297.77,24.41&#10;299.19,24.41&#10;300.6,24.42&#10;302.02,24.41&#10;303.43,24.41&#10;304.85,24.41&#10;306.26,24.41&#10;307.68,24.41&#10;309.09,24.41&#10;310.51,24.41&#10;311.92,24.41&#10;313.34,24.41&#10;314.75,24.39&#10;316.17,24.39&#10;317.58,24.39&#10;319,24.4&#10;320.41,24.38&#10;321.83,24.34&#10;323.24,24.29&#10;324.66,24.24&#10;326.07,24.2&#10;327.49,24.13&#10;328.9,24.05&#10;330.32,24.04&#10;331.73,24.08&#10;333.15,24.11&#10;334.56,24.13&#10;335.98,24.14&#10;337.39,24.09&#10;338.81,24.05&#10;340.22,23.99&#10;341.64,23.82&#10;343.05,23.64&#10;344.47,23.35&#10;345.88,23.15&#10;347.3,23.25&#10;348.71,23.48&#10;350.13,23.71&#10;351.54,23.88&#10;352.96,23.88&#10;354.37,23.63&#10;355.79,22.95&#10;357.2,21.76&#10;358.62,20.34&#10;360.03,18.95&#10;361.45,18.31&#10;362.86,18.38&#10;364.28,18.49&#10;365.69,19.08&#10;367.11,20.45&#10;368.52,21.28&#10;369.94,21.14&#10;371.35,20.05&#10;372.77,19.5&#10;374.18,19.35&#10;375.6,19.21&#10;377.01,19.01&#10;378.43,18.86&#10;379.84,19.28&#10;381.26,19.77&#10;382.67,20.45&#10;384.09,20.99&#10;385.5,21.43&#10;386.92,21.62&#10;388.33,21.91&#10;389.75,22.28&#10;391.16,22.56&#10;392.58,22.95&#10;393.99,23.28&#10;395.41,23.52&#10;396.82,23.74&#10;398.24,23.88&#10;399.65,24.05&#10;401.07,24.16&#10;402.48,24.22&#10;403.9,24.28&#10;405.31,24.33&#10;406.73,24.36&#10;408.14,24.38&#10;409.56,24.39&#10;410.97,24.39&#10;412.39,24.4&#10;413.8,24.4&#10;415.22,24.41&#10;416.63,24.41&#10;418.05,24.41&#10;419.46,24.41&#10;420.88,24.41&#10;422.29,24.41&#10;423.71,24.42&#10;423.71,24.42"/><polyline class="range" points="357.77,25.64&#10;357.77,26.86&#10;384.66,26.86&#10;384.66,25.64"/><polyline class="range" points="341.21,28.08&#10;341.21,29.3&#10;398.24,29.3&#10;398.24,28.08"/></g><g id="itemarea15" transform="translate(0 278.8)"><polygon class="shadow" points="142.12,24.42&#10;142.12,24.42&#10;143.54,24.42&#10;144.95,24.42&#10;146.37,24.41&#10;147.78,24.41&#10;149.2,24.41&#10;150.61,24.41&#10;152.03,24.41&#10;153.44,24.41&#10;154.86,24.41&#10;156.27,24.41&#10;157.69,24.41&#10;159.1,24.41&#10;160.52,24.41&#10;161.93,24.41&#10;163.35,24.41&#10;164.76,24.41&#10;166.18,24.41&#10;167.59,24.41&#10;169.01,24.41&#10;170.42,24.41&#10;171.84,24.41&#10;173.25,24.41&#10;174.67,24.41&#10;176.08,24.41&#10;177.5,24.41&#10;178.91,24.41&#10;180.33,24.41&#10;181.74,24.41&#10;183.16,24.41&#10;184.57,24.41&#10;185.99,24.41&#10;187.4,24.41&#10;188.82,24.41&#10;190.23,24.41&#10;191.65,24.41&#10;193.06,24.41&#10;194.48,24.41&#10;195.89,24.41&#10;197.31,24.41&#10;198.72,24.41&#10;200.14,24.41&#10;201.55,24.41&#10;202.97,24.41&#10;204.38,24.41&#10;205.8,24.41&#10;207.21,24.41&#10;208.63,24.41&#10;210.04,24.41&#10;211.46,24.41&#10;212.87,24.41&#10;214.29,24.41&#10;215.7,24.41&#10;217.12,24.41&#10;218.53,24.41&#10;219.95,24.41&#10;221.36,24.41&#10;222.78,24.41&#10;224.19,24.41&#10;225.61,24.41&#10;227.02,24.41&#10;228.44,24.41&#10;229.85,24.41&#10;231.27,24.41&#10;232.68,24.41&#10;234.1,24.41&#10;235.51,24.41&#10;236.93,24.41&#10;238.34,24.41&#10;239.76,24.41&#10;241.17,24.41&#10;242.59,24.41&#10;244,24.41&#10;245.42,24.41&#10;246.83,24.41&#10;248.25,24.41&#10;249.66,24.41&#10;251.08,24.41&#10;252.49,24.41&#10;253.91,24.41&#10;255.32,24.41&#10;256.74,24.4&#10;258.15,24.38&#10;259.57,24.35&#10;260.98,24.31&#10;262.4,24.27&#10;263.81,24.25&#10;265.23,24.23&#10;266.64,24.21&#10;268.06,24.18&#10;269.47,24.1&#10;270.89,23.97&#10;272.3,23.79&#10;273.72,23.58&#10;275.13,23.43&#10;276.55,23.41&#10;277.96,23.49&#10;279.38,23.65&#10;280.79,23.78&#10;282.21,23.89&#10;283.62,23.94&#10;285.04,23.95&#10;286.45,23.95&#10;287.87,23.96&#10;289.28,24.01&#10;290.7,24.08&#10;292.11,24.14&#10;293.53,24.17&#10;294.94,24.17&#10;296.36,24.14&#10;297.77,24.1&#10;299.19,24.08&#10;300.6,24.11&#10;302.02,24.17&#10;303.43,24.18&#10;304.85,24.07&#10;306.26,23.97&#10;307.68,23.97&#10;309.09,24.02&#10;310.51,24.02&#10;311.92,23.89&#10;313.34,23.63&#10;314.75,23.35&#10;316.17,23.24&#10;317.58,23.32&#10;319,23.4&#10;320.41,23.28&#10;321.83,22.99&#10;323.24,22.75&#10;324.66,22.62&#10;326.07,22.56&#10;327.49,22.42&#10;328.9,22.23&#10;330.32,22.22&#10;331.73,22.3&#10;333.15,22.4&#10;334.56,22.47&#10;335.98,22.41&#10;337.39,22.35&#10;338.81,22.3&#10;340.22,22.2&#10;341.64,22.04&#10;343.05,21.83&#10;344.47,21.56&#10;345.88,21.39&#10;347.3,21.46&#10;348.71,21.65&#10;350.13,21.87&#10;351.54,22.07&#10;352.96,22.11&#10;354.37,21.79&#10;355.79,21.26&#10;357.2,20.68&#10;358.62,20.13&#10;360.03,19.7&#10;361.45,19.51&#10;362.86,19.49&#10;364.28,19.45&#10;365.69,19.54&#10;367.11,19.98&#10;368.52,20.31&#10;369.94,20.14&#10;371.35,19.64&#10;372.77,19.36&#10;374.18,19.26&#10;375.6,19.11&#10;377.01,18.85&#10;378.43,18.65&#10;379.84,18.6&#10;381.26,18.64&#10;382.67,18.72&#10;384.09,18.82&#10;385.5,18.81&#10;386.92,18.64&#10;388.33,18.5&#10;389.75,18.42&#10;391.16,18.41&#10;392.58,18.35&#10;393.99,18.31&#10;395.41,18.33&#10;396.82,18.31&#10;398.24,18.37&#10;399.65,18.39&#10;401.07,18.34&#10;402.48,18.32&#10;403.9,18.32&#10;405.31,18.47&#10;406.73,18.73&#10;408.14,18.84&#10;409.56,18.79&#10;410.97,18.71&#10;412.39,18.69&#10;413.8,18.73&#10;415.22,18.79&#10;416.63,18.83&#10;418.05,18.88&#10;419.46,18.9&#10;420.88,18.9&#10;422.29,18.87&#10;423.71,18.78&#10;425.12,18.73&#10;426.54,18.77&#10;427.95,18.96&#10;429.37,19.29&#10;430.78,19.66&#10;432.2,19.88&#10;433.61,19.93&#10;435.03,20.03&#10;436.44,20.38&#10;437.86,20.91&#10;439.27,21.39&#10;440.69,21.79&#10;442.1,22.24&#10;443.52,22.81&#10;444.93,23.24&#10;446.35,23.33&#10;447.76,23.07&#10;449.18,22.63&#10;450.59,22.25&#10;452.01,22&#10;453.42,21.79&#10;454.84,21.54&#10;456.25,21.59&#10;457.67,21.78&#10;459.08,21.87&#10;460.5,22.01&#10;461.91,22.24&#10;463.33,22.6&#10;464.74,22.72&#10;466.16,22.92&#10;467.57,23.02&#10;468.99,23.22&#10;470.4,23.29&#10;471.82,23.26&#10;473.23,23.39&#10;474.65,23.39&#10;476.06,23.39&#10;477.48,23.49&#10;478.89,23.58&#10;480.31,23.55&#10;481.72,23.57&#10;483.14,23.53&#10;484.55,23.72&#10;485.97,23.88&#10;487.38,24.02&#10;488.8,24.17&#10;490.21,24.23&#10;491.63,24.26&#10;493.04,24.3&#10;494.46,24.33&#10;495.87,24.35&#10;497.29,24.33&#10;498.7,24.33&#10;500.12,24.33&#10;501.53,24.3&#10;502.95,24.28&#10;504.36,24.31&#10;505.78,24.34&#10;507.19,24.35&#10;508.61,24.35&#10;510.02,24.33&#10;511.44,24.31&#10;512.85,24.3&#10;514.27,24.31&#10;515.68,24.31&#10;517.1,24.29&#10;518.51,24.29&#10;519.93,24.3&#10;521.34,24.34&#10;522.76,24.36&#10;524.17,24.38&#10;525.59,24.39&#10;527,24.4&#10;528.42,24.4&#10;529.83,24.4&#10;531.25,24.4&#10;532.66,24.41&#10;534.08,24.41&#10;535.49,24.41&#10;536.91,24.41&#10;538.32,24.41&#10;539.74,24.41&#10;541.15,24.41&#10;542.57,24.41&#10;543.98,24.41&#10;545.4,24.41&#10;546.81,24.41&#10;548.23,24.41&#10;549.64,24.41&#10;551.06,24.41&#10;552.47,24.41&#10;553.89,24.41&#10;555.3,24.41&#10;556.72,24.41&#10;558.13,24.41&#10;559.55,24.41&#10;560.96,24.41&#10;562.38,24.42&#10;562.38,24.42"/><polygon class="main" points="259.57,24.42&#10;259.57,24.42&#10;260.98,24.41&#10;262.4,24.41&#10;263.81,24.41&#10;265.23,24.41&#10;266.64,24.4&#10;268.06,24.39&#10;269.47,24.38&#10;270.89,24.36&#10;272.3,24.32&#10;273.72,24.27&#10;275.13,24.23&#10;276.55,24.22&#10;277.96,24.22&#10;279.38,24.24&#10;280.79,24.26&#10;282.21,24.27&#10;283.62,24.29&#10;285.04,24.27&#10;286.45,24.27&#10;287.87,24.26&#10;289.28,24.28&#10;290.7,24.29&#10;292.11,24.31&#10;293.53,24.32&#10;294.94,24.32&#10;296.36,24.3&#10;297.77,24.27&#10;299.19,24.26&#10;300.6,24.26&#10;302.02,24.29&#10;303.43,24.29&#10;304.85,24.21&#10;306.26,24.15&#10;307.68,24.14&#10;309.09,24.15&#10;310.51,24.14&#10;311.92,24.04&#10;313.34,23.84&#10;314.75,23.61&#10;316.17,23.54&#10;317.58,23.56&#10;319,23.58&#10;320.41,23.44&#10;321.83,23.25&#10;323.24,22.96&#10;324.66,22.84&#10;326.07,22.7&#10;327.49,22.54&#10;328.9,22.34&#10;330.32,22.27&#10;331.73,22.31&#10;333.15,22.38&#10;334.56,22.41&#10;335.98,22.34&#10;337.39,22.19&#10;338.81,22.08&#10;340.22,22.03&#10;341.64,21.78&#10;343.05,21.45&#10;344.47,21.15&#10;345.88,20.91&#10;347.3,21.01&#10;348.71,21.11&#10;350.13,21.32&#10;351.54,21.55&#10;352.96,21.54&#10;354.37,21.09&#10;355.79,20.47&#10;357.2,19.74&#10;358.62,19.02&#10;360.03,18.48&#10;361.45,18.31&#10;362.86,18.42&#10;364.28,18.38&#10;365.69,18.6&#10;367.11,19.12&#10;368.52,19.62&#10;369.94,19.54&#10;371.35,19.27&#10;372.77,19.09&#10;374.18,19.31&#10;375.6,19.34&#10;377.01,19.47&#10;378.43,19.64&#10;379.84,19.93&#10;381.26,20.36&#10;382.67,20.72&#10;384.09,21.14&#10;385.5,21.48&#10;386.92,21.83&#10;388.33,22.07&#10;389.75,22.46&#10;391.16,22.77&#10;392.58,23.07&#10;393.99,23.28&#10;395.41,23.58&#10;396.82,23.73&#10;398.24,23.91&#10;399.65,24.03&#10;401.07,24.15&#10;402.48,24.22&#10;403.9,24.28&#10;405.31,24.31&#10;406.73,24.32&#10;408.14,24.35&#10;409.56,24.37&#10;410.97,24.38&#10;412.39,24.39&#10;413.8,24.4&#10;415.22,24.4&#10;416.63,24.4&#10;418.05,24.41&#10;419.46,24.41&#10;420.88,24.41&#10;422.29,24.41&#10;423.71,24.41&#10;425.12,24.41&#10;425.12,24.42"/><polyline class="range" points="342.77,25.64&#10;342.77,26.86&#10;351.4,26.86&#10;351.4,25.64"/><polyline class="range" points="353.1,25.64&#10;353.1,26.86&#10;385.65,26.86&#10;385.65,25.64"/><polyline class="range" points="314.61,28.08&#10;314.61,29.3&#10;395.83,29.3&#10;395.83,28.08"/></g><g id="itemarea16" transform="translate(0 299.01)"/></g></g><g id="textarea" transform="translate(14.15 14.15)"><g id="itemarea1" transform="translate(0 -4.2)"><text transform="translate(0 2.33)" style="font-size:5.818181818181818pt" x="7.22" y="24.42">Sequence Howe [Amodel:98]</text></g><g id="itemarea2" transform="translate(0 16.01)"><text transform="translate(0 2.33)" style="font-size:5.818181818181818pt;font-style:italic" x="12.03" y="24.42">Boundary start Howe</text></g><g id="itemarea3" transform="translate(0 36.23)"><text transform="translate(0 2.33)" style="font-size:5.818181818181818pt" x="12.03" y="24.42">Phase phase 3</text></g><g id="itemarea4" transform="translate(0 56.44)"><text transform="translate(0 2.33)" style="font-size:5.818181818181818pt;font-style:italic" x="16.84" y="24.42">R_Date GU-1760 [A:114]</text></g><g id="itemarea5" transform="translate(0 76.66)"><text transform="translate(0 2.33)" style="font-size:5.818181818181818pt;font-style:italic" x="16.84" y="24.42">R_Date GU-1804 [A:111]</text></g><g id="itemarea6" transform="translate(0 96.87)"><text transform="translate(0 2.33)" style="font-size:5.818181818181818pt" x="12.03" y="24.42">phase 4</text></g><g id="itemarea7" transform="translate(0 117.08)"><text transform="translate(0 2.33)" style="font-size:5.818181818181818pt;font-style:italic" x="12.03" y="24.42">R_Date GU-1805 [A:123]</text></g><g id="itemarea8" transform="translate(0 137.3)"><text transform="translate(0 2.33)" style="font-size:5.818181818181818pt" x="12.03" y="24.42">After residual material in phase 5 contexts</text></g><g id="itemarea9" transform="translate(0 157.51)"><text transform="translate(0 2.33)" style="font-size:5.818181818181818pt;font-style:italic" x="16.84" y="24.42">R_Date GU-1789 [A:101]</text></g><g id="itemarea10" transform="translate(0 177.73)"><text transform="translate(0 2.33)" style="font-size:5.818181818181818pt;font-style:italic" x="16.84" y="24.42">R_Date GU-2348 [A:104]</text></g><g id="itemarea11" transform="translate(0 197.94)"><text transform="translate(0 2.33)" style="font-size:5.818181818181818pt;font-style:italic" x="12.03" y="24.42">Boundary roundhouse constructed</text></g><g id="itemarea12" transform="translate(0 218.15)"><text transform="translate(0 2.33)" style="font-size:5.818181818181818pt" x="12.03" y="24.42">Phase phase 5/6</text></g><g id="itemarea13" transform="translate(0 238.37)"><text transform="translate(0 2.33)" style="font-size:5.818181818181818pt;font-style:italic" x="16.84" y="24.42">R_Date GU-1758 [A:71]</text></g><g id="itemarea14" transform="translate(0 258.58)"><text transform="translate(0 2.33)" style="font-size:5.818181818181818pt;font-style:italic" x="16.84" y="24.42">R_Date GU-1759 [A:81]</text></g><g id="itemarea15" transform="translate(0 278.8)"><text transform="translate(0 2.33)" style="font-size:5.818181818181818pt;font-style:italic" x="16.84" y="24.42">R_Date GU-2355 [A:92]</text></g><g id="itemarea16" transform="translate(0 299.01)"><text transform="translate(0 2.33)" style="font-size:5.818181818181818pt" x="12.03" y="24.42">continues...</text></g></g><rect class="border" x="14.15" width="481.1" y="14.15" height="343.64"/><g><line class="gridline" x1="44.63" y1="357.79" x2="44.63" y2="14.15"/><line class="gridline" x1="101.23" y1="357.79" x2="101.23" y2="14.15"/><line class="gridline" x1="157.83" y1="357.79" x2="157.83" y2="14.15"/><line class="gridline" x1="214.43" y1="357.79" x2="214.43" y2="14.15"/><line class="gridline" x1="271.03" y1="357.79" x2="271.03" y2="14.15"/><line class="gridline" x1="327.63" y1="357.79" x2="327.63" y2="14.15"/><line class="gridline" x1="384.23" y1="357.79" x2="384.23" y2="14.15"/><line class="gridline" x1="440.83" y1="357.79" x2="440.83" y2="14.15"/></g><g><line class="majorpip" x1="14.15" y1="357.79" x2="495.25" y2="357.79"/><line class="minorpip" x1="16.33" y1="357.79" x2="16.33" y2="354.96"/><line class="minorpip" x1="30.48" y1="357.79" x2="30.48" y2="354.96"/><line class="minorpip" x1="44.63" y1="357.79" x2="44.63" y2="354.96"/><line class="minorpip" x1="58.78" y1="357.79" x2="58.78" y2="354.96"/><line class="minorpip" x1="72.93" y1="357.79" x2="72.93" y2="354.96"/><line class="minorpip" x1="87.08" y1="357.79" x2="87.08" y2="354.96"/><line class="minorpip" x1="101.23" y1="357.79" x2="101.23" y2="354.96"/><line class="minorpip" x1="115.38" y1="357.79" x2="115.38" y2="354.96"/><line class="minorpip" x1="129.53" y1="357.79" x2="129.53" y2="354.96"/><line class="minorpip" x1="143.68" y1="357.79" x2="143.68" y2="354.96"/><line class="minorpip" x1="157.83" y1="357.79" x2="157.83" y2="354.96"/><line class="minorpip" x1="171.98" y1="357.79" x2="171.98" y2="354.96"/><line class="minorpip" x1="186.13" y1="357.79" x2="186.13" y2="354.96"/><line class="minorpip" x1="200.28" y1="357.79" x2="200.28" y2="354.96"/><line class="minorpip" x1="214.43" y1="357.79" x2="214.43" y2="354.96"/><line class="minorpip" x1="228.58" y1="357.79" x2="228.58" y2="354.96"/><line class="minorpip" x1="242.73" y1="357.79" x2="242.73" y2="354.96"/><line class="minorpip" x1="256.88" y1="357.79" x2="256.88" y2="354.96"/><line class="minorpip" x1="271.03" y1="357.79" x2="271.03" y2="354.96"/><line class="minorpip" x1="285.18" y1="357.79" x2="285.18" y2="354.96"/><line class="minorpip" x1="299.33" y1="357.79" x2="299.33" y2="354.96"/><line class="minorpip" x1="313.48" y1="357.79" x2="313.48" y2="354.96"/><line class="minorpip" x1="327.63" y1="357.79" x2="327.63" y2="354.96"/><line class="minorpip" x1="341.78" y1="357.79" x2="341.78" y2="354.96"/><line class="minorpip" x1="355.93" y1="357.79" x2="355.93" y2="354.96"/><line class="minorpip" x1="370.08" y1="357.79" x2="370.08" y2="354.96"/><line class="minorpip" x1="384.23" y1="357.79" x2="384.23" y2="354.96"/><line class="minorpip" x1="398.38" y1="357.79" x2="398.38" y2="354.96"/><line class="minorpip" x1="412.53" y1="357.79" x2="412.53" y2="354.96"/><line class="minorpip" x1="426.68" y1="357.79" x2="426.68" y2="354.96"/><line class="minorpip" x1="440.83" y1="357.79" x2="440.83" y2="354.96"/><line class="minorpip" x1="454.98" y1="357.79" x2="454.98" y2="354.96"/><line class="minorpip" x1="469.13" y1="357.79" x2="469.13" y2="354.96"/><line class="minorpip" x1="483.28" y1="357.79" x2="483.28" y2="354.96"/><line class="majorpip" x1="44.63" y1="357.79" x2="44.63" y2="352.13"/><text transform="translate(0 6.75)" style="font-size:5.818181818181818pt;text-anchor:middle" x="44.63" y="357.79">1200</text><line class="majorpip" x1="101.23" y1="357.79" x2="101.23" y2="352.13"/><text transform="translate(0 6.75)" style="font-size:5.818181818181818pt;text-anchor:middle" x="101.23" y="357.79">1000</text><line class="majorpip" x1="157.83" y1="357.79" x2="157.83" y2="352.13"/><text transform="translate(0 6.75)" style="font-size:5.818181818181818pt;text-anchor:middle" x="157.83" y="357.79">800</text><line class="majorpip" x1="214.43" y1="357.79" x2="214.43" y2="352.13"/><text transform="translate(0 6.75)" style="font-size:5.818181818181818pt;text-anchor:middle" x="214.43" y="357.79">600</text><line class="majorpip" x1="271.03" y1="357.79" x2="271.03" y2="352.13"/><text transform="translate(0 6.75)" style="font-size:5.818181818181818pt;text-anchor:middle" x="271.03" y="357.79">400</text><line class="majorpip" x1="327.63" y1="357.79" x2="327.63" y2="352.13"/><text transform="translate(0 6.75)" style="font-size:5.818181818181818pt;text-anchor:middle" x="327.63" y="357.79">200</text><line class="majorpip" x1="384.23" y1="357.79" x2="384.23" y2="352.13"/><text transform="translate(0 6.75)" style="font-size:5.818181818181818pt;text-anchor:middle" x="384.23" y="357.79">1BC/1AD</text><line class="majorpip" x1="440.83" y1="357.79" x2="440.83" y2="352.13"/><text transform="translate(0 6.75)" style="font-size:5.818181818181818pt;text-anchor:middle" x="440.83" y="357.79">201</text><text transform="translate(0 2.33)" style="font-size:5.818181818181818pt;text-anchor:middle;font-style:italic" x="254.7" y="386.09">Modelled date (BC/AD)</text></g><g id="references" transform="translate(0 0)"><text transform="translate(0 -0.84)" style="font-size:3.4909090909090907pt" x="14.15" y="14.15">OxCal v4.4.4 Bronk Ramsey (2021); r:5 Atmospheric data from Reimer et al (2020)</text></g></g></g>
</svg>