<?xml version="1.0" encoding="UTF-8"?><svg id="top" version="1.1" xmlns="http://www.w3.org/2000/svg" xmlns:xlink="http://www.w3.org/1999/xlink" xmlns:ev="http://www.w3.org/2001/xml-events" width="509.400pt" height="137.457pt" zoomAndPan="magnify" preserveAspectRatio="xMinYMin" onload="createPlot()" viewBox="0 0 509.400 137.457">
   <defs id="definitions">
   <filter id="Shadow" filterUnits="userSpaceOnUse">
    <feGaussianBlur in="SourceAlpha" stdDeviation="4" result="blur"/>
    <feOffset in="blur" dx="4" dy="4" result="offsetBlurredAlpha"/>
    <feMerge>
     <feMergeNode in="offsetBlurredAlpha"/>
     <feMergeNode in="SourceGraphic"/>
    </feMerge> 
   </filter>    
    <filter id="Correlation1" x="-20%" y="-20%" width="140%" height="140%" filterUnits="objectBoundingBox">
     <feGaussianBlur in="SourceGraphic" stdDeviation="7" result="blur"/>
     <feColorMatrix type="matrix" in="blur" values="0 0 0  5.00 -2.00&#10;               0 0 0 -2.50  2.50&#10;               0 0 0  0.00  0.00&#10;               0 0 0  2.50  0.00"/>
    </filter>    
    <filter id="Correlation2" x="-20%" y="-20%" width="140%" height="140%" filterUnits="objectBoundingBox">
     <feGaussianBlur in="SourceGraphic" stdDeviation="7" result="blur"/>
     <feGaussianBlur in="SourceAlpha" stdDeviation="7" result="opacity"/>
     <feColorMatrix type="matrix" in="blur" result="newcolor" values="0 0 0  5.00 -2.00&#10;               0 0 0 -2.50  2.50&#10;               0 0 0  0.00  0.00&#10;               0 0 0  2.50  0.00"/>
     <feSpecularLighting in="opacity" surfaceScale="5" specularConstant="1" specularExponent="20" lighting-color="white" result="specularOut">
      <feDistantLight azimuth="225" elevation="30"/>
     </feSpecularLighting>
     <feComposite in="newcolor" in2="specularOut" operator="arithmetic" k1="0" k2="1" k3="1" k4="0" result="litPaint"/>
    </filter>
    <pattern id="Sequence" patternUnits="userSpaceOnUse" x="0" y="0" width="5" height="5" viewBox="0 0 5 5">
    </pattern>    
    <pattern id="U_Sequence" patternUnits="userSpaceOnUse" x="0" y="0" width="5" height="5" viewBox="0 0 5 5">
     <line x1="-2.5" x2="5" y1="5" y2="-2.5" style="stroke-width:1.5;stroke:black"/>
     <line x1="0" x2="7.5" y1="7.5" y2="0" style="stroke-width:1.5;stroke:black"/>
    </pattern>    
    <pattern id="D_Sequence" patternUnits="userSpaceOnUse" x="0" y="0" width="5" height="5" viewBox="0 0 5 5">
     <line x1="-2.5" x2="7.5" y1="-2.5" y2="7.5" style="stroke-width:1;stroke:black"/>
     <line x1="-2.5" x2="7.5" y1="7.5" y2="-2.5" style="stroke-width:1;stroke:black"/>
    </pattern>    
    <pattern id="V_Sequence" patternUnits="userSpaceOnUse" x="0" y="0" width="5" height="5" viewBox="0 0 5 5">
     <ellipse cx="2.5" cy="2.5" rx="1.5" ry="0.7" style="fill:black"/>
    </pattern>    
    <pattern id="P_Sequence" patternUnits="userSpaceOnUse" x="0" y="0" width="5" height="5" viewBox="0 0 5 5">
     <circle cx="1.25" cy="3.75" r="1" style="fill:black"/>
     <circle cx="3.75" cy="1.25" r="1" style="fill:black"/>
    </pattern>
    <style type="text/css">
      rect.border { fill:none; stroke:black;stroke-width:1px }
      rect.fillblack { fill:black; stroke:black;stroke-width:1px }
      rect.structure { fill:none; stroke:none }
      rect.structtab { fill:none; stroke:none }
      rect.structclip { fill:white; stroke:none }
      rect.structborder { fill:none; stroke:black; stroke-width:0.5px }
      rect.range3 {fill:none;stroke:black;stroke-width:1px }
      rect.range2 {fill:none;stroke:black;stroke-width:1px }
      rect.range1 {fill:none;stroke:black;stroke-width:1px }
      rect.fillbackground { fill:#000099 }
      rect.fillmodel { fill:none;stroke:black;stroke-width:1px }
      rect.modeldist { fill:none;stroke:black;stroke-width:1px }
      rect.fill { }
      polygon.main { fill:black; stroke:black;stroke-width:0.2px }
      polygon.shadow { fill:none;stroke:black;stroke-width:0.2px }
      polygon.curve { fill:none;stroke:black;stroke-width:1px }
      polygon.normal { fill:none;stroke:black;stroke-width:1px }
      polygon.kdesigma { fill:lightgrey; stroke:grey;stroke-width:0px;fill-opacity:0.2 }
      polygon.modeldist { fill:url(#U_Sequence);stroke:black;stroke-width:1px }
      polyline.datacurve { fill:none; stroke:black;stroke-width:1px }
      polyline.range { fill:none; stroke:black; stroke-width:1px; stroke-linejoin:round }
      polyline.ensemble { fill:none; stroke:black; stroke-width:0.5px;stroke-opacity:0.2 }
      polyline.kdemean { fill:none; stroke:black; stroke-width:1px }
      path.model3 { fill:none;stroke:black;stroke-width:1px }
      path.model2 { fill:none;stroke:black;stroke-width:1px }
      path.model1 { fill:none;stroke:black;stroke-width:1px }
      g.curve { fill:none;stroke:black;stroke-width:1px }
      line.majorpip { stroke:black; stroke-width:1px }
      line.minorpip { stroke:black; stroke-width:0.5px }
      line.gridline { stroke:black; stroke-width:0.5px }
      line.majorpip2 { stroke:white; stroke-width:1px }
      line.minorpip2 { stroke:white; stroke-width:0.5px }
      line.gridline2 { stroke:white; stroke-width:0.5px }
      line.okline { stroke:black; stroke-width:1px }
      line.errorline { stroke:black; stroke-width:1px }
      line.range { stroke:black; stroke-width:1px }
      line.modelline { stroke:black; stroke-width:1px }
      line.constrshadow { stroke:none; stroke-width:2px }
      line.constrok { stroke:black; stroke-width:1px }
      line.constrerror { stroke:black; stroke-width:1px }
      line.curve { stroke:black;stroke-width:1px }
      text { fill:black; stroke:none; font-size:10pt; font-family:"Arial","Helvetica"; font-style:normal }
    </style>
   <clipPath id="clip1"><rect x="0" width="481.1" y="0" height="80.86"/></clipPath><clipPath id="clip2"><rect x="0" width="481.1" y="0" height="80.86"/></clipPath></defs>
    <g id="mainframe"><rect x="-50.94" width="611.28" y="-13.75" height="164.95" style="fill:white" stroke="none"/><g id="mainviewport" transform="translate(0 0)"><rect class="border" x="14.15" width="481.1" y="14.15" height="80.86"/><g id="tabarea" transform="translate(14.15 14.15)"/><g id="plotarea" transform="translate(14.15 14.15)"><g id="structarea" transform="translate(0 0)"><g clip-path="url(#clip1)"><polyline class="range" points="9.62,12.13&#10;4.81,12.13&#10;4.81,68.73&#10;9.62,68.73"/></g></g><g clip-path="url(#clip2)"><g id="itemarea2" transform="translate(0 -4.2)"><polygon class="shadow" points="211.39,24.42&#10;211.39,24.42&#10;213.82,24.42&#10;216.24,24.42&#10;218.67,24.41&#10;221.1,24.41&#10;223.53,24.41&#10;225.96,24.41&#10;228.39,24.41&#10;230.82,24.41&#10;233.25,24.41&#10;235.68,24.41&#10;238.11,24.42&#10;240.54,24.42&#10;242.97,24.42&#10;245.4,24.42&#10;247.83,24.42&#10;250.26,24.41&#10;252.69,24.41&#10;255.12,24.41&#10;257.55,24.41&#10;259.98,24.41&#10;262.41,24.41&#10;264.84,24.41&#10;267.27,24.41&#10;269.7,24.41&#10;272.13,24.41&#10;274.56,24.41&#10;276.99,24.41&#10;279.42,24.4&#10;281.85,24.39&#10;284.28,24.39&#10;286.71,24.39&#10;289.14,24.4&#10;291.57,24.35&#10;294,24.23&#10;296.43,23.88&#10;298.86,22.66&#10;301.29,21.69&#10;303.72,20.8&#10;306.15,19.53&#10;308.58,18.62&#10;311.01,18.36&#10;313.44,18.58&#10;315.87,18.64&#10;318.3,18.7&#10;320.73,19.51&#10;323.16,20.15&#10;325.59,19.37&#10;328.02,18.4&#10;330.45,18.31&#10;332.88,18.35&#10;335.3,18.58&#10;337.73,19.38&#10;340.16,19.63&#10;342.59,19.24&#10;345.02,19.3&#10;347.45,19.98&#10;349.88,20.04&#10;352.31,19.42&#10;354.74,18.55&#10;357.17,18.43&#10;359.6,19.37&#10;362.03,20.57&#10;364.46,21.15&#10;366.89,21.54&#10;369.32,22.3&#10;371.75,23.01&#10;374.18,23.47&#10;376.61,23.7&#10;379.04,23.82&#10;381.47,23.93&#10;383.9,24.1&#10;386.33,24.29&#10;388.76,24.39&#10;391.19,24.41&#10;393.62,24.41&#10;396.05,24.41&#10;398.48,24.4&#10;400.91,24.39&#10;403.34,24.39&#10;405.77,24.41&#10;408.2,24.41&#10;410.63,24.41&#10;413.06,24.42&#10;415.49,24.42&#10;417.92,24.42&#10;417.92,24.42"/></g><g id="itemarea4" transform="translate(0 16.01)"><polygon class="shadow" points="211.39,24.42&#10;211.39,24.42&#10;213.82,24.42&#10;216.24,24.42&#10;218.67,24.42&#10;221.1,24.42&#10;223.53,24.42&#10;225.96,24.41&#10;228.39,24.42&#10;230.82,24.42&#10;233.25,24.42&#10;235.68,24.42&#10;238.11,24.42&#10;240.54,24.42&#10;242.97,24.42&#10;245.4,24.42&#10;247.83,24.42&#10;250.26,24.42&#10;252.69,24.42&#10;255.12,24.42&#10;257.55,24.42&#10;259.98,24.42&#10;262.41,24.42&#10;264.84,24.42&#10;267.27,24.42&#10;269.7,24.42&#10;272.13,24.41&#10;274.56,24.41&#10;276.99,24.41&#10;279.42,24.41&#10;281.85,24.4&#10;284.28,24.4&#10;286.71,24.4&#10;289.14,24.41&#10;291.57,24.38&#10;294,24.31&#10;296.43,24.13&#10;298.86,23.47&#10;301.29,22.88&#10;303.72,22.28&#10;306.15,21.24&#10;308.58,20.14&#10;311.01,19.57&#10;313.44,20.07&#10;315.87,20.17&#10;318.3,20.28&#10;320.73,21.22&#10;323.16,21.79&#10;325.59,21.08&#10;328.02,19.7&#10;330.45,19.29&#10;332.88,19.45&#10;335.3,20.06&#10;337.73,21.09&#10;340.16,21.33&#10;342.59,20.94&#10;345.02,21.01&#10;347.45,21.65&#10;349.88,21.7&#10;352.31,21.13&#10;354.74,19.99&#10;357.17,18.81&#10;359.6,18.32&#10;362.03,18.46&#10;364.46,18.69&#10;366.89,18.91&#10;369.32,19.47&#10;371.75,20.25&#10;374.18,20.94&#10;376.61,21.37&#10;379.04,21.63&#10;381.47,21.91&#10;383.9,22.42&#10;386.33,23.17&#10;388.76,23.93&#10;391.19,24.21&#10;393.62,24.24&#10;396.05,24.16&#10;398.48,24.03&#10;400.91,23.89&#10;403.34,23.98&#10;405.77,24.22&#10;408.2,24.36&#10;410.63,24.41&#10;413.06,24.42&#10;415.49,24.42&#10;417.92,24.42&#10;420.35,24.42&#10;422.78,24.42&#10;425.21,24.42&#10;425.21,24.42"/><polygon class="main" points="211.39,24.42&#10;211.39,24.42&#10;213.82,24.42&#10;216.24,24.42&#10;218.67,24.42&#10;221.1,24.42&#10;223.53,24.42&#10;225.96,24.41&#10;228.39,24.42&#10;230.82,24.42&#10;233.25,24.42&#10;235.68,24.42&#10;238.11,24.42&#10;240.54,24.42&#10;242.97,24.42&#10;245.4,24.42&#10;247.83,24.42&#10;250.26,24.42&#10;252.69,24.42&#10;255.12,24.42&#10;257.55,24.42&#10;259.98,24.42&#10;262.41,24.42&#10;264.84,24.42&#10;267.27,24.42&#10;269.7,24.42&#10;272.13,24.41&#10;274.56,24.41&#10;276.99,24.41&#10;279.42,24.41&#10;281.85,24.39&#10;284.28,24.4&#10;286.71,24.4&#10;289.14,24.4&#10;291.57,24.36&#10;294,24.23&#10;296.43,23.89&#10;298.86,22.67&#10;301.29,21.69&#10;303.72,20.8&#10;306.15,19.53&#10;308.58,18.62&#10;311.01,18.37&#10;313.44,18.58&#10;315.87,18.64&#10;318.3,18.71&#10;320.73,19.51&#10;323.16,20.16&#10;325.59,19.37&#10;328.02,18.41&#10;330.45,18.32&#10;332.88,18.36&#10;335.3,18.59&#10;337.73,19.39&#10;340.16,19.63&#10;342.59,19.24&#10;345.02,19.31&#10;347.45,19.99&#10;349.88,20.05&#10;352.31,19.42&#10;354.74,18.55&#10;357.17,18.43&#10;359.6,19.37&#10;362.03,20.57&#10;364.46,21.15&#10;366.89,21.55&#10;369.32,22.3&#10;371.75,23.02&#10;374.18,23.48&#10;376.61,23.71&#10;379.04,23.83&#10;381.47,23.94&#10;383.9,24.11&#10;386.33,24.29&#10;388.76,24.4&#10;391.19,24.41&#10;393.62,24.42&#10;396.05,24.41&#10;398.48,24.4&#10;400.91,24.39&#10;403.34,24.4&#10;405.77,24.41&#10;408.2,24.42&#10;410.63,24.42&#10;413.06,24.42&#10;415.49,24.42&#10;417.92,24.42&#10;417.92,24.42"/><polyline class="range" points="306.15,25.64&#10;306.15,26.86&#10;320.73,26.86&#10;320.73,25.64"/><polyline class="range" points="325.1,25.64&#10;325.1,26.86&#10;345.75,26.86&#10;345.75,25.64"/><polyline class="range" points="351.83,25.64&#10;351.83,26.86&#10;359.85,26.86&#10;359.85,25.64"/><polyline class="range" points="298.86,28.08&#10;298.86,29.3&#10;370.54,29.3&#10;370.54,28.08"/></g><g id="itemarea8" transform="translate(0 36.23)"><polygon class="shadow" points="70.46,24.42&#10;70.46,24.42&#10;72.89,24.42&#10;75.32,24.41&#10;77.75,24.41&#10;80.18,24.41&#10;82.61,24.41&#10;85.04,24.41&#10;87.47,24.41&#10;89.9,24.41&#10;92.33,24.42&#10;94.75,24.41&#10;97.18,24.41&#10;99.61,24.41&#10;102.04,24.41&#10;104.47,24.41&#10;106.9,24.41&#10;109.33,24.41&#10;111.76,24.41&#10;114.19,24.41&#10;116.62,24.41&#10;119.05,24.41&#10;121.48,24.41&#10;123.91,24.41&#10;126.34,24.41&#10;128.77,24.41&#10;131.2,24.41&#10;133.63,24.41&#10;136.06,24.41&#10;138.49,24.41&#10;140.92,24.41&#10;143.35,24.41&#10;145.78,24.41&#10;148.21,24.41&#10;150.64,24.41&#10;153.07,24.41&#10;155.5,24.41&#10;157.93,24.39&#10;160.36,24.39&#10;162.79,24.39&#10;165.22,24.4&#10;167.65,24.4&#10;170.08,24.39&#10;172.51,24.39&#10;174.94,24.39&#10;177.37,24.39&#10;179.8,24.38&#10;182.23,24.38&#10;184.66,24.39&#10;187.09,24.39&#10;189.52,24.39&#10;191.95,24.39&#10;194.38,24.38&#10;196.81,24.35&#10;199.24,24.31&#10;201.67,24.27&#10;204.1,24.26&#10;206.53,24.24&#10;208.96,24.15&#10;211.39,23.96&#10;213.82,23.69&#10;216.24,23.36&#10;218.67,22.84&#10;221.1,21.87&#10;223.53,20.8&#10;225.96,20.55&#10;228.39,21.27&#10;230.82,22.22&#10;233.25,22.82&#10;235.68,23.15&#10;238.11,23.37&#10;240.54,23.58&#10;242.97,23.54&#10;245.4,23.37&#10;247.83,23.3&#10;250.26,23.14&#10;252.69,22.86&#10;255.12,22.28&#10;257.55,22.07&#10;259.98,21.64&#10;262.41,21.4&#10;264.84,20.86&#10;267.27,20.68&#10;269.7,20.75&#10;272.13,20.37&#10;274.56,20.37&#10;276.99,20.38&#10;279.42,20.04&#10;281.85,19.75&#10;284.28,19.83&#10;286.71,19.77&#10;289.14,19.9&#10;291.57,19.26&#10;294,18.72&#10;296.43,18.34&#10;298.86,18.31&#10;301.29,18.53&#10;303.72,18.8&#10;306.15,19.32&#10;308.58,19.93&#10;311.01,20.28&#10;313.44,19.97&#10;315.87,19.91&#10;318.3,19.85&#10;320.73,19.33&#10;323.16,19.04&#10;325.59,19.41&#10;328.02,20.2&#10;330.45,20.47&#10;332.88,20.38&#10;335.3,19.98&#10;337.73,19.4&#10;340.16,19.28&#10;342.59,19.48&#10;345.02,19.46&#10;347.45,19.12&#10;349.88,19.09&#10;352.31,19.39&#10;354.74,20.03&#10;357.17,20.88&#10;359.6,21.68&#10;362.03,22.28&#10;364.46,22.53&#10;366.89,22.69&#10;369.32,23&#10;371.75,23.3&#10;374.18,23.52&#10;376.61,23.64&#10;379.04,23.71&#10;381.47,23.78&#10;383.9,23.9&#10;386.33,24.07&#10;388.76,24.25&#10;391.19,24.32&#10;393.62,24.33&#10;396.05,24.31&#10;398.48,24.27&#10;400.91,24.24&#10;403.34,24.26&#10;405.77,24.33&#10;408.2,24.38&#10;410.63,24.4&#10;413.06,24.41&#10;415.49,24.41&#10;417.92,24.41&#10;420.35,24.41&#10;422.78,24.41&#10;425.21,24.41&#10;427.64,24.41&#10;430.07,24.41&#10;432.5,24.41&#10;434.93,24.41&#10;437.36,24.41&#10;439.79,24.42&#10;442.22,24.42&#10;444.65,24.42&#10;447.08,24.42&#10;449.51,24.42&#10;451.94,24.42&#10;454.37,24.41&#10;456.79,24.41&#10;459.22,24.41&#10;461.65,24.41&#10;464.08,24.41&#10;466.51,24.41&#10;468.94,24.41&#10;471.37,24.42&#10;473.8,24.42&#10;476.23,24.42&#10;476.23,24.42"/><polygon class="main" points="211.39,24.42&#10;211.39,24.42&#10;213.82,24.42&#10;216.24,24.42&#10;218.67,24.41&#10;221.1,24.41&#10;223.53,24.41&#10;225.96,24.41&#10;228.39,24.41&#10;230.82,24.41&#10;233.25,24.41&#10;235.68,24.41&#10;238.11,24.42&#10;240.54,24.42&#10;242.97,24.42&#10;245.4,24.42&#10;247.83,24.42&#10;250.26,24.41&#10;252.69,24.41&#10;255.12,24.41&#10;257.55,24.41&#10;259.98,24.41&#10;262.41,24.41&#10;264.84,24.41&#10;267.27,24.41&#10;269.7,24.41&#10;272.13,24.41&#10;274.56,24.41&#10;276.99,24.41&#10;279.42,24.4&#10;281.85,24.39&#10;284.28,24.39&#10;286.71,24.39&#10;289.14,24.4&#10;291.57,24.35&#10;294,24.23&#10;296.43,23.88&#10;298.86,22.66&#10;301.29,21.69&#10;303.72,20.8&#10;306.15,19.53&#10;308.58,18.62&#10;311.01,18.36&#10;313.44,18.58&#10;315.87,18.64&#10;318.3,18.7&#10;320.73,19.51&#10;323.16,20.15&#10;325.59,19.37&#10;328.02,18.4&#10;330.45,18.31&#10;332.88,18.35&#10;335.3,18.58&#10;337.73,19.38&#10;340.16,19.63&#10;342.59,19.24&#10;345.02,19.3&#10;347.45,19.98&#10;349.88,20.04&#10;352.31,19.42&#10;354.74,18.55&#10;357.17,18.43&#10;359.6,19.37&#10;362.03,20.57&#10;364.46,21.15&#10;366.89,21.54&#10;369.32,22.3&#10;371.75,23.01&#10;374.18,23.47&#10;376.61,23.7&#10;379.04,23.82&#10;381.47,23.93&#10;383.9,24.1&#10;386.33,24.29&#10;388.76,24.39&#10;391.19,24.41&#10;393.62,24.41&#10;396.05,24.41&#10;398.48,24.4&#10;400.91,24.39&#10;403.34,24.39&#10;405.77,24.41&#10;408.2,24.41&#10;410.63,24.41&#10;413.06,24.42&#10;415.49,24.42&#10;417.92,24.42&#10;417.92,24.42"/><polyline class="range" points="306.15,25.64&#10;306.15,26.86&#10;320.73,26.86&#10;320.73,25.64"/><polyline class="range" points="325.1,25.64&#10;325.1,26.86&#10;345.75,26.86&#10;345.75,25.64"/><polyline class="range" points="351.83,25.64&#10;351.83,26.86&#10;359.85,26.86&#10;359.85,25.64"/><polyline class="range" points="298.86,28.08&#10;298.86,29.3&#10;370.54,29.3&#10;370.54,28.08"/></g></g></g><g id="textarea" transform="translate(14.15 14.15)"><g id="itemarea2" transform="translate(0 -4.2)"><text transform="translate(0 2.91)" style="font-size:7.27pt" x="7.22" y="24.42">Combine Brough Road Cairn 1</text></g><g id="itemarea4" transform="translate(0 16.01)"><text transform="translate(0 2.91)" style="font-size:7.27pt;font-style:italic" x="12.03" y="24.42">R_Combine Skeleton 2, AS (GU-1551 + TO-7047)</text></g><g id="itemarea8" transform="translate(0 36.23)"><text transform="translate(0 2.91)" style="font-size:7.27pt;font-style:italic" x="12.03" y="24.42">R_Date Skeleton 1, AN (GU-1550)</text></g></g><rect class="border" x="14.15" width="481.1" y="14.15" height="80.86"/><g><line class="gridline" x1="60.55" y1="95.01" x2="60.55" y2="14.15"/><line class="gridline" x1="109.15" y1="95.01" x2="109.15" y2="14.15"/><line class="gridline" x1="157.74" y1="95.01" x2="157.74" y2="14.15"/><line class="gridline" x1="206.34" y1="95.01" x2="206.34" y2="14.15"/><line class="gridline" x1="254.94" y1="95.01" x2="254.94" y2="14.15"/><line class="gridline" x1="303.53" y1="95.01" x2="303.53" y2="14.15"/><line class="gridline" x1="352.13" y1="95.01" x2="352.13" y2="14.15"/><line class="gridline" x1="400.72" y1="95.01" x2="400.72" y2="14.15"/><line class="gridline" x1="449.32" y1="95.01" x2="449.32" y2="14.15"/></g><g><line class="majorpip" x1="14.15" y1="95.01" x2="495.25" y2="95.01"/><line class="minorpip" x1="24.11" y1="95.01" x2="24.11" y2="92.18"/><line class="minorpip" x1="36.25" y1="95.01" x2="36.25" y2="92.18"/><line class="minorpip" x1="48.4" y1="95.01" x2="48.4" y2="92.18"/><line class="minorpip" x1="60.55" y1="95.01" x2="60.55" y2="92.18"/><line class="minorpip" x1="72.7" y1="95.01" x2="72.7" y2="92.18"/><line class="minorpip" x1="84.85" y1="95.01" x2="84.85" y2="92.18"/><line class="minorpip" x1="97" y1="95.01" x2="97" y2="92.18"/><line class="minorpip" x1="109.15" y1="95.01" x2="109.15" y2="92.18"/><line class="minorpip" x1="121.3" y1="95.01" x2="121.3" y2="92.18"/><line class="minorpip" x1="133.45" y1="95.01" x2="133.45" y2="92.18"/><line class="minorpip" x1="145.59" y1="95.01" x2="145.59" y2="92.18"/><line class="minorpip" x1="157.74" y1="95.01" x2="157.74" y2="92.18"/><line class="minorpip" x1="169.89" y1="95.01" x2="169.89" y2="92.18"/><line class="minorpip" x1="182.04" y1="95.01" x2="182.04" y2="92.18"/><line class="minorpip" x1="194.19" y1="95.01" x2="194.19" y2="92.18"/><line class="minorpip" x1="206.34" y1="95.01" x2="206.34" y2="92.18"/><line class="minorpip" x1="218.49" y1="95.01" x2="218.49" y2="92.18"/><line class="minorpip" x1="230.64" y1="95.01" x2="230.64" y2="92.18"/><line class="minorpip" x1="242.79" y1="95.01" x2="242.79" y2="92.18"/><line class="minorpip" x1="254.94" y1="95.01" x2="254.94" y2="92.18"/><line class="minorpip" x1="267.08" y1="95.01" x2="267.08" y2="92.18"/><line class="minorpip" x1="279.23" y1="95.01" x2="279.23" y2="92.18"/><line class="minorpip" x1="291.38" y1="95.01" x2="291.38" y2="92.18"/><line class="minorpip" x1="303.53" y1="95.01" x2="303.53" y2="92.18"/><line class="minorpip" x1="315.68" y1="95.01" x2="315.68" y2="92.18"/><line class="minorpip" x1="327.83" y1="95.01" x2="327.83" y2="92.18"/><line class="minorpip" x1="339.98" y1="95.01" x2="339.98" y2="92.18"/><line class="minorpip" x1="352.13" y1="95.01" x2="352.13" y2="92.18"/><line class="minorpip" x1="364.28" y1="95.01" x2="364.28" y2="92.18"/><line class="minorpip" x1="376.43" y1="95.01" x2="376.43" y2="92.18"/><line class="minorpip" x1="388.57" y1="95.01" x2="388.57" y2="92.18"/><line class="minorpip" x1="400.72" y1="95.01" x2="400.72" y2="92.18"/><line class="minorpip" x1="412.87" y1="95.01" x2="412.87" y2="92.18"/><line class="minorpip" x1="425.02" y1="95.01" x2="425.02" y2="92.18"/><line class="minorpip" x1="437.17" y1="95.01" x2="437.17" y2="92.18"/><line class="minorpip" x1="449.32" y1="95.01" x2="449.32" y2="92.18"/><line class="minorpip" x1="461.47" y1="95.01" x2="461.47" y2="92.18"/><line class="minorpip" x1="473.62" y1="95.01" x2="473.62" y2="92.18"/><line class="minorpip" x1="485.77" y1="95.01" x2="485.77" y2="92.18"/><line class="majorpip" x1="60.55" y1="95.01" x2="60.55" y2="89.35"/><text transform="translate(0 8.44)" style="font-size:7.27pt;text-anchor:middle" x="60.55" y="95.01">100</text><line class="majorpip" x1="109.15" y1="95.01" x2="109.15" y2="89.35"/><text transform="translate(0 8.44)" style="font-size:7.27pt;text-anchor:middle" x="109.15" y="95.01">1BC/1AD</text><line class="majorpip" x1="157.74" y1="95.01" x2="157.74" y2="89.35"/><text transform="translate(0 8.44)" style="font-size:7.27pt;text-anchor:middle" x="157.74" y="95.01">101</text><line class="majorpip" x1="206.34" y1="95.01" x2="206.34" y2="89.35"/><text transform="translate(0 8.44)" style="font-size:7.27pt;text-anchor:middle" x="206.34" y="95.01">201</text><line class="majorpip" x1="254.94" y1="95.01" x2="254.94" y2="89.35"/><text transform="translate(0 8.44)" style="font-size:7.27pt;text-anchor:middle" x="254.94" y="95.01">301</text><line class="majorpip" x1="303.53" y1="95.01" x2="303.53" y2="89.35"/><text transform="translate(0 8.44)" style="font-size:7.27pt;text-anchor:middle" x="303.53" y="95.01">401</text><line class="majorpip" x1="352.13" y1="95.01" x2="352.13" y2="89.35"/><text transform="translate(0 8.44)" style="font-size:7.27pt;text-anchor:middle" x="352.13" y="95.01">501</text><line class="majorpip" x1="400.72" y1="95.01" x2="400.72" y2="89.35"/><text transform="translate(0 8.44)" style="font-size:7.27pt;text-anchor:middle" x="400.72" y="95.01">601</text><line class="majorpip" x1="449.32" y1="95.01" x2="449.32" y2="89.35"/><text transform="translate(0 8.44)" style="font-size:7.27pt;text-anchor:middle" x="449.32" y="95.01">701</text><text transform="translate(0 2.91)" style="font-size:7.27pt;text-anchor:middle;font-style:italic" x="254.7" y="123.31">Modelled date (BC/AD)</text></g><g id="references" transform="translate(0 0)"><text transform="translate(0 -1.05)" style="font-size:4.36pt" x="14.15" y="14.15">OxCal v4.4.4 Bronk Ramsey (2021); r:5 Atmospheric data from Reimer et al (2020)</text></g></g></g>
</svg>