<?xml version="1.0" encoding="UTF-8"?><svg id="top" version="1.1" xmlns="http://www.w3.org/2000/svg" xmlns:xlink="http://www.w3.org/1999/xlink" xmlns:ev="http://www.w3.org/2001/xml-events" width="509.400pt" height="238.529pt" zoomAndPan="magnify" preserveAspectRatio="xMinYMin" onload="createPlot()" viewBox="0 0 509.400 238.529">
   <defs id="definitions">
   <filter id="Shadow" filterUnits="userSpaceOnUse">
    <feGaussianBlur in="SourceAlpha" stdDeviation="4" result="blur"/>
    <feOffset in="blur" dx="4" dy="4" result="offsetBlurredAlpha"/>
    <feMerge>
     <feMergeNode in="offsetBlurredAlpha"/>
     <feMergeNode in="SourceGraphic"/>
    </feMerge> 
   </filter>    
    <filter id="Correlation1" x="-20%" y="-20%" width="140%" height="140%" filterUnits="objectBoundingBox">
     <feGaussianBlur in="SourceGraphic" stdDeviation="7" result="blur"/>
     <feColorMatrix type="matrix" in="blur" values="0 0 0  5.00 -2.00&#10;               0 0 0 -2.50  2.50&#10;               0 0 0  0.00  0.00&#10;               0 0 0  2.50  0.00"/>
    </filter>    
    <filter id="Correlation2" x="-20%" y="-20%" width="140%" height="140%" filterUnits="objectBoundingBox">
     <feGaussianBlur in="SourceGraphic" stdDeviation="7" result="blur"/>
     <feGaussianBlur in="SourceAlpha" stdDeviation="7" result="opacity"/>
     <feColorMatrix type="matrix" in="blur" result="newcolor" values="0 0 0  5.00 -2.00&#10;               0 0 0 -2.50  2.50&#10;               0 0 0  0.00  0.00&#10;               0 0 0  2.50  0.00"/>
     <feSpecularLighting in="opacity" surfaceScale="5" specularConstant="1" specularExponent="20" lighting-color="white" result="specularOut">
      <feDistantLight azimuth="225" elevation="30"/>
     </feSpecularLighting>
     <feComposite in="newcolor" in2="specularOut" operator="arithmetic" k1="0" k2="1" k3="1" k4="0" result="litPaint"/>
    </filter>
    <pattern id="Sequence" patternUnits="userSpaceOnUse" x="0" y="0" width="5" height="5" viewBox="0 0 5 5">
    </pattern>    
    <pattern id="U_Sequence" patternUnits="userSpaceOnUse" x="0" y="0" width="5" height="5" viewBox="0 0 5 5">
     <line x1="-2.5" x2="5" y1="5" y2="-2.5" style="stroke-width:1.5;stroke:black"/>
     <line x1="0" x2="7.5" y1="7.5" y2="0" style="stroke-width:1.5;stroke:black"/>
    </pattern>    
    <pattern id="D_Sequence" patternUnits="userSpaceOnUse" x="0" y="0" width="5" height="5" viewBox="0 0 5 5">
     <line x1="-2.5" x2="7.5" y1="-2.5" y2="7.5" style="stroke-width:1;stroke:black"/>
     <line x1="-2.5" x2="7.5" y1="7.5" y2="-2.5" style="stroke-width:1;stroke:black"/>
    </pattern>    
    <pattern id="V_Sequence" patternUnits="userSpaceOnUse" x="0" y="0" width="5" height="5" viewBox="0 0 5 5">
     <ellipse cx="2.5" cy="2.5" rx="1.5" ry="0.7" style="fill:black"/>
    </pattern>    
    <pattern id="P_Sequence" patternUnits="userSpaceOnUse" x="0" y="0" width="5" height="5" viewBox="0 0 5 5">
     <circle cx="1.25" cy="3.75" r="1" style="fill:black"/>
     <circle cx="3.75" cy="1.25" r="1" style="fill:black"/>
    </pattern>
    <style type="text/css">
      rect.border { fill:none; stroke:black;stroke-width:1px }
      rect.fillblack { fill:black; stroke:black;stroke-width:1px }
      rect.structure { fill:none; stroke:none }
      rect.structtab { fill:none; stroke:none }
      rect.structclip { fill:white; stroke:none }
      rect.structborder { fill:none; stroke:black; stroke-width:0.5px }
      rect.range3 {fill:none;stroke:black;stroke-width:1px }
      rect.range2 {fill:none;stroke:black;stroke-width:1px }
      rect.range1 {fill:none;stroke:black;stroke-width:1px }
      rect.fillbackground { fill:#000099 }
      rect.fillmodel { fill:none;stroke:black;stroke-width:1px }
      rect.modeldist { fill:none;stroke:black;stroke-width:1px }
      rect.fill { }
      polygon.main { fill:black; stroke:black;stroke-width:0.2px }
      polygon.shadow { fill:none;stroke:black;stroke-width:0.2px }
      polygon.curve { fill:none;stroke:black;stroke-width:1px }
      polygon.normal { fill:none;stroke:black;stroke-width:1px }
      polygon.kdesigma { fill:lightgrey; stroke:grey;stroke-width:0px;fill-opacity:0.2 }
      polygon.modeldist { fill:url(#U_Sequence);stroke:black;stroke-width:1px }
      polyline.datacurve { fill:none; stroke:black;stroke-width:1px }
      polyline.range { fill:none; stroke:black; stroke-width:1px; stroke-linejoin:round }
      polyline.ensemble { fill:none; stroke:black; stroke-width:0.5px;stroke-opacity:0.2 }
      polyline.kdemean { fill:none; stroke:black; stroke-width:1px }
      path.model3 { fill:none;stroke:black;stroke-width:1px }
      path.model2 { fill:none;stroke:black;stroke-width:1px }
      path.model1 { fill:none;stroke:black;stroke-width:1px }
      g.curve { fill:none;stroke:black;stroke-width:1px }
      line.majorpip { stroke:black; stroke-width:1px }
      line.minorpip { stroke:black; stroke-width:0.5px }
      line.gridline { stroke:black; stroke-width:0.5px }
      line.majorpip2 { stroke:white; stroke-width:1px }
      line.minorpip2 { stroke:white; stroke-width:0.5px }
      line.gridline2 { stroke:white; stroke-width:0.5px }
      line.okline { stroke:black; stroke-width:1px }
      line.errorline { stroke:black; stroke-width:1px }
      line.range { stroke:black; stroke-width:1px }
      line.modelline { stroke:black; stroke-width:1px }
      line.constrshadow { stroke:none; stroke-width:2px }
      line.constrok { stroke:black; stroke-width:1px }
      line.constrerror { stroke:black; stroke-width:1px }
      line.curve { stroke:black;stroke-width:1px }
      text { fill:black; stroke:none; font-size:10pt; font-family:"Arial","Helvetica"; font-style:normal }
    </style>
   <clipPath id="clip1"><rect x="0" width="481.1" y="0" height="181.93"/></clipPath><clipPath id="clip2"><rect x="0" width="481.1" y="0" height="181.93"/></clipPath></defs>
    <g id="mainframe"><rect x="-50.94" width="611.28" y="-23.85" height="286.23" style="fill:white" stroke="none"/><g id="mainviewport" transform="translate(0 0)"><rect class="border" x="14.15" width="481.1" y="14.15" height="181.93"/><g id="tabarea" transform="translate(14.15 14.15)"/><g id="plotarea" transform="translate(14.15 14.15)"><g id="structarea" transform="translate(0 0)"><g clip-path="url(#clip1)"/></g><g clip-path="url(#clip2)"><g id="itemarea2" transform="translate(0 -4.2)"/><g id="itemarea3" transform="translate(0 16.01)"><polygon class="main" points="165.53,24.42&#10;165.53,24.42&#10;167.27,24.42&#10;169,24.42&#10;170.73,24.41&#10;172.46,24.41&#10;174.19,24.41&#10;175.92,24.41&#10;177.65,24.41&#10;179.38,24.41&#10;181.11,24.41&#10;182.84,24.41&#10;184.57,24.41&#10;186.3,24.41&#10;188.03,24.41&#10;189.76,24.41&#10;191.49,24.41&#10;193.22,24.41&#10;194.95,24.41&#10;196.69,24.41&#10;198.42,24.41&#10;200.15,24.41&#10;201.88,24.41&#10;203.61,24.4&#10;205.34,24.33&#10;207.07,24.24&#10;208.8,23.97&#10;210.53,23.59&#10;212.26,23.55&#10;213.99,22.92&#10;215.72,21.6&#10;217.45,20.66&#10;219.18,20.37&#10;220.91,19.75&#10;222.64,19.01&#10;224.37,18.44&#10;226.1,18.33&#10;227.84,18.31&#10;229.57,18.36&#10;231.3,18.38&#10;233.03,18.45&#10;234.76,18.86&#10;236.49,18.9&#10;238.22,18.4&#10;239.95,18.38&#10;241.68,18.33&#10;243.41,18.37&#10;245.14,18.72&#10;246.87,19.47&#10;248.6,20.36&#10;250.33,19.87&#10;252.06,18.7&#10;253.79,18.65&#10;255.52,19&#10;257.26,18.39&#10;258.99,18.36&#10;260.72,18.68&#10;262.45,18.86&#10;264.18,19.27&#10;265.91,19.38&#10;267.64,19.04&#10;269.37,18.92&#10;271.1,19.21&#10;272.83,19.75&#10;274.56,20.04&#10;276.29,19.72&#10;278.02,19.09&#10;279.75,18.76&#10;281.48,18.81&#10;283.21,19&#10;284.94,18.87&#10;286.67,18.61&#10;288.41,18.52&#10;290.14,18.53&#10;291.87,18.51&#10;293.6,18.37&#10;295.33,18.97&#10;297.06,19.77&#10;298.79,19.65&#10;300.52,19.22&#10;302.25,19.26&#10;303.98,19.78&#10;305.71,20.26&#10;307.44,20.28&#10;309.17,20.07&#10;310.9,19.9&#10;312.63,19.88&#10;314.36,20.03&#10;316.09,20.26&#10;317.83,20.5&#10;319.56,20.61&#10;321.29,20.67&#10;323.02,20.85&#10;324.75,21.21&#10;326.48,21.43&#10;328.21,21.38&#10;329.94,21.07&#10;331.67,20.71&#10;333.4,20.45&#10;335.13,20.45&#10;336.86,20.74&#10;338.59,21.37&#10;340.32,22.29&#10;342.05,23.3&#10;343.78,24&#10;345.51,24.3&#10;347.25,24.39&#10;348.98,24.41&#10;350.71,24.41&#10;352.44,24.41&#10;354.17,24.41&#10;355.9,24.41&#10;357.63,24.41&#10;359.36,24.41&#10;361.09,24.41&#10;362.82,24.42&#10;364.55,24.42&#10;366.28,24.42&#10;368.01,24.42&#10;369.74,24.42&#10;371.47,24.42&#10;373.2,24.42&#10;374.93,24.41&#10;376.66,24.41&#10;378.4,24.41&#10;380.13,24.41&#10;381.86,24.41&#10;383.59,24.41&#10;385.32,24.41&#10;387.05,24.41&#10;388.78,24.41&#10;390.51,24.41&#10;392.24,24.41&#10;393.97,24.41&#10;395.7,24.41&#10;397.43,24.41&#10;399.16,24.41&#10;400.89,24.41&#10;402.62,24.41&#10;404.35,24.41&#10;406.08,24.41&#10;407.82,24.41&#10;409.55,24.41&#10;411.28,24.41&#10;413.01,24.42&#10;414.74,24.42&#10;416.47,24.42&#10;416.47,24.42"/><polyline class="range" points="220.91,25.64&#10;220.91,26.86&#10;247.39,26.86&#10;247.39,25.64"/><polyline class="range" points="250.51,25.64&#10;250.51,26.86&#10;273,26.86&#10;273,25.64"/><polyline class="range" points="275.95,25.64&#10;275.95,26.86&#10;303.98,26.86&#10;303.98,25.64"/><polyline class="range" points="216.07,28.08&#10;216.07,29.3&#10;326.13,29.3&#10;326.13,28.08"/><polyline class="range" points="328.21,28.08&#10;328.21,29.3&#10;338.59,29.3&#10;338.59,28.08"/></g><g id="itemarea4" transform="translate(0 36.23)"/><g id="itemarea5" transform="translate(0 56.44)"/><g id="itemarea6" transform="translate(0 76.66)"><polygon class="main" points="-52.52,24.42&#10;-52.52,24.42&#10;-50.79,24.42&#10;-49.06,24.41&#10;-47.33,24.41&#10;-45.6,24.41&#10;-43.86,24.41&#10;-42.13,24.41&#10;-40.4,24.41&#10;-38.67,24.41&#10;-36.94,24.41&#10;-35.21,24.41&#10;-33.48,24.41&#10;-31.75,24.41&#10;-30.02,24.41&#10;-28.29,24.41&#10;-26.56,24.41&#10;-24.83,24.41&#10;-23.1,24.41&#10;-21.37,24.41&#10;-19.64,24.41&#10;-17.91,24.41&#10;-16.18,24.41&#10;-14.45,24.41&#10;-12.71,24.41&#10;-10.98,24.41&#10;-9.25,24.41&#10;-7.52,24.41&#10;-5.79,24.41&#10;-4.06,24.41&#10;-2.33,24.41&#10;-0.6,24.41&#10;1.13,24.41&#10;2.86,24.41&#10;4.59,24.41&#10;6.32,24.41&#10;8.05,24.41&#10;9.78,24.41&#10;11.51,24.41&#10;13.24,24.41&#10;14.97,24.41&#10;16.71,24.41&#10;18.44,24.41&#10;20.17,24.41&#10;21.9,24.41&#10;23.63,24.41&#10;25.36,24.41&#10;27.09,24.41&#10;28.82,24.41&#10;30.55,24.41&#10;32.28,24.41&#10;34.01,24.41&#10;35.74,24.41&#10;37.47,24.41&#10;39.2,24.41&#10;40.93,24.41&#10;42.66,24.41&#10;44.39,24.4&#10;46.12,24.4&#10;47.86,24.4&#10;49.59,24.39&#10;51.32,24.4&#10;53.05,24.4&#10;54.78,24.4&#10;56.51,24.4&#10;58.24,24.39&#10;59.97,24.39&#10;61.7,24.38&#10;63.43,24.37&#10;65.16,24.37&#10;66.89,24.36&#10;68.62,24.36&#10;70.35,24.35&#10;72.08,24.34&#10;73.81,24.34&#10;75.54,24.35&#10;77.28,24.36&#10;79.01,24.36&#10;80.74,24.36&#10;82.47,24.34&#10;84.2,24.33&#10;85.93,24.35&#10;87.66,24.37&#10;89.39,24.37&#10;91.12,24.36&#10;92.85,24.34&#10;94.58,24.31&#10;96.31,24.29&#10;98.04,24.27&#10;99.77,24.26&#10;101.5,24.25&#10;103.23,24.26&#10;104.96,24.27&#10;106.7,24.27&#10;108.43,24.26&#10;110.16,24.25&#10;111.89,24.25&#10;113.62,24.26&#10;115.35,24.27&#10;117.08,24.26&#10;118.81,24.22&#10;120.54,24.17&#10;122.27,24.13&#10;124,24.13&#10;125.73,24.16&#10;127.46,24.18&#10;129.19,24.18&#10;130.92,24.14&#10;132.65,24.06&#10;134.38,23.96&#10;136.11,23.9&#10;137.85,23.88&#10;139.58,23.88&#10;141.31,23.86&#10;143.04,23.82&#10;144.77,23.76&#10;146.5,23.7&#10;148.23,23.67&#10;149.96,23.66&#10;151.69,23.7&#10;153.42,23.77&#10;155.15,23.83&#10;156.88,23.83&#10;158.61,23.79&#10;160.34,23.68&#10;162.07,23.54&#10;163.8,23.41&#10;165.53,23.33&#10;167.27,23.26&#10;169,23.13&#10;170.73,22.9&#10;172.46,22.6&#10;174.19,22.33&#10;175.92,22.26&#10;177.65,22.35&#10;179.38,22.5&#10;181.11,22.61&#10;182.84,22.69&#10;184.57,22.73&#10;186.3,22.75&#10;188.03,22.74&#10;189.76,22.7&#10;191.49,22.64&#10;193.22,22.48&#10;194.95,22.14&#10;196.69,21.85&#10;198.42,21.72&#10;200.15,21.5&#10;201.88,21.22&#10;203.61,20.54&#10;205.34,19.95&#10;207.07,19.61&#10;208.8,19.18&#10;210.53,18.89&#10;212.26,18.87&#10;213.99,18.63&#10;215.72,18.4&#10;217.45,18.33&#10;219.18,18.32&#10;220.91,18.31&#10;222.64,18.34&#10;224.37,18.44&#10;226.1,18.51&#10;227.84,18.57&#10;229.57,18.64&#10;231.3,18.66&#10;233.03,18.71&#10;234.76,18.89&#10;236.49,18.9&#10;238.22,18.67&#10;239.95,18.66&#10;241.68,18.61&#10;243.41,18.47&#10;245.14,18.38&#10;246.87,18.32&#10;248.6,18.32&#10;250.33,18.31&#10;252.06,18.38&#10;253.79,18.8&#10;255.52,18.94&#10;257.26,18.67&#10;258.99,18.48&#10;260.72,18.39&#10;262.45,18.36&#10;264.18,18.33&#10;265.91,18.33&#10;267.64,18.35&#10;269.37,18.37&#10;271.1,18.34&#10;272.83,18.32&#10;274.56,18.32&#10;276.29,18.32&#10;278.02,18.35&#10;279.75,18.39&#10;281.48,18.38&#10;283.21,18.36&#10;284.94,18.37&#10;286.67,18.42&#10;288.41,18.46&#10;290.14,18.44&#10;291.87,18.44&#10;293.6,18.59&#10;295.33,18.92&#10;297.06,19.19&#10;298.79,19.15&#10;300.52,19.01&#10;302.25,19.02&#10;303.98,19.19&#10;305.71,19.34&#10;307.44,19.35&#10;309.17,19.28&#10;310.9,19.23&#10;312.63,19.22&#10;314.36,19.27&#10;316.09,19.34&#10;317.83,19.42&#10;319.56,19.45&#10;321.29,19.47&#10;323.02,19.53&#10;324.75,19.65&#10;326.48,19.72&#10;328.21,19.71&#10;329.94,19.6&#10;331.67,19.48&#10;333.4,19.4&#10;335.13,19.4&#10;336.86,19.49&#10;338.59,19.71&#10;340.32,20.06&#10;342.05,20.59&#10;343.78,21.23&#10;345.51,21.88&#10;347.25,22.44&#10;348.98,22.84&#10;350.71,23.09&#10;352.44,23.21&#10;354.17,23.28&#10;355.9,23.36&#10;357.63,23.47&#10;359.36,23.64&#10;361.09,23.83&#10;362.82,23.99&#10;364.55,24.1&#10;366.28,24.15&#10;368.01,24.16&#10;369.74,24.13&#10;371.47,24.07&#10;373.2,23.99&#10;374.93,23.9&#10;376.66,23.86&#10;378.4,23.85&#10;380.13,23.85&#10;381.86,23.84&#10;383.59,23.78&#10;385.32,23.67&#10;387.05,23.55&#10;388.78,23.46&#10;390.51,23.47&#10;392.24,23.54&#10;393.97,23.62&#10;395.7,23.66&#10;397.43,23.6&#10;399.16,23.47&#10;400.89,23.46&#10;402.62,23.68&#10;404.35,23.82&#10;406.08,23.82&#10;407.82,23.76&#10;409.55,23.77&#10;411.28,23.91&#10;413.01,24.07&#10;414.74,24.18&#10;416.47,24.2&#10;418.2,24.19&#10;419.93,24.16&#10;421.66,24.2&#10;423.39,24.25&#10;425.12,24.29&#10;426.85,24.3&#10;428.58,24.31&#10;430.31,24.32&#10;432.04,24.34&#10;433.77,24.34&#10;435.5,24.33&#10;437.24,24.32&#10;438.97,24.32&#10;440.7,24.32&#10;442.43,24.33&#10;444.16,24.33&#10;445.89,24.34&#10;447.62,24.35&#10;449.35,24.36&#10;451.08,24.37&#10;452.81,24.38&#10;454.54,24.37&#10;456.27,24.37&#10;458,24.36&#10;459.73,24.35&#10;461.46,24.34&#10;463.19,24.36&#10;464.92,24.38&#10;466.65,24.39&#10;468.39,24.4&#10;470.12,24.41&#10;471.85,24.41&#10;473.58,24.41&#10;475.31,24.41&#10;477.04,24.41&#10;478.77,24.4&#10;480.5,24.4&#10;482.23,24.4&#10;483.96,24.41&#10;485.69,24.41&#10;487.42,24.41&#10;489.15,24.41&#10;490.88,24.41&#10;492.61,24.41&#10;494.34,24.41&#10;496.07,24.41&#10;497.81,24.41&#10;499.54,24.41&#10;501.27,24.41&#10;503,24.41&#10;504.73,24.41&#10;506.46,24.41&#10;508.19,24.41&#10;509.92,24.41&#10;511.65,24.41&#10;513.38,24.41&#10;515.11,24.41&#10;516.84,24.41&#10;518.57,24.41&#10;520.3,24.41&#10;522.03,24.41&#10;523.76,24.41&#10;525.49,24.41&#10;527.22,24.41&#10;528.96,24.41&#10;530.69,24.41&#10;532.42,24.41&#10;534.15,24.41&#10;535.88,24.41&#10;537.61,24.41&#10;539.34,24.41&#10;541.07,24.41&#10;542.8,24.41&#10;544.53,24.41&#10;546.26,24.41&#10;547.99,24.41&#10;549.72,24.41&#10;551.45,24.41&#10;553.18,24.41&#10;554.91,24.41&#10;556.64,24.41&#10;558.38,24.41&#10;560.11,24.41&#10;561.84,24.41&#10;563.57,24.41&#10;565.3,24.41&#10;567.03,24.41&#10;568.76,24.42&#10;570.49,24.42&#10;570.49,24.42"/><polyline class="range" points="207.93,25.64&#10;207.93,26.86&#10;317.65,26.86&#10;317.65,25.64"/><polyline class="range" points="333.23,25.64&#10;333.23,26.86&#10;335.3,26.86&#10;335.3,25.64"/><polyline class="range" points="144.77,28.08&#10;144.77,29.3&#10;153.07,29.3&#10;153.07,28.08"/><polyline class="range" points="158.96,28.08&#10;158.96,29.3&#10;360.4,29.3&#10;360.4,28.08"/><polyline class="range" points="383.93,28.08&#10;383.93,29.3&#10;403.49,29.3&#10;403.49,28.08"/></g><g id="itemarea7" transform="translate(0 96.87)"/><g id="itemarea8" transform="translate(0 117.09)"/><g id="itemarea9" transform="translate(0 137.3)"><polygon class="main" points="165.53,24.42&#10;165.53,24.42&#10;167.27,24.42&#10;169,24.42&#10;170.73,24.41&#10;172.46,24.41&#10;174.19,24.41&#10;175.92,24.41&#10;177.65,24.41&#10;179.38,24.41&#10;181.11,24.41&#10;182.84,24.41&#10;184.57,24.41&#10;186.3,24.41&#10;188.03,24.41&#10;189.76,24.41&#10;191.49,24.41&#10;193.22,24.41&#10;194.95,24.41&#10;196.69,24.41&#10;198.42,24.41&#10;200.15,24.41&#10;201.88,24.41&#10;203.61,24.4&#10;205.34,24.33&#10;207.07,24.24&#10;208.8,23.97&#10;210.53,23.59&#10;212.26,23.55&#10;213.99,22.92&#10;215.72,21.6&#10;217.45,20.66&#10;219.18,20.37&#10;220.91,19.75&#10;222.64,19.01&#10;224.37,18.44&#10;226.1,18.33&#10;227.84,18.31&#10;229.57,18.36&#10;231.3,18.38&#10;233.03,18.45&#10;234.76,18.86&#10;236.49,18.9&#10;238.22,18.4&#10;239.95,18.38&#10;241.68,18.33&#10;243.41,18.37&#10;245.14,18.72&#10;246.87,19.47&#10;248.6,20.36&#10;250.33,19.87&#10;252.06,18.7&#10;253.79,18.65&#10;255.52,19&#10;257.26,18.39&#10;258.99,18.36&#10;260.72,18.68&#10;262.45,18.86&#10;264.18,19.27&#10;265.91,19.38&#10;267.64,19.04&#10;269.37,18.92&#10;271.1,19.21&#10;272.83,19.75&#10;274.56,20.04&#10;276.29,19.72&#10;278.02,19.09&#10;279.75,18.76&#10;281.48,18.81&#10;283.21,19&#10;284.94,18.87&#10;286.67,18.61&#10;288.41,18.52&#10;290.14,18.53&#10;291.87,18.51&#10;293.6,18.37&#10;295.33,18.97&#10;297.06,19.77&#10;298.79,19.65&#10;300.52,19.22&#10;302.25,19.26&#10;303.98,19.78&#10;305.71,20.26&#10;307.44,20.28&#10;309.17,20.07&#10;310.9,19.9&#10;312.63,19.88&#10;314.36,20.03&#10;316.09,20.26&#10;317.83,20.5&#10;319.56,20.61&#10;321.29,20.67&#10;323.02,20.85&#10;324.75,21.21&#10;326.48,21.43&#10;328.21,21.38&#10;329.94,21.07&#10;331.67,20.71&#10;333.4,20.45&#10;335.13,20.45&#10;336.86,20.74&#10;338.59,21.37&#10;340.32,22.29&#10;342.05,23.3&#10;343.78,24&#10;345.51,24.3&#10;347.25,24.39&#10;348.98,24.41&#10;350.71,24.41&#10;352.44,24.41&#10;354.17,24.41&#10;355.9,24.41&#10;357.63,24.41&#10;359.36,24.41&#10;361.09,24.41&#10;362.82,24.42&#10;364.55,24.42&#10;366.28,24.42&#10;368.01,24.42&#10;369.74,24.42&#10;371.47,24.42&#10;373.2,24.42&#10;374.93,24.41&#10;376.66,24.41&#10;378.4,24.41&#10;380.13,24.41&#10;381.86,24.41&#10;383.59,24.41&#10;385.32,24.41&#10;387.05,24.41&#10;388.78,24.41&#10;390.51,24.41&#10;392.24,24.41&#10;393.97,24.41&#10;395.7,24.41&#10;397.43,24.41&#10;399.16,24.41&#10;400.89,24.41&#10;402.62,24.41&#10;404.35,24.41&#10;406.08,24.41&#10;407.82,24.41&#10;409.55,24.41&#10;411.28,24.41&#10;413.01,24.42&#10;414.74,24.42&#10;416.47,24.42&#10;416.47,24.42"/><polyline class="range" points="220.91,25.64&#10;220.91,26.86&#10;247.39,26.86&#10;247.39,25.64"/><polyline class="range" points="250.51,25.64&#10;250.51,26.86&#10;273,26.86&#10;273,25.64"/><polyline class="range" points="275.95,25.64&#10;275.95,26.86&#10;303.98,26.86&#10;303.98,25.64"/><polyline class="range" points="216.07,28.08&#10;216.07,29.3&#10;326.13,29.3&#10;326.13,28.08"/><polyline class="range" points="328.21,28.08&#10;328.21,29.3&#10;338.59,29.3&#10;338.59,28.08"/></g></g></g><g id="textarea" transform="translate(14.15 14.15)"><g id="itemarea2" transform="translate(0 -4.2)"><text transform="translate(0 2.91)" style="font-size:7.272727272727273pt" x="7.22" y="24.42">annexe wall packing</text></g><g id="itemarea3" transform="translate(0 16.01)"><text transform="translate(0 2.91)" style="font-size:7.272727272727273pt" x="7.22" y="24.42">R_Date GU-2208</text></g><g id="itemarea4" transform="translate(0 36.23)"><text transform="translate(0 2.91)" style="font-size:7.272727272727273pt" x="7.22" y="24.42"></text></g><g id="itemarea5" transform="translate(0 56.44)"><text transform="translate(0 2.91)" style="font-size:7.272727272727273pt" x="7.22" y="24.42">roundhouse wall core</text></g><g id="itemarea6" transform="translate(0 76.66)"><text transform="translate(0 2.91)" style="font-size:7.272727272727273pt" x="7.22" y="24.42">R_Date GU-2207</text></g><g id="itemarea7" transform="translate(0 96.87)"><text transform="translate(0 2.91)" style="font-size:7.272727272727273pt" x="7.22" y="24.42"></text></g><g id="itemarea8" transform="translate(0 117.09)"><text transform="translate(0 2.91)" style="font-size:7.272727272727273pt" x="7.22" y="24.42">peat from ground surface</text></g><g id="itemarea9" transform="translate(0 137.3)"><text transform="translate(0 2.91)" style="font-size:7.272727272727273pt" x="7.22" y="24.42">R_Date GU-2544</text></g></g><rect class="border" x="14.15" width="481.1" y="14.15" height="181.93"/><g><line class="gridline" x1="81.21" y1="196.08" x2="81.21" y2="14.15"/><line class="gridline" x1="150.44" y1="196.08" x2="150.44" y2="14.15"/><line class="gridline" x1="219.66" y1="196.08" x2="219.66" y2="14.15"/><line class="gridline" x1="288.88" y1="196.08" x2="288.88" y2="14.15"/><line class="gridline" x1="358.11" y1="196.08" x2="358.11" y2="14.15"/><line class="gridline" x1="427.33" y1="196.08" x2="427.33" y2="14.15"/></g><g><line class="majorpip" x1="14.15" y1="196.08" x2="495.25" y2="196.08"/><line class="minorpip" x1="29.3" y1="196.08" x2="29.3" y2="193.25"/><line class="minorpip" x1="46.6" y1="196.08" x2="46.6" y2="193.25"/><line class="minorpip" x1="63.91" y1="196.08" x2="63.91" y2="193.25"/><line class="minorpip" x1="81.21" y1="196.08" x2="81.21" y2="193.25"/><line class="minorpip" x1="98.52" y1="196.08" x2="98.52" y2="193.25"/><line class="minorpip" x1="115.83" y1="196.08" x2="115.83" y2="193.25"/><line class="minorpip" x1="133.13" y1="196.08" x2="133.13" y2="193.25"/><line class="minorpip" x1="150.44" y1="196.08" x2="150.44" y2="193.25"/><line class="minorpip" x1="167.74" y1="196.08" x2="167.74" y2="193.25"/><line class="minorpip" x1="185.05" y1="196.08" x2="185.05" y2="193.25"/><line class="minorpip" x1="202.36" y1="196.08" x2="202.36" y2="193.25"/><line class="minorpip" x1="219.66" y1="196.08" x2="219.66" y2="193.25"/><line class="minorpip" x1="236.97" y1="196.08" x2="236.97" y2="193.25"/><line class="minorpip" x1="254.27" y1="196.08" x2="254.27" y2="193.25"/><line class="minorpip" x1="271.58" y1="196.08" x2="271.58" y2="193.25"/><line class="minorpip" x1="288.88" y1="196.08" x2="288.88" y2="193.25"/><line class="minorpip" x1="306.19" y1="196.08" x2="306.19" y2="193.25"/><line class="minorpip" x1="323.5" y1="196.08" x2="323.5" y2="193.25"/><line class="minorpip" x1="340.8" y1="196.08" x2="340.8" y2="193.25"/><line class="minorpip" x1="358.11" y1="196.08" x2="358.11" y2="193.25"/><line class="minorpip" x1="375.41" y1="196.08" x2="375.41" y2="193.25"/><line class="minorpip" x1="392.72" y1="196.08" x2="392.72" y2="193.25"/><line class="minorpip" x1="410.02" y1="196.08" x2="410.02" y2="193.25"/><line class="minorpip" x1="427.33" y1="196.08" x2="427.33" y2="193.25"/><line class="minorpip" x1="444.64" y1="196.08" x2="444.64" y2="193.25"/><line class="minorpip" x1="461.94" y1="196.08" x2="461.94" y2="193.25"/><line class="minorpip" x1="479.25" y1="196.08" x2="479.25" y2="193.25"/><line class="majorpip" x1="81.21" y1="196.08" x2="81.21" y2="190.42"/><text transform="translate(0 8.44)" style="font-size:7.272727272727273pt;text-anchor:middle" x="81.21" y="196.08">1200</text><line class="majorpip" x1="150.44" y1="196.08" x2="150.44" y2="190.42"/><text transform="translate(0 8.44)" style="font-size:7.272727272727273pt;text-anchor:middle" x="150.44" y="196.08">1000</text><line class="majorpip" x1="219.66" y1="196.08" x2="219.66" y2="190.42"/><text transform="translate(0 8.44)" style="font-size:7.272727272727273pt;text-anchor:middle" x="219.66" y="196.08">800</text><line class="majorpip" x1="288.88" y1="196.08" x2="288.88" y2="190.42"/><text transform="translate(0 8.44)" style="font-size:7.272727272727273pt;text-anchor:middle" x="288.88" y="196.08">600</text><line class="majorpip" x1="358.11" y1="196.08" x2="358.11" y2="190.42"/><text transform="translate(0 8.44)" style="font-size:7.272727272727273pt;text-anchor:middle" x="358.11" y="196.08">400</text><line class="majorpip" x1="427.33" y1="196.08" x2="427.33" y2="190.42"/><text transform="translate(0 8.44)" style="font-size:7.272727272727273pt;text-anchor:middle" x="427.33" y="196.08">200</text><text transform="translate(0 2.91)" style="font-size:7.272727272727273pt;text-anchor:middle" x="254.7" y="224.38">Calibrated date (calBC)</text></g><g id="references" transform="translate(0 0)"><text transform="translate(0 -1.05)" style="font-size:4.363636363636363pt" x="14.15" y="14.15">OxCal v4.4.4 Bronk Ramsey (2021); r:5 Atmospheric data from Reimer et al (2020)</text></g></g></g>
</svg>