<?xml version="1.0" encoding="UTF-8"?><svg id="top" version="1.1" xmlns="http://www.w3.org/2000/svg" xmlns:xlink="http://www.w3.org/1999/xlink" xmlns:ev="http://www.w3.org/2001/xml-events" width="509.400pt" height="177.886pt" zoomAndPan="magnify" preserveAspectRatio="xMinYMin" onload="createPlot()" viewBox="0 0 509.400 177.886">
   <defs id="definitions">
   <filter id="Shadow" filterUnits="userSpaceOnUse">
    <feGaussianBlur in="SourceAlpha" stdDeviation="4" result="blur"/>
    <feOffset in="blur" dx="4" dy="4" result="offsetBlurredAlpha"/>
    <feMerge>
     <feMergeNode in="offsetBlurredAlpha"/>
     <feMergeNode in="SourceGraphic"/>
    </feMerge> 
   </filter>    
    <filter id="Correlation1" x="-20%" y="-20%" width="140%" height="140%" filterUnits="objectBoundingBox">
     <feGaussianBlur in="SourceGraphic" stdDeviation="7" result="blur"/>
     <feColorMatrix type="matrix" in="blur" values="0 0 0  5.00 -2.00&#10;               0 0 0 -2.50  2.50&#10;               0 0 0  0.00  0.00&#10;               0 0 0  2.50  0.00"/>
    </filter>    
    <filter id="Correlation2" x="-20%" y="-20%" width="140%" height="140%" filterUnits="objectBoundingBox">
     <feGaussianBlur in="SourceGraphic" stdDeviation="7" result="blur"/>
     <feGaussianBlur in="SourceAlpha" stdDeviation="7" result="opacity"/>
     <feColorMatrix type="matrix" in="blur" result="newcolor" values="0 0 0  5.00 -2.00&#10;               0 0 0 -2.50  2.50&#10;               0 0 0  0.00  0.00&#10;               0 0 0  2.50  0.00"/>
     <feSpecularLighting in="opacity" surfaceScale="5" specularConstant="1" specularExponent="20" lighting-color="white" result="specularOut">
      <feDistantLight azimuth="225" elevation="30"/>
     </feSpecularLighting>
     <feComposite in="newcolor" in2="specularOut" operator="arithmetic" k1="0" k2="1" k3="1" k4="0" result="litPaint"/>
    </filter>
    <pattern id="Sequence" patternUnits="userSpaceOnUse" x="0" y="0" width="5" height="5" viewBox="0 0 5 5">
    </pattern>    
    <pattern id="U_Sequence" patternUnits="userSpaceOnUse" x="0" y="0" width="5" height="5" viewBox="0 0 5 5">
     <line x1="-2.5" x2="5" y1="5" y2="-2.5" style="stroke-width:1.5;stroke:black"/>
     <line x1="0" x2="7.5" y1="7.5" y2="0" style="stroke-width:1.5;stroke:black"/>
    </pattern>    
    <pattern id="D_Sequence" patternUnits="userSpaceOnUse" x="0" y="0" width="5" height="5" viewBox="0 0 5 5">
     <line x1="-2.5" x2="7.5" y1="-2.5" y2="7.5" style="stroke-width:1;stroke:black"/>
     <line x1="-2.5" x2="7.5" y1="7.5" y2="-2.5" style="stroke-width:1;stroke:black"/>
    </pattern>    
    <pattern id="V_Sequence" patternUnits="userSpaceOnUse" x="0" y="0" width="5" height="5" viewBox="0 0 5 5">
     <ellipse cx="2.5" cy="2.5" rx="1.5" ry="0.7" style="fill:black"/>
    </pattern>    
    <pattern id="P_Sequence" patternUnits="userSpaceOnUse" x="0" y="0" width="5" height="5" viewBox="0 0 5 5">
     <circle cx="1.25" cy="3.75" r="1" style="fill:black"/>
     <circle cx="3.75" cy="1.25" r="1" style="fill:black"/>
    </pattern>
    <style type="text/css">
      rect.border { fill:none; stroke:black;stroke-width:1px }
      rect.fillblack { fill:black; stroke:black;stroke-width:1px }
      rect.structure { fill:none; stroke:none }
      rect.structtab { fill:none; stroke:none }
      rect.structclip { fill:white; stroke:none }
      rect.structborder { fill:none; stroke:black; stroke-width:0.5px }
      rect.range3 {fill:none;stroke:black;stroke-width:1px }
      rect.range2 {fill:none;stroke:black;stroke-width:1px }
      rect.range1 {fill:none;stroke:black;stroke-width:1px }
      rect.fillbackground { fill:#000099 }
      rect.fillmodel { fill:none;stroke:black;stroke-width:1px }
      rect.modeldist { fill:none;stroke:black;stroke-width:1px }
      rect.fill { }
      polygon.main { fill:black; stroke:black;stroke-width:0.2px }
      polygon.shadow { fill:none;stroke:black;stroke-width:0.2px }
      polygon.curve { fill:none;stroke:black;stroke-width:1px }
      polygon.normal { fill:none;stroke:black;stroke-width:1px }
      polygon.kdesigma { fill:lightgrey; stroke:grey;stroke-width:0px;fill-opacity:0.2 }
      polygon.modeldist { fill:url(#U_Sequence);stroke:black;stroke-width:1px }
      polyline.datacurve { fill:none; stroke:black;stroke-width:1px }
      polyline.range { fill:none; stroke:black; stroke-width:1px; stroke-linejoin:round }
      polyline.ensemble { fill:none; stroke:black; stroke-width:0.5px;stroke-opacity:0.2 }
      polyline.kdemean { fill:none; stroke:black; stroke-width:1px }
      path.model3 { fill:none;stroke:black;stroke-width:1px }
      path.model2 { fill:none;stroke:black;stroke-width:1px }
      path.model1 { fill:none;stroke:black;stroke-width:1px }
      g.curve { fill:none;stroke:black;stroke-width:1px }
      line.majorpip { stroke:black; stroke-width:1px }
      line.minorpip { stroke:black; stroke-width:0.5px }
      line.gridline { stroke:black; stroke-width:0.5px }
      line.majorpip2 { stroke:white; stroke-width:1px }
      line.minorpip2 { stroke:white; stroke-width:0.5px }
      line.gridline2 { stroke:white; stroke-width:0.5px }
      line.okline { stroke:black; stroke-width:1px }
      line.errorline { stroke:black; stroke-width:1px }
      line.range { stroke:black; stroke-width:1px }
      line.modelline { stroke:black; stroke-width:1px }
      line.constrshadow { stroke:none; stroke-width:2px }
      line.constrok { stroke:black; stroke-width:1px }
      line.constrerror { stroke:black; stroke-width:1px }
      line.curve { stroke:black;stroke-width:1px }
      text { fill:black; stroke:none; font-size:10pt; font-family:"Arial","Helvetica"; font-style:normal }
    </style>
   <clipPath id="clip1"><rect x="0" width="481.1" y="0" height="121.29"/></clipPath><clipPath id="clip2"><rect x="0" width="481.1" y="0" height="121.29"/></clipPath></defs>
    <g id="mainframe"><rect x="-50.94" width="611.28" y="-17.79" height="213.46" style="fill:white" stroke="none"/><g id="mainviewport" transform="translate(0 0)"><rect class="border" x="14.15" width="481.1" y="14.15" height="121.29"/><g id="tabarea" transform="translate(14.15 14.15)"/><g id="plotarea" transform="translate(14.15 14.15)"><g id="structarea" transform="translate(0 0)"><g clip-path="url(#clip1)"/></g><g clip-path="url(#clip2)"><g id="itemarea2" transform="translate(0 -4.2)"/><g id="itemarea3" transform="translate(0 16.01)"><polygon class="main" points="-5.12,24.42&#10;-5.12,24.42&#10;-2.69,24.42&#10;-0.26,24.42&#10;2.17,24.42&#10;4.6,24.42&#10;7.03,24.42&#10;9.46,24.42&#10;11.89,24.42&#10;14.32,24.42&#10;16.75,24.42&#10;19.18,24.42&#10;21.61,24.42&#10;24.04,24.42&#10;26.47,24.42&#10;28.9,24.42&#10;31.33,24.42&#10;33.76,24.42&#10;36.19,24.42&#10;38.62,24.42&#10;41.05,24.42&#10;43.48,24.42&#10;45.91,24.42&#10;48.34,24.42&#10;50.77,24.42&#10;53.2,24.42&#10;55.63,24.42&#10;58.06,24.42&#10;60.49,24.42&#10;62.92,24.42&#10;65.35,24.42&#10;67.78,24.42&#10;70.21,24.42&#10;72.64,24.42&#10;75.07,24.42&#10;77.5,24.42&#10;79.93,24.42&#10;82.36,24.42&#10;84.79,24.42&#10;87.22,24.42&#10;89.65,24.42&#10;92.08,24.42&#10;94.5,24.42&#10;96.93,24.42&#10;99.36,24.42&#10;101.79,24.42&#10;104.22,24.41&#10;106.65,24.41&#10;109.08,24.41&#10;111.51,24.41&#10;113.94,24.41&#10;116.37,24.41&#10;118.8,24.41&#10;121.23,24.41&#10;123.66,24.41&#10;126.09,24.41&#10;128.52,24.41&#10;130.95,24.4&#10;133.38,24.39&#10;135.81,24.38&#10;138.24,24.38&#10;140.67,24.36&#10;143.1,24.32&#10;145.53,24.25&#10;147.96,24.17&#10;150.39,24.14&#10;152.82,24.17&#10;155.25,24.22&#10;157.68,24.26&#10;160.11,24.28&#10;162.54,24.29&#10;164.97,24.3&#10;167.4,24.3&#10;169.83,24.29&#10;172.26,24.27&#10;174.69,24.23&#10;177.12,24.11&#10;179.55,23.98&#10;181.98,23.9&#10;184.41,23.77&#10;186.84,23.55&#10;189.27,22.88&#10;191.7,22.04&#10;194.13,21.46&#10;196.56,20.58&#10;198.99,19.91&#10;201.42,19.85&#10;203.85,19.24&#10;206.28,18.59&#10;208.71,18.38&#10;211.14,18.35&#10;213.56,18.32&#10;215.99,18.41&#10;218.42,18.7&#10;220.85,18.9&#10;223.28,19.08&#10;225.71,19.26&#10;228.14,19.3&#10;230.57,19.43&#10;233,19.89&#10;235.43,19.93&#10;237.86,19.34&#10;240.29,19.31&#10;242.72,19.18&#10;245.15,18.8&#10;247.58,18.52&#10;250.01,18.34&#10;252.44,18.33&#10;254.87,18.32&#10;257.3,18.53&#10;259.73,19.69&#10;262.16,20.02&#10;264.59,19.33&#10;267.02,18.81&#10;269.45,18.56&#10;271.88,18.46&#10;274.31,18.37&#10;276.74,18.36&#10;279.17,18.44&#10;281.6,18.48&#10;284.03,18.4&#10;286.46,18.34&#10;288.89,18.34&#10;291.32,18.34&#10;293.75,18.43&#10;296.18,18.54&#10;298.61,18.52&#10;301.04,18.47&#10;303.47,18.49&#10;305.9,18.62&#10;308.33,18.74&#10;310.76,18.68&#10;313.19,18.71&#10;315.62,19.12&#10;318.05,19.97&#10;320.48,20.59&#10;322.91,20.5&#10;325.34,20.18&#10;327.77,20.21&#10;330.2,20.59&#10;332.63,20.91&#10;335.05,20.93&#10;337.48,20.78&#10;339.91,20.67&#10;342.34,20.66&#10;344.77,20.76&#10;347.2,20.91&#10;349.63,21.07&#10;352.06,21.14&#10;354.49,21.18&#10;356.92,21.29&#10;359.35,21.52&#10;361.78,21.65&#10;364.21,21.63&#10;366.64,21.43&#10;369.07,21.2&#10;371.5,21.04&#10;373.93,21.04&#10;376.36,21.22&#10;378.79,21.62&#10;381.22,22.21&#10;383.65,22.92&#10;386.08,23.56&#10;388.51,23.99&#10;390.94,24.21&#10;393.37,24.32&#10;395.8,24.36&#10;398.23,24.37&#10;400.66,24.38&#10;403.09,24.39&#10;405.52,24.4&#10;407.95,24.41&#10;410.38,24.41&#10;412.81,24.42&#10;415.24,24.42&#10;417.67,24.42&#10;420.1,24.42&#10;422.53,24.42&#10;424.96,24.42&#10;427.39,24.42&#10;429.82,24.42&#10;432.25,24.42&#10;434.68,24.42&#10;437.11,24.42&#10;439.54,24.41&#10;441.97,24.41&#10;444.4,24.41&#10;446.83,24.4&#10;449.26,24.4&#10;451.69,24.4&#10;454.11,24.4&#10;456.54,24.41&#10;458.97,24.41&#10;461.4,24.41&#10;463.83,24.4&#10;466.26,24.4&#10;468.69,24.41&#10;471.12,24.41&#10;473.55,24.41&#10;475.98,24.41&#10;478.41,24.41&#10;480.84,24.42&#10;483.27,24.42&#10;485.7,24.42&#10;488.13,24.42&#10;490.56,24.42&#10;492.99,24.42&#10;495.42,24.42&#10;497.85,24.42&#10;500.28,24.42&#10;502.71,24.42&#10;505.14,24.42&#10;507.57,24.42&#10;510,24.42&#10;512.43,24.42&#10;514.86,24.42&#10;517.29,24.42&#10;519.72,24.42&#10;522.15,24.42&#10;524.58,24.42&#10;527.01,24.42&#10;529.44,24.42&#10;531.87,24.42&#10;534.3,24.42&#10;536.73,24.42&#10;539.16,24.42&#10;541.59,24.42&#10;544.02,24.42&#10;546.45,24.42&#10;548.88,24.42&#10;551.31,24.42&#10;553.74,24.42&#10;556.17,24.42&#10;558.6,24.42&#10;558.6,24.42"/><polyline class="range" points="198.99,25.64&#10;198.99,26.86&#10;317.8,26.86&#10;317.8,25.64"/><polyline class="range" points="193.4,28.08&#10;193.4,29.3&#10;378.79,29.3&#10;378.79,28.08"/></g><g id="itemarea4" transform="translate(0 36.23)"/><g id="itemarea5" transform="translate(0 56.44)"/><g id="itemarea6" transform="translate(0 76.66)"><polygon class="main" points="135.81,24.42&#10;135.81,24.42&#10;138.24,24.42&#10;140.67,24.41&#10;143.1,24.41&#10;145.53,24.41&#10;147.96,24.41&#10;150.39,24.41&#10;152.82,24.41&#10;155.25,24.41&#10;157.68,24.41&#10;160.11,24.41&#10;162.54,24.41&#10;164.97,24.41&#10;167.4,24.41&#10;169.83,24.41&#10;172.26,24.41&#10;174.69,24.41&#10;177.12,24.41&#10;179.55,24.41&#10;181.98,24.41&#10;184.41,24.41&#10;186.84,24.41&#10;189.27,24.4&#10;191.7,24.38&#10;194.13,24.34&#10;196.56,24.23&#10;198.99,24.08&#10;201.42,24.06&#10;203.85,23.79&#10;206.28,23.14&#10;208.71,22.58&#10;211.14,22.39&#10;213.56,21.94&#10;215.99,21.24&#10;218.42,20.36&#10;220.85,19.96&#10;223.28,19.64&#10;225.71,19.36&#10;228.14,19.31&#10;230.57,19.14&#10;233,18.68&#10;235.43,18.66&#10;237.86,19.26&#10;240.29,19.3&#10;242.72,19.48&#10;245.15,20.16&#10;247.58,20.87&#10;250.01,21.7&#10;252.44,22.39&#10;254.87,22.03&#10;257.3,20.83&#10;259.73,18.87&#10;262.16,18.59&#10;264.59,19.27&#10;267.02,20.13&#10;269.45,20.77&#10;271.88,21.05&#10;274.31,21.49&#10;276.74,21.6&#10;279.17,21.22&#10;281.6,21.07&#10;284.03,21.41&#10;286.46,21.91&#10;288.89,22.14&#10;291.32,21.89&#10;293.75,21.28&#10;296.18,20.86&#10;298.61,20.93&#10;301.04,21.15&#10;303.47,21.02&#10;305.9,20.61&#10;308.33,20.36&#10;310.76,20.46&#10;313.19,20.4&#10;315.62,19.61&#10;318.05,18.67&#10;320.48,18.36&#10;322.91,18.38&#10;325.34,18.53&#10;327.77,18.51&#10;330.2,18.36&#10;332.63,18.33&#10;335.05,18.31&#10;337.48,18.34&#10;339.91,18.34&#10;342.34,18.34&#10;344.77,18.34&#10;347.2,18.31&#10;349.63,18.34&#10;352.06,18.33&#10;354.49,18.34&#10;356.92,18.38&#10;359.35,18.45&#10;361.78,18.52&#10;364.21,18.53&#10;366.64,18.41&#10;369.07,18.34&#10;371.5,18.32&#10;373.93,18.32&#10;376.36,18.34&#10;378.79,18.5&#10;381.22,18.98&#10;383.65,20.01&#10;386.08,21.45&#10;388.51,22.79&#10;390.94,23.63&#10;393.37,24.03&#10;395.8,24.2&#10;398.23,24.26&#10;400.66,24.29&#10;403.09,24.31&#10;405.52,24.35&#10;407.95,24.38&#10;410.38,24.4&#10;412.81,24.41&#10;415.24,24.41&#10;417.67,24.41&#10;420.1,24.41&#10;422.53,24.41&#10;424.96,24.41&#10;427.39,24.41&#10;429.82,24.41&#10;432.25,24.4&#10;434.68,24.4&#10;437.11,24.4&#10;439.54,24.4&#10;441.97,24.4&#10;444.4,24.38&#10;446.83,24.36&#10;449.26,24.34&#10;451.69,24.34&#10;454.11,24.36&#10;456.54,24.38&#10;458.97,24.38&#10;461.4,24.37&#10;463.83,24.34&#10;466.26,24.34&#10;468.69,24.39&#10;471.12,24.4&#10;473.55,24.4&#10;475.98,24.4&#10;478.41,24.4&#10;480.84,24.41&#10;483.27,24.41&#10;485.7,24.41&#10;488.13,24.41&#10;490.56,24.41&#10;492.99,24.41&#10;495.42,24.41&#10;497.85,24.41&#10;500.28,24.41&#10;502.71,24.41&#10;505.14,24.41&#10;507.57,24.41&#10;510,24.41&#10;512.43,24.41&#10;514.86,24.41&#10;517.29,24.41&#10;519.72,24.41&#10;522.15,24.41&#10;524.58,24.41&#10;527.01,24.41&#10;529.44,24.41&#10;531.87,24.42&#10;534.3,24.42&#10;534.3,24.42"/><polyline class="range" points="220.37,25.64&#10;220.37,26.86&#10;244.67,26.86&#10;244.67,25.64"/><polyline class="range" points="258.27,25.64&#10;258.27,26.86&#10;266.78,26.86&#10;266.78,25.64"/><polyline class="range" points="314.16,25.64&#10;314.16,26.86&#10;383.65,26.86&#10;383.65,25.64"/><polyline class="range" points="212.84,28.08&#10;212.84,29.3&#10;251.23,29.3&#10;251.23,28.08"/><polyline class="range" points="254.63,28.08&#10;254.63,29.3&#10;387.3,29.3&#10;387.3,28.08"/></g></g></g><g id="textarea" transform="translate(14.15 14.15)"><g id="itemarea2" transform="translate(0 -4.2)"><text transform="translate(0 2.91)" style="font-size:7.272727272727273pt" x="7.22" y="24.42">ground surface before roundhouse construction</text></g><g id="itemarea3" transform="translate(0 16.01)"><text transform="translate(0 2.91)" style="font-size:7.272727272727273pt" x="7.22" y="24.42">R_Date GU1580</text></g><g id="itemarea4" transform="translate(0 36.23)"><text transform="translate(0 2.91)" style="font-size:7.272727272727273pt" x="7.22" y="24.42"></text></g><g id="itemarea5" transform="translate(0 56.44)"><text transform="translate(0 2.91)" style="font-size:7.272727272727273pt" x="7.22" y="24.42">occupation layer outside roundhouse</text></g><g id="itemarea6" transform="translate(0 76.66)"><text transform="translate(0 2.91)" style="font-size:7.272727272727273pt" x="7.22" y="24.42">R_Date GU-1581</text></g></g><rect class="border" x="14.15" width="481.1" y="14.15" height="121.29"/><g><line class="gridline" x1="60.3" y1="135.44" x2="60.3" y2="14.15"/><line class="gridline" x1="108.9" y1="135.44" x2="108.9" y2="14.15"/><line class="gridline" x1="157.49" y1="135.44" x2="157.49" y2="14.15"/><line class="gridline" x1="206.09" y1="135.44" x2="206.09" y2="14.15"/><line class="gridline" x1="254.69" y1="135.44" x2="254.69" y2="14.15"/><line class="gridline" x1="303.28" y1="135.44" x2="303.28" y2="14.15"/><line class="gridline" x1="351.88" y1="135.44" x2="351.88" y2="14.15"/><line class="gridline" x1="400.47" y1="135.44" x2="400.47" y2="14.15"/><line class="gridline" x1="449.07" y1="135.44" x2="449.07" y2="14.15"/></g><g><line class="majorpip" x1="14.15" y1="135.44" x2="495.25" y2="135.44"/><line class="minorpip" x1="23.85" y1="135.44" x2="23.85" y2="132.61"/><line class="minorpip" x1="36" y1="135.44" x2="36" y2="132.61"/><line class="minorpip" x1="48.15" y1="135.44" x2="48.15" y2="132.61"/><line class="minorpip" x1="60.3" y1="135.44" x2="60.3" y2="132.61"/><line class="minorpip" x1="72.45" y1="135.44" x2="72.45" y2="132.61"/><line class="minorpip" x1="84.6" y1="135.44" x2="84.6" y2="132.61"/><line class="minorpip" x1="96.75" y1="135.44" x2="96.75" y2="132.61"/><line class="minorpip" x1="108.9" y1="135.44" x2="108.9" y2="132.61"/><line class="minorpip" x1="121.05" y1="135.44" x2="121.05" y2="132.61"/><line class="minorpip" x1="133.2" y1="135.44" x2="133.2" y2="132.61"/><line class="minorpip" x1="145.34" y1="135.44" x2="145.34" y2="132.61"/><line class="minorpip" x1="157.49" y1="135.44" x2="157.49" y2="132.61"/><line class="minorpip" x1="169.64" y1="135.44" x2="169.64" y2="132.61"/><line class="minorpip" x1="181.79" y1="135.44" x2="181.79" y2="132.61"/><line class="minorpip" x1="193.94" y1="135.44" x2="193.94" y2="132.61"/><line class="minorpip" x1="206.09" y1="135.44" x2="206.09" y2="132.61"/><line class="minorpip" x1="218.24" y1="135.44" x2="218.24" y2="132.61"/><line class="minorpip" x1="230.39" y1="135.44" x2="230.39" y2="132.61"/><line class="minorpip" x1="242.54" y1="135.44" x2="242.54" y2="132.61"/><line class="minorpip" x1="254.69" y1="135.44" x2="254.69" y2="132.61"/><line class="minorpip" x1="266.83" y1="135.44" x2="266.83" y2="132.61"/><line class="minorpip" x1="278.98" y1="135.44" x2="278.98" y2="132.61"/><line class="minorpip" x1="291.13" y1="135.44" x2="291.13" y2="132.61"/><line class="minorpip" x1="303.28" y1="135.44" x2="303.28" y2="132.61"/><line class="minorpip" x1="315.43" y1="135.44" x2="315.43" y2="132.61"/><line class="minorpip" x1="327.58" y1="135.44" x2="327.58" y2="132.61"/><line class="minorpip" x1="339.73" y1="135.44" x2="339.73" y2="132.61"/><line class="minorpip" x1="351.88" y1="135.44" x2="351.88" y2="132.61"/><line class="minorpip" x1="364.03" y1="135.44" x2="364.03" y2="132.61"/><line class="minorpip" x1="376.18" y1="135.44" x2="376.18" y2="132.61"/><line class="minorpip" x1="388.32" y1="135.44" x2="388.32" y2="132.61"/><line class="minorpip" x1="400.47" y1="135.44" x2="400.47" y2="132.61"/><line class="minorpip" x1="412.62" y1="135.44" x2="412.62" y2="132.61"/><line class="minorpip" x1="424.77" y1="135.44" x2="424.77" y2="132.61"/><line class="minorpip" x1="436.92" y1="135.44" x2="436.92" y2="132.61"/><line class="minorpip" x1="449.07" y1="135.44" x2="449.07" y2="132.61"/><line class="minorpip" x1="461.22" y1="135.44" x2="461.22" y2="132.61"/><line class="minorpip" x1="473.37" y1="135.44" x2="473.37" y2="132.61"/><line class="minorpip" x1="485.52" y1="135.44" x2="485.52" y2="132.61"/><line class="majorpip" x1="60.3" y1="135.44" x2="60.3" y2="129.78"/><text transform="translate(0 8.44)" style="font-size:7.272727272727273pt;text-anchor:middle" x="60.3" y="135.44">1100</text><line class="majorpip" x1="108.9" y1="135.44" x2="108.9" y2="129.78"/><text transform="translate(0 8.44)" style="font-size:7.272727272727273pt;text-anchor:middle" x="108.9" y="135.44">1000</text><line class="majorpip" x1="157.49" y1="135.44" x2="157.49" y2="129.78"/><text transform="translate(0 8.44)" style="font-size:7.272727272727273pt;text-anchor:middle" x="157.49" y="135.44">900</text><line class="majorpip" x1="206.09" y1="135.44" x2="206.09" y2="129.78"/><text transform="translate(0 8.44)" style="font-size:7.272727272727273pt;text-anchor:middle" x="206.09" y="135.44">800</text><line class="majorpip" x1="254.69" y1="135.44" x2="254.69" y2="129.78"/><text transform="translate(0 8.44)" style="font-size:7.272727272727273pt;text-anchor:middle" x="254.69" y="135.44">700</text><line class="majorpip" x1="303.28" y1="135.44" x2="303.28" y2="129.78"/><text transform="translate(0 8.44)" style="font-size:7.272727272727273pt;text-anchor:middle" x="303.28" y="135.44">600</text><line class="majorpip" x1="351.88" y1="135.44" x2="351.88" y2="129.78"/><text transform="translate(0 8.44)" style="font-size:7.272727272727273pt;text-anchor:middle" x="351.88" y="135.44">500</text><line class="majorpip" x1="400.47" y1="135.44" x2="400.47" y2="129.78"/><text transform="translate(0 8.44)" style="font-size:7.272727272727273pt;text-anchor:middle" x="400.47" y="135.44">400</text><line class="majorpip" x1="449.07" y1="135.44" x2="449.07" y2="129.78"/><text transform="translate(0 8.44)" style="font-size:7.272727272727273pt;text-anchor:middle" x="449.07" y="135.44">300</text><text transform="translate(0 2.91)" style="font-size:7.272727272727273pt;text-anchor:middle" x="254.7" y="163.74">Calibrated date (calBC)</text></g><g id="references" transform="translate(0 0)"><text transform="translate(0 -1.05)" style="font-size:4.363636363636363pt" x="14.15" y="14.15">OxCal v4.4.4 Bronk Ramsey (2021); r:5 Atmospheric data from Reimer et al (2020)</text></g></g></g>
</svg>