<?xml version="1.0" encoding="UTF-8"?><svg id="top" version="1.1" xmlns="http://www.w3.org/2000/svg" xmlns:xlink="http://www.w3.org/1999/xlink" xmlns:ev="http://www.w3.org/2001/xml-events" width="509.400pt" height="521.529pt" zoomAndPan="magnify" preserveAspectRatio="xMinYMin" onload="createPlot()" viewBox="0 0 509.400 521.529">
   <defs id="definitions">
   <filter id="Shadow" filterUnits="userSpaceOnUse">
    <feGaussianBlur in="SourceAlpha" stdDeviation="4" result="blur"/>
    <feOffset in="blur" dx="4" dy="4" result="offsetBlurredAlpha"/>
    <feMerge>
     <feMergeNode in="offsetBlurredAlpha"/>
     <feMergeNode in="SourceGraphic"/>
    </feMerge> 
   </filter>    
    <filter id="Correlation1" x="-20%" y="-20%" width="140%" height="140%" filterUnits="objectBoundingBox">
     <feGaussianBlur in="SourceGraphic" stdDeviation="7" result="blur"/>
     <feColorMatrix type="matrix" in="blur" values="0 0 0  5.00 -2.00&#10;               0 0 0 -2.50  2.50&#10;               0 0 0  0.00  0.00&#10;               0 0 0  2.50  0.00"/>
    </filter>    
    <filter id="Correlation2" x="-20%" y="-20%" width="140%" height="140%" filterUnits="objectBoundingBox">
     <feGaussianBlur in="SourceGraphic" stdDeviation="7" result="blur"/>
     <feGaussianBlur in="SourceAlpha" stdDeviation="7" result="opacity"/>
     <feColorMatrix type="matrix" in="blur" result="newcolor" values="0 0 0  5.00 -2.00&#10;               0 0 0 -2.50  2.50&#10;               0 0 0  0.00  0.00&#10;               0 0 0  2.50  0.00"/>
     <feSpecularLighting in="opacity" surfaceScale="5" specularConstant="1" specularExponent="20" lighting-color="white" result="specularOut">
      <feDistantLight azimuth="225" elevation="30"/>
     </feSpecularLighting>
     <feComposite in="newcolor" in2="specularOut" operator="arithmetic" k1="0" k2="1" k3="1" k4="0" result="litPaint"/>
    </filter>
    <pattern id="Sequence" patternUnits="userSpaceOnUse" x="0" y="0" width="5" height="5" viewBox="0 0 5 5">
    </pattern>    
    <pattern id="U_Sequence" patternUnits="userSpaceOnUse" x="0" y="0" width="5" height="5" viewBox="0 0 5 5">
     <line x1="-2.5" x2="5" y1="5" y2="-2.5" style="stroke-width:1.5;stroke:black"/>
     <line x1="0" x2="7.5" y1="7.5" y2="0" style="stroke-width:1.5;stroke:black"/>
    </pattern>    
    <pattern id="D_Sequence" patternUnits="userSpaceOnUse" x="0" y="0" width="5" height="5" viewBox="0 0 5 5">
     <line x1="-2.5" x2="7.5" y1="-2.5" y2="7.5" style="stroke-width:1;stroke:black"/>
     <line x1="-2.5" x2="7.5" y1="7.5" y2="-2.5" style="stroke-width:1;stroke:black"/>
    </pattern>    
    <pattern id="V_Sequence" patternUnits="userSpaceOnUse" x="0" y="0" width="5" height="5" viewBox="0 0 5 5">
     <ellipse cx="2.5" cy="2.5" rx="1.5" ry="0.7" style="fill:black"/>
    </pattern>    
    <pattern id="P_Sequence" patternUnits="userSpaceOnUse" x="0" y="0" width="5" height="5" viewBox="0 0 5 5">
     <circle cx="1.25" cy="3.75" r="1" style="fill:black"/>
     <circle cx="3.75" cy="1.25" r="1" style="fill:black"/>
    </pattern>
    <style type="text/css">
      rect.border { fill:none; stroke:black;stroke-width:1px }
      rect.fillblack { fill:black; stroke:black;stroke-width:1px }
      rect.structure { fill:none; stroke:none }
      rect.structtab { fill:none; stroke:none }
      rect.structclip { fill:white; stroke:none }
      rect.structborder { fill:none; stroke:black; stroke-width:0.5px }
      rect.range3 {fill:none;stroke:black;stroke-width:1px }
      rect.range2 {fill:none;stroke:black;stroke-width:1px }
      rect.range1 {fill:none;stroke:black;stroke-width:1px }
      rect.fillbackground { fill:#000099 }
      rect.fillmodel { fill:none;stroke:black;stroke-width:1px }
      rect.modeldist { fill:none;stroke:black;stroke-width:1px }
      rect.fill { }
      polygon.main { fill:black; stroke:black;stroke-width:0.2px }
      polygon.shadow { fill:none;stroke:black;stroke-width:0.2px }
      polygon.curve { fill:none;stroke:black;stroke-width:1px }
      polygon.normal { fill:none;stroke:black;stroke-width:1px }
      polygon.kdesigma { fill:lightgrey; stroke:grey;stroke-width:0px;fill-opacity:0.2 }
      polygon.modeldist { fill:url(#U_Sequence);stroke:black;stroke-width:1px }
      polyline.datacurve { fill:none; stroke:black;stroke-width:1px }
      polyline.range { fill:none; stroke:black; stroke-width:1px; stroke-linejoin:round }
      polyline.ensemble { fill:none; stroke:black; stroke-width:0.5px;stroke-opacity:0.2 }
      polyline.kdemean { fill:none; stroke:black; stroke-width:1px }
      path.model3 { fill:none;stroke:black;stroke-width:1px }
      path.model2 { fill:none;stroke:black;stroke-width:1px }
      path.model1 { fill:none;stroke:black;stroke-width:1px }
      g.curve { fill:none;stroke:black;stroke-width:1px }
      line.majorpip { stroke:black; stroke-width:1px }
      line.minorpip { stroke:black; stroke-width:0.5px }
      line.gridline { stroke:black; stroke-width:0.5px }
      line.majorpip2 { stroke:white; stroke-width:1px }
      line.minorpip2 { stroke:white; stroke-width:0.5px }
      line.gridline2 { stroke:white; stroke-width:0.5px }
      line.okline { stroke:black; stroke-width:1px }
      line.errorline { stroke:black; stroke-width:1px }
      line.range { stroke:black; stroke-width:1px }
      line.modelline { stroke:black; stroke-width:1px }
      line.constrshadow { stroke:none; stroke-width:2px }
      line.constrok { stroke:black; stroke-width:1px }
      line.constrerror { stroke:black; stroke-width:1px }
      line.curve { stroke:black;stroke-width:1px }
      text { fill:black; stroke:none; font-size:10pt; font-family:"Arial","Helvetica"; font-style:normal }
    </style>
   <clipPath id="clip1"><rect x="0" width="481.1" y="0" height="464.93"/></clipPath><clipPath id="clip2"><rect x="0" width="481.1" y="0" height="464.93"/></clipPath></defs>
    <g id="mainframe"><rect x="-50.94" width="611.28" y="-52.15" height="625.83" style="fill:white" stroke="none"/><g id="mainviewport" transform="translate(0 0)"><rect class="border" x="14.15" width="481.1" y="14.15" height="464.93"/><g id="tabarea" transform="translate(14.15 14.15)"/><g id="plotarea" transform="translate(14.15 14.15)"><g id="structarea" transform="translate(0 0)"><g clip-path="url(#clip1)"><polyline class="range" points="9.62,12.13&#10;4.81,12.13&#10;4.81,452.8&#10;9.62,452.8"/><polyline class="range" points="14.43,52.56&#10;9.62,52.56&#10;9.62,432.59&#10;14.43,432.59"/></g></g><g clip-path="url(#clip2)"><g id="itemarea9" transform="translate(0 -4.2)"/><g id="itemarea10" transform="translate(0 16.01)"><polygon class="main" points="42.98,24.42&#10;42.98,24.42&#10;45.62,24.41&#10;48.27,24.41&#10;50.91,24.41&#10;53.55,24.41&#10;56.2,24.41&#10;58.84,24.41&#10;61.48,24.41&#10;64.13,24.41&#10;66.77,24.41&#10;69.41,24.41&#10;72.06,24.41&#10;74.7,24.41&#10;77.34,24.41&#10;79.99,24.41&#10;82.63,24.41&#10;85.27,24.41&#10;87.92,24.41&#10;90.56,24.41&#10;93.2,24.41&#10;95.85,24.41&#10;98.49,24.4&#10;101.13,24.4&#10;103.78,24.4&#10;106.42,24.4&#10;109.06,24.4&#10;111.71,24.4&#10;114.35,24.4&#10;116.99,24.39&#10;119.64,24.39&#10;122.28,24.39&#10;124.92,24.38&#10;127.57,24.38&#10;130.21,24.37&#10;132.85,24.37&#10;135.5,24.36&#10;138.14,24.35&#10;140.78,24.34&#10;143.43,24.32&#10;146.07,24.31&#10;148.71,24.29&#10;151.36,24.28&#10;154,24.26&#10;156.65,24.24&#10;159.29,24.21&#10;161.93,24.19&#10;164.58,24.16&#10;167.22,24.13&#10;169.86,24.06&#10;172.51,24.04&#10;175.15,23.96&#10;177.79,23.9&#10;180.44,23.84&#10;183.08,23.74&#10;185.72,23.66&#10;188.37,23.54&#10;191.01,23.36&#10;193.65,23.15&#10;196.3,23&#10;198.94,22.73&#10;201.58,22.34&#10;204.23,22.01&#10;206.87,21.53&#10;209.51,20.91&#10;212.16,20.28&#10;214.8,19.7&#10;217.44,19.36&#10;220.09,18.87&#10;222.73,18.61&#10;225.37,18.31&#10;228.02,18.48&#10;230.66,18.7&#10;233.3,19.05&#10;235.95,19.51&#10;238.59,20.09&#10;241.23,20.96&#10;243.88,21.64&#10;246.52,22.33&#10;249.16,22.8&#10;251.81,23.37&#10;254.45,23.64&#10;257.09,23.96&#10;259.74,24.1&#10;262.38,24.25&#10;265.02,24.36&#10;267.67,24.37&#10;270.31,24.37&#10;272.96,24.41&#10;272.96,24.42"/><polyline class="range" points="207.93,25.64&#10;207.93,26.86&#10;242.56,26.86&#10;242.56,25.64"/><polyline class="range" points="175.15,28.08&#10;175.15,29.3&#10;257.09,29.3&#10;257.09,28.08"/></g><g id="itemarea11" transform="translate(0 36.23)"/><g id="itemarea12" transform="translate(0 56.44)"/><g id="itemarea13" transform="translate(0 76.66)"/><g id="itemarea15" transform="translate(0 96.87)"><polygon class="shadow" points="29.76,24.42&#10;29.76,24.42&#10;32.41,24.42&#10;35.05,24.42&#10;37.69,24.41&#10;40.34,24.41&#10;42.98,24.41&#10;45.62,24.41&#10;48.27,24.41&#10;50.91,24.41&#10;53.55,24.41&#10;56.2,24.41&#10;58.84,24.41&#10;61.48,24.41&#10;64.13,24.39&#10;66.77,24.34&#10;69.41,24.32&#10;72.06,24.37&#10;74.7,24.4&#10;77.34,24.41&#10;79.99,24.41&#10;82.63,24.41&#10;85.27,24.41&#10;87.92,24.41&#10;90.56,24.41&#10;93.2,24.41&#10;95.85,24.41&#10;98.49,24.41&#10;101.13,24.4&#10;103.78,24.39&#10;106.42,24.38&#10;109.06,24.37&#10;111.71,24.35&#10;114.35,24.33&#10;116.99,24.34&#10;119.64,24.31&#10;122.28,24.31&#10;124.92,24.31&#10;127.57,24.27&#10;130.21,24.23&#10;132.85,24.24&#10;135.5,24.23&#10;138.14,24.25&#10;140.78,24.13&#10;143.43,23.93&#10;146.07,23.58&#10;148.71,22.77&#10;151.36,22.23&#10;154,21.75&#10;156.65,20.99&#10;159.29,20.23&#10;161.93,19.83&#10;164.58,20.18&#10;167.22,20.25&#10;169.86,20.32&#10;172.51,20.98&#10;175.15,21.38&#10;177.79,20.88&#10;180.44,19.92&#10;183.08,19.63&#10;185.72,19.73&#10;188.37,20.17&#10;191.01,20.89&#10;193.65,21.06&#10;196.3,20.78&#10;198.94,20.83&#10;201.58,21.28&#10;204.23,21.32&#10;206.87,20.91&#10;209.51,20.12&#10;212.16,19.24&#10;214.8,18.62&#10;217.44,18.35&#10;220.09,18.31&#10;222.73,18.32&#10;225.37,18.41&#10;228.02,18.64&#10;230.66,18.94&#10;233.3,19.16&#10;235.95,19.32&#10;238.59,19.5&#10;241.23,19.87&#10;243.88,20.63&#10;246.52,21.77&#10;249.16,22.54&#10;251.81,22.65&#10;254.45,22.38&#10;257.09,22&#10;259.74,21.69&#10;262.38,21.87&#10;265.02,22.58&#10;267.67,23.32&#10;270.31,23.88&#10;272.96,24.19&#10;275.6,24.33&#10;278.24,24.38&#10;280.89,24.4&#10;283.53,24.41&#10;286.17,24.41&#10;288.82,24.41&#10;291.46,24.41&#10;294.1,24.41&#10;296.75,24.41&#10;299.39,24.41&#10;302.03,24.41&#10;304.68,24.41&#10;307.32,24.41&#10;309.96,24.41&#10;312.61,24.41&#10;315.25,24.41&#10;317.89,24.41&#10;320.54,24.41&#10;323.18,24.41&#10;325.82,24.41&#10;328.47,24.41&#10;331.11,24.41&#10;333.75,24.41&#10;336.4,24.41&#10;339.04,24.42&#10;341.68,24.42&#10;344.33,24.41&#10;346.97,24.41&#10;349.61,24.41&#10;352.26,24.41&#10;354.9,24.41&#10;357.54,24.41&#10;360.19,24.41&#10;362.83,24.41&#10;365.47,24.42&#10;368.12,24.42&#10;368.12,24.42"/><polygon class="main" points="116.99,24.42&#10;116.99,24.42&#10;119.64,24.41&#10;122.28,24.42&#10;124.92,24.42&#10;127.57,24.41&#10;130.21,24.41&#10;132.85,24.41&#10;135.5,24.41&#10;138.14,24.41&#10;140.78,24.41&#10;143.43,24.41&#10;146.07,24.41&#10;148.71,24.41&#10;151.36,24.41&#10;154,24.4&#10;156.65,24.39&#10;159.29,24.38&#10;161.93,24.37&#10;164.58,24.37&#10;167.22,24.36&#10;169.86,24.35&#10;172.51,24.36&#10;175.15,24.35&#10;177.79,24.33&#10;180.44,24.29&#10;183.08,24.26&#10;185.72,24.24&#10;188.37,24.23&#10;191.01,24.22&#10;193.65,24.2&#10;196.3,24.15&#10;198.94,24.09&#10;201.58,24.07&#10;204.23,24&#10;206.87,23.86&#10;209.51,23.59&#10;212.16,23.22&#10;214.8,22.77&#10;217.44,22.35&#10;220.09,21.88&#10;222.73,21.33&#10;225.37,20.77&#10;228.02,20.3&#10;230.66,19.9&#10;233.3,19.45&#10;235.95,18.94&#10;238.59,18.37&#10;241.23,18.31&#10;243.88,18.88&#10;246.52,20.07&#10;249.16,21.04&#10;251.81,21.18&#10;254.45,20.58&#10;257.09,19.8&#10;259.74,19.18&#10;262.38,19.49&#10;265.02,20.72&#10;267.67,22.16&#10;270.31,23.24&#10;272.96,23.9&#10;275.6,24.23&#10;278.24,24.34&#10;280.89,24.39&#10;283.53,24.4&#10;286.17,24.41&#10;288.82,24.41&#10;291.46,24.41&#10;294.1,24.41&#10;296.75,24.41&#10;299.39,24.41&#10;302.03,24.41&#10;304.68,24.41&#10;307.32,24.41&#10;309.96,24.41&#10;312.61,24.41&#10;315.25,24.41&#10;317.89,24.41&#10;320.54,24.41&#10;323.18,24.41&#10;325.82,24.41&#10;328.47,24.41&#10;331.11,24.41&#10;333.75,24.41&#10;336.4,24.41&#10;339.04,24.42&#10;341.68,24.42&#10;341.68,24.42"/><polyline class="range" points="225.37,25.64&#10;225.37,26.86&#10;248.37,26.86&#10;248.37,25.64"/><polyline class="range" points="253.66,25.64&#10;253.66,26.86&#10;265.02,26.86&#10;265.02,25.64"/><polyline class="range" points="206.87,28.08&#10;206.87,29.3&#10;272.69,29.3&#10;272.69,28.08"/></g><g id="itemarea17" transform="translate(0 117.08)"><polygon class="shadow" points="50.91,24.42&#10;50.91,24.42&#10;53.55,24.42&#10;56.2,24.42&#10;58.84,24.42&#10;61.48,24.42&#10;64.13,24.42&#10;66.77,24.42&#10;69.41,24.42&#10;72.06,24.42&#10;74.7,24.42&#10;77.34,24.42&#10;79.99,24.42&#10;82.63,24.42&#10;85.27,24.42&#10;87.92,24.42&#10;90.56,24.42&#10;93.2,24.42&#10;95.85,24.42&#10;98.49,24.42&#10;101.13,24.42&#10;103.78,24.42&#10;106.42,24.42&#10;109.06,24.42&#10;111.71,24.42&#10;114.35,24.42&#10;116.99,24.42&#10;119.64,24.42&#10;122.28,24.42&#10;124.92,24.42&#10;127.57,24.41&#10;130.21,24.41&#10;132.85,24.41&#10;135.5,24.41&#10;138.14,24.41&#10;140.78,24.4&#10;143.43,24.38&#10;146.07,24.32&#10;148.71,24.11&#10;151.36,23.93&#10;154,23.73&#10;156.65,23.34&#10;159.29,22.85&#10;161.93,22.54&#10;164.58,22.79&#10;167.22,22.83&#10;169.86,22.87&#10;172.51,23.29&#10;175.15,23.52&#10;177.79,23.23&#10;180.44,22.53&#10;183.08,22.25&#10;185.72,22.32&#10;188.37,22.68&#10;191.01,23.19&#10;193.65,23.3&#10;196.3,23.12&#10;198.94,23.13&#10;201.58,23.42&#10;204.23,23.44&#10;206.87,23.18&#10;209.51,22.58&#10;212.16,21.67&#10;214.8,20.69&#10;217.44,19.9&#10;220.09,19.54&#10;222.73,19.3&#10;225.37,18.9&#10;228.02,18.57&#10;230.66,18.41&#10;233.3,18.35&#10;235.95,18.32&#10;238.59,18.32&#10;241.23,18.4&#10;243.88,18.8&#10;246.52,19.67&#10;249.16,20.5&#10;251.81,20.67&#10;254.45,20.4&#10;257.09,20&#10;259.74,19.7&#10;262.38,19.89&#10;265.02,20.72&#10;267.67,21.78&#10;270.31,22.77&#10;272.96,23.49&#10;275.6,23.91&#10;278.24,24.15&#10;280.89,24.27&#10;283.53,24.33&#10;286.17,24.36&#10;288.82,24.38&#10;291.46,24.4&#10;294.1,24.4&#10;296.75,24.4&#10;299.39,24.41&#10;302.03,24.41&#10;304.68,24.41&#10;307.32,24.42&#10;309.96,24.41&#10;312.61,24.41&#10;315.25,24.42&#10;317.89,24.41&#10;320.54,24.41&#10;323.18,24.4&#10;325.82,24.4&#10;328.47,24.41&#10;331.11,24.41&#10;333.75,24.41&#10;336.4,24.42&#10;339.04,24.42&#10;341.68,24.42&#10;344.33,24.42&#10;346.97,24.42&#10;349.61,24.42&#10;352.26,24.42&#10;354.9,24.42&#10;357.54,24.42&#10;360.19,24.42&#10;362.83,24.42&#10;365.47,24.42&#10;368.12,24.42&#10;370.76,24.42&#10;373.4,24.42&#10;376.05,24.42&#10;378.69,24.42&#10;381.33,24.42&#10;383.98,24.42&#10;386.62,24.42&#10;389.26,24.42&#10;391.91,24.42&#10;394.55,24.42&#10;397.2,24.42&#10;397.2,24.42"/><polygon class="main" points="146.07,24.42&#10;146.07,24.42&#10;148.71,24.42&#10;151.36,24.42&#10;154,24.42&#10;156.65,24.41&#10;159.29,24.41&#10;161.93,24.41&#10;164.58,24.4&#10;167.22,24.4&#10;169.86,24.4&#10;172.51,24.4&#10;175.15,24.4&#10;177.79,24.39&#10;180.44,24.37&#10;183.08,24.35&#10;185.72,24.34&#10;188.37,24.36&#10;191.01,24.37&#10;193.65,24.37&#10;196.3,24.35&#10;198.94,24.34&#10;201.58,24.34&#10;204.23,24.33&#10;206.87,24.27&#10;209.51,24.15&#10;212.16,23.91&#10;214.8,23.51&#10;217.44,23.07&#10;220.09,22.69&#10;222.73,22.24&#10;225.37,21.68&#10;228.02,21&#10;230.66,20.4&#10;233.3,19.8&#10;235.95,19.3&#10;238.59,18.76&#10;241.23,18.46&#10;243.88,18.32&#10;246.52,18.98&#10;249.16,19.72&#10;251.81,19.74&#10;254.45,19.25&#10;257.09,18.78&#10;259.74,18.34&#10;262.38,18.52&#10;265.02,19.55&#10;267.67,20.92&#10;270.31,22.21&#10;272.96,23.14&#10;275.6,23.69&#10;278.24,24.02&#10;280.89,24.19&#10;283.53,24.28&#10;286.17,24.33&#10;288.82,24.35&#10;291.46,24.37&#10;294.1,24.38&#10;296.75,24.38&#10;299.39,24.39&#10;302.03,24.4&#10;304.68,24.41&#10;307.32,24.41&#10;309.96,24.41&#10;312.61,24.41&#10;315.25,24.41&#10;317.89,24.4&#10;320.54,24.39&#10;323.18,24.39&#10;325.82,24.38&#10;328.47,24.39&#10;331.11,24.39&#10;333.75,24.4&#10;336.4,24.42&#10;339.04,24.42&#10;341.68,24.42&#10;344.33,24.42&#10;346.97,24.42&#10;349.61,24.42&#10;352.26,24.42&#10;354.9,24.42&#10;357.54,24.42&#10;360.19,24.42&#10;362.83,24.42&#10;365.47,24.42&#10;368.12,24.42&#10;370.76,24.42&#10;373.4,24.42&#10;376.05,24.42&#10;378.69,24.42&#10;381.33,24.42&#10;383.98,24.42&#10;386.62,24.42&#10;389.26,24.42&#10;391.91,24.42&#10;394.55,24.42&#10;397.2,24.42&#10;399.84,24.42&#10;402.48,24.42&#10;402.48,24.42"/><polyline class="range" points="233.3,25.64&#10;233.3,26.86&#10;265.55,26.86&#10;265.55,25.64"/><polyline class="range" points="214.8,28.08&#10;214.8,29.3&#10;274.81,29.3&#10;274.81,28.08"/></g><g id="itemarea19" transform="translate(0 137.3)"><polygon class="shadow" points="119.64,24.42&#10;119.64,24.42&#10;122.28,24.41&#10;124.92,24.41&#10;127.57,24.41&#10;130.21,24.41&#10;132.85,24.41&#10;135.5,24.41&#10;138.14,24.41&#10;140.78,24.41&#10;143.43,24.41&#10;146.07,24.41&#10;148.71,24.4&#10;151.36,24.39&#10;154,24.36&#10;156.65,24.29&#10;159.29,24.13&#10;161.93,24&#10;164.58,24.12&#10;167.22,24.14&#10;169.86,24.16&#10;172.51,24.28&#10;175.15,24.33&#10;177.79,24.27&#10;180.44,24.03&#10;183.08,23.91&#10;185.72,23.94&#10;188.37,24.1&#10;191.01,24.27&#10;193.65,24.29&#10;196.3,24.25&#10;198.94,24.25&#10;201.58,24.32&#10;204.23,24.32&#10;206.87,24.26&#10;209.51,24.09&#10;212.16,23.65&#10;214.8,22.87&#10;217.44,21.97&#10;220.09,21.5&#10;222.73,21.16&#10;225.37,20.43&#10;228.02,19.62&#10;230.66,19.04&#10;233.3,18.74&#10;235.95,18.59&#10;238.59,18.46&#10;241.23,18.31&#10;243.88,18.5&#10;246.52,19.6&#10;249.16,20.86&#10;251.81,21.07&#10;254.45,20.58&#10;257.09,19.94&#10;259.74,19.49&#10;262.38,19.72&#10;265.02,20.93&#10;267.67,22.44&#10;270.31,23.61&#10;272.96,24.17&#10;275.6,24.35&#10;278.24,24.4&#10;280.89,24.41&#10;283.53,24.41&#10;286.17,24.41&#10;288.82,24.41&#10;291.46,24.41&#10;294.1,24.41&#10;296.75,24.41&#10;299.39,24.41&#10;302.03,24.42&#10;304.68,24.42&#10;307.32,24.42&#10;309.96,24.41&#10;312.61,24.41&#10;315.25,24.41&#10;317.89,24.41&#10;320.54,24.41&#10;323.18,24.41&#10;325.82,24.41&#10;328.47,24.41&#10;331.11,24.41&#10;333.75,24.41&#10;336.4,24.41&#10;339.04,24.42&#10;341.68,24.42&#10;344.33,24.42&#10;344.33,24.42"/><polygon class="main" points="151.36,24.42&#10;151.36,24.42&#10;154,24.41&#10;156.65,24.41&#10;159.29,24.41&#10;161.93,24.41&#10;164.58,24.41&#10;167.22,24.41&#10;169.86,24.41&#10;172.51,24.41&#10;175.15,24.41&#10;177.79,24.41&#10;180.44,24.4&#10;183.08,24.39&#10;185.72,24.39&#10;188.37,24.4&#10;191.01,24.4&#10;193.65,24.4&#10;196.3,24.4&#10;198.94,24.4&#10;201.58,24.4&#10;204.23,24.4&#10;206.87,24.39&#10;209.51,24.35&#10;212.16,24.22&#10;214.8,23.97&#10;217.44,23.61&#10;220.09,23.28&#10;222.73,22.91&#10;225.37,22.33&#10;228.02,21.59&#10;230.66,20.87&#10;233.3,20.2&#10;235.95,19.66&#10;238.59,19.11&#10;241.23,18.55&#10;243.88,18.36&#10;246.52,19.18&#10;249.16,20.2&#10;251.81,20.36&#10;254.45,19.76&#10;257.09,18.9&#10;259.74,18.31&#10;262.38,18.56&#10;265.02,19.95&#10;267.67,21.82&#10;270.31,23.32&#10;272.96,24.08&#10;275.6,24.33&#10;278.24,24.39&#10;280.89,24.41&#10;283.53,24.41&#10;286.17,24.41&#10;288.82,24.41&#10;291.46,24.41&#10;294.1,24.41&#10;296.75,24.41&#10;296.75,24.42"/><polyline class="range" points="233.3,25.64&#10;233.3,26.86&#10;249.16,26.86&#10;249.16,25.64"/><polyline class="range" points="252.6,25.64&#10;252.6,26.86&#10;265.29,26.86&#10;265.29,25.64"/><polyline class="range" points="220.09,28.08&#10;220.09,29.3&#10;270.31,29.3&#10;270.31,28.08"/></g><g id="itemarea21" transform="translate(0 157.51)"><polygon class="shadow" points="56.2,24.42&#10;56.2,24.42&#10;58.84,24.42&#10;61.48,24.42&#10;64.13,24.41&#10;66.77,24.41&#10;69.41,24.41&#10;72.06,24.41&#10;74.7,24.41&#10;77.34,24.42&#10;79.99,24.42&#10;82.63,24.42&#10;85.27,24.42&#10;87.92,24.42&#10;90.56,24.42&#10;93.2,24.42&#10;95.85,24.42&#10;98.49,24.42&#10;101.13,24.41&#10;103.78,24.41&#10;106.42,24.41&#10;109.06,24.41&#10;111.71,24.41&#10;114.35,24.41&#10;116.99,24.41&#10;119.64,24.41&#10;122.28,24.41&#10;124.92,24.41&#10;127.57,24.41&#10;130.21,24.41&#10;132.85,24.41&#10;135.5,24.41&#10;138.14,24.41&#10;140.78,24.41&#10;143.43,24.41&#10;146.07,24.41&#10;148.71,24.4&#10;151.36,24.39&#10;154,24.38&#10;156.65,24.35&#10;159.29,24.3&#10;161.93,24.26&#10;164.58,24.29&#10;167.22,24.3&#10;169.86,24.31&#10;172.51,24.35&#10;175.15,24.37&#10;177.79,24.34&#10;180.44,24.27&#10;183.08,24.23&#10;185.72,24.24&#10;188.37,24.29&#10;191.01,24.34&#10;193.65,24.35&#10;196.3,24.34&#10;198.94,24.34&#10;201.58,24.36&#10;204.23,24.36&#10;206.87,24.34&#10;209.51,24.29&#10;212.16,24.16&#10;214.8,23.94&#10;217.44,23.67&#10;220.09,23.52&#10;222.73,23.4&#10;225.37,23.12&#10;228.02,22.73&#10;230.66,22.36&#10;233.3,22.11&#10;235.95,21.94&#10;238.59,21.75&#10;241.23,21.36&#10;243.88,20.6&#10;246.52,19.49&#10;249.16,18.81&#10;251.81,18.72&#10;254.45,18.94&#10;257.09,19.28&#10;259.74,19.57&#10;262.38,19.39&#10;265.02,18.76&#10;267.67,18.31&#10;270.31,18.44&#10;272.96,19.27&#10;275.6,20.43&#10;278.24,21.57&#10;280.89,22.42&#10;283.53,22.97&#10;286.17,23.35&#10;288.82,23.63&#10;291.46,23.83&#10;294.1,23.85&#10;296.75,23.74&#10;299.39,24.01&#10;302.03,24.21&#10;304.68,24.19&#10;307.32,24.2&#10;309.96,24.12&#10;312.61,24.08&#10;315.25,24.09&#10;317.89,23.9&#10;320.54,23.47&#10;323.18,23.2&#10;325.82,22.93&#10;328.47,23.52&#10;331.11,23.61&#10;333.75,23.33&#10;336.4,24.3&#10;339.04,24.41&#10;341.68,24.41&#10;344.33,24.38&#10;346.97,24.35&#10;349.61,24.37&#10;352.26,24.38&#10;354.9,24.37&#10;357.54,24.36&#10;360.19,24.37&#10;362.83,24.39&#10;365.47,24.4&#10;368.12,24.41&#10;370.76,24.41&#10;373.4,24.41&#10;376.05,24.4&#10;378.69,24.4&#10;381.33,24.4&#10;383.98,24.4&#10;386.62,24.4&#10;389.26,24.4&#10;391.91,24.41&#10;394.55,24.41&#10;397.2,24.41&#10;399.84,24.41&#10;402.48,24.41&#10;405.13,24.41&#10;407.77,24.41&#10;410.41,24.41&#10;413.06,24.41&#10;415.7,24.41&#10;418.34,24.41&#10;420.99,24.41&#10;423.63,24.41&#10;426.27,24.41&#10;428.92,24.41&#10;431.56,24.41&#10;434.2,24.41&#10;436.85,24.41&#10;439.49,24.41&#10;442.13,24.41&#10;444.78,24.41&#10;447.42,24.41&#10;450.06,24.42&#10;450.06,24.42"/><polygon class="main" points="156.65,24.42&#10;156.65,24.42&#10;159.29,24.41&#10;161.93,24.41&#10;164.58,24.41&#10;167.22,24.41&#10;169.86,24.41&#10;172.51,24.41&#10;175.15,24.41&#10;177.79,24.41&#10;180.44,24.41&#10;183.08,24.41&#10;185.72,24.41&#10;188.37,24.41&#10;191.01,24.41&#10;193.65,24.41&#10;196.3,24.41&#10;198.94,24.41&#10;201.58,24.41&#10;204.23,24.41&#10;206.87,24.4&#10;209.51,24.39&#10;212.16,24.35&#10;214.8,24.28&#10;217.44,24.17&#10;220.09,24.06&#10;222.73,23.94&#10;225.37,23.76&#10;228.02,23.48&#10;230.66,23.14&#10;233.3,22.86&#10;235.95,22.57&#10;238.59,22.29&#10;241.23,21.81&#10;243.88,21.08&#10;246.52,20&#10;249.16,19.22&#10;251.81,19.06&#10;254.45,19.09&#10;257.09,19.33&#10;259.74,19.62&#10;262.38,19.37&#10;265.02,18.78&#10;267.67,18.31&#10;270.31,18.44&#10;272.96,19.24&#10;275.6,20.43&#10;278.24,21.55&#10;280.89,22.43&#10;283.53,22.99&#10;286.17,23.36&#10;288.82,23.62&#10;291.46,23.82&#10;294.1,23.84&#10;296.75,23.78&#10;299.39,24.01&#10;302.03,24.19&#10;304.68,24.19&#10;307.32,24.19&#10;309.96,24.14&#10;312.61,24.09&#10;315.25,24.09&#10;317.89,23.91&#10;320.54,23.53&#10;323.18,23.24&#10;325.82,23.13&#10;328.47,23.51&#10;331.11,23.61&#10;333.75,23.63&#10;336.4,24.31&#10;339.04,24.41&#10;341.68,24.41&#10;344.33,24.38&#10;346.97,24.37&#10;349.61,24.38&#10;352.26,24.38&#10;354.9,24.38&#10;357.54,24.37&#10;360.19,24.38&#10;362.83,24.39&#10;365.47,24.4&#10;368.12,24.41&#10;370.76,24.41&#10;373.4,24.41&#10;376.05,24.41&#10;378.69,24.41&#10;381.33,24.4&#10;383.98,24.4&#10;386.62,24.41&#10;389.26,24.41&#10;391.91,24.41&#10;394.55,24.41&#10;397.2,24.41&#10;399.84,24.42&#10;402.48,24.41&#10;402.48,24.42"/><polyline class="range" points="242.29,25.64&#10;242.29,26.86&#10;278.24,26.86&#10;278.24,25.64"/><polyline class="range" points="223.52,28.08&#10;223.52,29.3&#10;298.07,29.3&#10;298.07,28.08"/><polyline class="range" points="317.89,28.08&#10;317.89,29.3&#10;334.81,29.3&#10;334.81,28.08"/></g><g id="itemarea23" transform="translate(0 177.73)"><polygon class="shadow" points="154,24.42&#10;154,24.42&#10;156.65,24.42&#10;159.29,24.41&#10;161.93,24.41&#10;164.58,24.41&#10;167.22,24.42&#10;169.86,24.42&#10;172.51,24.42&#10;175.15,24.42&#10;177.79,24.42&#10;180.44,24.41&#10;183.08,24.41&#10;185.72,24.41&#10;188.37,24.41&#10;191.01,24.42&#10;193.65,24.42&#10;196.3,24.42&#10;198.94,24.42&#10;201.58,24.42&#10;204.23,24.42&#10;206.87,24.42&#10;209.51,24.41&#10;212.16,24.41&#10;214.8,24.41&#10;217.44,24.41&#10;220.09,24.41&#10;222.73,24.4&#10;225.37,24.39&#10;228.02,24.35&#10;230.66,24.29&#10;233.3,24.22&#10;235.95,24.16&#10;238.59,24.09&#10;241.23,23.89&#10;243.88,23.22&#10;246.52,21.56&#10;249.16,19.89&#10;251.81,19.63&#10;254.45,20.24&#10;257.09,21.09&#10;259.74,21.71&#10;262.38,21.39&#10;265.02,19.79&#10;267.67,18.31&#10;270.31,18.75&#10;272.96,21.06&#10;275.6,23.06&#10;278.24,23.98&#10;280.89,24.3&#10;283.53,24.38&#10;286.17,24.4&#10;288.82,24.41&#10;291.46,24.41&#10;294.1,24.41&#10;296.75,24.41&#10;299.39,24.41&#10;302.03,24.41&#10;304.68,24.41&#10;307.32,24.41&#10;309.96,24.41&#10;312.61,24.41&#10;315.25,24.41&#10;317.89,24.41&#10;320.54,24.41&#10;323.18,24.4&#10;325.82,24.38&#10;328.47,24.41&#10;331.11,24.41&#10;333.75,24.41&#10;336.4,24.41&#10;339.04,24.42&#10;341.68,24.42&#10;344.33,24.42&#10;344.33,24.42"/><polygon class="main" points="212.16,24.42&#10;212.16,24.42&#10;214.8,24.41&#10;217.44,24.41&#10;220.09,24.41&#10;222.73,24.41&#10;225.37,24.4&#10;228.02,24.38&#10;230.66,24.34&#10;233.3,24.27&#10;235.95,24.22&#10;238.59,24.14&#10;241.23,23.93&#10;243.88,23.29&#10;246.52,21.82&#10;249.16,20.28&#10;251.81,19.89&#10;254.45,20.35&#10;257.09,21.11&#10;259.74,21.61&#10;262.38,21.22&#10;265.02,19.73&#10;267.67,18.31&#10;270.31,18.77&#10;272.96,21&#10;275.6,22.99&#10;278.24,23.95&#10;280.89,24.28&#10;283.53,24.38&#10;286.17,24.4&#10;288.82,24.41&#10;291.46,24.41&#10;294.1,24.41&#10;296.75,24.41&#10;299.39,24.41&#10;302.03,24.41&#10;304.68,24.41&#10;307.32,24.41&#10;309.96,24.41&#10;312.61,24.41&#10;315.25,24.41&#10;317.89,24.41&#10;320.54,24.41&#10;323.18,24.4&#10;325.82,24.39&#10;328.47,24.41&#10;331.11,24.41&#10;333.75,24.41&#10;336.4,24.41&#10;339.04,24.42&#10;341.68,24.42&#10;341.68,24.42"/><polyline class="range" points="247.84,25.64&#10;247.84,26.86&#10;257.09,26.86&#10;257.09,25.64"/><polyline class="range" points="262.65,25.64&#10;262.65,26.86&#10;273.22,26.86&#10;273.22,25.64"/><polyline class="range" points="242.82,28.08&#10;242.82,29.3&#10;277.18,29.3&#10;277.18,28.08"/></g><g id="itemarea25" transform="translate(0 197.94)"><polygon class="shadow" points="58.84,24.42&#10;58.84,24.42&#10;61.48,24.42&#10;64.13,24.41&#10;66.77,24.41&#10;69.41,24.41&#10;72.06,24.41&#10;74.7,24.42&#10;77.34,24.42&#10;79.99,24.42&#10;82.63,24.42&#10;85.27,24.42&#10;87.92,24.42&#10;90.56,24.42&#10;93.2,24.42&#10;95.85,24.42&#10;98.49,24.42&#10;101.13,24.42&#10;103.78,24.42&#10;106.42,24.41&#10;109.06,24.41&#10;111.71,24.41&#10;114.35,24.41&#10;116.99,24.41&#10;119.64,24.41&#10;122.28,24.41&#10;124.92,24.41&#10;127.57,24.41&#10;130.21,24.41&#10;132.85,24.41&#10;135.5,24.41&#10;138.14,24.41&#10;140.78,24.41&#10;143.43,24.41&#10;146.07,24.41&#10;148.71,24.41&#10;151.36,24.4&#10;154,24.4&#10;156.65,24.38&#10;159.29,24.34&#10;161.93,24.31&#10;164.58,24.34&#10;167.22,24.34&#10;169.86,24.35&#10;172.51,24.38&#10;175.15,24.39&#10;177.79,24.37&#10;180.44,24.32&#10;183.08,24.3&#10;185.72,24.3&#10;188.37,24.34&#10;191.01,24.37&#10;193.65,24.38&#10;196.3,24.37&#10;198.94,24.37&#10;201.58,24.38&#10;204.23,24.38&#10;206.87,24.37&#10;209.51,24.33&#10;212.16,24.25&#10;214.8,24.09&#10;217.44,23.89&#10;220.09,23.77&#10;222.73,23.68&#10;225.37,23.46&#10;228.02,23.14&#10;230.66,22.83&#10;233.3,22.61&#10;235.95,22.46&#10;238.59,22.29&#10;241.23,21.94&#10;243.88,21.21&#10;246.52,20.07&#10;249.16,19.27&#10;251.81,19.15&#10;254.45,19.43&#10;257.09,19.83&#10;259.74,20.15&#10;262.38,19.97&#10;265.02,19.22&#10;267.67,18.52&#10;270.31,18.31&#10;272.96,18.84&#10;275.6,19.86&#10;278.24,21&#10;280.89,21.91&#10;283.53,22.54&#10;286.17,23&#10;288.82,23.33&#10;291.46,23.59&#10;294.1,23.62&#10;296.75,23.47&#10;299.39,23.82&#10;302.03,24.1&#10;304.68,24.08&#10;307.32,24.09&#10;309.96,23.97&#10;312.61,23.92&#10;315.25,23.94&#10;317.89,23.69&#10;320.54,23.13&#10;323.18,22.81&#10;325.82,22.48&#10;328.47,23.2&#10;331.11,23.31&#10;333.75,22.96&#10;336.4,24.25&#10;339.04,24.41&#10;341.68,24.4&#10;344.33,24.36&#10;346.97,24.32&#10;349.61,24.34&#10;352.26,24.35&#10;354.9,24.35&#10;357.54,24.33&#10;360.19,24.35&#10;362.83,24.37&#10;365.47,24.39&#10;368.12,24.4&#10;370.76,24.4&#10;373.4,24.4&#10;376.05,24.4&#10;378.69,24.39&#10;381.33,24.39&#10;383.98,24.39&#10;386.62,24.39&#10;389.26,24.39&#10;391.91,24.4&#10;394.55,24.41&#10;397.2,24.41&#10;399.84,24.41&#10;402.48,24.41&#10;405.13,24.41&#10;407.77,24.41&#10;410.41,24.41&#10;413.06,24.41&#10;415.7,24.41&#10;418.34,24.41&#10;420.99,24.41&#10;423.63,24.41&#10;426.27,24.41&#10;428.92,24.41&#10;431.56,24.41&#10;434.2,24.41&#10;436.85,24.41&#10;439.49,24.41&#10;442.13,24.41&#10;444.78,24.41&#10;447.42,24.41&#10;450.06,24.41&#10;452.71,24.42&#10;455.35,24.42&#10;457.99,24.42&#10;457.99,24.42"/><polygon class="main" points="154,24.42&#10;154,24.42&#10;156.65,24.41&#10;159.29,24.41&#10;161.93,24.41&#10;164.58,24.41&#10;167.22,24.41&#10;169.86,24.41&#10;172.51,24.41&#10;175.15,24.41&#10;177.79,24.41&#10;180.44,24.41&#10;183.08,24.41&#10;185.72,24.41&#10;188.37,24.41&#10;191.01,24.41&#10;193.65,24.41&#10;196.3,24.41&#10;198.94,24.41&#10;201.58,24.41&#10;204.23,24.41&#10;206.87,24.41&#10;209.51,24.4&#10;212.16,24.37&#10;214.8,24.32&#10;217.44,24.23&#10;220.09,24.16&#10;222.73,24.07&#10;225.37,23.91&#10;228.02,23.65&#10;230.66,23.41&#10;233.3,23.14&#10;235.95,22.94&#10;238.59,22.65&#10;241.23,22.25&#10;243.88,21.52&#10;246.52,20.48&#10;249.16,19.66&#10;251.81,19.37&#10;254.45,19.52&#10;257.09,19.84&#10;259.74,20.05&#10;262.38,19.92&#10;265.02,19.18&#10;267.67,18.4&#10;270.31,18.31&#10;272.96,18.73&#10;275.6,19.82&#10;278.24,20.94&#10;280.89,21.9&#10;283.53,22.5&#10;286.17,22.98&#10;288.82,23.32&#10;291.46,23.55&#10;294.1,23.57&#10;296.75,23.55&#10;299.39,23.82&#10;302.03,24.08&#10;304.68,24.08&#10;307.32,24.08&#10;309.96,23.99&#10;312.61,23.95&#10;315.25,23.91&#10;317.89,23.68&#10;320.54,23.2&#10;323.18,22.85&#10;325.82,22.68&#10;328.47,23.18&#10;331.11,23.29&#10;333.75,23.36&#10;336.4,24.24&#10;339.04,24.41&#10;341.68,24.4&#10;344.33,24.36&#10;346.97,24.33&#10;349.61,24.35&#10;352.26,24.35&#10;354.9,24.35&#10;357.54,24.35&#10;360.19,24.36&#10;362.83,24.38&#10;365.47,24.4&#10;368.12,24.4&#10;370.76,24.41&#10;373.4,24.4&#10;376.05,24.4&#10;378.69,24.4&#10;381.33,24.4&#10;383.98,24.4&#10;386.62,24.4&#10;389.26,24.4&#10;391.91,24.41&#10;394.55,24.41&#10;397.2,24.41&#10;399.84,24.41&#10;402.48,24.41&#10;402.48,24.42"/><polyline class="range" points="242.29,25.64&#10;242.29,26.86&#10;281.15,26.86&#10;281.15,25.64"/><polyline class="range" points="225.37,28.08&#10;225.37,29.3&#10;300.18,29.3&#10;300.18,28.08"/><polyline class="range" points="315.25,28.08&#10;315.25,29.3&#10;335.34,29.3&#10;335.34,28.08"/></g><g id="itemarea27" transform="translate(0 218.16)"><polygon class="shadow" points="143.43,24.42&#10;143.43,24.42&#10;146.07,24.42&#10;148.71,24.42&#10;151.36,24.41&#10;154,24.41&#10;156.65,24.41&#10;159.29,24.41&#10;161.93,24.41&#10;164.58,24.41&#10;167.22,24.41&#10;169.86,24.41&#10;172.51,24.41&#10;175.15,24.41&#10;177.79,24.41&#10;180.44,24.41&#10;183.08,24.41&#10;185.72,24.41&#10;188.37,24.41&#10;191.01,24.41&#10;193.65,24.41&#10;196.3,24.41&#10;198.94,24.41&#10;201.58,24.41&#10;204.23,24.41&#10;206.87,24.41&#10;209.51,24.41&#10;212.16,24.41&#10;214.8,24.4&#10;217.44,24.38&#10;220.09,24.37&#10;222.73,24.35&#10;225.37,24.3&#10;228.02,24.2&#10;230.66,24.07&#10;233.3,23.96&#10;235.95,23.88&#10;238.59,23.77&#10;241.23,23.52&#10;243.88,22.85&#10;246.52,21.46&#10;249.16,20.18&#10;251.81,19.97&#10;254.45,20.45&#10;257.09,21.1&#10;259.74,21.58&#10;262.38,21.32&#10;265.02,20.11&#10;267.67,18.76&#10;270.31,18.31&#10;272.96,19.38&#10;275.6,21.14&#10;278.24,22.62&#10;280.89,23.49&#10;283.53,23.92&#10;286.17,24.13&#10;288.82,24.26&#10;291.46,24.33&#10;294.1,24.34&#10;296.75,24.31&#10;299.39,24.38&#10;302.03,24.4&#10;304.68,24.4&#10;307.32,24.4&#10;309.96,24.39&#10;312.61,24.39&#10;315.25,24.39&#10;317.89,24.35&#10;320.54,24.21&#10;323.18,24.08&#10;325.82,23.91&#10;328.47,24.23&#10;331.11,24.27&#10;333.75,24.15&#10;336.4,24.4&#10;339.04,24.42&#10;341.68,24.41&#10;344.33,24.41&#10;346.97,24.41&#10;349.61,24.41&#10;352.26,24.41&#10;354.9,24.41&#10;357.54,24.41&#10;360.19,24.41&#10;362.83,24.41&#10;365.47,24.41&#10;368.12,24.41&#10;370.76,24.41&#10;373.4,24.41&#10;376.05,24.41&#10;378.69,24.41&#10;381.33,24.41&#10;383.98,24.41&#10;386.62,24.41&#10;389.26,24.41&#10;391.91,24.41&#10;394.55,24.42&#10;397.2,24.42&#10;399.84,24.42&#10;399.84,24.42"/><polygon class="main" points="204.23,24.42&#10;204.23,24.42&#10;206.87,24.42&#10;209.51,24.41&#10;212.16,24.41&#10;214.8,24.41&#10;217.44,24.4&#10;220.09,24.39&#10;222.73,24.38&#10;225.37,24.35&#10;228.02,24.28&#10;230.66,24.19&#10;233.3,24.09&#10;235.95,24&#10;238.59,23.87&#10;241.23,23.6&#10;243.88,22.94&#10;246.52,21.67&#10;249.16,20.43&#10;251.81,20.18&#10;254.45,20.5&#10;257.09,21.13&#10;259.74,21.51&#10;262.38,21.17&#10;265.02,20.01&#10;267.67,18.7&#10;270.31,18.31&#10;272.96,19.34&#10;275.6,21.07&#10;278.24,22.58&#10;280.89,23.45&#10;283.53,23.9&#10;286.17,24.12&#10;288.82,24.25&#10;291.46,24.32&#10;294.1,24.33&#10;296.75,24.32&#10;299.39,24.37&#10;302.03,24.4&#10;304.68,24.4&#10;307.32,24.4&#10;309.96,24.4&#10;312.61,24.39&#10;315.25,24.39&#10;317.89,24.35&#10;320.54,24.22&#10;323.18,24.08&#10;325.82,24&#10;328.47,24.21&#10;331.11,24.26&#10;333.75,24.24&#10;336.4,24.4&#10;339.04,24.41&#10;341.68,24.41&#10;344.33,24.41&#10;346.97,24.41&#10;349.61,24.41&#10;352.26,24.41&#10;354.9,24.41&#10;357.54,24.41&#10;360.19,24.41&#10;362.83,24.41&#10;365.47,24.41&#10;368.12,24.42&#10;368.12,24.42"/><polyline class="range" points="247.58,25.64&#10;247.58,26.86&#10;257.36,26.86&#10;257.36,25.64"/><polyline class="range" points="262.38,25.64&#10;262.38,26.86&#10;275.86,26.86&#10;275.86,25.64"/><polyline class="range" points="233.57,28.08&#10;233.57,29.3&#10;285.64,29.3&#10;285.64,28.08"/><polyline class="range" points="323.18,28.08&#10;323.18,29.3&#10;326.88,29.3&#10;326.88,28.08"/></g><g id="itemarea29" transform="translate(0 238.37)"><polygon class="shadow" points="56.2,24.42&#10;56.2,24.42&#10;58.84,24.42&#10;61.48,24.42&#10;64.13,24.41&#10;66.77,24.41&#10;69.41,24.41&#10;72.06,24.41&#10;74.7,24.41&#10;77.34,24.42&#10;79.99,24.42&#10;82.63,24.42&#10;85.27,24.42&#10;87.92,24.42&#10;90.56,24.42&#10;93.2,24.42&#10;95.85,24.42&#10;98.49,24.42&#10;101.13,24.41&#10;103.78,24.41&#10;106.42,24.41&#10;109.06,24.41&#10;111.71,24.41&#10;114.35,24.41&#10;116.99,24.41&#10;119.64,24.41&#10;122.28,24.41&#10;124.92,24.41&#10;127.57,24.41&#10;130.21,24.41&#10;132.85,24.41&#10;135.5,24.41&#10;138.14,24.41&#10;140.78,24.41&#10;143.43,24.41&#10;146.07,24.41&#10;148.71,24.41&#10;151.36,24.41&#10;154,24.4&#10;156.65,24.39&#10;159.29,24.37&#10;161.93,24.35&#10;164.58,24.36&#10;167.22,24.37&#10;169.86,24.37&#10;172.51,24.39&#10;175.15,24.39&#10;177.79,24.38&#10;180.44,24.35&#10;183.08,24.34&#10;185.72,24.34&#10;188.37,24.36&#10;191.01,24.38&#10;193.65,24.39&#10;196.3,24.38&#10;198.94,24.38&#10;201.58,24.39&#10;204.23,24.39&#10;206.87,24.38&#10;209.51,24.36&#10;212.16,24.31&#10;214.8,24.23&#10;217.44,24.12&#10;220.09,24.06&#10;222.73,24.01&#10;225.37,23.88&#10;228.02,23.71&#10;230.66,23.53&#10;233.3,23.41&#10;235.95,23.32&#10;238.59,23.22&#10;241.23,23&#10;243.88,22.53&#10;246.52,21.68&#10;249.16,20.94&#10;251.81,20.82&#10;254.45,21.1&#10;257.09,21.48&#10;259.74,21.75&#10;262.38,21.6&#10;265.02,20.9&#10;267.67,19.95&#10;270.31,19&#10;272.96,18.39&#10;275.6,18.31&#10;278.24,18.69&#10;280.89,19.25&#10;283.53,19.81&#10;286.17,20.37&#10;288.82,20.84&#10;291.46,21.26&#10;294.1,21.3&#10;296.75,21.04&#10;299.39,21.74&#10;302.03,22.49&#10;304.68,22.42&#10;307.32,22.44&#10;309.96,22.1&#10;312.61,21.97&#10;315.25,22.01&#10;317.89,21.43&#10;320.54,20.49&#10;323.18,20.08&#10;325.82,19.72&#10;328.47,20.59&#10;331.11,20.75&#10;333.75,20.25&#10;336.4,23.46&#10;339.04,24.24&#10;341.68,24.08&#10;344.33,23.66&#10;346.97,23.39&#10;349.61,23.56&#10;352.26,23.62&#10;354.9,23.59&#10;357.54,23.48&#10;360.19,23.6&#10;362.83,23.82&#10;365.47,23.99&#10;368.12,24.06&#10;370.76,24.1&#10;373.4,24.08&#10;376.05,24.03&#10;378.69,23.97&#10;381.33,23.92&#10;383.98,23.92&#10;386.62,23.94&#10;389.26,24.02&#10;391.91,24.15&#10;394.55,24.28&#10;397.2,24.35&#10;399.84,24.39&#10;402.48,24.4&#10;405.13,24.41&#10;407.77,24.41&#10;410.41,24.41&#10;413.06,24.4&#10;415.7,24.39&#10;418.34,24.38&#10;420.99,24.37&#10;423.63,24.37&#10;426.27,24.38&#10;428.92,24.39&#10;431.56,24.4&#10;434.2,24.4&#10;436.85,24.4&#10;439.49,24.4&#10;442.13,24.41&#10;444.78,24.41&#10;447.42,24.41&#10;450.06,24.41&#10;452.71,24.41&#10;455.35,24.41&#10;457.99,24.41&#10;460.64,24.41&#10;463.28,24.41&#10;465.92,24.41&#10;468.57,24.41&#10;471.21,24.41&#10;473.85,24.42&#10;476.5,24.42&#10;476.5,24.42"/><polygon class="main" points="151.36,24.42&#10;151.36,24.42&#10;154,24.41&#10;156.65,24.41&#10;159.29,24.41&#10;161.93,24.41&#10;164.58,24.41&#10;167.22,24.41&#10;169.86,24.41&#10;172.51,24.41&#10;175.15,24.41&#10;177.79,24.41&#10;180.44,24.41&#10;183.08,24.41&#10;185.72,24.41&#10;188.37,24.41&#10;191.01,24.41&#10;193.65,24.41&#10;196.3,24.41&#10;198.94,24.41&#10;201.58,24.41&#10;204.23,24.41&#10;206.87,24.41&#10;209.51,24.4&#10;212.16,24.39&#10;214.8,24.36&#10;217.44,24.31&#10;220.09,24.27&#10;222.73,24.23&#10;225.37,24.13&#10;228.02,24.01&#10;230.66,23.86&#10;233.3,23.7&#10;235.95,23.57&#10;238.59,23.44&#10;241.23,23.18&#10;243.88,22.67&#10;246.52,21.91&#10;249.16,21.16&#10;251.81,21.05&#10;254.45,21.19&#10;257.09,21.48&#10;259.74,21.69&#10;262.38,21.53&#10;265.02,20.86&#10;267.67,19.92&#10;270.31,19.02&#10;272.96,18.39&#10;275.6,18.31&#10;278.24,18.66&#10;280.89,19.26&#10;283.53,19.81&#10;286.17,20.35&#10;288.82,20.82&#10;291.46,21.23&#10;294.1,21.24&#10;296.75,21.13&#10;299.39,21.75&#10;302.03,22.43&#10;304.68,22.41&#10;307.32,22.44&#10;309.96,22.2&#10;312.61,22.05&#10;315.25,22.02&#10;317.89,21.51&#10;320.54,20.67&#10;323.18,20.25&#10;325.82,20.04&#10;328.47,20.71&#10;331.11,20.86&#10;333.75,21.03&#10;336.4,23.42&#10;339.04,24.18&#10;341.68,24.08&#10;344.33,23.74&#10;346.97,23.53&#10;349.61,23.64&#10;352.26,23.72&#10;354.9,23.69&#10;357.54,23.67&#10;360.19,23.77&#10;362.83,23.94&#10;365.47,24.07&#10;368.12,24.14&#10;370.76,24.18&#10;373.4,24.18&#10;376.05,24.16&#10;378.69,24.13&#10;381.33,24.11&#10;383.98,24.11&#10;386.62,24.15&#10;389.26,24.2&#10;391.91,24.28&#10;394.55,24.35&#10;397.2,24.38&#10;399.84,24.4&#10;402.48,24.41&#10;405.13,24.41&#10;407.77,24.41&#10;410.41,24.41&#10;413.06,24.41&#10;415.7,24.41&#10;418.34,24.41&#10;420.99,24.4&#10;423.63,24.41&#10;426.27,24.41&#10;428.92,24.41&#10;431.56,24.41&#10;434.2,24.41&#10;436.85,24.41&#10;439.49,24.41&#10;442.13,24.41&#10;444.78,24.41&#10;447.42,24.41&#10;450.06,24.41&#10;450.06,24.42"/><polyline class="range" points="247.84,25.64&#10;247.84,26.86&#10;257.36,26.86&#10;257.36,25.64"/><polyline class="range" points="262.38,25.64&#10;262.38,26.86&#10;298.33,26.86&#10;298.33,25.64"/><polyline class="range" points="317.89,25.64&#10;317.89,26.86&#10;334.28,26.86&#10;334.28,25.64"/><polyline class="range" points="231.98,28.08&#10;231.98,29.3&#10;337.72,29.3&#10;337.72,28.08"/><polyline class="range" points="344.06,28.08&#10;344.06,29.3&#10;360.45,29.3&#10;360.45,28.08"/></g><g id="itemarea31" transform="translate(0 258.59)"><polygon class="shadow" points="140.78,24.42&#10;140.78,24.42&#10;143.43,24.42&#10;146.07,24.41&#10;148.71,24.41&#10;151.36,24.41&#10;154,24.41&#10;156.65,24.41&#10;159.29,24.41&#10;161.93,24.41&#10;164.58,24.41&#10;167.22,24.41&#10;169.86,24.41&#10;172.51,24.41&#10;175.15,24.41&#10;177.79,24.41&#10;180.44,24.41&#10;183.08,24.41&#10;185.72,24.41&#10;188.37,24.41&#10;191.01,24.41&#10;193.65,24.41&#10;196.3,24.41&#10;198.94,24.41&#10;201.58,24.41&#10;204.23,24.41&#10;206.87,24.41&#10;209.51,24.41&#10;212.16,24.41&#10;214.8,24.4&#10;217.44,24.39&#10;220.09,24.38&#10;222.73,24.37&#10;225.37,24.34&#10;228.02,24.29&#10;230.66,24.24&#10;233.3,24.19&#10;235.95,24.15&#10;238.59,24.11&#10;241.23,24.01&#10;243.88,23.77&#10;246.52,23.23&#10;249.16,22.66&#10;251.81,22.51&#10;254.45,22.7&#10;257.09,22.97&#10;259.74,23.16&#10;262.38,23.03&#10;265.02,22.44&#10;267.67,21.47&#10;270.31,20.27&#10;272.96,19.16&#10;275.6,18.49&#10;278.24,18.31&#10;280.89,18.48&#10;283.53,18.82&#10;286.17,19.26&#10;288.82,19.68&#10;291.46,20.11&#10;294.1,20.21&#10;296.75,20.03&#10;299.39,20.75&#10;302.03,21.57&#10;304.68,21.58&#10;307.32,21.68&#10;309.96,21.4&#10;312.61,21.34&#10;315.25,21.41&#10;317.89,20.88&#10;320.54,19.97&#10;323.18,19.57&#10;325.82,19.22&#10;328.47,20.16&#10;331.11,20.36&#10;333.75,19.88&#10;336.4,23.2&#10;339.04,24.06&#10;341.68,23.91&#10;344.33,23.59&#10;346.97,23.4&#10;349.61,23.57&#10;352.26,23.64&#10;354.9,23.65&#10;357.54,23.59&#10;360.19,23.71&#10;362.83,23.9&#10;365.47,24.05&#10;368.12,24.12&#10;370.76,24.16&#10;373.4,24.17&#10;376.05,24.16&#10;378.69,24.14&#10;381.33,24.12&#10;383.98,24.13&#10;386.62,24.15&#10;389.26,24.2&#10;391.91,24.27&#10;394.55,24.34&#10;397.2,24.38&#10;399.84,24.4&#10;402.48,24.41&#10;405.13,24.41&#10;407.77,24.41&#10;410.41,24.41&#10;413.06,24.41&#10;415.7,24.41&#10;418.34,24.41&#10;420.99,24.41&#10;423.63,24.41&#10;426.27,24.41&#10;428.92,24.41&#10;431.56,24.41&#10;434.2,24.41&#10;436.85,24.41&#10;439.49,24.41&#10;442.13,24.41&#10;444.78,24.41&#10;447.42,24.41&#10;450.06,24.41&#10;452.71,24.41&#10;455.35,24.41&#10;457.99,24.41&#10;460.64,24.41&#10;463.28,24.41&#10;465.92,24.41&#10;468.57,24.42&#10;471.21,24.42&#10;473.85,24.42&#10;473.85,24.42"/><polygon class="main" points="206.87,24.42&#10;206.87,24.42&#10;209.51,24.41&#10;212.16,24.41&#10;214.8,24.41&#10;217.44,24.41&#10;220.09,24.41&#10;222.73,24.4&#10;225.37,24.39&#10;228.02,24.37&#10;230.66,24.33&#10;233.3,24.3&#10;235.95,24.26&#10;238.59,24.22&#10;241.23,24.13&#10;243.88,23.89&#10;246.52,23.4&#10;249.16,22.85&#10;251.81,22.7&#10;254.45,22.79&#10;257.09,23.03&#10;259.74,23.21&#10;262.38,23.04&#10;265.02,22.42&#10;267.67,21.4&#10;270.31,20.14&#10;272.96,19.11&#10;275.6,18.5&#10;278.24,18.31&#10;280.89,18.57&#10;283.53,18.96&#10;286.17,19.46&#10;288.82,20.02&#10;291.46,20.35&#10;294.1,20.46&#10;296.75,20.42&#10;299.39,21.01&#10;302.03,21.74&#10;304.68,21.84&#10;307.32,21.93&#10;309.96,21.72&#10;312.61,21.69&#10;315.25,21.7&#10;317.89,21.21&#10;320.54,20.51&#10;323.18,20.09&#10;325.82,19.84&#10;328.47,20.54&#10;331.11,20.68&#10;333.75,20.99&#10;336.4,23.24&#10;339.04,24&#10;341.68,23.94&#10;344.33,23.71&#10;346.97,23.56&#10;349.61,23.69&#10;352.26,23.76&#10;354.9,23.79&#10;357.54,23.76&#10;360.19,23.87&#10;362.83,24&#10;365.47,24.12&#10;368.12,24.19&#10;370.76,24.21&#10;373.4,24.22&#10;376.05,24.23&#10;378.69,24.22&#10;381.33,24.22&#10;383.98,24.23&#10;386.62,24.26&#10;389.26,24.29&#10;391.91,24.32&#10;394.55,24.37&#10;397.2,24.39&#10;399.84,24.4&#10;402.48,24.41&#10;405.13,24.41&#10;407.77,24.41&#10;410.41,24.41&#10;413.06,24.41&#10;415.7,24.41&#10;418.34,24.41&#10;420.99,24.41&#10;423.63,24.41&#10;426.27,24.41&#10;428.92,24.41&#10;431.56,24.41&#10;434.2,24.41&#10;436.85,24.41&#10;439.49,24.41&#10;442.13,24.41&#10;444.78,24.41&#10;444.78,24.42"/><polyline class="range" points="267.4,25.64&#10;267.4,26.86&#10;301.24,26.86&#10;301.24,25.64"/><polyline class="range" points="316.31,25.64&#10;316.31,26.86&#10;334.28,26.86&#10;334.28,25.64"/><polyline class="range" points="244.14,28.08&#10;244.14,29.3&#10;338.51,29.3&#10;338.51,28.08"/><polyline class="range" points="343.01,28.08&#10;343.01,29.3&#10;358.87,29.3&#10;358.87,28.08"/></g><g id="itemarea33" transform="translate(0 278.8)"><polygon class="shadow" points="-68.04,24.42&#10;-68.04,24.42&#10;-65.4,24.41&#10;-62.76,24.41&#10;-60.11,24.41&#10;-57.47,24.41&#10;-54.83,24.41&#10;-52.18,24.41&#10;-49.54,24.41&#10;-46.9,24.41&#10;-44.25,24.41&#10;-41.61,24.41&#10;-38.97,24.41&#10;-36.32,24.41&#10;-33.68,24.41&#10;-31.04,24.41&#10;-28.39,24.41&#10;-25.75,24.41&#10;-23.11,24.41&#10;-20.46,24.41&#10;-17.82,24.41&#10;-15.18,24.41&#10;-12.53,24.41&#10;-9.89,24.41&#10;-7.25,24.41&#10;-4.6,24.41&#10;-1.96,24.41&#10;0.68,24.41&#10;3.33,24.41&#10;5.97,24.41&#10;8.61,24.41&#10;11.26,24.41&#10;13.9,24.41&#10;16.54,24.41&#10;19.19,24.41&#10;21.83,24.41&#10;24.47,24.41&#10;27.12,24.41&#10;29.76,24.41&#10;32.41,24.41&#10;35.05,24.41&#10;37.69,24.41&#10;40.34,24.41&#10;42.98,24.41&#10;45.62,24.41&#10;48.27,24.41&#10;50.91,24.41&#10;53.55,24.41&#10;56.2,24.41&#10;58.84,24.41&#10;61.48,24.4&#10;64.13,24.39&#10;66.77,24.37&#10;69.41,24.36&#10;72.06,24.38&#10;74.7,24.39&#10;77.34,24.4&#10;79.99,24.4&#10;82.63,24.41&#10;85.27,24.41&#10;87.92,24.41&#10;90.56,24.41&#10;93.2,24.4&#10;95.85,24.4&#10;98.49,24.4&#10;101.13,24.39&#10;103.78,24.39&#10;106.42,24.38&#10;109.06,24.38&#10;111.71,24.37&#10;114.35,24.36&#10;116.99,24.37&#10;119.64,24.36&#10;122.28,24.36&#10;124.92,24.36&#10;127.57,24.35&#10;130.21,24.34&#10;132.85,24.34&#10;135.5,24.34&#10;138.14,24.34&#10;140.78,24.31&#10;143.43,24.28&#10;146.07,24.22&#10;148.71,24.1&#10;151.36,24.03&#10;154,23.96&#10;156.65,23.84&#10;159.29,23.7&#10;161.93,23.61&#10;164.58,23.69&#10;167.22,23.7&#10;169.86,23.72&#10;172.51,23.84&#10;175.15,23.9&#10;177.79,23.82&#10;180.44,23.64&#10;183.08,23.57&#10;185.72,23.59&#10;188.37,23.69&#10;191.01,23.82&#10;193.65,23.85&#10;196.3,23.8&#10;198.94,23.81&#10;201.58,23.88&#10;204.23,23.89&#10;206.87,23.82&#10;209.51,23.68&#10;212.16,23.46&#10;214.8,23.2&#10;217.44,22.96&#10;220.09,22.84&#10;222.73,22.76&#10;225.37,22.57&#10;228.02,22.34&#10;230.66,22.14&#10;233.3,22.01&#10;235.95,21.92&#10;238.59,21.83&#10;241.23,21.64&#10;243.88,21.26&#10;246.52,20.69&#10;249.16,20.25&#10;251.81,20.17&#10;254.45,20.34&#10;257.09,20.56&#10;259.74,20.73&#10;262.38,20.64&#10;265.02,20.22&#10;267.67,19.69&#10;270.31,19.13&#10;272.96,18.69&#10;275.6,18.41&#10;278.24,18.31&#10;280.89,18.33&#10;283.53,18.42&#10;286.17,18.55&#10;288.82,18.69&#10;291.46,18.84&#10;294.1,18.85&#10;296.75,18.75&#10;299.39,19.03&#10;302.03,19.44&#10;304.68,19.4&#10;307.32,19.41&#10;309.96,19.21&#10;312.61,19.14&#10;315.25,19.16&#10;317.89,18.89&#10;320.54,18.57&#10;323.18,18.47&#10;325.82,18.39&#10;328.47,18.6&#10;331.11,18.65&#10;333.75,18.51&#10;336.4,20.72&#10;339.04,21.83&#10;341.68,21.29&#10;344.33,20.52&#10;346.97,20.19&#10;349.61,20.38&#10;352.26,20.47&#10;354.9,20.44&#10;357.54,20.29&#10;360.19,20.45&#10;362.83,20.79&#10;365.47,21.13&#10;368.12,21.32&#10;370.76,21.38&#10;373.4,21.33&#10;376.05,21.22&#10;378.69,21.09&#10;381.33,20.99&#10;383.98,20.96&#10;386.62,21.01&#10;389.26,21.19&#10;391.91,21.55&#10;394.55,22.02&#10;397.2,22.53&#10;399.84,22.98&#10;402.48,23.28&#10;405.13,23.43&#10;407.77,23.44&#10;410.41,23.34&#10;413.06,23.16&#10;415.7,22.96&#10;418.34,22.79&#10;420.99,22.72&#10;423.63,22.75&#10;426.27,22.85&#10;428.92,23&#10;431.56,23.14&#10;434.2,23.25&#10;436.85,23.26&#10;439.49,23.17&#10;442.13,23.34&#10;444.78,23.59&#10;447.42,23.55&#10;450.06,23.64&#10;452.71,24.07&#10;455.35,24.18&#10;457.99,24.09&#10;460.64,24.04&#10;463.28,24.07&#10;465.92,24.15&#10;468.57,24.26&#10;471.21,24.32&#10;473.85,24.35&#10;476.5,24.37&#10;479.14,24.38&#10;481.78,24.39&#10;484.43,24.4&#10;487.07,24.4&#10;489.71,24.4&#10;492.36,24.4&#10;495,24.4&#10;497.64,24.39&#10;500.29,24.38&#10;502.93,24.38&#10;505.57,24.38&#10;508.22,24.39&#10;510.86,24.38&#10;513.51,24.37&#10;516.15,24.37&#10;518.79,24.38&#10;521.44,24.38&#10;524.08,24.39&#10;526.72,24.39&#10;529.37,24.39&#10;532.01,24.38&#10;534.65,24.39&#10;537.3,24.4&#10;539.94,24.41&#10;542.58,24.41&#10;545.23,24.41&#10;547.87,24.41&#10;550.51,24.41&#10;553.16,24.41&#10;555.8,24.41&#10;558.44,24.41&#10;561.09,24.41&#10;563.73,24.41&#10;566.37,24.41&#10;569.02,24.41&#10;571.66,24.41&#10;574.3,24.41&#10;576.95,24.41&#10;579.59,24.41&#10;582.23,24.41&#10;584.88,24.41&#10;587.52,24.41&#10;590.16,24.41&#10;592.81,24.41&#10;595.45,24.41&#10;598.09,24.41&#10;600.74,24.41&#10;603.38,24.41&#10;606.02,24.42&#10;608.67,24.42&#10;608.67,24.42"/><polygon class="main" points="95.85,24.42&#10;95.85,24.42&#10;98.49,24.41&#10;101.13,24.42&#10;103.78,24.41&#10;106.42,24.42&#10;109.06,24.42&#10;111.71,24.42&#10;114.35,24.42&#10;116.99,24.42&#10;119.64,24.41&#10;122.28,24.41&#10;124.92,24.42&#10;127.57,24.41&#10;130.21,24.41&#10;132.85,24.41&#10;135.5,24.41&#10;138.14,24.41&#10;140.78,24.41&#10;143.43,24.41&#10;146.07,24.41&#10;148.71,24.41&#10;151.36,24.41&#10;154,24.41&#10;156.65,24.41&#10;159.29,24.4&#10;161.93,24.41&#10;164.58,24.4&#10;167.22,24.4&#10;169.86,24.4&#10;172.51,24.4&#10;175.15,24.4&#10;177.79,24.4&#10;180.44,24.38&#10;183.08,24.38&#10;185.72,24.38&#10;188.37,24.37&#10;191.01,24.37&#10;193.65,24.37&#10;196.3,24.36&#10;198.94,24.35&#10;201.58,24.35&#10;204.23,24.34&#10;206.87,24.31&#10;209.51,24.26&#10;212.16,24.19&#10;214.8,24.08&#10;217.44,23.93&#10;220.09,23.8&#10;222.73,23.67&#10;225.37,23.48&#10;228.02,23.24&#10;230.66,22.96&#10;233.3,22.76&#10;235.95,22.54&#10;238.59,22.31&#10;241.23,22.04&#10;243.88,21.6&#10;246.52,21.04&#10;249.16,20.56&#10;251.81,20.4&#10;254.45,20.42&#10;257.09,20.59&#10;259.74,20.73&#10;262.38,20.59&#10;265.02,20.22&#10;267.67,19.63&#10;270.31,19.14&#10;272.96,18.67&#10;275.6,18.37&#10;278.24,18.31&#10;280.89,18.33&#10;283.53,18.34&#10;286.17,18.55&#10;288.82,18.68&#10;291.46,18.84&#10;294.1,18.89&#10;296.75,18.8&#10;299.39,19.06&#10;302.03,19.48&#10;304.68,19.46&#10;307.32,19.55&#10;309.96,19.35&#10;312.61,19.37&#10;315.25,19.38&#10;317.89,19.16&#10;320.54,18.87&#10;323.18,18.78&#10;325.82,18.71&#10;328.47,18.91&#10;331.11,18.99&#10;333.75,19&#10;336.4,20.77&#10;339.04,21.8&#10;341.68,21.53&#10;344.33,20.92&#10;346.97,20.71&#10;349.61,20.88&#10;352.26,21.07&#10;354.9,21.12&#10;357.54,21.13&#10;360.19,21.31&#10;362.83,21.67&#10;365.47,22.02&#10;368.12,22.18&#10;370.76,22.34&#10;373.4,22.35&#10;376.05,22.36&#10;378.69,22.4&#10;381.33,22.41&#10;383.98,22.5&#10;386.62,22.62&#10;389.26,22.79&#10;391.91,23.04&#10;394.55,23.34&#10;397.2,23.58&#10;399.84,23.83&#10;402.48,23.96&#10;405.13,24.05&#10;407.77,24.07&#10;410.41,24.07&#10;413.06,24.05&#10;415.7,24.02&#10;418.34,24.01&#10;420.99,24.03&#10;423.63,24.07&#10;426.27,24.12&#10;428.92,24.17&#10;431.56,24.21&#10;434.2,24.25&#10;436.85,24.26&#10;439.49,24.28&#10;442.13,24.3&#10;444.78,24.33&#10;447.42,24.35&#10;450.06,24.37&#10;452.71,24.39&#10;455.35,24.4&#10;457.99,24.4&#10;460.64,24.4&#10;463.28,24.4&#10;465.92,24.41&#10;468.57,24.41&#10;471.21,24.41&#10;473.85,24.41&#10;476.5,24.41&#10;479.14,24.41&#10;481.78,24.41&#10;484.43,24.41&#10;484.43,24.42"/><polyline class="range" points="248.11,25.64&#10;248.11,26.86&#10;336.4,26.86&#10;336.4,25.64"/><polyline class="range" points="346.18,25.64&#10;346.18,26.86&#10;347.76,26.86&#10;347.76,25.64"/><polyline class="range" points="227.22,28.08&#10;227.22,29.3&#10;394.29,29.3&#10;394.29,28.08"/></g><g id="itemarea35" transform="translate(0 299.01)"><polygon class="shadow" points="61.48,24.42&#10;61.48,24.42&#10;64.13,24.42&#10;66.77,24.42&#10;69.41,24.42&#10;72.06,24.42&#10;74.7,24.42&#10;77.34,24.42&#10;79.99,24.42&#10;82.63,24.42&#10;85.27,24.42&#10;87.92,24.42&#10;90.56,24.42&#10;93.2,24.42&#10;95.85,24.42&#10;98.49,24.42&#10;101.13,24.42&#10;103.78,24.42&#10;106.42,24.42&#10;109.06,24.42&#10;111.71,24.42&#10;114.35,24.42&#10;116.99,24.42&#10;119.64,24.42&#10;122.28,24.42&#10;124.92,24.42&#10;127.57,24.42&#10;130.21,24.42&#10;132.85,24.42&#10;135.5,24.42&#10;138.14,24.42&#10;140.78,24.42&#10;143.43,24.42&#10;146.07,24.42&#10;148.71,24.42&#10;151.36,24.42&#10;154,24.42&#10;156.65,24.41&#10;159.29,24.41&#10;161.93,24.4&#10;164.58,24.41&#10;167.22,24.41&#10;169.86,24.41&#10;172.51,24.41&#10;175.15,24.42&#10;177.79,24.41&#10;180.44,24.4&#10;183.08,24.4&#10;185.72,24.4&#10;188.37,24.41&#10;191.01,24.41&#10;193.65,24.41&#10;196.3,24.41&#10;198.94,24.41&#10;201.58,24.41&#10;204.23,24.41&#10;206.87,24.41&#10;209.51,24.41&#10;212.16,24.39&#10;214.8,24.36&#10;217.44,24.32&#10;220.09,24.3&#10;222.73,24.28&#10;225.37,24.22&#10;228.02,24.15&#10;230.66,24.06&#10;233.3,24&#10;235.95,23.95&#10;238.59,23.9&#10;241.23,23.78&#10;243.88,23.5&#10;246.52,22.94&#10;249.16,22.38&#10;251.81,22.28&#10;254.45,22.51&#10;257.09,22.79&#10;259.74,22.99&#10;262.38,22.89&#10;265.02,22.35&#10;267.67,21.49&#10;270.31,20.4&#10;272.96,19.33&#10;275.6,18.6&#10;278.24,18.32&#10;280.89,18.37&#10;283.53,18.62&#10;286.17,18.99&#10;288.82,19.34&#10;291.46,19.71&#10;294.1,19.74&#10;296.75,19.5&#10;299.39,20.18&#10;302.03,21.05&#10;304.68,20.96&#10;307.32,20.98&#10;309.96,20.57&#10;312.61,20.43&#10;315.25,20.47&#10;317.89,19.86&#10;320.54,19.04&#10;323.18,18.75&#10;325.82,18.55&#10;328.47,19.12&#10;331.11,19.25&#10;333.75,18.86&#10;336.4,22.64&#10;339.04,23.92&#10;341.68,23.54&#10;344.33,22.76&#10;346.97,22.31&#10;349.61,22.58&#10;352.26,22.69&#10;354.9,22.65&#10;357.54,22.45&#10;360.19,22.66&#10;362.83,23.05&#10;365.47,23.39&#10;368.12,23.53&#10;370.76,23.6&#10;373.4,23.56&#10;376.05,23.47&#10;378.69,23.35&#10;381.33,23.25&#10;383.98,23.23&#10;386.62,23.27&#10;389.26,23.44&#10;391.91,23.72&#10;394.55,24&#10;397.2,24.21&#10;399.84,24.32&#10;402.48,24.37&#10;405.13,24.39&#10;407.77,24.39&#10;410.41,24.38&#10;413.06,24.36&#10;415.7,24.32&#10;418.34,24.28&#10;420.99,24.27&#10;423.63,24.27&#10;426.27,24.3&#10;428.92,24.33&#10;431.56,24.35&#10;434.2,24.37&#10;436.85,24.37&#10;439.49,24.36&#10;442.13,24.38&#10;444.78,24.4&#10;447.42,24.4&#10;450.06,24.4&#10;452.71,24.42&#10;455.35,24.42&#10;457.99,24.42&#10;460.64,24.42&#10;463.28,24.42&#10;465.92,24.42&#10;468.57,24.42&#10;471.21,24.42&#10;473.85,24.42&#10;476.5,24.42&#10;479.14,24.42&#10;481.78,24.42&#10;481.78,24.42"/><polygon class="main" points="177.79,24.42&#10;177.79,24.42&#10;180.44,24.42&#10;183.08,24.42&#10;185.72,24.42&#10;188.37,24.42&#10;191.01,24.42&#10;193.65,24.42&#10;196.3,24.42&#10;198.94,24.42&#10;201.58,24.42&#10;204.23,24.42&#10;206.87,24.42&#10;209.51,24.42&#10;212.16,24.41&#10;214.8,24.4&#10;217.44,24.38&#10;220.09,24.37&#10;222.73,24.35&#10;225.37,24.32&#10;228.02,24.26&#10;230.66,24.19&#10;233.3,24.11&#10;235.95,24.07&#10;238.59,23.98&#10;241.23,23.85&#10;243.88,23.57&#10;246.52,23.04&#10;249.16,22.55&#10;251.81,22.35&#10;254.45,22.59&#10;257.09,22.81&#10;259.74,22.96&#10;262.38,22.87&#10;265.02,22.31&#10;267.67,21.45&#10;270.31,20.39&#10;272.96,19.39&#10;275.6,18.56&#10;278.24,18.32&#10;280.89,18.33&#10;283.53,18.6&#10;286.17,18.94&#10;288.82,19.3&#10;291.46,19.61&#10;294.1,19.64&#10;296.75,19.63&#10;299.39,20.15&#10;302.03,20.97&#10;304.68,21.02&#10;307.32,20.96&#10;309.96,20.72&#10;312.61,20.61&#10;315.25,20.47&#10;317.89,20.01&#10;320.54,19.26&#10;323.18,18.95&#10;325.82,18.84&#10;328.47,19.29&#10;331.11,19.45&#10;333.75,19.65&#10;336.4,22.54&#10;339.04,23.79&#10;341.68,23.56&#10;344.33,22.92&#10;346.97,22.58&#10;349.61,22.75&#10;352.26,22.9&#10;354.9,22.89&#10;357.54,22.83&#10;360.19,22.99&#10;362.83,23.33&#10;365.47,23.61&#10;368.12,23.74&#10;370.76,23.81&#10;373.4,23.83&#10;376.05,23.77&#10;378.69,23.74&#10;381.33,23.7&#10;383.98,23.71&#10;386.62,23.79&#10;389.26,23.89&#10;391.91,24.06&#10;394.55,24.21&#10;397.2,24.32&#10;399.84,24.38&#10;402.48,24.4&#10;405.13,24.41&#10;407.77,24.41&#10;410.41,24.4&#10;413.06,24.4&#10;415.7,24.39&#10;418.34,24.38&#10;420.99,24.38&#10;423.63,24.39&#10;426.27,24.4&#10;428.92,24.4&#10;431.56,24.41&#10;434.2,24.41&#10;436.85,24.41&#10;439.49,24.41&#10;442.13,24.42&#10;444.78,24.42&#10;447.42,24.42&#10;450.06,24.42&#10;452.71,24.42&#10;455.35,24.42&#10;455.35,24.42"/><polyline class="range" points="268.99,25.64&#10;268.99,26.86&#10;302.03,26.86&#10;302.03,25.64"/><polyline class="range" points="307.05,25.64&#10;307.05,26.86&#10;335.08,26.86&#10;335.08,25.64"/><polyline class="range" points="242.29,28.08&#10;242.29,29.3&#10;368.12,29.3&#10;368.12,28.08"/><polyline class="range" points="378.43,28.08&#10;378.43,29.3&#10;385.04,29.3&#10;385.04,28.08"/></g><g id="itemarea37" transform="translate(0 319.23)"><polygon class="shadow" points="56.2,24.42&#10;56.2,24.42&#10;58.84,24.42&#10;61.48,24.41&#10;64.13,24.41&#10;66.77,24.41&#10;69.41,24.41&#10;72.06,24.41&#10;74.7,24.41&#10;77.34,24.41&#10;79.99,24.41&#10;82.63,24.42&#10;85.27,24.42&#10;87.92,24.42&#10;90.56,24.42&#10;93.2,24.42&#10;95.85,24.41&#10;98.49,24.41&#10;101.13,24.41&#10;103.78,24.41&#10;106.42,24.41&#10;109.06,24.41&#10;111.71,24.41&#10;114.35,24.41&#10;116.99,24.41&#10;119.64,24.41&#10;122.28,24.41&#10;124.92,24.41&#10;127.57,24.41&#10;130.21,24.41&#10;132.85,24.41&#10;135.5,24.41&#10;138.14,24.41&#10;140.78,24.41&#10;143.43,24.41&#10;146.07,24.41&#10;148.71,24.41&#10;151.36,24.41&#10;154,24.4&#10;156.65,24.39&#10;159.29,24.38&#10;161.93,24.37&#10;164.58,24.38&#10;167.22,24.38&#10;169.86,24.38&#10;172.51,24.39&#10;175.15,24.4&#10;177.79,24.39&#10;180.44,24.37&#10;183.08,24.36&#10;185.72,24.37&#10;188.37,24.38&#10;191.01,24.39&#10;193.65,24.39&#10;196.3,24.39&#10;198.94,24.39&#10;201.58,24.4&#10;204.23,24.4&#10;206.87,24.39&#10;209.51,24.38&#10;212.16,24.35&#10;214.8,24.29&#10;217.44,24.23&#10;220.09,24.19&#10;222.73,24.16&#10;225.37,24.09&#10;228.02,23.99&#10;230.66,23.89&#10;233.3,23.81&#10;235.95,23.76&#10;238.59,23.7&#10;241.23,23.57&#10;243.88,23.28&#10;246.52,22.73&#10;249.16,22.2&#10;251.81,22.11&#10;254.45,22.32&#10;257.09,22.59&#10;259.74,22.77&#10;262.38,22.68&#10;265.02,22.18&#10;267.67,21.41&#10;270.31,20.45&#10;272.96,19.5&#10;275.6,18.79&#10;278.24,18.41&#10;280.89,18.31&#10;283.53,18.4&#10;286.17,18.6&#10;288.82,18.82&#10;291.46,19.06&#10;294.1,19.08&#10;296.75,18.91&#10;299.39,19.4&#10;302.03,20.1&#10;304.68,20.03&#10;307.32,20.04&#10;309.96,19.7&#10;312.61,19.59&#10;315.25,19.63&#10;317.89,19.16&#10;320.54,18.61&#10;323.18,18.45&#10;325.82,18.35&#10;328.47,18.66&#10;331.11,18.74&#10;333.75,18.51&#10;336.4,21.84&#10;339.04,23.28&#10;341.68,22.73&#10;344.33,21.76&#10;346.97,21.28&#10;349.61,21.57&#10;352.26,21.69&#10;354.9,21.65&#10;357.54,21.43&#10;360.19,21.66&#10;362.83,22.12&#10;365.47,22.53&#10;368.12,22.74&#10;370.76,22.81&#10;373.4,22.76&#10;376.05,22.63&#10;378.69,22.48&#10;381.33,22.36&#10;383.98,22.33&#10;386.62,22.38&#10;389.26,22.6&#10;391.91,22.99&#10;394.55,23.44&#10;397.2,23.82&#10;399.84,24.08&#10;402.48,24.21&#10;405.13,24.26&#10;407.77,24.27&#10;410.41,24.23&#10;413.06,24.16&#10;415.7,24.07&#10;418.34,23.98&#10;420.99,23.94&#10;423.63,23.96&#10;426.27,24.01&#10;428.92,24.09&#10;431.56,24.16&#10;434.2,24.2&#10;436.85,24.2&#10;439.49,24.17&#10;442.13,24.24&#10;444.78,24.31&#10;447.42,24.3&#10;450.06,24.33&#10;452.71,24.4&#10;455.35,24.41&#10;457.99,24.4&#10;460.64,24.4&#10;463.28,24.4&#10;465.92,24.41&#10;468.57,24.41&#10;471.21,24.41&#10;473.85,24.41&#10;476.5,24.41&#10;479.14,24.41&#10;481.78,24.41&#10;484.43,24.41&#10;487.07,24.41&#10;489.71,24.41&#10;492.36,24.41&#10;495,24.41&#10;497.64,24.41&#10;500.29,24.41&#10;502.93,24.41&#10;505.57,24.41&#10;508.22,24.41&#10;510.86,24.41&#10;513.51,24.41&#10;516.15,24.41&#10;518.79,24.41&#10;521.44,24.41&#10;524.08,24.41&#10;526.72,24.41&#10;529.37,24.41&#10;532.01,24.41&#10;534.65,24.41&#10;537.3,24.41&#10;539.94,24.41&#10;542.58,24.42&#10;545.23,24.42&#10;545.23,24.42"/><polygon class="main" points="172.51,24.42&#10;172.51,24.42&#10;175.15,24.41&#10;177.79,24.41&#10;180.44,24.41&#10;183.08,24.41&#10;185.72,24.41&#10;188.37,24.41&#10;191.01,24.41&#10;193.65,24.41&#10;196.3,24.41&#10;198.94,24.41&#10;201.58,24.41&#10;204.23,24.41&#10;206.87,24.41&#10;209.51,24.41&#10;212.16,24.4&#10;214.8,24.38&#10;217.44,24.36&#10;220.09,24.33&#10;222.73,24.3&#10;225.37,24.24&#10;228.02,24.16&#10;230.66,24.08&#10;233.3,23.99&#10;235.95,23.92&#10;238.59,23.84&#10;241.23,23.68&#10;243.88,23.39&#10;246.52,22.89&#10;249.16,22.39&#10;251.81,22.24&#10;254.45,22.41&#10;257.09,22.65&#10;259.74,22.78&#10;262.38,22.68&#10;265.02,22.19&#10;267.67,21.42&#10;270.31,20.46&#10;272.96,19.54&#10;275.6,18.78&#10;278.24,18.46&#10;280.89,18.31&#10;283.53,18.44&#10;286.17,18.6&#10;288.82,18.77&#10;291.46,19.13&#10;294.1,19.05&#10;296.75,19.01&#10;299.39,19.51&#10;302.03,20.04&#10;304.68,20.17&#10;307.32,20.16&#10;309.96,19.88&#10;312.61,19.8&#10;315.25,19.81&#10;317.89,19.41&#10;320.54,18.95&#10;323.18,18.74&#10;325.82,18.75&#10;328.47,18.84&#10;331.11,19.07&#10;333.75,19.25&#10;336.4,21.81&#10;339.04,23.17&#10;341.68,22.84&#10;344.33,22.07&#10;346.97,21.69&#10;349.61,21.86&#10;352.26,22.07&#10;354.9,22.15&#10;357.54,22.07&#10;360.19,22.24&#10;362.83,22.64&#10;365.47,22.99&#10;368.12,23.19&#10;370.76,23.26&#10;373.4,23.3&#10;376.05,23.25&#10;378.69,23.22&#10;381.33,23.17&#10;383.98,23.22&#10;386.62,23.32&#10;389.26,23.47&#10;391.91,23.7&#10;394.55,23.95&#10;397.2,24.14&#10;399.84,24.26&#10;402.48,24.33&#10;405.13,24.35&#10;407.77,24.36&#10;410.41,24.35&#10;413.06,24.33&#10;415.7,24.32&#10;418.34,24.3&#10;420.99,24.31&#10;423.63,24.32&#10;426.27,24.33&#10;428.92,24.36&#10;431.56,24.38&#10;434.2,24.38&#10;436.85,24.38&#10;439.49,24.39&#10;442.13,24.4&#10;444.78,24.41&#10;447.42,24.41&#10;450.06,24.41&#10;452.71,24.41&#10;455.35,24.41&#10;457.99,24.41&#10;460.64,24.41&#10;463.28,24.41&#10;465.92,24.41&#10;468.57,24.41&#10;468.57,24.42"/><polyline class="range" points="267.93,25.64&#10;267.93,26.86&#10;335.87,26.86&#10;335.87,25.64"/><polyline class="range" points="244.14,28.08&#10;244.14,29.3&#10;386.62,29.3&#10;386.62,28.08"/></g><g id="itemarea39" transform="translate(0 339.44)"><polygon class="shadow" points="206.87,24.42&#10;206.87,24.42&#10;209.51,24.42&#10;212.16,24.41&#10;214.8,24.41&#10;217.44,24.41&#10;220.09,24.41&#10;222.73,24.41&#10;225.37,24.41&#10;228.02,24.41&#10;230.66,24.41&#10;233.3,24.41&#10;235.95,24.41&#10;238.59,24.41&#10;241.23,24.41&#10;243.88,24.41&#10;246.52,24.41&#10;249.16,24.4&#10;251.81,24.4&#10;254.45,24.41&#10;257.09,24.41&#10;259.74,24.41&#10;262.38,24.41&#10;265.02,24.4&#10;267.67,24.39&#10;270.31,24.35&#10;272.96,24.25&#10;275.6,24.08&#10;278.24,23.8&#10;280.89,23.47&#10;283.53,23.12&#10;286.17,22.74&#10;288.82,22.4&#10;291.46,22.06&#10;294.1,22.02&#10;296.75,22.25&#10;299.39,21.62&#10;302.03,20.78&#10;304.68,20.87&#10;307.32,20.85&#10;309.96,21.25&#10;312.61,21.38&#10;315.25,21.34&#10;317.89,21.92&#10;320.54,22.68&#10;323.18,22.96&#10;325.82,23.19&#10;328.47,22.6&#10;331.11,22.48&#10;333.75,22.85&#10;336.4,19.43&#10;339.04,18.31&#10;341.68,18.37&#10;344.33,19.04&#10;346.97,19.5&#10;349.61,19.22&#10;352.26,19.12&#10;354.9,19.16&#10;357.54,19.36&#10;360.19,19.15&#10;362.83,18.78&#10;365.47,18.51&#10;368.12,18.45&#10;370.76,18.39&#10;373.4,18.4&#10;376.05,18.45&#10;378.69,18.54&#10;381.33,18.61&#10;383.98,18.62&#10;386.62,18.58&#10;389.26,18.48&#10;391.91,18.36&#10;394.55,18.45&#10;397.2,18.95&#10;399.84,19.79&#10;402.48,20.61&#10;405.13,21.08&#10;407.77,21.11&#10;410.41,20.78&#10;413.06,20.26&#10;415.7,19.77&#10;418.34,19.4&#10;420.99,19.28&#10;423.63,19.33&#10;426.27,19.53&#10;428.92,19.85&#10;431.56,20.21&#10;434.2,20.5&#10;436.85,20.52&#10;439.49,20.26&#10;442.13,20.77&#10;444.78,21.59&#10;447.42,21.47&#10;450.06,21.79&#10;452.71,23.41&#10;455.35,23.81&#10;457.99,23.5&#10;460.64,23.3&#10;463.28,23.42&#10;465.92,23.71&#10;468.57,24.09&#10;471.21,24.25&#10;473.85,24.34&#10;476.5,24.37&#10;479.14,24.39&#10;481.78,24.4&#10;484.43,24.41&#10;487.07,24.41&#10;489.71,24.41&#10;492.36,24.41&#10;495,24.41&#10;497.64,24.4&#10;500.29,24.39&#10;502.93,24.38&#10;505.57,24.39&#10;508.22,24.39&#10;510.86,24.38&#10;513.51,24.37&#10;516.15,24.38&#10;518.79,24.39&#10;521.44,24.39&#10;524.08,24.4&#10;526.72,24.4&#10;529.37,24.39&#10;532.01,24.39&#10;534.65,24.4&#10;537.3,24.41&#10;539.94,24.41&#10;542.58,24.41&#10;545.23,24.41&#10;547.87,24.41&#10;550.51,24.41&#10;553.16,24.41&#10;555.8,24.41&#10;558.44,24.41&#10;561.09,24.41&#10;563.73,24.41&#10;566.37,24.41&#10;569.02,24.41&#10;571.66,24.41&#10;574.3,24.41&#10;576.95,24.42&#10;579.59,24.42&#10;579.59,24.42"/><polygon class="main" points="238.59,24.42&#10;238.59,24.42&#10;241.23,24.41&#10;243.88,24.41&#10;246.52,24.41&#10;249.16,24.4&#10;251.81,24.4&#10;254.45,24.4&#10;257.09,24.41&#10;259.74,24.41&#10;262.38,24.41&#10;265.02,24.4&#10;267.67,24.38&#10;270.31,24.33&#10;272.96,24.22&#10;275.6,24.01&#10;278.24,23.71&#10;280.89,23.34&#10;283.53,22.94&#10;286.17,22.46&#10;288.82,22.07&#10;291.46,21.68&#10;294.1,21.69&#10;296.75,21.77&#10;299.39,21.18&#10;302.03,20.44&#10;304.68,20.43&#10;307.32,20.58&#10;309.96,21.06&#10;312.61,21.2&#10;315.25,21.27&#10;317.89,21.9&#10;320.54,22.58&#10;323.18,22.91&#10;325.82,23.07&#10;328.47,22.64&#10;331.11,22.53&#10;333.75,22.33&#10;336.4,19.45&#10;339.04,18.31&#10;341.68,18.52&#10;344.33,19.32&#10;346.97,19.85&#10;349.61,19.96&#10;352.26,19.94&#10;354.9,20.23&#10;357.54,20.47&#10;360.19,20.5&#10;362.83,20.37&#10;365.47,20.34&#10;368.12,20.52&#10;370.76,20.59&#10;373.4,20.8&#10;376.05,21.06&#10;378.69,21.28&#10;381.33,21.54&#10;383.98,21.69&#10;386.62,21.81&#10;389.26,21.89&#10;391.91,22&#10;394.55,22.16&#10;397.2,22.49&#10;399.84,22.88&#10;402.48,23.24&#10;405.13,23.46&#10;407.77,23.51&#10;410.41,23.51&#10;413.06,23.48&#10;415.7,23.46&#10;418.34,23.46&#10;420.99,23.52&#10;423.63,23.65&#10;426.27,23.7&#10;428.92,23.84&#10;431.56,23.94&#10;434.2,24.02&#10;436.85,24.06&#10;439.49,24.09&#10;442.13,24.15&#10;444.78,24.22&#10;447.42,24.25&#10;450.06,24.29&#10;452.71,24.37&#10;455.35,24.39&#10;457.99,24.38&#10;460.64,24.39&#10;463.28,24.39&#10;465.92,24.4&#10;468.57,24.41&#10;471.21,24.41&#10;473.85,24.41&#10;476.5,24.41&#10;479.14,24.41&#10;481.78,24.41&#10;484.43,24.42&#10;484.43,24.42"/><polyline class="range" points="291.19,25.64&#10;291.19,26.86&#10;317.1,26.86&#10;317.1,25.64"/><polyline class="range" points="334.28,25.64&#10;334.28,26.86&#10;384.77,26.86&#10;384.77,25.64"/><polyline class="range" points="279.56,28.08&#10;279.56,29.3&#10;420.72,29.3&#10;420.72,28.08"/></g><g id="itemarea41" transform="translate(0 359.66)"><polygon class="shadow" points="241.23,24.42&#10;241.23,24.42&#10;243.88,24.42&#10;246.52,24.41&#10;249.16,24.41&#10;251.81,24.41&#10;254.45,24.41&#10;257.09,24.41&#10;259.74,24.41&#10;262.38,24.41&#10;265.02,24.41&#10;267.67,24.41&#10;270.31,24.41&#10;272.96,24.41&#10;275.6,24.41&#10;278.24,24.39&#10;280.89,24.35&#10;283.53,24.31&#10;286.17,24.24&#10;288.82,24.16&#10;291.46,24.07&#10;294.1,24.06&#10;296.75,24.12&#10;299.39,23.92&#10;302.03,23.59&#10;304.68,23.61&#10;307.32,23.59&#10;309.96,23.76&#10;312.61,23.8&#10;315.25,23.78&#10;317.89,23.99&#10;320.54,24.2&#10;323.18,24.26&#10;325.82,24.31&#10;328.47,24.18&#10;331.11,24.15&#10;333.75,24.24&#10;336.4,21.73&#10;339.04,20.18&#10;341.68,20.85&#10;344.33,21.93&#10;346.97,22.39&#10;349.61,22.08&#10;352.26,21.92&#10;354.9,21.94&#10;357.54,22.14&#10;360.19,21.86&#10;362.83,21.26&#10;365.47,20.67&#10;368.12,20.31&#10;370.76,20.16&#10;373.4,20.18&#10;376.05,20.31&#10;378.69,20.48&#10;381.33,20.62&#10;383.98,20.63&#10;386.62,20.53&#10;389.26,20.17&#10;391.91,19.57&#10;394.55,18.9&#10;397.2,18.52&#10;399.84,18.63&#10;402.48,19.05&#10;405.13,19.42&#10;407.77,19.46&#10;410.41,19.22&#10;413.06,18.87&#10;415.7,18.57&#10;418.34,18.37&#10;420.99,18.31&#10;423.63,18.32&#10;426.27,18.42&#10;428.92,18.6&#10;431.56,18.87&#10;434.2,19.12&#10;436.85,19.15&#10;439.49,18.94&#10;442.13,19.42&#10;444.78,20.27&#10;447.42,20.2&#10;450.06,20.6&#10;452.71,22.6&#10;455.35,23.2&#10;457.99,22.85&#10;460.64,22.67&#10;463.28,22.87&#10;465.92,23.27&#10;468.57,23.81&#10;471.21,24.07&#10;473.85,24.23&#10;476.5,24.3&#10;479.14,24.34&#10;481.78,24.37&#10;484.43,24.4&#10;487.07,24.4&#10;489.71,24.4&#10;492.36,24.4&#10;495,24.4&#10;497.64,24.4&#10;500.29,24.38&#10;502.93,24.38&#10;505.57,24.39&#10;508.22,24.39&#10;510.86,24.39&#10;513.51,24.38&#10;516.15,24.39&#10;518.79,24.39&#10;521.44,24.4&#10;524.08,24.4&#10;526.72,24.4&#10;529.37,24.4&#10;532.01,24.4&#10;534.65,24.4&#10;537.3,24.41&#10;539.94,24.41&#10;542.58,24.41&#10;545.23,24.41&#10;547.87,24.41&#10;550.51,24.41&#10;553.16,24.41&#10;555.8,24.41&#10;558.44,24.41&#10;561.09,24.41&#10;563.73,24.41&#10;566.37,24.41&#10;569.02,24.41&#10;571.66,24.41&#10;574.3,24.41&#10;576.95,24.42&#10;579.59,24.42&#10;579.59,24.42"/><polygon class="main" points="270.31,24.42&#10;270.31,24.42&#10;272.96,24.41&#10;275.6,24.41&#10;278.24,24.39&#10;280.89,24.35&#10;283.53,24.29&#10;286.17,24.18&#10;288.82,24.03&#10;291.46,23.88&#10;294.1,23.86&#10;296.75,23.9&#10;299.39,23.59&#10;302.03,23.04&#10;304.68,23.03&#10;307.32,23.16&#10;309.96,23.47&#10;312.61,23.57&#10;315.25,23.64&#10;317.89,23.91&#10;320.54,24.18&#10;323.18,24.28&#10;325.82,24.31&#10;328.47,24.2&#10;331.11,24.17&#10;333.75,24&#10;336.4,20.87&#10;339.04,18.31&#10;341.68,19.28&#10;344.33,20.94&#10;346.97,21.85&#10;349.61,21.73&#10;352.26,21.68&#10;354.9,21.87&#10;357.54,22.16&#10;360.19,22.04&#10;362.83,21.69&#10;365.47,21.29&#10;368.12,21.19&#10;370.76,21.27&#10;373.4,21.53&#10;376.05,21.82&#10;378.69,22.09&#10;381.33,22.35&#10;383.98,22.52&#10;386.62,22.59&#10;389.26,22.54&#10;391.91,22.44&#10;394.55,22.35&#10;397.2,22.38&#10;399.84,22.61&#10;402.48,22.88&#10;405.13,23.11&#10;407.77,23.25&#10;410.41,23.3&#10;413.06,23.31&#10;415.7,23.37&#10;418.34,23.46&#10;420.99,23.53&#10;423.63,23.62&#10;426.27,23.71&#10;428.92,23.82&#10;431.56,23.89&#10;434.2,23.96&#10;436.85,24.04&#10;439.49,24.07&#10;442.13,24.13&#10;444.78,24.2&#10;447.42,24.24&#10;450.06,24.27&#10;452.71,24.35&#10;455.35,24.37&#10;457.99,24.38&#10;460.64,24.38&#10;463.28,24.38&#10;465.92,24.4&#10;468.57,24.41&#10;471.21,24.41&#10;473.85,24.41&#10;476.5,24.41&#10;479.14,24.41&#10;481.78,24.41&#10;484.43,24.41&#10;487.07,24.41&#10;489.71,24.41&#10;492.36,24.41&#10;495,24.41&#10;497.64,24.42&#10;500.29,24.41&#10;500.29,24.42"/><polyline class="range" points="335.08,25.64&#10;335.08,26.86&#10;399.31,26.86&#10;399.31,25.64"/><polyline class="range" points="289.87,28.08&#10;289.87,29.3&#10;318.42,29.3&#10;318.42,28.08"/><polyline class="range" points="333.75,28.08&#10;333.75,29.3&#10;434.2,29.3&#10;434.2,28.08"/></g><g id="itemarea43" transform="translate(0 379.87)"><polygon class="shadow" points="241.23,24.42&#10;241.23,24.42&#10;243.88,24.42&#10;246.52,24.42&#10;249.16,24.41&#10;251.81,24.41&#10;254.45,24.41&#10;257.09,24.42&#10;259.74,24.42&#10;262.38,24.42&#10;265.02,24.41&#10;267.67,24.41&#10;270.31,24.41&#10;272.96,24.41&#10;275.6,24.41&#10;278.24,24.39&#10;280.89,24.37&#10;283.53,24.33&#10;286.17,24.28&#10;288.82,24.21&#10;291.46,24.14&#10;294.1,24.13&#10;296.75,24.18&#10;299.39,24.02&#10;302.03,23.72&#10;304.68,23.75&#10;307.32,23.74&#10;309.96,23.89&#10;312.61,23.93&#10;315.25,23.92&#10;317.89,24.1&#10;320.54,24.27&#10;323.18,24.31&#10;325.82,24.35&#10;328.47,24.25&#10;331.11,24.23&#10;333.75,24.3&#10;336.4,21.96&#10;339.04,20.42&#10;341.68,21.16&#10;344.33,22.28&#10;346.97,22.73&#10;349.61,22.44&#10;352.26,22.29&#10;354.9,22.32&#10;357.54,22.52&#10;360.19,22.26&#10;362.83,21.67&#10;365.47,21.08&#10;368.12,20.71&#10;370.76,20.57&#10;373.4,20.61&#10;376.05,20.77&#10;378.69,20.96&#10;381.33,21.12&#10;383.98,21.14&#10;386.62,21.04&#10;389.26,20.67&#10;391.91,20.02&#10;394.55,19.23&#10;397.2,18.68&#10;399.84,18.62&#10;402.48,18.94&#10;405.13,19.26&#10;407.77,19.29&#10;410.41,19.05&#10;413.06,18.72&#10;415.7,18.48&#10;418.34,18.35&#10;420.99,18.32&#10;423.63,18.31&#10;426.27,18.35&#10;428.92,18.47&#10;431.56,18.67&#10;434.2,18.88&#10;436.85,18.89&#10;439.49,18.68&#10;442.13,19.1&#10;444.78,19.93&#10;447.42,19.84&#10;450.06,20.23&#10;452.71,22.39&#10;455.35,23.05&#10;457.99,22.63&#10;460.64,22.41&#10;463.28,22.63&#10;465.92,23.08&#10;468.57,23.71&#10;471.21,24.01&#10;473.85,24.2&#10;476.5,24.29&#10;479.14,24.33&#10;481.78,24.37&#10;484.43,24.39&#10;487.07,24.39&#10;489.71,24.39&#10;492.36,24.4&#10;495,24.4&#10;497.64,24.39&#10;500.29,24.37&#10;502.93,24.37&#10;505.57,24.38&#10;508.22,24.39&#10;510.86,24.38&#10;513.51,24.37&#10;516.15,24.38&#10;518.79,24.39&#10;521.44,24.39&#10;524.08,24.4&#10;526.72,24.4&#10;529.37,24.4&#10;532.01,24.4&#10;534.65,24.4&#10;537.3,24.41&#10;539.94,24.41&#10;542.58,24.41&#10;545.23,24.41&#10;547.87,24.41&#10;550.51,24.41&#10;553.16,24.41&#10;555.8,24.41&#10;558.44,24.41&#10;561.09,24.41&#10;563.73,24.41&#10;566.37,24.41&#10;569.02,24.41&#10;571.66,24.41&#10;574.3,24.41&#10;576.95,24.42&#10;579.59,24.42&#10;579.59,24.42"/><polygon class="main" points="267.67,24.42&#10;267.67,24.42&#10;270.31,24.41&#10;272.96,24.41&#10;275.6,24.41&#10;278.24,24.4&#10;280.89,24.38&#10;283.53,24.34&#10;286.17,24.27&#10;288.82,24.16&#10;291.46,24.04&#10;294.1,24.04&#10;296.75,24.07&#10;299.39,23.82&#10;302.03,23.34&#10;304.68,23.36&#10;307.32,23.49&#10;309.96,23.75&#10;312.61,23.86&#10;315.25,23.89&#10;317.89,24.11&#10;320.54,24.29&#10;323.18,24.34&#10;325.82,24.36&#10;328.47,24.3&#10;331.11,24.28&#10;333.75,24.15&#10;336.4,21.07&#10;339.04,18.31&#10;341.68,19.5&#10;344.33,21.45&#10;346.97,22.33&#10;349.61,22.19&#10;352.26,22.18&#10;354.9,22.36&#10;357.54,22.64&#10;360.19,22.48&#10;362.83,22.06&#10;365.47,21.6&#10;368.12,21.49&#10;370.76,21.6&#10;373.4,21.84&#10;376.05,22.15&#10;378.69,22.44&#10;381.33,22.68&#10;383.98,22.81&#10;386.62,22.92&#10;389.26,22.81&#10;391.91,22.69&#10;394.55,22.49&#10;397.2,22.48&#10;399.84,22.61&#10;402.48,22.86&#10;405.13,23.06&#10;407.77,23.22&#10;410.41,23.26&#10;413.06,23.33&#10;415.7,23.39&#10;418.34,23.46&#10;420.99,23.58&#10;423.63,23.65&#10;426.27,23.73&#10;428.92,23.83&#10;431.56,23.92&#10;434.2,23.96&#10;436.85,24.01&#10;439.49,24.07&#10;442.13,24.13&#10;444.78,24.2&#10;447.42,24.23&#10;450.06,24.27&#10;452.71,24.35&#10;455.35,24.37&#10;457.99,24.37&#10;460.64,24.37&#10;463.28,24.38&#10;465.92,24.39&#10;468.57,24.41&#10;471.21,24.41&#10;473.85,24.41&#10;476.5,24.41&#10;479.14,24.41&#10;481.78,24.41&#10;484.43,24.41&#10;487.07,24.41&#10;489.71,24.41&#10;492.36,24.41&#10;495,24.41&#10;497.64,24.41&#10;500.29,24.41&#10;502.93,24.41&#10;505.57,24.41&#10;505.57,24.42"/><polyline class="range" points="334.81,25.64&#10;334.81,26.86&#10;383.98,26.86&#10;383.98,25.64"/><polyline class="range" points="389.26,25.64&#10;389.26,26.86&#10;401.95,26.86&#10;401.95,25.64"/><polyline class="range" points="292.25,28.08&#10;292.25,29.3&#10;294.37,29.3&#10;294.37,28.08"/><polyline class="range" points="297.01,28.08&#10;297.01,29.3&#10;317.1,29.3&#10;317.1,28.08"/><polyline class="range" points="333.75,28.08&#10;333.75,29.3&#10;438.17,29.3&#10;438.17,28.08"/></g><g id="itemarea45" transform="translate(0 400.09)"><polygon class="shadow" points="241.23,24.42&#10;241.23,24.42&#10;243.88,24.42&#10;246.52,24.41&#10;249.16,24.41&#10;251.81,24.41&#10;254.45,24.41&#10;257.09,24.41&#10;259.74,24.42&#10;262.38,24.42&#10;265.02,24.41&#10;267.67,24.41&#10;270.31,24.41&#10;272.96,24.41&#10;275.6,24.41&#10;278.24,24.4&#10;280.89,24.39&#10;283.53,24.37&#10;286.17,24.34&#10;288.82,24.31&#10;291.46,24.27&#10;294.1,24.27&#10;296.75,24.29&#10;299.39,24.21&#10;302.03,24.05&#10;304.68,24.06&#10;307.32,24.06&#10;309.96,24.14&#10;312.61,24.17&#10;315.25,24.16&#10;317.89,24.25&#10;320.54,24.34&#10;323.18,24.36&#10;325.82,24.38&#10;328.47,24.33&#10;331.11,24.32&#10;333.75,24.35&#10;336.4,22.85&#10;339.04,21.73&#10;341.68,22.41&#10;344.33,23.24&#10;346.97,23.52&#10;349.61,23.35&#10;352.26,23.26&#10;354.9,23.27&#10;357.54,23.41&#10;360.19,23.25&#10;362.83,22.86&#10;365.47,22.43&#10;368.12,22.14&#10;370.76,22.04&#10;373.4,22.1&#10;376.05,22.24&#10;378.69,22.39&#10;381.33,22.52&#10;383.98,22.55&#10;386.62,22.48&#10;389.26,22.2&#10;391.91,21.64&#10;394.55,20.82&#10;397.2,19.89&#10;399.84,19.13&#10;402.48,18.75&#10;405.13,18.65&#10;407.77,18.59&#10;410.41,18.59&#10;413.06,18.67&#10;415.7,18.88&#10;418.34,19.1&#10;420.99,19.18&#10;423.63,19.12&#10;426.27,18.94&#10;428.92,18.72&#10;431.56,18.54&#10;434.2,18.44&#10;436.85,18.4&#10;439.49,18.41&#10;442.13,18.31&#10;444.78,18.41&#10;447.42,18.36&#10;450.06,18.46&#10;452.71,20.08&#10;455.35,20.87&#10;457.99,20.25&#10;460.64,19.94&#10;463.28,20.18&#10;465.92,20.79&#10;468.57,21.93&#10;471.21,22.66&#10;473.85,23.26&#10;476.5,23.59&#10;479.14,23.76&#10;481.78,24&#10;484.43,24.18&#10;487.07,24.18&#10;489.71,24.17&#10;492.36,24.19&#10;495,24.2&#10;497.64,24.12&#10;500.29,23.96&#10;502.93,23.91&#10;505.57,24.02&#10;508.22,24.06&#10;510.86,23.98&#10;513.51,23.9&#10;516.15,23.95&#10;518.79,24.02&#10;521.44,24.09&#10;524.08,24.13&#10;526.72,24.17&#10;529.37,24.13&#10;532.01,24.11&#10;534.65,24.16&#10;537.3,24.27&#10;539.94,24.35&#10;542.58,24.38&#10;545.23,24.39&#10;547.87,24.39&#10;550.51,24.4&#10;553.16,24.4&#10;555.8,24.4&#10;558.44,24.4&#10;561.09,24.4&#10;563.73,24.4&#10;566.37,24.41&#10;569.02,24.41&#10;571.66,24.41&#10;574.3,24.41&#10;576.95,24.41&#10;579.59,24.41&#10;582.23,24.41&#10;584.88,24.41&#10;587.52,24.41&#10;590.16,24.41&#10;592.81,24.41&#10;595.45,24.41&#10;598.09,24.41&#10;600.74,24.41&#10;603.38,24.42&#10;606.02,24.42&#10;608.67,24.42&#10;608.67,24.42"/><polygon class="main" points="265.02,24.42&#10;265.02,24.42&#10;267.67,24.41&#10;270.31,24.41&#10;272.96,24.41&#10;275.6,24.41&#10;278.24,24.4&#10;280.89,24.38&#10;283.53,24.34&#10;286.17,24.27&#10;288.82,24.18&#10;291.46,24.08&#10;294.1,24.07&#10;296.75,24.11&#10;299.39,23.9&#10;302.03,23.53&#10;304.68,23.55&#10;307.32,23.65&#10;309.96,23.88&#10;312.61,23.96&#10;315.25,23.99&#10;317.89,24.16&#10;320.54,24.3&#10;323.18,24.35&#10;325.82,24.36&#10;328.47,24.32&#10;331.11,24.3&#10;333.75,24.2&#10;336.4,21.16&#10;339.04,18.31&#10;341.68,19.87&#10;344.33,21.99&#10;346.97,22.74&#10;349.61,22.66&#10;352.26,22.63&#10;354.9,22.8&#10;357.54,23.01&#10;360.19,22.9&#10;362.83,22.47&#10;365.47,22.02&#10;368.12,21.84&#10;370.76,21.89&#10;373.4,22.15&#10;376.05,22.49&#10;378.69,22.82&#10;381.33,23.06&#10;383.98,23.19&#10;386.62,23.24&#10;389.26,23.18&#10;391.91,22.99&#10;394.55,22.68&#10;397.2,22.4&#10;399.84,22.27&#10;402.48,22.32&#10;405.13,22.52&#10;407.77,22.69&#10;410.41,22.86&#10;413.06,23.07&#10;415.7,23.3&#10;418.34,23.41&#10;420.99,23.55&#10;423.63,23.66&#10;426.27,23.73&#10;428.92,23.8&#10;431.56,23.82&#10;434.2,23.9&#10;436.85,23.95&#10;439.49,24.01&#10;442.13,24.07&#10;444.78,24.11&#10;447.42,24.16&#10;450.06,24.2&#10;452.71,24.28&#10;455.35,24.31&#10;457.99,24.32&#10;460.64,24.32&#10;463.28,24.33&#10;465.92,24.36&#10;468.57,24.38&#10;471.21,24.4&#10;473.85,24.4&#10;476.5,24.41&#10;479.14,24.41&#10;481.78,24.41&#10;484.43,24.41&#10;487.07,24.41&#10;489.71,24.41&#10;492.36,24.41&#10;495,24.41&#10;497.64,24.41&#10;500.29,24.41&#10;502.93,24.41&#10;505.57,24.41&#10;508.22,24.41&#10;510.86,24.41&#10;513.51,24.41&#10;516.15,24.41&#10;516.15,24.42"/><polyline class="range" points="334.81,25.64&#10;334.81,26.86&#10;380.54,26.86&#10;380.54,25.64"/><polyline class="range" points="391.91,25.64&#10;391.91,26.86&#10;412,26.86&#10;412,25.64"/><polyline class="range" points="292.25,28.08&#10;292.25,29.3&#10;316.57,29.3&#10;316.57,28.08"/><polyline class="range" points="333.75,28.08&#10;333.75,29.3&#10;442.93,29.3&#10;442.93,28.08"/></g><g id="itemarea47" transform="translate(0 420.3)"><polygon class="main" points="294.1,24.42&#10;294.1,24.42&#10;296.75,24.18&#10;299.39,24.05&#10;302.03,24.03&#10;304.68,23.77&#10;307.32,23.35&#10;309.96,23.78&#10;312.61,23.93&#10;315.25,24.02&#10;317.89,24.04&#10;320.54,24.09&#10;323.18,24.21&#10;325.82,24.12&#10;328.47,24.17&#10;331.11,24.19&#10;333.75,24.22&#10;336.4,24.15&#10;339.04,23.53&#10;341.68,21.74&#10;344.33,21.45&#10;346.97,20.91&#10;349.61,20.62&#10;352.26,20.29&#10;354.9,20.31&#10;357.54,20.43&#10;360.19,20.59&#10;362.83,20.21&#10;365.47,20.04&#10;368.12,19.75&#10;370.76,19.2&#10;373.4,18.61&#10;376.05,18.54&#10;378.69,18.31&#10;381.33,18.49&#10;383.98,18.87&#10;386.62,19.02&#10;389.26,18.98&#10;391.91,18.98&#10;394.55,19.01&#10;397.2,18.75&#10;399.84,18.74&#10;402.48,18.54&#10;405.13,18.63&#10;407.77,18.9&#10;410.41,18.9&#10;413.06,19.09&#10;415.7,19.08&#10;418.34,19.31&#10;420.99,19.73&#10;423.63,19.67&#10;426.27,20.05&#10;428.92,20.1&#10;431.56,20.36&#10;434.2,20.61&#10;436.85,20.97&#10;439.49,21&#10;442.13,21.29&#10;444.78,21.55&#10;447.42,21.75&#10;450.06,21.95&#10;452.71,22.33&#10;455.35,22.49&#10;457.99,22.79&#10;460.64,23.06&#10;463.28,23.18&#10;465.92,23.22&#10;468.57,23.45&#10;471.21,23.57&#10;473.85,23.63&#10;476.5,23.77&#10;479.14,23.9&#10;481.78,23.95&#10;484.43,24.01&#10;487.07,24.03&#10;489.71,24.1&#10;492.36,24.18&#10;495,24.17&#10;497.64,24.22&#10;500.29,24.26&#10;502.93,24.27&#10;505.57,24.29&#10;508.22,24.3&#10;510.86,24.33&#10;513.51,24.33&#10;516.15,24.35&#10;518.79,24.36&#10;521.44,24.36&#10;524.08,24.36&#10;526.72,24.37&#10;529.37,24.38&#10;532.01,24.38&#10;534.65,24.39&#10;537.3,24.39&#10;539.94,24.4&#10;542.58,24.39&#10;545.23,24.4&#10;547.87,24.4&#10;550.51,24.4&#10;553.16,24.4&#10;555.8,24.4&#10;558.44,24.4&#10;561.09,24.41&#10;563.73,24.41&#10;566.37,24.41&#10;569.02,24.41&#10;571.66,24.41&#10;574.3,24.41&#10;576.95,24.41&#10;579.59,24.41&#10;582.23,24.41&#10;584.88,24.41&#10;587.52,24.41&#10;590.16,24.41&#10;592.81,24.41&#10;595.45,24.41&#10;598.09,24.41&#10;600.74,24.41&#10;603.38,24.41&#10;606.02,24.41&#10;608.67,24.41&#10;611.31,24.41&#10;613.95,24.41&#10;616.6,24.41&#10;619.24,24.41&#10;621.88,24.41&#10;624.53,24.41&#10;627.17,24.41&#10;629.81,24.41&#10;632.46,24.41&#10;635.1,24.41&#10;637.75,24.41&#10;640.39,24.41&#10;643.03,24.41&#10;645.68,24.41&#10;648.32,24.41&#10;650.96,24.42&#10;653.61,24.41&#10;656.25,24.41&#10;658.89,24.41&#10;661.54,24.41&#10;664.18,24.42&#10;666.82,24.42&#10;669.47,24.42&#10;672.11,24.42&#10;674.75,24.42&#10;677.4,24.42&#10;680.04,24.42&#10;682.68,24.42&#10;685.33,24.42&#10;687.97,24.42&#10;690.61,24.42&#10;693.26,24.42&#10;695.9,24.42&#10;698.54,24.41&#10;701.19,24.42&#10;703.83,24.42&#10;706.47,24.42&#10;709.12,24.42&#10;711.76,24.42&#10;714.4,24.41&#10;717.05,24.41&#10;719.69,24.42&#10;722.33,24.42&#10;724.98,24.42&#10;727.62,24.42&#10;730.26,24.42&#10;732.91,24.41&#10;735.55,24.42&#10;738.19,24.42&#10;740.84,24.42&#10;743.48,24.42&#10;746.12,24.42&#10;748.77,24.42&#10;751.41,24.41&#10;754.06,24.42&#10;756.7,24.42&#10;759.34,24.41&#10;761.99,24.42&#10;764.63,24.42&#10;767.27,24.42&#10;769.92,24.41&#10;772.56,24.42&#10;775.2,24.42&#10;777.85,24.42&#10;780.49,24.42&#10;783.13,24.42&#10;785.78,24.42&#10;788.42,24.42&#10;791.06,24.42&#10;793.71,24.42&#10;796.35,24.42&#10;798.99,24.42&#10;801.64,24.41&#10;804.28,24.42&#10;806.92,24.42&#10;809.57,24.42&#10;809.57,24.42"/><polyline class="range" points="351.46,25.64&#10;351.46,26.86&#10;356.22,26.86&#10;356.22,25.64"/><polyline class="range" points="361.77,25.64&#10;361.77,26.86&#10;431.82,26.86&#10;431.82,25.64"/><polyline class="range" points="304.68,28.08&#10;304.68,29.3&#10;309.96,29.3&#10;309.96,28.08"/><polyline class="range" points="337.98,28.08&#10;337.98,29.3&#10;476.5,29.3&#10;476.5,28.08"/></g></g></g><g id="textarea" transform="translate(14.15 14.15)"><g id="itemarea9" transform="translate(0 -4.2)"><text transform="translate(0 2.91)" style="font-size:7.27pt" x="7.22" y="24.42">Sequence Westness Pictish burials [Amodel:98]</text></g><g id="itemarea10" transform="translate(0 16.01)"><text transform="translate(0 2.91)" style="font-size:7.27pt;font-style:italic" x="12.03" y="24.42">Boundary start Pictish burials</text></g><g id="itemarea11" transform="translate(0 36.23)"><text transform="translate(0 2.91)" style="font-size:7.27pt" x="12.03" y="24.42">Phase Pictish burials</text></g><g id="itemarea12" transform="translate(0 56.44)"><text transform="translate(0 2.91)" style="font-size:7.27pt" x="16.84" y="24.42">* = revised d13C from Barrett &amp; Richards 2004</text></g><g id="itemarea13" transform="translate(0 76.66)"><text transform="translate(0 2.91)" style="font-size:7.27pt" x="16.84" y="24.42"></text></g><g id="itemarea15" transform="translate(0 96.87)"><text transform="translate(0 2.91)" style="font-size:7.27pt;font-style:italic" x="16.84" y="24.42">R_Date T-6529: grave 25 * [A:92]</text></g><g id="itemarea17" transform="translate(0 117.08)"><text transform="translate(0 2.91)" style="font-size:7.27pt;font-style:italic" x="16.84" y="24.42">R_Date TO-7196: grave 7 [A:114]</text></g><g id="itemarea19" transform="translate(0 137.3)"><text transform="translate(0 2.91)" style="font-size:7.27pt;font-style:italic" x="16.84" y="24.42">R_Date T-7471: grave 28a * [A:106]</text></g><g id="itemarea21" transform="translate(0 157.51)"><text transform="translate(0 2.91)" style="font-size:7.27pt;font-style:italic" x="16.84" y="24.42">R_Date T-7470: grave 32 * [A:106]</text></g><g id="itemarea23" transform="translate(0 177.73)"><text transform="translate(0 2.91)" style="font-size:7.27pt;font-style:italic" x="16.84" y="24.42">R_Date T-7468: grave 21 * [A:100]</text></g><g id="itemarea25" transform="translate(0 197.94)"><text transform="translate(0 2.91)" style="font-size:7.27pt;font-style:italic" x="16.84" y="24.42">R_Date T-6528: grave 20 * [A:105]</text></g><g id="itemarea27" transform="translate(0 218.16)"><text transform="translate(0 2.91)" style="font-size:7.27pt;font-style:italic" x="16.84" y="24.42">R_Date T-7466: grave 24 * [A:101]</text></g><g id="itemarea29" transform="translate(0 238.37)"><text transform="translate(0 2.91)" style="font-size:7.27pt;font-style:italic" x="16.84" y="24.42">R_Date T-6527: grave 10 * [A:103]</text></g><g id="itemarea31" transform="translate(0 258.59)"><text transform="translate(0 2.91)" style="font-size:7.27pt;font-style:italic" x="16.84" y="24.42">R_Date T-7465: grave 13 [A:102]</text></g><g id="itemarea33" transform="translate(0 278.8)"><text transform="translate(0 2.91)" style="font-size:7.27pt;font-style:italic" x="16.84" y="24.42">R_Date T-6817: grave 26 * [A:114]</text></g><g id="itemarea35" transform="translate(0 299.01)"><text transform="translate(0 2.91)" style="font-size:7.27pt;font-style:italic" x="16.84" y="24.42">R_Date T-7469: grave 19 [A:103]</text></g><g id="itemarea37" transform="translate(0 319.23)"><text transform="translate(0 2.91)" style="font-size:7.27pt;font-style:italic" x="16.84" y="24.42">R_Date T-6813: grave 6 [A:106]</text></g><g id="itemarea39" transform="translate(0 339.44)"><text transform="translate(0 2.91)" style="font-size:7.27pt;font-style:italic" x="16.84" y="24.42">R_Date T-6816: grave 18 [A:98]</text></g><g id="itemarea41" transform="translate(0 359.66)"><text transform="translate(0 2.91)" style="font-size:7.27pt;font-style:italic" x="16.84" y="24.42">R_Date T-7464: grave 9 [A:80]</text></g><g id="itemarea43" transform="translate(0 379.87)"><text transform="translate(0 2.91)" style="font-size:7.27pt;font-style:italic" x="16.84" y="24.42">R_Date TO-7198: grave 15 [A:77]</text></g><g id="itemarea45" transform="translate(0 400.09)"><text transform="translate(0 2.91)" style="font-size:7.27pt;font-style:italic" x="16.84" y="24.42">R_Date T-7467: grave 17 [A:64]</text></g><g id="itemarea47" transform="translate(0 420.3)"><text transform="translate(0 2.91)" style="font-size:7.27pt;font-style:italic" x="12.03" y="24.42">Boundary end Pictish burials</text></g></g><rect class="border" x="14.15" width="481.1" y="14.15" height="464.93"/><g><line class="gridline" x1="46.29" y1="479.08" x2="46.29" y2="14.15"/><line class="gridline" x1="99.16" y1="479.08" x2="99.16" y2="14.15"/><line class="gridline" x1="152.03" y1="479.08" x2="152.03" y2="14.15"/><line class="gridline" x1="204.9" y1="479.08" x2="204.9" y2="14.15"/><line class="gridline" x1="257.76" y1="479.08" x2="257.76" y2="14.15"/><line class="gridline" x1="310.63" y1="479.08" x2="310.63" y2="14.15"/><line class="gridline" x1="363.5" y1="479.08" x2="363.5" y2="14.15"/><line class="gridline" x1="416.37" y1="479.08" x2="416.37" y2="14.15"/><line class="gridline" x1="469.24" y1="479.08" x2="469.24" y2="14.15"/></g><g><line class="majorpip" x1="14.15" y1="479.08" x2="495.25" y2="479.08"/><line class="minorpip" x1="19.86" y1="479.08" x2="19.86" y2="476.25"/><line class="minorpip" x1="33.07" y1="479.08" x2="33.07" y2="476.25"/><line class="minorpip" x1="46.29" y1="479.08" x2="46.29" y2="476.25"/><line class="minorpip" x1="59.51" y1="479.08" x2="59.51" y2="476.25"/><line class="minorpip" x1="72.72" y1="479.08" x2="72.72" y2="476.25"/><line class="minorpip" x1="85.94" y1="479.08" x2="85.94" y2="476.25"/><line class="minorpip" x1="99.16" y1="479.08" x2="99.16" y2="476.25"/><line class="minorpip" x1="112.38" y1="479.08" x2="112.38" y2="476.25"/><line class="minorpip" x1="125.59" y1="479.08" x2="125.59" y2="476.25"/><line class="minorpip" x1="138.81" y1="479.08" x2="138.81" y2="476.25"/><line class="minorpip" x1="152.03" y1="479.08" x2="152.03" y2="476.25"/><line class="minorpip" x1="165.24" y1="479.08" x2="165.24" y2="476.25"/><line class="minorpip" x1="178.46" y1="479.08" x2="178.46" y2="476.25"/><line class="minorpip" x1="191.68" y1="479.08" x2="191.68" y2="476.25"/><line class="minorpip" x1="204.9" y1="479.08" x2="204.9" y2="476.25"/><line class="minorpip" x1="218.11" y1="479.08" x2="218.11" y2="476.25"/><line class="minorpip" x1="231.33" y1="479.08" x2="231.33" y2="476.25"/><line class="minorpip" x1="244.55" y1="479.08" x2="244.55" y2="476.25"/><line class="minorpip" x1="257.76" y1="479.08" x2="257.76" y2="476.25"/><line class="minorpip" x1="270.98" y1="479.08" x2="270.98" y2="476.25"/><line class="minorpip" x1="284.2" y1="479.08" x2="284.2" y2="476.25"/><line class="minorpip" x1="297.41" y1="479.08" x2="297.41" y2="476.25"/><line class="minorpip" x1="310.63" y1="479.08" x2="310.63" y2="476.25"/><line class="minorpip" x1="323.85" y1="479.08" x2="323.85" y2="476.25"/><line class="minorpip" x1="337.07" y1="479.08" x2="337.07" y2="476.25"/><line class="minorpip" x1="350.28" y1="479.08" x2="350.28" y2="476.25"/><line class="minorpip" x1="363.5" y1="479.08" x2="363.5" y2="476.25"/><line class="minorpip" x1="376.72" y1="479.08" x2="376.72" y2="476.25"/><line class="minorpip" x1="389.93" y1="479.08" x2="389.93" y2="476.25"/><line class="minorpip" x1="403.15" y1="479.08" x2="403.15" y2="476.25"/><line class="minorpip" x1="416.37" y1="479.08" x2="416.37" y2="476.25"/><line class="minorpip" x1="429.58" y1="479.08" x2="429.58" y2="476.25"/><line class="minorpip" x1="442.8" y1="479.08" x2="442.8" y2="476.25"/><line class="minorpip" x1="456.02" y1="479.08" x2="456.02" y2="476.25"/><line class="minorpip" x1="469.24" y1="479.08" x2="469.24" y2="476.25"/><line class="minorpip" x1="482.45" y1="479.08" x2="482.45" y2="476.25"/><line class="majorpip" x1="46.29" y1="479.08" x2="46.29" y2="473.42"/><text transform="translate(0 8.44)" style="font-size:7.27pt;text-anchor:middle" x="46.29" y="479.08">200</text><line class="majorpip" x1="99.16" y1="479.08" x2="99.16" y2="473.42"/><text transform="translate(0 8.44)" style="font-size:7.27pt;text-anchor:middle" x="99.16" y="479.08">300</text><line class="majorpip" x1="152.03" y1="479.08" x2="152.03" y2="473.42"/><text transform="translate(0 8.44)" style="font-size:7.27pt;text-anchor:middle" x="152.03" y="479.08">400</text><line class="majorpip" x1="204.9" y1="479.08" x2="204.9" y2="473.42"/><text transform="translate(0 8.44)" style="font-size:7.27pt;text-anchor:middle" x="204.9" y="479.08">500</text><line class="majorpip" x1="257.76" y1="479.08" x2="257.76" y2="473.42"/><text transform="translate(0 8.44)" style="font-size:7.27pt;text-anchor:middle" x="257.76" y="479.08">600</text><line class="majorpip" x1="310.63" y1="479.08" x2="310.63" y2="473.42"/><text transform="translate(0 8.44)" style="font-size:7.27pt;text-anchor:middle" x="310.63" y="479.08">700</text><line class="majorpip" x1="363.5" y1="479.08" x2="363.5" y2="473.42"/><text transform="translate(0 8.44)" style="font-size:7.27pt;text-anchor:middle" x="363.5" y="479.08">800</text><line class="majorpip" x1="416.37" y1="479.08" x2="416.37" y2="473.42"/><text transform="translate(0 8.44)" style="font-size:7.27pt;text-anchor:middle" x="416.37" y="479.08">900</text><line class="majorpip" x1="469.24" y1="479.08" x2="469.24" y2="473.42"/><text transform="translate(0 8.44)" style="font-size:7.27pt;text-anchor:middle" x="469.24" y="479.08">1000</text><text transform="translate(0 2.91)" style="font-size:7.27pt;text-anchor:middle;font-style:italic" x="254.7" y="507.38">Modelled date (AD)</text></g><g id="references" transform="translate(0 0)"><text transform="translate(0 -1.05)" style="font-size:4.36pt" x="14.15" y="14.15">OxCal v4.4.4 Bronk Ramsey (2021); r:5</text><text transform="translate(0 -1.05)" style="font-size:4.36pt" x="305.64" y="22.13">Atmospheric data from Reimer et al (2020)</text><text transform="translate(0 -1.05)" style="font-size:4.36pt;fill:#00ff00" x="305.64" y="27.27">Marine data from Heaton et al (2020)</text></g></g></g>
</svg>